<svg xmlns="http://www.w3.org/2000/svg" xmlns:xlink="http://www.w3.org/1999/xlink" width="500" zoomAndPan="magnify" viewBox="0 0 375 374.999991" height="500" preserveAspectRatio="xMidYMid meet" version="1.0"><defs><clipPath id="76a44cb1dd"><path d="M 37.5 37.5 L 337.5 37.5 L 337.5 337.5 L 37.5 337.5 Z M 37.5 37.5 " clip-rule="nonzero"/></clipPath><clipPath id="db12596e9f"><path d="M 54.75 37.5 L 320.25 37.5 C 324.824219 37.5 329.210938 39.316406 332.449219 42.550781 C 335.683594 45.789062 337.5 50.175781 337.5 54.75 L 337.5 320.25 C 337.5 324.824219 335.683594 329.210938 332.449219 332.449219 C 329.210938 335.683594 324.824219 337.5 320.25 337.5 L 54.75 337.5 C 50.175781 337.5 45.789062 335.683594 42.550781 332.449219 C 39.316406 329.210938 37.5 324.824219 37.5 320.25 L 37.5 54.75 C 37.5 50.175781 39.316406 45.789062 42.550781 42.550781 C 45.789062 39.316406 50.175781 37.5 54.75 37.5 Z M 54.75 37.5 " clip-rule="nonzero"/></clipPath></defs><g clip-path="url(#76a44cb1dd)"><g clip-path="url(#db12596e9f)"><path fill="#000000" d="M 129.75 18.75 L 186 18.75 L 186 56.25 L 129.75 56.25 Z M 204.75 18.75 L 261 18.75 L 261 56.25 L 204.75 56.25 Z M 279.75 18.75 L 320.25 18.75 C 330.191406 18.75 338.675781 22.265625 345.707031 29.292969 C 346.804688 30.394531 347.828125 31.558594 348.777344 32.792969 L 319.0625 55.664062 C 319.101562 55.714844 319.144531 55.765625 319.1875 55.8125 C 319.480469 56.105469 319.835938 56.25 320.25 56.25 L 279.75 56.25 Z M 356.25 62.195312 L 356.25 118.445312 L 318.75 118.445312 L 318.75 62.195312 Z M 356.25 137.195312 L 356.25 193.445312 L 318.75 193.445312 L 318.75 137.195312 Z M 356.25 212.195312 L 356.25 268.445312 L 318.75 268.445312 L 318.75 212.195312 Z M 356.25 287.195312 L 356.25 320.25 C 356.25 330.191406 352.734375 338.675781 345.707031 345.707031 C 340.8125 350.597656 334.992188 353.8125 328.246094 355.351562 L 319.917969 318.789062 C 319.636719 318.851562 319.394531 318.984375 319.1875 319.1875 C 318.894531 319.480469 318.75 319.835938 318.75 320.25 L 318.75 287.195312 Z M 305.355469 356.25 L 249.105469 356.25 L 249.105469 318.75 L 305.355469 318.75 Z M 230.355469 356.25 L 174.105469 356.25 L 174.105469 318.75 L 230.355469 318.75 Z M 155.355469 356.25 L 99.105469 356.25 L 99.105469 318.75 L 155.355469 318.75 Z M 80.355469 356.25 L 54.75 356.25 C 44.808594 356.25 36.324219 352.734375 29.292969 345.707031 C 22.265625 338.675781 18.75 330.191406 18.75 320.25 L 18.75 316.660156 L 56.25 316.660156 L 56.25 320.25 C 56.25 319.835938 56.105469 319.480469 55.8125 319.1875 C 55.519531 318.894531 55.164062 318.75 54.75 318.75 L 80.355469 318.75 Z M 18.75 297.910156 L 18.75 241.660156 L 56.25 241.660156 L 56.25 297.910156 Z M 18.75 222.910156 L 18.75 166.660156 L 56.25 166.660156 L 56.25 222.910156 Z M 18.75 147.910156 L 18.75 91.660156 L 56.25 91.660156 L 56.25 147.910156 Z M 18.75 72.910156 L 18.75 54.75 C 18.75 44.808594 22.265625 36.324219 29.292969 29.292969 C 36.324219 22.265625 44.808594 18.75 54.75 18.75 L 111 18.75 L 111 56.25 L 54.75 56.25 C 55.164062 56.25 55.519531 56.105469 55.8125 55.8125 C 56.105469 55.519531 56.25 55.164062 56.25 54.75 L 56.25 72.910156 Z M 18.75 72.910156 " fill-opacity="1" fill-rule="nonzero"/></g></g><path fill="#cc2a2e" d="M 119.320312 83.527344 L 187.5 151.703125 L 255.675781 83.527344 C 279.539062 59.664062 315.332031 95.457031 291.46875 119.320312 L 223.292969 187.5 L 291.46875 255.675781 C 315.332031 279.539062 279.539062 315.332031 255.675781 291.46875 L 187.5 223.292969 L 119.320312 291.46875 C 95.457031 315.332031 59.664062 279.539062 83.527344 255.675781 L 151.703125 187.5 L 83.527344 119.320312 C 59.664062 95.457031 95.457031 59.664062 119.320312 83.527344 Z M 119.320312 83.527344 " fill-opacity="1" fill-rule="evenodd"/></svg>