<svg xmlns="http://www.w3.org/2000/svg" xmlns:xlink="http://www.w3.org/1999/xlink" width="500" zoomAndPan="magnify" viewBox="0 0 375 374.999991" height="500" preserveAspectRatio="xMidYMid meet" version="1.0"><defs><clipPath id="517020900d"><path d="M 11.140625 6.914062 L 363.640625 6.914062 L 363.640625 359.414062 L 11.140625 359.414062 Z M 11.140625 6.914062 " clip-rule="nonzero"/></clipPath></defs><g clip-path="url(#517020900d)"><path fill="#000000" d="M 363.726562 95.398438 C 363.726562 46.53125 324.113281 6.914062 275.246094 6.914062 C 223.335938 6.914062 151.535156 6.914062 99.625 6.914062 C 50.757812 6.914062 11.140625 46.53125 11.140625 95.398438 C 11.140625 147.308594 11.140625 219.109375 11.140625 271.019531 C 11.140625 319.886719 50.757812 359.5 99.625 359.5 C 151.535156 359.5 223.335938 359.5 275.246094 359.5 C 324.113281 359.5 363.726562 319.886719 363.726562 271.019531 Z M 319.65625 95.394531 L 319.65625 271.019531 C 319.65625 295.546875 299.773438 315.429688 275.246094 315.429688 C 275.246094 315.429688 99.625 315.429688 99.625 315.429688 C 75.097656 315.429688 55.214844 295.546875 55.214844 271.019531 C 55.214844 271.019531 55.214844 95.398438 55.214844 95.398438 C 55.214844 70.871094 75.097656 50.988281 99.621094 50.988281 C 99.625 50.988281 275.246094 50.988281 275.246094 50.988281 C 299.773438 50.988281 319.65625 70.871094 319.65625 95.394531 Z M 165.398438 161.171875 L 110.304688 161.171875 C 98.144531 161.171875 88.269531 171.042969 88.269531 183.207031 C 88.269531 195.371094 98.144531 205.246094 110.304688 205.246094 L 165.398438 205.246094 L 165.398438 260.335938 C 165.398438 272.5 175.273438 282.375 187.4375 282.375 C 199.597656 282.375 209.472656 272.5 209.472656 260.335938 L 209.472656 205.246094 L 264.5625 205.246094 C 276.726562 205.246094 286.601562 195.371094 286.601562 183.207031 C 286.601562 171.042969 276.726562 161.171875 264.5625 161.171875 L 209.472656 161.171875 L 209.472656 106.078125 C 209.472656 93.917969 199.597656 84.042969 187.4375 84.042969 C 175.273438 84.042969 165.398438 93.917969 165.398438 106.078125 Z M 165.398438 161.171875 " fill-opacity="1" fill-rule="evenodd"/></g></svg>