<svg xmlns="http://www.w3.org/2000/svg" xmlns:xlink="http://www.w3.org/1999/xlink" width="500" zoomAndPan="magnify" viewBox="0 0 375 374.999991" height="500" preserveAspectRatio="xMidYMid meet" version="1.0"><defs><clipPath id="3984e4849e"><path d="M 151 8.386719 L 259 8.386719 L 259 110 L 151 110 Z M 151 8.386719 " clip-rule="nonzero"/></clipPath><clipPath id="5eddfa7282"><path d="M 116.070312 120 L 294.570312 120 L 294.570312 361.636719 L 116.070312 361.636719 Z M 116.070312 120 " clip-rule="nonzero"/></clipPath><clipPath id="bbbc377093"><path d="M 80.5625 234.460938 L 212.5625 234.460938 L 212.5625 366.460938 L 80.5625 366.460938 Z M 80.5625 234.460938 " clip-rule="nonzero"/></clipPath></defs><g clip-path="url(#3984e4849e)"><path fill="#000000" d="M 208.460938 109.023438 L 202.101562 109.023438 C 174.402344 109.023438 151.867188 86.5 151.867188 58.820312 C 151.867188 31.140625 174.402344 8.621094 202.101562 8.621094 L 208.460938 8.621094 C 236.160156 8.621094 258.695312 31.140625 258.695312 58.820312 C 258.695312 86.5 236.160156 109.023438 208.460938 109.023438 Z M 202.101562 23.296875 C 182.5 23.296875 166.554688 39.230469 166.554688 58.820312 C 166.554688 78.410156 182.5 94.347656 202.101562 94.347656 L 208.460938 94.347656 C 228.0625 94.347656 244.007812 78.410156 244.007812 58.820312 C 244.007812 39.230469 228.0625 23.296875 208.460938 23.296875 Z M 202.101562 23.296875 " fill-opacity="1" fill-rule="nonzero"/></g><g clip-path="url(#5eddfa7282)"><path fill="#000000" d="M 274.273438 361.328125 L 136.289062 361.328125 C 125.125 361.328125 116.042969 352.253906 116.042969 341.09375 L 116.042969 315.394531 C 116.042969 304.238281 125.125 295.164062 136.289062 295.164062 L 151.867188 295.164062 L 151.867188 186.75 L 136.289062 186.75 C 125.125 186.75 116.042969 177.671875 116.042969 166.515625 L 116.042969 140.816406 C 116.042969 129.660156 125.125 120.582031 136.289062 120.582031 L 238.449219 120.582031 C 249.613281 120.582031 258.695312 129.660156 258.695312 140.816406 L 258.695312 295.164062 L 274.273438 295.164062 C 285.4375 295.164062 294.519531 304.238281 294.519531 315.394531 L 294.519531 341.09375 C 294.519531 352.253906 285.4375 361.328125 274.273438 361.328125 Z M 136.289062 309.839844 C 133.222656 309.839844 130.730469 312.332031 130.730469 315.394531 L 130.730469 341.09375 C 130.730469 344.160156 133.222656 346.652344 136.289062 346.652344 L 274.273438 346.652344 C 277.339844 346.652344 279.835938 344.160156 279.835938 341.09375 L 279.835938 315.394531 C 279.835938 312.332031 277.339844 309.839844 274.273438 309.839844 L 251.351562 309.839844 C 247.296875 309.839844 244.007812 306.554688 244.007812 302.5 L 244.007812 140.816406 C 244.007812 137.753906 241.515625 135.257812 238.449219 135.257812 L 136.289062 135.257812 C 133.222656 135.257812 130.730469 137.753906 130.730469 140.816406 L 130.730469 166.515625 C 130.730469 169.582031 133.222656 172.074219 136.289062 172.074219 L 159.210938 172.074219 C 163.265625 172.074219 166.554688 175.359375 166.554688 179.410156 L 166.554688 302.5 C 166.554688 306.554688 163.265625 309.839844 159.210938 309.839844 Z M 136.289062 309.839844 " fill-opacity="1" fill-rule="nonzero"/></g><g clip-path="url(#bbbc377093)"><path fill="#000000" d="M 146.640625 366.613281 C 183.144531 366.613281 212.714844 337.042969 212.714844 300.539062 C 212.714844 264.03125 183.144531 234.460938 146.640625 234.460938 C 110.132812 234.460938 80.5625 264.03125 80.5625 300.539062 C 80.5625 337.042969 110.132812 366.613281 146.640625 366.613281 Z M 146.640625 366.613281 " fill-opacity="1" fill-rule="evenodd"/></g><path fill="#ffffff" d="M 151.722656 262.390625 C 151.722656 261.011719 150.585938 259.875 149.15625 259.875 L 144.125 259.875 C 142.640625 259.875 141.558594 261.011719 141.558594 262.390625 L 141.558594 295.453125 L 108.492188 295.453125 C 107.117188 295.453125 105.976562 296.59375 105.976562 298.023438 L 105.976562 303.050781 C 105.976562 304.535156 107.117188 305.621094 108.492188 305.621094 L 141.558594 305.621094 L 141.558594 338.683594 C 141.558594 340.0625 142.695312 341.199219 144.125 341.199219 L 149.15625 341.199219 C 150.636719 341.199219 151.722656 340.0625 151.722656 338.683594 L 151.722656 305.621094 L 184.789062 305.621094 C 186.164062 305.621094 187.300781 304.480469 187.300781 303.050781 L 187.300781 298.023438 C 187.300781 296.539062 186.164062 295.453125 184.789062 295.453125 L 151.722656 295.453125 Z M 151.722656 262.390625 " fill-opacity="1" fill-rule="evenodd"/></svg>