<svg xmlns="http://www.w3.org/2000/svg" xmlns:xlink="http://www.w3.org/1999/xlink" width="500" zoomAndPan="magnify" viewBox="0 0 375 374.999991" height="500" preserveAspectRatio="xMidYMid meet" version="1.0"><defs><clipPath id="748342b990"><path d="M 212 219 L 361.386719 219 L 361.386719 368.894531 L 212 368.894531 Z M 212 219 " clip-rule="nonzero"/></clipPath></defs><path fill="#000000" d="M 208.769531 96.976562 C 208.769531 92.90625 209.765625 89.089844 211.511719 85.714844 C 213.0625 82.710938 213.199219 79.195312 211.890625 76.082031 C 202.777344 54.472656 180.550781 38.78125 156.507812 38.574219 L 155.953125 38.574219 C 130.503906 38.574219 108.140625 53.640625 98.65625 75.859375 C 97.289062 79.070312 97.523438 82.679688 99.125 85.792969 C 100.851562 89.148438 101.828125 92.945312 101.828125 96.976562 L 101.828125 104.957031 C 102.753906 110.527344 102.511719 115.816406 102.324219 120.128906 C 102.246094 122.003906 102.160156 123.769531 102.179688 125.332031 C 102.285156 127.796875 102.246094 130.1875 102.199219 132.308594 C 102.199219 132.84375 102.179688 133.4375 102.179688 134.054688 L 115.691406 137.242188 C 117.867188 136.542969 120.191406 136.171875 122.542969 136.171875 L 143.304688 136.171875 C 155.746094 136.171875 165.828125 146.25 165.828125 158.691406 L 165.828125 163.003906 C 165.828125 175.445312 155.746094 185.523438 143.304688 185.523438 L 135.746094 185.523438 C 150.789062 193.214844 168.5 192.128906 183.164062 181.535156 C 194.699219 173.191406 204.320312 163.558594 209.8125 151.597656 C 209.199219 149.578125 208.847656 147.460938 208.789062 145.285156 C 208.769531 145.039062 208.769531 144.765625 208.769531 144.523438 L 208.769531 96.976562 " fill-opacity="1" fill-rule="nonzero"/><path fill="#000000" d="M 64.699219 154.679688 L 77.285156 154.679688 C 77.335938 154.679688 77.394531 154.660156 77.441406 154.660156 L 99.300781 160.683594 L 116.738281 164.78125 C 116.863281 165.210938 117.050781 165.617188 117.273438 166.007812 C 118.308594 167.84375 120.277344 169.074219 122.542969 169.074219 L 143.304688 169.074219 C 146.664062 169.074219 149.375 166.359375 149.375 163.003906 L 149.375 158.691406 C 149.375 155.335938 146.664062 152.621094 143.304688 152.621094 L 122.542969 152.621094 C 120.726562 152.621094 119.109375 153.402344 117.996094 154.679688 L 88.773438 147.8125 C 88.070312 147.214844 87.582031 146.613281 87.296875 146.007812 C 87.367188 145.507812 87.445312 145.03125 87.445312 144.523438 L 87.445312 96.976562 C 87.445312 91.746094 83.484375 87.492188 78.398438 86.925781 C 78.515625 86.300781 78.632812 85.695312 78.742188 85.148438 C 85.6875 48.234375 118.484375 21.792969 156.65625 22.125 C 193.15625 22.445312 225.816406 49.90625 231.777344 85.929688 C 231.835938 86.269531 231.835938 86.621094 231.855469 86.964844 C 226.949219 87.683594 223.171875 91.871094 223.171875 96.976562 L 223.171875 144.523438 C 223.171875 150.125 227.71875 154.679688 233.328125 154.679688 L 245.917969 154.679688 C 251.527344 154.679688 256.074219 150.125 256.074219 144.523438 L 256.074219 96.976562 C 256.074219 91.363281 251.527344 86.816406 245.917969 86.816406 L 245.664062 86.816406 C 244.765625 82.320312 244.210938 77.703125 242.902344 73.371094 C 231.035156 33.921875 192.027344 5.917969 151.992188 8.40625 C 107.410156 11.15625 72.894531 41.308594 65.121094 83.664062 C 64.925781 84.75 64.613281 85.800781 64.261719 86.855469 C 58.863281 87.089844 54.542969 91.511719 54.542969 96.976562 L 54.542969 144.523438 C 54.542969 150.125 59.089844 154.679688 64.699219 154.679688 " fill-opacity="1" fill-rule="nonzero"/><path fill="#000000" d="M 213.308594 233.660156 L 226.175781 220.789062 C 231.582031 215.382812 238.765625 212.40625 246.414062 212.40625 C 248.804688 212.40625 251.15625 212.699219 253.429688 213.265625 C 255.410156 209.96875 258.046875 207.109375 261.136719 204.84375 C 247.800781 193.449219 230.820312 185.90625 211.492188 183.347656 C 200.4375 209.527344 176.960938 212.652344 153.453125 212.367188 C 131.390625 212.105469 109.417969 208.269531 98.957031 183.222656 C 54.785156 190.246094 26.742188 217.558594 19.484375 260.285156 C 13.421875 295.949219 29.574219 319.113281 65.695312 320.140625 C 109.710938 321.386719 153.785156 321.738281 197.832031 321.152344 C 194.085938 316.316406 191.851562 310.246094 191.851562 303.667969 L 191.851562 285.460938 C 191.851562 275.039062 197.449219 265.898438 205.804688 260.902344 C 203.441406 251.457031 205.941406 241.035156 213.308594 233.660156 " fill-opacity="1" fill-rule="nonzero"/><g clip-path="url(#748342b990)"><path fill="#000000" d="M 287.082031 324.941406 C 270.503906 324.941406 257.070312 311.503906 257.070312 294.925781 C 257.070312 278.347656 270.503906 264.910156 287.082031 264.910156 C 303.660156 264.910156 317.097656 278.347656 317.097656 294.925781 C 317.097656 311.503906 303.660156 324.941406 287.082031 324.941406 Z M 353.707031 277.421875 L 346.007812 277.421875 C 344.722656 273.089844 342.976562 268.960938 340.820312 265.085938 L 346.320312 259.585938 C 349.464844 256.441406 349.464844 251.339844 346.320312 248.195312 L 333.453125 235.328125 C 330.308594 232.183594 325.214844 232.183594 322.066406 235.328125 L 316.464844 240.9375 C 312.621094 238.839844 308.519531 237.140625 304.238281 235.902344 L 304.238281 227.941406 C 304.238281 223.5 300.636719 219.898438 296.1875 219.898438 L 277.980469 219.898438 C 273.539062 219.898438 269.941406 223.5 269.941406 227.941406 L 269.941406 235.902344 C 265.648438 237.140625 261.558594 238.839844 257.714844 240.9375 L 252.101562 235.328125 C 248.960938 232.183594 243.859375 232.183594 240.714844 235.328125 L 227.847656 248.195312 C 224.703125 251.339844 224.703125 256.441406 227.847656 259.585938 L 233.347656 265.085938 C 231.191406 268.960938 229.445312 273.089844 228.15625 277.421875 L 220.460938 277.421875 C 216.011719 277.421875 212.417969 281.023438 212.417969 285.460938 L 212.417969 303.667969 C 212.417969 308.117188 216.011719 311.71875 220.460938 311.71875 L 227.953125 311.71875 C 229.203125 316.140625 230.9375 320.34375 233.105469 324.296875 L 227.847656 329.554688 C 224.703125 332.699219 224.703125 337.789062 227.847656 340.933594 L 240.714844 353.804688 C 243.859375 356.945312 248.960938 356.945312 252.101562 353.804688 L 257.246094 348.660156 C 261.226562 350.875 265.480469 352.660156 269.941406 353.949219 L 269.941406 361.191406 C 269.941406 365.640625 273.539062 369.238281 277.980469 369.238281 L 296.1875 369.238281 C 300.636719 369.238281 304.238281 365.640625 304.238281 361.191406 L 304.238281 353.949219 C 308.695312 352.660156 312.941406 350.875 316.921875 348.660156 L 322.066406 353.804688 C 325.214844 356.945312 330.308594 356.945312 333.453125 353.804688 L 346.320312 340.933594 C 349.464844 337.789062 349.464844 332.699219 346.320312 329.554688 L 341.074219 324.296875 C 343.230469 320.34375 344.964844 316.140625 346.214844 311.71875 L 353.707031 311.71875 C 358.15625 311.71875 361.757812 308.117188 361.757812 303.667969 L 361.757812 285.460938 C 361.757812 281.023438 358.15625 277.421875 353.707031 277.421875 " fill-opacity="1" fill-rule="nonzero"/></g></svg>