<svg xmlns="http://www.w3.org/2000/svg" xmlns:xlink="http://www.w3.org/1999/xlink" width="500" zoomAndPan="magnify" viewBox="0 0 375 191.249993" height="255" preserveAspectRatio="xMidYMid meet" version="1.0"><defs><clipPath id="990dcb0478"><path d="M 0.734375 0.00390625 L 186.332031 0.00390625 L 186.332031 190.503906 L 0.734375 190.503906 Z M 0.734375 0.00390625 " clip-rule="nonzero"/></clipPath><clipPath id="8b78f09ef9"><path d="M 6.226562 63.480469 C 2.90625 73.238281 0.730469 84.332031 0.730469 95.21875 C 0.730469 106.109375 2.59375 116.585938 5.914062 126.242188 C 6.015625 126.445312 6.015625 126.652344 6.121094 126.855469 C 19.394531 163.117188 54.445312 189.824219 94.324219 190.335938 L 186.332031 190.335938 L 186.332031 0.00390625 L 94.394531 0.00390625 C 54.238281 0.515625 19.1875 26.8125 6.226562 63.480469 Z M 6.226562 63.480469 " clip-rule="nonzero"/></clipPath><clipPath id="d1223848ab"><path d="M 0.734375 0.00390625 L 186.332031 0.00390625 L 186.332031 190.503906 L 0.734375 190.503906 Z M 0.734375 0.00390625 " clip-rule="nonzero"/></clipPath><clipPath id="3a55240cb8"><path d="M 6.226562 63.480469 C 2.90625 73.238281 0.730469 84.332031 0.730469 95.21875 C 0.730469 106.109375 2.59375 116.585938 5.914062 126.242188 C 6.015625 126.445312 6.015625 126.652344 6.121094 126.855469 C 19.394531 163.117188 54.445312 189.824219 94.324219 190.335938 L 186.332031 190.335938 L 186.332031 0.00390625 L 94.394531 0.00390625 C 54.238281 0.515625 19.1875 26.8125 6.226562 63.480469 Z M 6.226562 63.480469 " clip-rule="nonzero"/></clipPath><clipPath id="080ce772d3"><rect x="0" width="187" y="0" height="191"/></clipPath><clipPath id="19e9d72b7a"><path d="M 1.058594 0.00390625 L 186.328125 0.00390625 L 186.328125 190.332031 L 1.058594 190.332031 Z M 1.058594 0.00390625 " clip-rule="nonzero"/></clipPath><clipPath id="8867bac538"><path d="M 6.226562 63.480469 C 2.910156 73.238281 0.730469 84.332031 0.730469 95.21875 C 0.730469 106.105469 2.597656 116.582031 5.917969 126.238281 C 6.019531 126.441406 6.019531 126.648438 6.125 126.851562 C 19.398438 163.109375 54.445312 189.816406 94.324219 190.332031 L 186.328125 190.332031 L 186.328125 0.00390625 L 94.394531 0.00390625 C 54.238281 0.515625 19.191406 26.8125 6.226562 63.480469 Z M 6.226562 63.480469 " clip-rule="nonzero"/></clipPath><clipPath id="176192c5a4"><path d="M 180.492188 0 L 374.265625 0 L 374.265625 190.328125 L 180.492188 190.328125 Z M 180.492188 0 " clip-rule="nonzero"/></clipPath><clipPath id="353f5e0d23"><path d="M 368.769531 126.851562 C 372.089844 117.09375 374.265625 106 374.265625 95.109375 C 374.265625 84.222656 372.398438 73.746094 369.082031 64.089844 C 368.976562 63.886719 368.976562 63.679688 368.875 63.472656 C 355.601562 27.214844 320.550781 0.507812 280.488281 -0.00390625 L 180.492188 -0.00390625 L 180.492188 190.328125 L 280.414062 190.328125 C 320.757812 189.816406 355.808594 163.519531 368.769531 126.851562 Z M 368.769531 126.851562 " clip-rule="nonzero"/></clipPath><clipPath id="adab7c74a7"><path d="M 0.492188 0 L 194.265625 0 L 194.265625 190.328125 L 0.492188 190.328125 Z M 0.492188 0 " clip-rule="nonzero"/></clipPath><clipPath id="757c40ae15"><path d="M 188.769531 126.851562 C 192.089844 117.09375 194.265625 106 194.265625 95.109375 C 194.265625 84.222656 192.398438 73.746094 189.082031 64.089844 C 188.976562 63.886719 188.976562 63.679688 188.875 63.472656 C 175.601562 27.214844 140.550781 0.507812 100.488281 -0.00390625 L 0.492188 -0.00390625 L 0.492188 190.328125 L 100.414062 190.328125 C 140.757812 189.816406 175.808594 163.519531 188.769531 126.851562 Z M 188.769531 126.851562 " clip-rule="nonzero"/></clipPath><clipPath id="5c9594c36a"><rect x="0" width="195" y="0" height="191"/></clipPath><clipPath id="733c1cad4d"><path d="M 180.492188 0 L 373.984375 0 L 373.984375 190.328125 L 180.492188 190.328125 Z M 180.492188 0 " clip-rule="nonzero"/></clipPath><clipPath id="633fa8cb94"><path d="M 368.765625 126.851562 C 372.082031 117.09375 374.261719 106 374.261719 95.113281 C 374.261719 84.226562 372.394531 73.75 369.078125 64.09375 C 368.972656 63.890625 368.972656 63.683594 368.871094 63.476562 C 355.597656 27.21875 320.546875 0.515625 280.484375 0 L 180.492188 0 L 180.492188 190.328125 L 280.410156 190.328125 C 320.753906 189.816406 355.804688 163.519531 368.765625 126.851562 Z M 368.765625 126.851562 " clip-rule="nonzero"/></clipPath><clipPath id="fdc0c5aed7"><path d="M 135.007812 7.410156 L 256.117188 7.410156 L 256.117188 183.046875 L 135.007812 183.046875 Z M 135.007812 7.410156 " clip-rule="nonzero"/></clipPath><clipPath id="e304c4d77d"><path d="M 0.0078125 0.410156 L 121.117188 0.410156 L 121.117188 176 L 0.0078125 176 Z M 0.0078125 0.410156 " clip-rule="nonzero"/></clipPath><clipPath id="aae1c1bf7b"><rect x="0" width="122" y="0" height="177"/></clipPath><clipPath id="15129c49bf"><path d="M 20.5 17.777344 L 175.140625 17.777344 L 175.140625 172.421875 L 20.5 172.421875 Z M 20.5 17.777344 " clip-rule="nonzero"/></clipPath><clipPath id="d27d9426b8"><path d="M 198.476562 17.777344 L 353.117188 17.777344 L 353.117188 172.421875 L 198.476562 172.421875 Z M 198.476562 17.777344 " clip-rule="nonzero"/></clipPath></defs><g clip-path="url(#990dcb0478)"><g clip-path="url(#8b78f09ef9)"><g transform="matrix(1, 0, 0, 1, 0.000000000000000111, 0)"><g clip-path="url(#080ce772d3)"><g clip-path="url(#d1223848ab)"><g clip-path="url(#3a55240cb8)"><path fill="#ffffff" d="M 186.332031 0.00390625 L 186.332031 190.679688 L 0.730469 190.679688 L 0.730469 0.00390625 Z M 186.332031 0.00390625 " fill-opacity="1" fill-rule="nonzero"/></g></g></g></g></g></g><g clip-path="url(#19e9d72b7a)"><g clip-path="url(#8867bac538)"><path stroke-linecap="butt" transform="matrix(0, 0.74707, -0.74707, 0, 186.330274, 0.00241631)" fill="none" stroke-linejoin="miter" d="M 84.969327 241.080035 C 98.030766 245.519251 112.875213 248.436899 127.452993 248.436899 C 142.025544 248.436899 156.049075 245.937552 168.974567 241.493107 C 169.246463 241.357159 169.523587 241.357159 169.795483 241.215983 C 218.328823 223.44866 254.077848 176.536235 254.768044 123.155835 L 254.768044 0.00287636 L 0.00199437 0.00287636 L 0.00199437 123.061717 C 0.686962 176.813359 35.886967 223.725784 84.969327 241.080035 Z M 84.969327 241.080035 " stroke="#000000" stroke-width="20" stroke-opacity="1" stroke-miterlimit="4"/></g></g><g clip-path="url(#176192c5a4)"><g clip-path="url(#353f5e0d23)"><g transform="matrix(1, 0, 0, 1, 180, 0)"><g clip-path="url(#5c9594c36a)"><g clip-path="url(#adab7c74a7)"><g clip-path="url(#757c40ae15)"><path fill="#ffffff" d="M 0.492188 190.328125 L 0.492188 -0.00390625 L 194.542969 -0.00390625 L 194.542969 190.328125 Z M 0.492188 190.328125 " fill-opacity="1" fill-rule="nonzero"/></g></g></g></g></g></g><g clip-path="url(#733c1cad4d)"><g clip-path="url(#633fa8cb94)"><path stroke-linecap="butt" transform="matrix(0, -0.74707, 0.74707, 0, 180.491656, 190.329353)" fill="none" stroke-linejoin="miter" d="M 84.968976 252.016434 C 98.030416 256.45565 112.880091 259.373298 127.452642 259.373298 C 142.025193 259.373298 156.048725 256.873951 168.974217 252.434735 C 169.246112 252.293558 169.523237 252.293558 169.800361 252.157611 C 218.333701 234.390288 254.077497 187.472634 254.767693 133.846483 L 254.767693 0.000711926 L 0.00164379 0.000711926 L 0.00164379 133.747136 C 0.686611 187.749758 35.886616 234.667412 84.968976 252.016434 Z M 84.968976 252.016434 " stroke="#000000" stroke-width="20" stroke-opacity="1" stroke-miterlimit="4"/></g></g><g clip-path="url(#fdc0c5aed7)"><g transform="matrix(1, 0, 0, 1, 135, 7)"><g clip-path="url(#aae1c1bf7b)"><g clip-path="url(#e304c4d77d)"><path fill="#ffffff" d="M 0.0078125 0.410156 L 121.117188 0.410156 L 121.117188 175.925781 L 0.0078125 175.925781 Z M 0.0078125 0.410156 " fill-opacity="1" fill-rule="nonzero"/></g></g></g></g><g clip-path="url(#15129c49bf)"><path fill="#000000" d="M 97.820312 17.777344 C 55.113281 17.777344 20.496094 52.394531 20.496094 95.097656 C 20.496094 137.800781 55.113281 172.417969 97.820312 172.417969 C 140.523438 172.417969 175.140625 137.800781 175.140625 95.097656 C 175.140625 52.394531 140.523438 17.777344 97.820312 17.777344 Z M 140.75 119.992188 C 139.453125 119.289062 138.203125 118.609375 136.90625 117.90625 C 136.375 118.796875 135.882812 119.671875 135.339844 120.515625 C 129.316406 129.9375 120.855469 136.117188 110.167969 139.261719 C 105.230469 140.714844 101.386719 143.632812 98.269531 147.628906 C 98.132812 147.804688 98 147.980469 97.808594 148.234375 C 97.574219 147.941406 97.363281 147.6875 97.160156 147.425781 C 94.636719 144.128906 91.507812 141.589844 87.652344 140.03125 C 86.15625 139.429688 84.554688 139.101562 83.039062 138.554688 C 72.835938 134.882812 64.875 128.480469 59.402344 119.070312 C 59.179688 118.691406 58.972656 118.304688 58.734375 117.871094 C 57.4375 118.582031 56.183594 119.265625 54.839844 120.003906 C 53.734375 113.140625 54.023438 106.457031 56.3125 99.792969 C 60.269531 104.496094 64.699219 108.601562 69.796875 112.125 C 68.359375 112.886719 67.011719 113.597656 65.582031 114.351562 C 65.953125 114.832031 66.265625 115.277344 66.617188 115.683594 C 70.761719 120.484375 75.746094 124.058594 81.828125 125.996094 C 85.074219 127.027344 88.125 126.710938 90.734375 124.339844 C 92.421875 122.808594 93.289062 120.835938 93.292969 118.566406 C 93.320312 106.277344 93.308594 93.984375 93.308594 81.691406 C 93.308594 81.492188 93.308594 81.296875 93.308594 81.046875 C 93.046875 81.03125 92.847656 81.007812 92.652344 81.007812 C 89.1875 81.003906 85.726562 80.996094 82.261719 81.019531 C 81.953125 81.019531 81.59375 81.160156 81.34375 81.351562 C 79.585938 82.695312 77.304688 82.796875 75.582031 81.570312 C 73.746094 80.261719 73.027344 77.992188 73.769531 75.867188 C 74.472656 73.863281 76.410156 72.570312 78.578125 72.675781 C 79.617188 72.730469 80.546875 73.078125 81.367188 73.738281 C 81.554688 73.890625 81.820312 74.027344 82.054688 74.03125 C 85.679688 74.046875 89.304688 74.042969 92.929688 74.039062 C 93.027344 74.039062 93.125 74.023438 93.261719 74.011719 C 93.261719 72.21875 93.261719 70.445312 93.261719 68.792969 C 91.929688 68.074219 90.542969 67.511719 89.371094 66.65625 C 85.183594 63.589844 83.332031 59.417969 83.769531 54.226562 C 84.207031 49.023438 88.207031 43.558594 94.617188 42.238281 C 101.457031 40.832031 108.273438 44.902344 110.414062 51.578125 C 112.515625 58.140625 109.222656 65.328125 102.871094 68.003906 C 102.414062 68.195312 102.25 68.441406 102.261719 68.945312 C 102.296875 70.441406 102.269531 71.941406 102.269531 73.4375 C 102.269531 73.617188 102.289062 73.792969 102.300781 74.007812 C 102.507812 74.019531 102.683594 74.042969 102.859375 74.042969 C 105.957031 74.046875 109.054688 74.039062 112.15625 74.054688 C 112.601562 74.058594 112.953125 73.949219 113.3125 73.667969 C 114.929688 72.394531 117.128906 72.308594 118.882812 73.402344 C 120.582031 74.460938 121.433594 76.519531 121.027344 78.566406 C 120.644531 80.472656 119.007812 82.101562 117.085938 82.386719 C 115.71875 82.585938 114.414062 82.339844 113.316406 81.425781 C 112.953125 81.121094 112.574219 81.007812 112.101562 81.011719 C 109.042969 81.023438 105.984375 81.023438 102.925781 81.003906 C 102.4375 81 102.257812 81.117188 102.261719 81.640625 C 102.273438 93.953125 102.195312 106.265625 102.3125 118.578125 C 102.355469 123.472656 106.089844 126.421875 110.371094 126.519531 C 112.363281 126.5625 114.191406 125.925781 115.996094 125.191406 C 121.460938 122.972656 125.972656 119.488281 129.621094 114.867188 C 129.746094 114.710938 129.851562 114.539062 130 114.324219 C 128.609375 113.597656 127.257812 112.890625 125.820312 112.140625 C 130.855469 108.632812 135.238281 104.527344 139.25 99.847656 C 141.613281 106.460938 141.9375 113.128906 140.75 119.992188 Z M 140.75 119.992188 " fill-opacity="1" fill-rule="nonzero"/></g><path fill="#000000" d="M 104.339844 55.8125 C 104.363281 51.882812 101.214844 48.683594 97.296875 48.664062 C 93.515625 48.644531 90.363281 51.792969 90.339844 55.613281 C 90.316406 59.484375 93.4375 62.574219 97.382812 62.585938 C 101.089844 62.597656 104.316406 59.457031 104.339844 55.8125 Z M 104.339844 55.8125 " fill-opacity="1" fill-rule="nonzero"/><g clip-path="url(#d27d9426b8)"><path fill="#000000" d="M 275.796875 17.777344 C 233.097656 17.777344 198.476562 52.398438 198.476562 95.097656 C 198.476562 137.800781 233.097656 172.421875 275.796875 172.421875 C 318.5 172.421875 353.117188 137.800781 353.117188 95.097656 C 353.117188 52.398438 318.5 17.777344 275.796875 17.777344 Z M 285.5 126.878906 L 272.203125 126.878906 L 272.203125 76.273438 L 271.410156 76.273438 L 255.816406 87.019531 L 255.816406 74.640625 L 272.246094 63.320312 L 285.507812 63.320312 L 285.507812 126.878906 Z M 285.5 126.878906 " fill-opacity="1" fill-rule="nonzero"/></g></svg>