<svg xmlns="http://www.w3.org/2000/svg" xmlns:xlink="http://www.w3.org/1999/xlink" width="500" zoomAndPan="magnify" viewBox="0 0 375 374.999991" height="500" preserveAspectRatio="xMidYMid meet" version="1.0"><defs><clipPath id="72baf7afaf"><path d="M 23.316406 37.863281 L 351.816406 37.863281 L 351.816406 337.863281 L 23.316406 337.863281 Z M 23.316406 37.863281 " clip-rule="nonzero"/></clipPath></defs><g clip-path="url(#72baf7afaf)"><path fill="#12100b" d="M 279.988281 314.46875 C 279.988281 312.203125 281.828125 310.375 284.078125 310.375 L 330.976562 310.375 C 333.230469 310.375 335.0625 312.203125 335.0625 314.46875 C 335.0625 316.726562 333.222656 318.5625 330.976562 318.5625 L 284.078125 318.5625 C 281.828125 318.566406 279.988281 316.726562 279.988281 314.46875 Z M 279.988281 295.164062 C 279.988281 292.90625 281.828125 291.074219 284.078125 291.074219 L 330.976562 291.074219 C 333.230469 291.074219 335.0625 292.90625 335.0625 295.164062 C 335.0625 297.421875 333.222656 299.257812 330.976562 299.257812 L 284.078125 299.257812 C 281.828125 299.25 279.988281 297.414062 279.988281 295.164062 Z M 279.988281 197.542969 C 279.988281 195.285156 281.828125 193.449219 284.078125 193.449219 L 330.976562 193.449219 C 333.230469 193.449219 335.0625 195.285156 335.0625 197.542969 C 335.0625 199.808594 333.222656 201.636719 330.976562 201.636719 L 284.078125 201.636719 C 281.828125 201.636719 279.988281 199.808594 279.988281 197.542969 Z M 279.988281 178.238281 C 279.988281 175.976562 281.828125 174.148438 284.078125 174.148438 L 330.976562 174.148438 C 333.230469 174.148438 335.0625 175.976562 335.0625 178.238281 C 335.0625 180.496094 333.222656 182.332031 330.976562 182.332031 L 284.078125 182.332031 C 281.828125 182.332031 279.988281 180.496094 279.988281 178.238281 Z M 117.308594 215.523438 C 102.082031 215.523438 89.699219 203.121094 89.699219 187.886719 C 89.699219 172.648438 102.082031 160.246094 117.308594 160.246094 C 132.53125 160.246094 144.914062 172.648438 144.914062 187.886719 C 144.914062 203.128906 132.53125 215.523438 117.308594 215.523438 Z M 117.308594 152.066406 C 97.578125 152.066406 81.511719 168.136719 81.511719 187.890625 C 81.511719 207.644531 97.570312 223.714844 117.308594 223.714844 C 137.042969 223.714844 153.101562 207.644531 153.101562 187.890625 C 153.101562 168.136719 137.042969 152.066406 117.308594 152.066406 Z M 117.308594 236.175781 C 143.914062 236.175781 165.566406 214.519531 165.566406 187.890625 C 165.566406 161.261719 143.914062 139.605469 117.308594 139.605469 C 90.699219 139.605469 69.074219 161.261719 69.074219 187.890625 C 69.074219 214.515625 90.699219 236.175781 117.308594 236.175781 Z M 117.308594 131.421875 C 86.1875 131.421875 60.890625 156.753906 60.890625 187.890625 C 60.890625 219.03125 86.1875 244.363281 117.308594 244.363281 C 148.425781 244.363281 173.75 219.03125 173.75 187.890625 C 173.75 156.746094 148.425781 131.421875 117.308594 131.421875 Z M 279.988281 80.613281 C 279.988281 78.355469 281.828125 76.519531 284.078125 76.519531 L 330.976562 76.519531 C 333.230469 76.519531 335.0625 78.355469 335.0625 80.613281 C 335.0625 82.871094 333.222656 84.703125 330.976562 84.703125 L 284.078125 84.703125 C 281.828125 84.710938 279.988281 82.871094 279.988281 80.613281 Z M 279.988281 61.308594 C 279.988281 59.050781 281.828125 57.214844 284.078125 57.214844 L 330.976562 57.214844 C 333.230469 57.214844 335.0625 59.050781 335.0625 61.308594 C 335.0625 63.574219 333.222656 65.402344 330.976562 65.402344 L 284.078125 65.402344 C 281.828125 65.402344 279.988281 63.566406 279.988281 61.308594 Z M 271.386719 50.332031 L 271.386719 91.601562 C 271.386719 93.933594 273.28125 95.835938 275.621094 95.835938 L 339.441406 95.835938 C 341.777344 95.835938 343.671875 93.933594 343.671875 91.601562 L 343.671875 50.332031 C 343.671875 47.992188 341.777344 46.097656 339.441406 46.097656 L 275.621094 46.097656 C 273.28125 46.097656 271.386719 47.992188 271.386719 50.332031 Z M 178.84375 151.152344 C 178.003906 149.761719 178.09375 148.023438 179.007812 146.699219 L 186.632812 135.847656 L 169.292969 118.503906 L 158.464844 126.128906 C 157.128906 127.0625 155.378906 127.125 154.015625 126.296875 C 148.03125 122.71875 141.601562 120.050781 134.863281 118.351562 C 133.300781 117.957031 132.109375 116.675781 131.832031 115.085938 L 129.546875 102.03125 L 105.050781 102.03125 L 102.769531 115.089844 C 102.488281 116.679688 101.296875 117.957031 99.738281 118.351562 C 93.003906 120.050781 86.570312 122.722656 80.613281 126.296875 C 79.222656 127.125 77.472656 127.0625 76.164062 126.136719 L 65.304688 118.503906 L 47.96875 135.847656 L 55.59375 146.699219 C 56.539062 148.023438 56.59375 149.769531 55.765625 151.152344 C 52.199219 157.136719 49.527344 163.574219 47.832031 170.308594 C 47.441406 171.875 46.160156 173.0625 44.574219 173.34375 L 31.523438 175.621094 L 31.523438 200.148438 L 44.574219 202.425781 C 46.160156 202.707031 47.441406 203.894531 47.832031 205.460938 C 49.527344 212.195312 52.199219 218.640625 55.765625 224.617188 C 56.601562 226.007812 56.539062 227.746094 55.59375 229.070312 L 47.96875 239.921875 L 65.304688 257.269531 L 76.164062 249.640625 C 77.472656 248.707031 79.222656 248.644531 80.613281 249.472656 C 86.570312 253.046875 92.996094 255.71875 99.738281 257.417969 C 101.296875 257.8125 102.488281 259.097656 102.769531 260.683594 L 105.050781 273.742188 L 129.546875 273.742188 L 131.832031 260.679688 C 132.109375 259.089844 133.300781 257.8125 134.863281 257.417969 C 141.597656 255.71875 148.03125 253.046875 154.015625 249.472656 C 155.378906 248.644531 157.128906 248.707031 158.464844 249.640625 L 169.292969 257.269531 L 186.632812 239.921875 L 179.007812 229.070312 C 178.085938 227.746094 178.003906 226 178.84375 224.617188 C 182.40625 218.632812 185.078125 212.1875 186.777344 205.460938 C 187.191406 203.894531 188.445312 202.707031 190.035156 202.425781 L 203.085938 200.148438 L 203.085938 175.621094 L 190.035156 173.34375 C 188.445312 173.0625 187.191406 171.875 186.777344 170.308594 C 185.078125 163.574219 182.40625 157.136719 178.84375 151.152344 Z M 271.386719 167.25 L 271.386719 208.519531 C 271.386719 210.851562 273.28125 212.753906 275.621094 212.753906 L 339.441406 212.753906 C 341.777344 212.753906 343.671875 210.851562 343.671875 208.519531 L 343.671875 167.25 C 343.671875 164.917969 341.777344 163.015625 339.441406 163.015625 L 275.621094 163.015625 C 273.28125 163.015625 271.386719 164.917969 271.386719 167.25 Z M 271.386719 284.183594 L 271.386719 325.449219 C 271.386719 327.789062 273.28125 329.6875 275.621094 329.6875 L 339.441406 329.6875 C 341.777344 329.6875 343.671875 327.789062 343.671875 325.449219 L 343.671875 284.183594 C 343.671875 281.851562 341.777344 279.949219 339.441406 279.949219 L 275.621094 279.949219 C 273.28125 279.949219 271.386719 281.851562 271.386719 284.183594 Z M 275.621094 104.019531 L 339.441406 104.019531 C 346.289062 104.019531 351.851562 98.449219 351.851562 91.601562 L 351.851562 50.332031 C 351.851562 43.484375 346.28125 37.914062 339.441406 37.914062 L 275.621094 37.914062 C 268.769531 37.914062 263.210938 43.484375 263.210938 50.332031 L 263.210938 66.875 L 228.976562 66.875 C 227.804688 66.875 226.71875 67.367188 225.945312 68.226562 L 180.714844 118.351562 L 172.675781 110.289062 C 171.257812 108.882812 169.054688 108.695312 167.414062 109.839844 L 155.886719 117.941406 C 150.679688 115.050781 145.175781 112.765625 139.4375 111.121094 L 137.042969 97.242188 C 136.683594 95.285156 134.984375 93.851562 133.007812 93.851562 L 101.609375 93.851562 C 99.632812 93.851562 97.9375 95.285156 97.601562 97.242188 L 95.183594 111.121094 C 89.453125 112.765625 83.964844 115.058594 78.730469 117.941406 L 67.207031 109.839844 C 65.59375 108.695312 63.363281 108.882812 61.972656 110.289062 L 39.761719 132.5 C 38.371094 133.902344 38.171875 136.121094 39.320312 137.742188 L 47.414062 149.277344 C 44.519531 154.503906 42.234375 160.015625 40.59375 165.730469 L 26.730469 168.160156 C 24.78125 168.5 23.335938 170.199219 23.335938 172.191406 L 23.335938 203.59375 C 23.335938 205.585938 24.78125 207.285156 26.730469 207.625 L 40.59375 210.054688 C 42.234375 215.769531 44.519531 221.289062 47.414062 226.503906 L 39.320312 238.03125 C 38.179688 239.65625 38.371094 241.871094 39.761719 243.277344 L 61.972656 265.488281 C 63.363281 266.890625 65.59375 267.082031 67.207031 265.9375 L 78.730469 257.832031 C 83.9375 260.726562 89.445312 263.011719 95.183594 264.65625 L 97.605469 278.535156 C 97.9375 280.492188 99.632812 281.925781 101.609375 281.925781 L 133.007812 281.925781 C 134.984375 281.925781 136.683594 280.492188 137.042969 278.535156 L 139.464844 264.65625 C 145.167969 263.011719 150.679688 260.71875 155.882812 257.832031 L 167.40625 265.9375 C 169.050781 267.082031 171.25 266.890625 172.667969 265.488281 L 180.710938 257.425781 L 225.9375 307.550781 C 226.714844 308.410156 227.804688 308.902344 228.96875 308.902344 L 263.203125 308.902344 L 263.203125 325.441406 C 263.203125 332.292969 268.769531 337.863281 275.613281 337.863281 L 339.433594 337.863281 C 346.28125 337.863281 351.84375 332.292969 351.84375 325.441406 L 351.84375 284.175781 C 351.84375 277.328125 346.273438 271.753906 339.433594 271.753906 L 275.621094 271.753906 C 268.769531 271.753906 263.210938 277.328125 263.210938 284.175781 L 263.210938 300.71875 L 230.78125 300.71875 L 186.503906 251.632812 L 194.851562 243.277344 C 196.242188 241.871094 196.441406 239.65625 195.292969 238.03125 L 187.199219 226.5 C 190.09375 221.273438 192.378906 215.761719 194.019531 210.046875 L 207.882812 207.617188 C 209.859375 207.277344 211.277344 205.578125 211.277344 203.585938 L 211.277344 191.976562 L 263.210938 191.976562 L 263.210938 208.519531 C 263.210938 215.367188 268.777344 220.9375 275.621094 220.9375 L 339.441406 220.9375 C 346.289062 220.9375 351.851562 215.367188 351.851562 208.519531 L 351.851562 167.25 C 351.851562 160.402344 346.28125 154.832031 339.441406 154.832031 L 275.621094 154.832031 C 268.769531 154.832031 263.210938 160.402344 263.210938 167.25 L 263.210938 183.792969 L 211.277344 183.792969 L 211.277344 172.183594 C 211.277344 170.191406 209.859375 168.492188 207.882812 168.152344 L 194.019531 165.730469 C 192.378906 160.007812 190.09375 154.496094 187.199219 149.273438 L 195.292969 137.738281 C 196.433594 136.113281 196.242188 133.898438 194.851562 132.492188 L 186.503906 124.136719 L 230.78125 75.050781 L 263.210938 75.050781 L 263.210938 91.59375 C 263.210938 98.441406 268.769531 104.019531 275.621094 104.019531 Z M 275.621094 104.019531 " fill-opacity="1" fill-rule="evenodd"/></g></svg>