<svg xmlns="http://www.w3.org/2000/svg" xmlns:xlink="http://www.w3.org/1999/xlink" width="500" zoomAndPan="magnify" viewBox="0 0 375 374.999991" height="500" preserveAspectRatio="xMidYMid meet" version="1.0"><defs><clipPath id="1d8bc6e4dc"><path d="M 6.472656 41.546875 L 368.722656 41.546875 L 368.722656 333.296875 L 6.472656 333.296875 Z M 6.472656 41.546875 " clip-rule="nonzero"/></clipPath></defs><g clip-path="url(#1d8bc6e4dc)"><path fill="#000000" d="M 221.148438 216.992188 L 353.621094 172.042969 L 353.621094 314.230469 C 353.621094 324.609375 346.566406 333.054688 337.898438 333.054688 L 37.292969 333.054688 C 28.625 333.054688 21.574219 324.609375 21.574219 314.230469 L 21.574219 171.582031 L 164.492188 217.0625 L 164.492188 234.238281 C 164.492188 237.070312 166.792969 239.363281 169.628906 239.363281 L 216.015625 239.363281 C 218.847656 239.363281 221.148438 237.070312 221.148438 234.238281 Z M 174.761719 208.472656 L 174.761719 229.109375 L 210.882812 229.109375 L 210.882812 208.472656 Z M 368.722656 102.597656 L 368.722656 156.089844 L 221.148438 206.160156 L 221.148438 203.347656 C 221.148438 200.515625 218.847656 198.21875 216.015625 198.21875 L 169.628906 198.21875 C 166.792969 198.21875 164.492188 200.515625 164.492188 203.347656 L 164.492188 206.304688 L 6.472656 156.011719 L 6.472656 102.597656 C 6.472656 89.414062 17.210938 78.683594 30.410156 78.683594 L 100.753906 78.683594 L 100.753906 72.546875 C 100.753906 55.625 114.535156 41.855469 131.476562 41.855469 L 243.714844 41.855469 C 260.65625 41.855469 274.4375 55.625 274.4375 72.546875 L 274.4375 78.683594 L 344.785156 78.683594 C 357.984375 78.683594 368.722656 89.414062 368.722656 102.597656 Z M 264.171875 78.6875 L 264.171875 72.546875 C 264.171875 61.277344 254.996094 52.113281 243.714844 52.113281 L 131.476562 52.113281 C 120.195312 52.113281 111.019531 61.277344 111.019531 72.546875 L 111.019531 78.6875 Z M 264.171875 78.6875 " fill-opacity="1" fill-rule="nonzero"/></g></svg>