<svg xmlns="http://www.w3.org/2000/svg" xmlns:xlink="http://www.w3.org/1999/xlink" width="500" zoomAndPan="magnify" viewBox="0 0 375 374.999991" height="500" preserveAspectRatio="xMidYMid meet" version="1.0"><defs><clipPath id="f92a2a7bbc"><path d="M 187.5 0 C 83.945312 0 0 83.945312 0 187.5 C 0 291.054688 83.945312 375 187.5 375 C 291.054688 375 375 291.054688 375 187.5 C 375 83.945312 291.054688 0 187.5 0 Z M 187.5 0 " clip-rule="nonzero"/></clipPath><clipPath id="014a0375b5"><path d="M 72 126 L 155 126 L 155 285.320312 L 72 285.320312 Z M 72 126 " clip-rule="nonzero"/></clipPath><clipPath id="611da574d0"><path d="M 163 89.570312 L 303 89.570312 L 303 285.320312 L 163 285.320312 Z M 163 89.570312 " clip-rule="nonzero"/></clipPath></defs><g clip-path="url(#f92a2a7bbc)"><path stroke-linecap="butt" transform="matrix(0.75, 0, 0, 0.75, 0.0000045, 0)" fill="none" stroke-linejoin="miter" d="M 249.999994 0 C 111.927078 0 -0.000006 111.927084 -0.000006 250 C -0.000006 388.072917 111.927078 500.000001 249.999994 500.000001 C 388.072911 500.000001 499.999995 388.072917 499.999995 250 C 499.999995 111.927084 388.072911 0 249.999994 0 Z M 249.999994 0 " stroke="#000000" stroke-width="60" stroke-opacity="1" stroke-miterlimit="4"/></g><g clip-path="url(#014a0375b5)"><path fill="#000000" d="M 72.175781 134.472656 L 72.175781 285.300781 L 154.996094 285.300781 L 154.996094 126.394531 L 80.246094 126.394531 C 75.804688 126.394531 72.175781 130.039062 72.175781 134.472656 Z M 121.101562 143.914062 L 140.105469 143.914062 L 140.105469 156.027344 L 121.101562 156.027344 Z M 121.101562 171.847656 L 140.105469 171.847656 L 140.105469 183.96875 L 121.101562 183.96875 Z M 121.101562 199.789062 L 140.105469 199.789062 L 140.105469 211.910156 L 121.101562 211.910156 Z M 121.101562 227.722656 L 140.105469 227.722656 L 140.105469 239.839844 L 121.101562 239.839844 Z M 121.101562 255.664062 L 140.105469 255.664062 L 140.105469 267.789062 L 121.101562 267.789062 Z M 87.058594 143.914062 L 106.078125 143.914062 L 106.078125 156.027344 L 87.058594 156.027344 Z M 87.058594 171.847656 L 106.078125 171.847656 L 106.078125 183.96875 L 87.058594 183.96875 Z M 87.058594 199.789062 L 106.078125 199.789062 L 106.078125 211.910156 L 87.058594 211.910156 Z M 87.058594 227.722656 L 106.078125 227.722656 L 106.078125 239.839844 L 87.058594 239.839844 Z M 87.058594 255.664062 L 106.078125 255.664062 L 106.078125 267.789062 L 87.058594 267.789062 Z M 87.058594 255.664062 " fill-opacity="1" fill-rule="nonzero"/></g><g clip-path="url(#611da574d0)"><path fill="#000000" d="M 294.761719 89.570312 L 171.675781 89.570312 C 167.234375 89.570312 163.605469 93.207031 163.605469 97.652344 L 163.605469 285.300781 L 203.84375 285.300781 L 203.84375 245.25 L 262.582031 245.25 L 262.582031 285.300781 L 302.828125 285.300781 L 302.828125 97.652344 C 302.828125 93.207031 299.203125 89.570312 294.761719 89.570312 Z M 202.96875 221.34375 L 181.023438 221.34375 L 181.023438 183.246094 L 202.96875 183.246094 Z M 202.96875 153.527344 L 181.023438 153.527344 L 181.023438 115.414062 L 202.96875 115.414062 Z M 244.1875 221.34375 L 222.246094 221.34375 L 222.246094 183.246094 L 244.1875 183.246094 Z M 244.1875 153.527344 L 222.246094 153.527344 L 222.246094 115.414062 L 244.1875 115.414062 Z M 285.410156 221.34375 L 263.464844 221.34375 L 263.464844 183.246094 L 285.410156 183.246094 Z M 285.410156 153.527344 L 263.464844 153.527344 L 263.464844 115.414062 L 285.410156 115.414062 Z M 285.410156 153.527344 " fill-opacity="1" fill-rule="nonzero"/></g></svg>