<svg xmlns="http://www.w3.org/2000/svg" xmlns:xlink="http://www.w3.org/1999/xlink" width="500" zoomAndPan="magnify" viewBox="0 0 375 374.999991" height="500" preserveAspectRatio="xMidYMid meet" version="1.0"><defs><clipPath id="476c6a7676"><path d="M 11.332031 11.332031 L 169 11.332031 L 169 169 L 11.332031 169 Z M 11.332031 11.332031 " clip-rule="nonzero"/></clipPath><clipPath id="e060cb7f4b"><path d="M 206 11.332031 L 363.832031 11.332031 L 363.832031 169 L 206 169 Z M 206 11.332031 " clip-rule="nonzero"/></clipPath><clipPath id="d94385e513"><path d="M 11.332031 206 L 169 206 L 169 363.832031 L 11.332031 363.832031 Z M 11.332031 206 " clip-rule="nonzero"/></clipPath><clipPath id="d7952ef5ff"><path d="M 206 206 L 363.832031 206 L 363.832031 363.832031 L 206 363.832031 Z M 206 206 " clip-rule="nonzero"/></clipPath></defs><g clip-path="url(#476c6a7676)"><path fill="#000000" d="M 28.390625 168.820312 L 151.765625 168.820312 C 161.203125 168.820312 168.820312 161.203125 168.820312 151.765625 L 168.820312 28.390625 C 168.820312 18.953125 161.203125 11.332031 151.765625 11.332031 L 28.390625 11.332031 C 18.953125 11.332031 11.332031 18.953125 11.332031 28.390625 L 11.332031 151.765625 C 11.332031 161.203125 18.953125 168.820312 28.390625 168.820312 Z M 28.390625 168.820312 " fill-opacity="1" fill-rule="nonzero"/></g><g clip-path="url(#e060cb7f4b)"><path fill="#000000" d="M 346.777344 11.332031 L 223.402344 11.332031 C 213.964844 11.332031 206.34375 18.953125 206.34375 28.390625 L 206.34375 151.765625 C 206.34375 161.203125 213.964844 168.820312 223.402344 168.820312 L 346.777344 168.820312 C 356.214844 168.820312 363.832031 161.203125 363.832031 151.765625 L 363.832031 28.390625 C 363.832031 18.953125 356.214844 11.332031 346.777344 11.332031 Z M 346.777344 11.332031 " fill-opacity="1" fill-rule="nonzero"/></g><g clip-path="url(#d94385e513)"><path fill="#000000" d="M 28.390625 363.832031 L 151.765625 363.832031 C 161.203125 363.832031 168.820312 356.214844 168.820312 346.777344 L 168.820312 223.402344 C 168.820312 213.964844 161.203125 206.34375 151.765625 206.34375 L 28.390625 206.34375 C 18.953125 206.34375 11.332031 213.964844 11.332031 223.402344 L 11.332031 346.777344 C 11.332031 356.214844 18.953125 363.832031 28.390625 363.832031 Z M 28.390625 363.832031 " fill-opacity="1" fill-rule="nonzero"/></g><g clip-path="url(#d7952ef5ff)"><path fill="#000000" d="M 346.777344 268.007812 L 302.121094 268.007812 L 302.121094 223.351562 C 302.121094 213.929688 294.484375 206.292969 285.0625 206.292969 C 275.640625 206.292969 268.007812 213.929688 268.007812 223.351562 L 268.007812 268.007812 L 223.351562 268.007812 C 213.929688 268.007812 206.292969 275.640625 206.292969 285.0625 C 206.292969 294.484375 213.929688 302.121094 223.351562 302.121094 L 268.007812 302.121094 L 268.007812 346.777344 C 268.007812 356.199219 275.640625 363.832031 285.0625 363.832031 C 294.484375 363.832031 302.121094 356.199219 302.121094 346.777344 L 302.121094 302.121094 L 346.777344 302.121094 C 356.199219 302.121094 363.832031 294.484375 363.832031 285.0625 C 363.832031 275.640625 356.199219 268.007812 346.777344 268.007812 Z M 346.777344 268.007812 " fill-opacity="1" fill-rule="nonzero"/></g></svg>