<svg xmlns="http://www.w3.org/2000/svg" xmlns:xlink="http://www.w3.org/1999/xlink" width="500" zoomAndPan="magnify" viewBox="0 0 375 374.999991" height="500" preserveAspectRatio="xMidYMid meet" version="1.0"><path fill="#000000" d="M 186.6875 83.34375 C 185.082031 83.394531 183.5 83.59375 181.933594 83.9375 C 180.367188 84.28125 178.84375 84.765625 177.367188 85.394531 C 175.890625 86.019531 174.484375 86.777344 173.144531 87.664062 C 171.808594 88.550781 170.5625 89.550781 169.414062 90.667969 L 8.125 246.890625 C 7.5 247.480469 6.910156 248.101562 6.347656 248.75 C 5.78125 249.398438 5.253906 250.074219 4.757812 250.773438 C 4.261719 251.476562 3.800781 252.199219 3.378906 252.949219 C 2.953125 253.695312 2.566406 254.460938 2.21875 255.246094 C 1.871094 256.03125 1.558594 256.832031 1.289062 257.648438 C 1.023438 258.464844 0.792969 259.289062 0.605469 260.128906 C 0.417969 260.96875 0.273438 261.8125 0.167969 262.667969 C 0.0625 263.519531 0.00390625 264.375 -0.015625 265.234375 C -0.0351562 266.09375 -0.0117188 266.949219 0.0507812 267.808594 C 0.117188 268.664062 0.226562 269.515625 0.375 270.363281 C 0.527344 271.207031 0.714844 272.042969 0.949219 272.871094 C 1.179688 273.699219 1.453125 274.511719 1.765625 275.3125 C 2.082031 276.113281 2.433594 276.894531 2.824219 277.660156 C 3.210938 278.425781 3.640625 279.171875 4.105469 279.894531 C 4.566406 280.617188 5.066406 281.3125 5.597656 281.988281 C 6.132812 282.660156 6.699219 283.308594 7.292969 283.925781 C 7.890625 284.542969 8.515625 285.128906 9.171875 285.683594 C 9.828125 286.238281 10.507812 286.761719 11.214844 287.25 C 11.921875 287.738281 12.648438 288.191406 13.402344 288.605469 C 14.152344 289.019531 14.921875 289.398438 15.710938 289.738281 C 16.5 290.078125 17.300781 290.378906 18.121094 290.636719 C 18.9375 290.898438 19.769531 291.117188 20.609375 291.296875 C 21.449219 291.472656 22.292969 291.609375 23.148438 291.703125 C 24 291.796875 24.855469 291.847656 25.714844 291.855469 C 26.574219 291.867188 27.429688 291.832031 28.285156 291.757812 C 29.140625 291.683594 29.992188 291.5625 30.832031 291.402344 C 31.675781 291.246094 32.511719 291.042969 33.335938 290.800781 C 34.15625 290.558594 34.96875 290.277344 35.761719 289.953125 C 36.558594 289.628906 37.335938 289.269531 38.097656 288.871094 C 38.855469 288.46875 39.59375 288.035156 40.3125 287.558594 C 41.027344 287.085938 41.71875 286.582031 42.386719 286.039062 C 43.054688 285.496094 43.691406 284.925781 44.300781 284.320312 L 187.5 145.628906 L 330.699219 284.320312 C 331.308594 284.925781 331.945312 285.496094 332.613281 286.039062 C 333.28125 286.582031 333.972656 287.085938 334.6875 287.558594 C 335.40625 288.03125 336.144531 288.46875 336.902344 288.867188 C 337.664062 289.269531 338.441406 289.628906 339.238281 289.953125 C 340.03125 290.273438 340.84375 290.558594 341.664062 290.800781 C 342.488281 291.042969 343.324219 291.242188 344.167969 291.402344 C 345.007812 291.5625 345.859375 291.679688 346.714844 291.757812 C 347.570312 291.832031 348.425781 291.867188 349.285156 291.855469 C 350.144531 291.847656 351 291.796875 351.851562 291.703125 C 352.707031 291.609375 353.550781 291.472656 354.390625 291.292969 C 355.230469 291.117188 356.0625 290.898438 356.878906 290.636719 C 357.695312 290.378906 358.5 290.078125 359.289062 289.738281 C 360.078125 289.398438 360.847656 289.019531 361.597656 288.605469 C 362.351562 288.1875 363.078125 287.738281 363.785156 287.25 C 364.492188 286.761719 365.171875 286.238281 365.828125 285.683594 C 366.484375 285.128906 367.109375 284.542969 367.707031 283.925781 C 368.300781 283.304688 368.867188 282.660156 369.398438 281.988281 C 369.933594 281.3125 370.433594 280.617188 370.894531 279.890625 C 371.359375 279.167969 371.785156 278.425781 372.175781 277.660156 C 372.566406 276.894531 372.917969 276.113281 373.230469 275.3125 C 373.546875 274.511719 373.816406 273.699219 374.050781 272.871094 C 374.28125 272.042969 374.472656 271.207031 374.625 270.363281 C 374.773438 269.515625 374.882812 268.664062 374.945312 267.808594 C 375.011719 266.949219 375.035156 266.09375 375.015625 265.234375 C 374.996094 264.375 374.933594 263.519531 374.832031 262.664062 C 374.726562 261.8125 374.582031 260.96875 374.394531 260.128906 C 374.207031 259.289062 373.976562 258.464844 373.707031 257.648438 C 373.4375 256.832031 373.128906 256.03125 372.78125 255.246094 C 372.433594 254.460938 372.046875 253.695312 371.621094 252.949219 C 371.199219 252.199219 370.738281 251.476562 370.242188 250.773438 C 369.746094 250.074219 369.21875 249.398438 368.652344 248.75 C 368.089844 248.101562 367.5 247.480469 366.875 246.890625 L 205.585938 90.667969 C 204.335938 89.457031 202.980469 88.378906 201.511719 87.441406 C 200.046875 86.5 198.503906 85.71875 196.878906 85.089844 C 195.257812 84.460938 193.585938 84 191.871094 83.703125 C 190.15625 83.410156 188.425781 83.292969 186.6875 83.34375 Z M 186.6875 83.34375 " fill-opacity="1" fill-rule="nonzero"/></svg>