<svg xmlns="http://www.w3.org/2000/svg" xmlns:xlink="http://www.w3.org/1999/xlink" width="500" zoomAndPan="magnify" viewBox="0 0 375 374.999991" height="500" preserveAspectRatio="xMidYMid meet" version="1.0"><defs><clipPath id="2ab7e88e9f"><path d="M 12.101562 26 L 363.101562 26 L 363.101562 349 L 12.101562 349 Z M 12.101562 26 " clip-rule="nonzero"/></clipPath></defs><g clip-path="url(#2ab7e88e9f)"><path fill="#000000" d="M 333.15625 26.417969 C 283.253906 26.164062 233.371094 26.164062 183.507812 26.417969 C 182.507812 26.367188 181.507812 26.371094 180.507812 26.429688 C 179.507812 26.484375 178.515625 26.59375 177.527344 26.753906 C 176.542969 26.914062 175.566406 27.125 174.601562 27.390625 C 173.632812 27.652344 172.6875 27.964844 171.753906 28.328125 C 170.820312 28.691406 169.910156 29.105469 169.023438 29.5625 C 168.132812 30.023438 167.269531 30.527344 166.433594 31.078125 C 165.597656 31.628906 164.792969 32.21875 164.019531 32.855469 C 163.246094 33.488281 162.507812 34.164062 161.808594 34.875 C 161.105469 35.585938 160.441406 36.335938 159.816406 37.117188 C 159.191406 37.898438 158.613281 38.710938 158.074219 39.554688 C 157.535156 40.398438 157.042969 41.265625 156.59375 42.164062 C 156.148438 43.058594 155.75 43.972656 155.398438 44.910156 C 155.046875 45.847656 154.75 46.800781 154.496094 47.769531 C 154.246094 48.738281 154.050781 49.71875 153.902344 50.707031 C 153.753906 51.695312 153.660156 52.691406 153.617188 53.691406 C 153.574219 54.691406 153.585938 55.691406 153.648438 56.6875 C 153.492188 82.285156 153.546875 107.878906 153.648438 133.472656 L 153.648438 142.570312 C 153.648438 144.34375 153.785156 146.109375 154.058594 147.863281 C 156.113281 163.441406 167.316406 172.894531 184.070312 173.046875 C 196.558594 173.097656 209.042969 173.203125 221.535156 173.152344 C 226.417969 173.152344 231.25 173.097656 236.125 173.046875 C 238.855469 173.046875 241.574219 172.996094 244.300781 172.949219 C 245.757812 172.871094 247.207031 172.953125 248.644531 173.199219 C 250.085938 173.445312 251.476562 173.847656 252.824219 174.40625 C 254.171875 174.96875 255.441406 175.671875 256.632812 176.515625 C 257.820312 177.363281 258.902344 178.332031 259.871094 179.421875 C 267.222656 187.027344 275.496094 193.863281 282.226562 202.035156 C 289.902344 211.230469 298.332031 219.675781 307.511719 227.367188 C 307.410156 223.308594 306.789062 204.445312 306.535156 183.785156 C 306.378906 182.21875 306.535156 180.6875 307.007812 179.191406 C 307.480469 177.691406 308.230469 176.347656 309.253906 175.15625 C 310.347656 174.28125 311.570312 173.664062 312.917969 173.296875 C 314.269531 172.929688 315.636719 172.84375 317.019531 173.042969 C 322.308594 173.25 327.652344 173.144531 332.949219 173.042969 C 333.949219 173.082031 334.945312 173.074219 335.945312 173.011719 C 336.941406 172.949219 337.933594 172.832031 338.917969 172.667969 C 339.90625 172.5 340.878906 172.285156 341.839844 172.015625 C 342.804688 171.75 343.75 171.433594 344.679688 171.066406 C 345.609375 170.703125 346.519531 170.289062 347.40625 169.828125 C 348.292969 169.367188 349.15625 168.863281 349.988281 168.3125 C 350.824219 167.761719 351.628906 167.171875 352.398438 166.539062 C 353.171875 165.902344 353.910156 165.230469 354.613281 164.523438 C 355.316406 163.8125 355.980469 163.066406 356.605469 162.289062 C 357.230469 161.507812 357.816406 160.699219 358.355469 159.859375 C 358.898438 159.019531 359.394531 158.152344 359.84375 157.261719 C 360.296875 156.367188 360.699219 155.457031 361.058594 154.523438 C 361.414062 153.589844 361.71875 152.636719 361.976562 151.671875 C 362.234375 150.707031 362.441406 149.730469 362.597656 148.742188 C 362.753906 147.757812 362.855469 146.761719 362.910156 145.765625 C 362.960938 144.765625 362.960938 143.769531 362.910156 142.769531 C 363.066406 114.195312 363.066406 85.585938 362.910156 56.941406 C 362.96875 55.941406 362.976562 54.945312 362.933594 53.945312 C 362.886719 52.945312 362.789062 51.949219 362.640625 50.960938 C 362.492188 49.972656 362.292969 48.992188 362.042969 48.023438 C 361.792969 47.058594 361.492188 46.105469 361.144531 45.167969 C 360.792969 44.230469 360.398438 43.3125 359.953125 42.417969 C 359.507812 41.519531 359.019531 40.652344 358.480469 39.804688 C 357.945312 38.960938 357.371094 38.144531 356.75 37.363281 C 356.128906 36.578125 355.46875 35.824219 354.773438 35.109375 C 354.074219 34.394531 353.339844 33.714844 352.570312 33.074219 C 351.800781 32.4375 351.003906 31.835938 350.171875 31.28125 C 349.339844 30.722656 348.484375 30.210938 347.597656 29.746094 C 346.714844 29.277344 345.808594 28.855469 344.878906 28.484375 C 343.953125 28.109375 343.007812 27.785156 342.046875 27.511719 C 341.085938 27.238281 340.109375 27.011719 339.125 26.839844 C 338.140625 26.664062 337.148438 26.542969 336.152344 26.472656 C 335.15625 26.402344 334.15625 26.382812 333.15625 26.417969 Z M 280.160156 122.078125 L 191.003906 122.078125 C 190.496094 122.078125 189.996094 122.03125 189.5 121.929688 C 189.003906 121.832031 188.523438 121.6875 188.054688 121.492188 C 187.585938 121.296875 187.140625 121.0625 186.722656 120.78125 C 186.300781 120.5 185.910156 120.179688 185.554688 119.820312 C 185.195312 119.464844 184.875 119.074219 184.59375 118.652344 C 184.3125 118.230469 184.074219 117.789062 183.882812 117.320312 C 183.6875 116.851562 183.542969 116.371094 183.445312 115.875 C 183.34375 115.378906 183.296875 114.875 183.296875 114.371094 C 183.296875 113.863281 183.34375 113.363281 183.441406 112.867188 C 183.542969 112.371094 183.6875 111.886719 183.882812 111.417969 C 184.074219 110.953125 184.3125 110.507812 184.59375 110.085938 C 184.875 109.664062 185.195312 109.277344 185.554688 108.917969 C 185.910156 108.5625 186.300781 108.242188 186.722656 107.960938 C 187.140625 107.679688 187.585938 107.441406 188.054688 107.246094 C 188.523438 107.054688 189.003906 106.90625 189.5 106.808594 C 189.996094 106.710938 190.496094 106.660156 191.003906 106.660156 L 280.160156 106.660156 C 280.667969 106.660156 281.167969 106.710938 281.664062 106.808594 C 282.164062 106.90625 282.644531 107.054688 283.113281 107.246094 C 283.578125 107.441406 284.023438 107.679688 284.445312 107.960938 C 284.867188 108.242188 285.253906 108.5625 285.613281 108.917969 C 285.972656 109.277344 286.289062 109.664062 286.570312 110.085938 C 286.851562 110.507812 287.089844 110.953125 287.285156 111.417969 C 287.476562 111.886719 287.625 112.371094 287.722656 112.867188 C 287.820312 113.363281 287.871094 113.863281 287.871094 114.371094 C 287.871094 114.875 287.820312 115.378906 287.722656 115.875 C 287.625 116.371094 287.476562 116.851562 287.285156 117.320312 C 287.089844 117.789062 286.851562 118.230469 286.570312 118.652344 C 286.289062 119.074219 285.972656 119.464844 285.613281 119.820312 C 285.253906 120.179688 284.867188 120.5 284.445312 120.78125 C 284.023438 121.0625 283.578125 121.296875 283.113281 121.492188 C 282.644531 121.6875 282.164062 121.832031 281.664062 121.929688 C 281.167969 122.03125 280.667969 122.078125 280.160156 122.078125 Z M 332.167969 81.21875 L 186.542969 81.21875 C 186.035156 81.21875 185.535156 81.171875 185.039062 81.070312 C 184.542969 80.972656 184.0625 80.828125 183.59375 80.632812 C 183.125 80.441406 182.679688 80.203125 182.261719 79.921875 C 181.839844 79.640625 181.449219 79.320312 181.09375 78.960938 C 180.734375 78.605469 180.414062 78.214844 180.132812 77.792969 C 179.851562 77.371094 179.613281 76.929688 179.421875 76.460938 C 179.226562 75.992188 179.082031 75.511719 178.984375 75.015625 C 178.882812 74.519531 178.835938 74.015625 178.835938 73.511719 C 178.835938 73.003906 178.882812 72.503906 178.984375 72.007812 C 179.082031 71.511719 179.226562 71.027344 179.421875 70.558594 C 179.613281 70.09375 179.851562 69.648438 180.132812 69.226562 C 180.414062 68.808594 180.734375 68.417969 181.09375 68.058594 C 181.449219 67.703125 181.839844 67.382812 182.261719 67.101562 C 182.679688 66.820312 183.125 66.582031 183.59375 66.386719 C 184.0625 66.195312 184.542969 66.046875 185.039062 65.949219 C 185.535156 65.851562 186.035156 65.800781 186.542969 65.800781 L 332.167969 65.800781 C 332.675781 65.800781 333.175781 65.851562 333.671875 65.949219 C 334.167969 66.046875 334.652344 66.195312 335.121094 66.386719 C 335.585938 66.582031 336.03125 66.820312 336.453125 67.101562 C 336.875 67.382812 337.261719 67.703125 337.621094 68.058594 C 337.976562 68.417969 338.296875 68.808594 338.578125 69.226562 C 338.859375 69.648438 339.097656 70.09375 339.292969 70.558594 C 339.484375 71.027344 339.632812 71.511719 339.730469 72.007812 C 339.828125 72.503906 339.878906 73.003906 339.878906 73.511719 C 339.878906 74.015625 339.828125 74.519531 339.730469 75.015625 C 339.632812 75.511719 339.484375 75.992188 339.292969 76.460938 C 339.097656 76.929688 338.859375 77.371094 338.578125 77.792969 C 338.296875 78.214844 337.976562 78.605469 337.621094 78.960938 C 337.261719 79.320312 336.875 79.640625 336.453125 79.921875 C 336.03125 80.203125 335.585938 80.441406 335.121094 80.632812 C 334.652344 80.828125 334.167969 80.972656 333.671875 81.070312 C 333.175781 81.171875 332.675781 81.21875 332.167969 81.21875 Z M 183.96875 187.234375 C 180.21875 187.257812 176.515625 186.851562 172.859375 186.007812 C 169.203125 185.164062 165.695312 183.910156 162.332031 182.246094 C 160.742188 181.421875 159.210938 180.496094 157.738281 179.472656 C 156.265625 178.449219 154.863281 177.339844 153.535156 176.136719 C 152.203125 174.933594 150.957031 173.652344 149.789062 172.292969 C 148.621094 170.929688 147.546875 169.5 146.5625 168 C 145.582031 166.5 144.695312 164.945312 143.910156 163.335938 C 143.125 161.722656 142.445312 160.066406 141.875 158.367188 C 141.300781 156.667969 140.835938 154.941406 140.484375 153.183594 C 140.132812 151.425781 139.894531 149.652344 139.765625 147.863281 C 107.339844 147.8125 74.914062 147.867188 42.488281 148.023438 C 41.488281 147.988281 40.492188 148.007812 39.492188 148.078125 C 38.496094 148.148438 37.503906 148.269531 36.519531 148.441406 C 35.535156 148.617188 34.558594 148.839844 33.597656 149.113281 C 32.636719 149.390625 31.691406 149.714844 30.761719 150.085938 C 29.835938 150.460938 28.929688 150.878906 28.042969 151.347656 C 27.160156 151.816406 26.300781 152.328125 25.472656 152.882812 C 24.640625 153.441406 23.839844 154.039062 23.070312 154.679688 C 22.300781 155.316406 21.570312 155.996094 20.871094 156.710938 C 20.171875 157.429688 19.511719 158.179688 18.894531 158.964844 C 18.273438 159.75 17.695312 160.5625 17.160156 161.410156 C 16.625 162.253906 16.132812 163.125 15.6875 164.019531 C 15.246094 164.917969 14.847656 165.832031 14.5 166.769531 C 14.148438 167.707031 13.847656 168.660156 13.597656 169.628906 C 13.347656 170.597656 13.148438 171.578125 13 172.566406 C 12.851562 173.554688 12.757812 174.550781 12.710938 175.550781 C 12.667969 176.550781 12.675781 177.546875 12.734375 178.546875 C 12.578125 207.175781 12.578125 235.789062 12.734375 264.378906 C 12.679688 265.375 12.679688 266.371094 12.730469 267.371094 C 12.78125 268.367188 12.886719 269.359375 13.039062 270.347656 C 13.195312 271.332031 13.398438 272.308594 13.65625 273.273438 C 13.910156 274.238281 14.21875 275.191406 14.570312 276.125 C 14.925781 277.058594 15.328125 277.96875 15.777344 278.859375 C 16.230469 279.753906 16.722656 280.617188 17.265625 281.460938 C 17.804688 282.300781 18.386719 283.109375 19.011719 283.890625 C 19.636719 284.667969 20.296875 285.414062 21 286.125 C 21.703125 286.835938 22.4375 287.507812 23.210938 288.140625 C 23.984375 288.773438 24.785156 289.367188 25.617188 289.917969 C 26.453125 290.46875 27.3125 290.972656 28.199219 291.433594 C 29.085938 291.894531 29.992188 292.308594 30.921875 292.671875 C 31.851562 293.039062 32.796875 293.355469 33.757812 293.625 C 34.722656 293.890625 35.695312 294.109375 36.679688 294.277344 C 37.664062 294.441406 38.65625 294.558594 39.652344 294.621094 C 40.648438 294.683594 41.644531 294.695312 42.644531 294.652344 C 47.9375 294.75 53.28125 294.855469 58.574219 294.652344 C 59.964844 294.46875 61.335938 294.554688 62.691406 294.921875 C 64.046875 295.285156 65.277344 295.898438 66.386719 296.757812 C 67.40625 297.949219 68.148438 299.296875 68.613281 300.796875 C 69.078125 302.296875 69.226562 303.828125 69.058594 305.390625 C 68.796875 326.050781 68.234375 344.964844 68.082031 348.980469 C 77.273438 341.292969 85.703125 332.847656 93.367188 323.636719 C 100.144531 315.46875 108.371094 308.632812 115.773438 301.023438 C 116.738281 299.933594 117.816406 298.964844 119 298.121094 C 120.1875 297.273438 121.449219 296.570312 122.792969 296.011719 C 124.136719 295.449219 125.527344 295.046875 126.960938 294.800781 C 128.394531 294.550781 129.839844 294.46875 131.292969 294.546875 C 151.386719 294.90625 171.429688 294.804688 191.523438 294.648438 C 192.539062 294.71875 193.554688 294.734375 194.570312 294.695312 C 195.585938 294.65625 196.597656 294.5625 197.605469 294.417969 C 198.613281 294.269531 199.609375 294.070312 200.59375 293.816406 C 201.578125 293.5625 202.546875 293.253906 203.5 292.898438 C 204.453125 292.542969 205.382812 292.132812 206.292969 291.675781 C 207.203125 291.21875 208.085938 290.714844 208.941406 290.164062 C 209.796875 289.613281 210.617188 289.019531 211.410156 288.378906 C 212.203125 287.738281 212.957031 287.058594 213.675781 286.339844 C 214.394531 285.621094 215.074219 284.863281 215.710938 284.070312 C 216.347656 283.277344 216.941406 282.453125 217.492188 281.597656 C 218.042969 280.742188 218.542969 279.859375 219 278.949219 C 219.457031 278.039062 219.859375 277.105469 220.214844 276.152344 C 220.570312 275.199219 220.875 274.230469 221.128906 273.246094 C 221.378906 272.257812 221.578125 271.261719 221.722656 270.253906 C 221.871094 269.25 221.960938 268.234375 221.996094 267.21875 C 222.035156 266.203125 222.019531 265.1875 221.945312 264.171875 C 222.097656 238.570312 222.097656 212.957031 221.945312 187.332031 C 215.054688 187.433594 208.121094 187.433594 201.230469 187.332031 C 195.480469 187.335938 189.722656 187.285156 183.96875 187.234375 Z M 44.058594 192.289062 L 133.21875 192.289062 C 133.726562 192.289062 134.226562 192.339844 134.722656 192.4375 C 135.21875 192.535156 135.703125 192.683594 136.167969 192.878906 C 136.636719 193.070312 137.082031 193.308594 137.503906 193.589844 C 137.921875 193.871094 138.3125 194.191406 138.671875 194.546875 C 139.027344 194.90625 139.347656 195.296875 139.628906 195.714844 C 139.910156 196.136719 140.148438 196.582031 140.339844 197.050781 C 140.535156 197.515625 140.683594 198 140.78125 198.496094 C 140.878906 198.992188 140.929688 199.492188 140.929688 200 C 140.929688 200.503906 140.878906 201.007812 140.78125 201.503906 C 140.683594 202 140.535156 202.480469 140.339844 202.949219 C 140.148438 203.417969 139.910156 203.863281 139.628906 204.28125 C 139.347656 204.703125 139.027344 205.09375 138.671875 205.449219 C 138.3125 205.808594 137.921875 206.128906 137.503906 206.410156 C 137.082031 206.691406 136.636719 206.929688 136.167969 207.121094 C 135.703125 207.316406 135.21875 207.460938 134.722656 207.5625 C 134.226562 207.660156 133.726562 207.707031 133.21875 207.707031 L 44.058594 207.707031 C 43.550781 207.707031 43.050781 207.660156 42.554688 207.5625 C 42.054688 207.460938 41.574219 207.316406 41.105469 207.121094 C 40.640625 206.929688 40.195312 206.691406 39.773438 206.410156 C 39.351562 206.128906 38.964844 205.808594 38.605469 205.449219 C 38.246094 205.09375 37.929688 204.703125 37.648438 204.28125 C 37.367188 203.863281 37.128906 203.417969 36.933594 202.949219 C 36.742188 202.480469 36.59375 202 36.496094 201.503906 C 36.398438 201.007812 36.347656 200.503906 36.347656 200 C 36.347656 199.492188 36.398438 198.992188 36.496094 198.496094 C 36.59375 198 36.742188 197.515625 36.933594 197.050781 C 37.128906 196.582031 37.367188 196.136719 37.648438 195.714844 C 37.929688 195.296875 38.246094 194.90625 38.605469 194.546875 C 38.964844 194.191406 39.351562 193.871094 39.773438 193.589844 C 40.195312 193.308594 40.640625 193.070312 41.105469 192.878906 C 41.574219 192.683594 42.054688 192.535156 42.554688 192.4375 C 43.050781 192.339844 43.550781 192.289062 44.058594 192.289062 Z M 189.066406 249.070312 L 43.449219 249.070312 C 42.945312 249.070312 42.441406 249.023438 41.945312 248.921875 C 41.449219 248.824219 40.96875 248.679688 40.5 248.484375 C 40.03125 248.289062 39.589844 248.054688 39.167969 247.773438 C 38.746094 247.492188 38.355469 247.171875 38 246.8125 C 37.640625 246.457031 37.320312 246.066406 37.039062 245.644531 C 36.757812 245.222656 36.523438 244.78125 36.328125 244.3125 C 36.132812 243.84375 35.988281 243.363281 35.890625 242.867188 C 35.792969 242.371094 35.742188 241.867188 35.742188 241.363281 C 35.742188 240.855469 35.792969 240.355469 35.890625 239.859375 C 35.988281 239.363281 36.132812 238.878906 36.328125 238.410156 C 36.523438 237.945312 36.757812 237.5 37.039062 237.078125 C 37.320312 236.660156 37.640625 236.269531 38 235.910156 C 38.355469 235.554688 38.746094 235.234375 39.167969 234.953125 C 39.589844 234.671875 40.03125 234.433594 40.5 234.238281 C 40.96875 234.046875 41.449219 233.898438 41.945312 233.800781 C 42.441406 233.703125 42.945312 233.652344 43.449219 233.652344 L 189.066406 233.652344 C 189.574219 233.652344 190.074219 233.703125 190.570312 233.800781 C 191.066406 233.898438 191.546875 234.046875 192.015625 234.238281 C 192.484375 234.433594 192.929688 234.671875 193.347656 234.953125 C 193.769531 235.234375 194.160156 235.554688 194.515625 235.910156 C 194.875 236.269531 195.195312 236.660156 195.476562 237.078125 C 195.757812 237.5 195.996094 237.945312 196.1875 238.410156 C 196.382812 238.878906 196.527344 239.363281 196.628906 239.859375 C 196.726562 240.355469 196.773438 240.855469 196.773438 241.363281 C 196.773438 241.867188 196.726562 242.371094 196.628906 242.867188 C 196.527344 243.363281 196.382812 243.84375 196.1875 244.3125 C 195.996094 244.78125 195.757812 245.222656 195.476562 245.644531 C 195.195312 246.066406 194.875 246.457031 194.515625 246.8125 C 194.160156 247.171875 193.769531 247.492188 193.347656 247.773438 C 192.929688 248.054688 192.484375 248.289062 192.015625 248.484375 C 191.546875 248.679688 191.066406 248.824219 190.570312 248.921875 C 190.074219 249.023438 189.574219 249.070312 189.066406 249.070312 Z M 189.066406 249.070312 " fill-opacity="1" fill-rule="nonzero"/></g></svg>