<svg xmlns="http://www.w3.org/2000/svg" xmlns:xlink="http://www.w3.org/1999/xlink" width="500" zoomAndPan="magnify" viewBox="0 0 375 374.999991" height="500" preserveAspectRatio="xMidYMid meet" version="1.0"><defs><clipPath id="ed25ad387e"><path d="M 0 26.25 L 375 26.25 L 375 346 L 0 346 Z M 0 26.25 " clip-rule="nonzero"/></clipPath></defs><path fill="#000000" d="M 220.550781 158.449219 C 220.550781 159.53125 220.496094 160.613281 220.390625 161.691406 C 220.285156 162.765625 220.125 163.835938 219.914062 164.898438 C 219.703125 165.960938 219.441406 167.007812 219.128906 168.042969 C 218.8125 169.078125 218.449219 170.097656 218.035156 171.097656 C 217.621094 172.097656 217.15625 173.074219 216.648438 174.03125 C 216.136719 174.984375 215.582031 175.910156 214.980469 176.8125 C 214.378906 177.710938 213.734375 178.582031 213.046875 179.417969 C 212.363281 180.253906 211.636719 181.054688 210.871094 181.820312 C 210.105469 182.585938 209.304688 183.3125 208.46875 184 C 207.628906 184.683594 206.761719 185.328125 205.863281 185.929688 C 204.960938 186.53125 204.035156 187.085938 203.078125 187.597656 C 202.125 188.109375 201.148438 188.570312 200.148438 188.984375 C 199.148438 189.398438 198.128906 189.761719 197.09375 190.078125 C 196.058594 190.390625 195.007812 190.65625 193.949219 190.867188 C 192.886719 191.078125 191.816406 191.234375 190.738281 191.339844 C 189.664062 191.449219 188.582031 191.5 187.5 191.5 C 186.417969 191.5 185.335938 191.449219 184.261719 191.339844 C 183.183594 191.234375 182.113281 191.078125 181.050781 190.867188 C 179.992188 190.65625 178.941406 190.390625 177.90625 190.078125 C 176.871094 189.761719 175.851562 189.398438 174.851562 188.984375 C 173.851562 188.570312 172.875 188.109375 171.921875 187.597656 C 170.964844 187.085938 170.039062 186.53125 169.136719 185.929688 C 168.238281 185.328125 167.371094 184.683594 166.53125 184 C 165.695312 183.3125 164.894531 182.585938 164.128906 181.820312 C 163.363281 181.054688 162.636719 180.253906 161.953125 179.417969 C 161.265625 178.582031 160.621094 177.710938 160.019531 176.8125 C 159.417969 175.910156 158.863281 174.984375 158.351562 174.03125 C 157.839844 173.074219 157.378906 172.097656 156.964844 171.097656 C 156.550781 170.097656 156.1875 169.078125 155.871094 168.042969 C 155.558594 167.007812 155.296875 165.960938 155.085938 164.898438 C 154.875 163.835938 154.714844 162.765625 154.609375 161.691406 C 154.503906 160.613281 154.449219 159.53125 154.449219 158.449219 C 154.449219 157.367188 154.503906 156.289062 154.609375 155.210938 C 154.714844 154.132812 154.875 153.0625 155.085938 152.003906 C 155.296875 150.941406 155.558594 149.890625 155.871094 148.855469 C 156.1875 147.820312 156.550781 146.800781 156.964844 145.800781 C 157.378906 144.800781 157.839844 143.824219 158.351562 142.871094 C 158.863281 141.914062 159.417969 140.988281 160.019531 140.089844 C 160.621094 139.1875 161.265625 138.320312 161.953125 137.484375 C 162.636719 136.644531 163.363281 135.84375 164.128906 135.078125 C 164.894531 134.3125 165.695312 133.589844 166.53125 132.902344 C 167.371094 132.214844 168.238281 131.570312 169.136719 130.96875 C 170.039062 130.367188 170.964844 129.8125 171.921875 129.300781 C 172.875 128.792969 173.851562 128.328125 174.851562 127.914062 C 175.851562 127.5 176.871094 127.136719 177.90625 126.824219 C 178.941406 126.507812 179.992188 126.246094 181.050781 126.035156 C 182.113281 125.824219 183.183594 125.664062 184.261719 125.558594 C 185.335938 125.453125 186.417969 125.398438 187.5 125.398438 C 188.582031 125.398438 189.664062 125.453125 190.738281 125.558594 C 191.816406 125.664062 192.886719 125.824219 193.949219 126.035156 C 195.007812 126.246094 196.058594 126.507812 197.09375 126.824219 C 198.128906 127.136719 199.148438 127.5 200.148438 127.914062 C 201.148438 128.328125 202.125 128.792969 203.078125 129.300781 C 204.035156 129.8125 204.960938 130.367188 205.863281 130.96875 C 206.761719 131.570312 207.628906 132.214844 208.46875 132.902344 C 209.304688 133.589844 210.105469 134.3125 210.871094 135.078125 C 211.636719 135.84375 212.363281 136.644531 213.046875 137.484375 C 213.734375 138.320312 214.378906 139.1875 214.980469 140.089844 C 215.582031 140.988281 216.136719 141.914062 216.648438 142.871094 C 217.15625 143.824219 217.621094 144.800781 218.035156 145.800781 C 218.449219 146.800781 218.8125 147.820312 219.128906 148.855469 C 219.441406 149.890625 219.703125 150.941406 219.914062 152.003906 C 220.125 153.0625 220.285156 154.132812 220.390625 155.210938 C 220.496094 156.289062 220.550781 157.367188 220.550781 158.449219 Z M 220.550781 158.449219 " fill-opacity="1" fill-rule="nonzero"/><path fill="#000000" d="M 308.683594 158.449219 C 308.683594 159.53125 308.632812 160.613281 308.527344 161.691406 C 308.421875 162.765625 308.261719 163.835938 308.050781 164.898438 C 307.839844 165.960938 307.578125 167.007812 307.261719 168.042969 C 306.949219 169.078125 306.582031 170.097656 306.167969 171.097656 C 305.753906 172.097656 305.292969 173.074219 304.78125 174.03125 C 304.273438 174.984375 303.714844 175.910156 303.117188 176.8125 C 302.515625 177.710938 301.871094 178.582031 301.183594 179.417969 C 300.496094 180.253906 299.769531 181.054688 299.003906 181.820312 C 298.238281 182.585938 297.4375 183.3125 296.601562 184 C 295.765625 184.683594 294.898438 185.328125 293.996094 185.929688 C 293.097656 186.53125 292.167969 187.085938 291.214844 187.597656 C 290.261719 188.109375 289.28125 188.570312 288.28125 188.984375 C 287.28125 189.398438 286.265625 189.761719 285.230469 190.078125 C 284.191406 190.390625 283.144531 190.65625 282.082031 190.867188 C 281.019531 191.078125 279.953125 191.234375 278.875 191.339844 C 277.796875 191.449219 276.71875 191.5 275.636719 191.5 C 274.550781 191.5 273.472656 191.449219 272.394531 191.339844 C 271.316406 191.234375 270.25 191.078125 269.1875 190.867188 C 268.125 190.65625 267.078125 190.390625 266.039062 190.078125 C 265.003906 189.761719 263.988281 189.398438 262.988281 188.984375 C 261.988281 188.570312 261.007812 188.109375 260.054688 187.597656 C 259.101562 187.085938 258.171875 186.53125 257.273438 185.929688 C 256.371094 185.328125 255.503906 184.683594 254.667969 184 C 253.832031 183.3125 253.03125 182.585938 252.265625 181.820312 C 251.5 181.054688 250.773438 180.253906 250.085938 179.417969 C 249.398438 178.582031 248.753906 177.710938 248.152344 176.8125 C 247.554688 175.910156 246.996094 174.984375 246.488281 174.03125 C 245.976562 173.074219 245.515625 172.097656 245.101562 171.097656 C 244.6875 170.097656 244.320312 169.078125 244.007812 168.042969 C 243.691406 167.007812 243.429688 165.960938 243.21875 164.898438 C 243.007812 163.835938 242.847656 162.765625 242.742188 161.691406 C 242.636719 160.613281 242.585938 159.53125 242.585938 158.449219 C 242.585938 157.367188 242.636719 156.289062 242.742188 155.210938 C 242.847656 154.132812 243.007812 153.0625 243.21875 152.003906 C 243.429688 150.941406 243.691406 149.890625 244.007812 148.855469 C 244.320312 147.820312 244.6875 146.800781 245.101562 145.800781 C 245.515625 144.800781 245.976562 143.824219 246.488281 142.871094 C 246.996094 141.914062 247.554688 140.988281 248.152344 140.089844 C 248.753906 139.1875 249.398438 138.320312 250.085938 137.484375 C 250.773438 136.644531 251.5 135.84375 252.265625 135.078125 C 253.03125 134.3125 253.832031 133.589844 254.667969 132.902344 C 255.503906 132.214844 256.371094 131.570312 257.273438 130.96875 C 258.171875 130.367188 259.101562 129.8125 260.054688 129.300781 C 261.007812 128.792969 261.988281 128.328125 262.988281 127.914062 C 263.988281 127.5 265.003906 127.136719 266.039062 126.824219 C 267.078125 126.507812 268.125 126.246094 269.1875 126.035156 C 270.25 125.824219 271.316406 125.664062 272.394531 125.558594 C 273.472656 125.453125 274.550781 125.398438 275.636719 125.398438 C 276.71875 125.398438 277.796875 125.453125 278.875 125.558594 C 279.953125 125.664062 281.019531 125.824219 282.082031 126.035156 C 283.144531 126.246094 284.191406 126.507812 285.230469 126.824219 C 286.265625 127.136719 287.28125 127.5 288.28125 127.914062 C 289.28125 128.328125 290.261719 128.792969 291.214844 129.300781 C 292.167969 129.8125 293.097656 130.367188 293.996094 130.96875 C 294.898438 131.570312 295.765625 132.214844 296.601562 132.902344 C 297.4375 133.589844 298.238281 134.3125 299.003906 135.078125 C 299.769531 135.84375 300.496094 136.644531 301.183594 137.484375 C 301.871094 138.320312 302.515625 139.1875 303.117188 140.089844 C 303.714844 140.988281 304.273438 141.914062 304.78125 142.871094 C 305.292969 143.824219 305.753906 144.800781 306.167969 145.800781 C 306.582031 146.800781 306.949219 147.820312 307.261719 148.855469 C 307.578125 149.890625 307.839844 150.941406 308.050781 152.003906 C 308.261719 153.0625 308.421875 154.132812 308.527344 155.210938 C 308.632812 156.289062 308.683594 157.367188 308.683594 158.449219 Z M 308.683594 158.449219 " fill-opacity="1" fill-rule="nonzero"/><path fill="#000000" d="M 132.414062 158.449219 C 132.414062 159.53125 132.363281 160.613281 132.257812 161.691406 C 132.152344 162.765625 131.992188 163.835938 131.78125 164.898438 C 131.570312 165.960938 131.308594 167.007812 130.992188 168.042969 C 130.679688 169.078125 130.3125 170.097656 129.898438 171.097656 C 129.484375 172.097656 129.023438 173.074219 128.511719 174.03125 C 128.003906 174.984375 127.445312 175.910156 126.84375 176.8125 C 126.246094 177.710938 125.601562 178.582031 124.914062 179.417969 C 124.226562 180.253906 123.5 181.054688 122.734375 181.820312 C 121.96875 182.585938 121.167969 183.3125 120.332031 184 C 119.496094 184.683594 118.628906 185.328125 117.726562 185.929688 C 116.828125 186.53125 115.898438 187.085938 114.945312 187.597656 C 113.992188 188.109375 113.011719 188.570312 112.011719 188.984375 C 111.011719 189.398438 109.996094 189.761719 108.960938 190.078125 C 107.921875 190.390625 106.875 190.65625 105.8125 190.867188 C 104.75 191.078125 103.683594 191.234375 102.605469 191.339844 C 101.527344 191.449219 100.449219 191.5 99.363281 191.5 C 98.28125 191.5 97.203125 191.449219 96.125 191.339844 C 95.046875 191.234375 93.980469 191.078125 92.917969 190.867188 C 91.855469 190.65625 90.808594 190.390625 89.769531 190.078125 C 88.734375 189.761719 87.71875 189.398438 86.71875 188.984375 C 85.71875 188.570312 84.738281 188.109375 83.785156 187.597656 C 82.832031 187.085938 81.902344 186.53125 81.003906 185.929688 C 80.101562 185.328125 79.234375 184.683594 78.398438 184 C 77.5625 183.3125 76.761719 182.585938 75.996094 181.820312 C 75.230469 181.054688 74.503906 180.253906 73.816406 179.417969 C 73.128906 178.582031 72.484375 177.710938 71.882812 176.8125 C 71.285156 175.910156 70.726562 174.984375 70.21875 174.03125 C 69.707031 173.074219 69.246094 172.097656 68.832031 171.097656 C 68.417969 170.097656 68.050781 169.078125 67.738281 168.042969 C 67.421875 167.007812 67.160156 165.960938 66.949219 164.898438 C 66.738281 163.835938 66.578125 162.765625 66.472656 161.691406 C 66.367188 160.613281 66.316406 159.53125 66.316406 158.449219 C 66.316406 157.367188 66.367188 156.289062 66.472656 155.210938 C 66.578125 154.132812 66.738281 153.0625 66.949219 152.003906 C 67.160156 150.941406 67.421875 149.890625 67.738281 148.855469 C 68.050781 147.820312 68.417969 146.800781 68.832031 145.800781 C 69.246094 144.800781 69.707031 143.824219 70.21875 142.871094 C 70.726562 141.914062 71.285156 140.988281 71.882812 140.089844 C 72.484375 139.1875 73.128906 138.320312 73.816406 137.484375 C 74.503906 136.644531 75.230469 135.84375 75.996094 135.078125 C 76.761719 134.3125 77.5625 133.589844 78.398438 132.902344 C 79.234375 132.214844 80.101562 131.570312 81.003906 130.96875 C 81.902344 130.367188 82.832031 129.8125 83.785156 129.300781 C 84.738281 128.792969 85.71875 128.328125 86.71875 127.914062 C 87.71875 127.5 88.734375 127.136719 89.769531 126.824219 C 90.808594 126.507812 91.855469 126.246094 92.917969 126.035156 C 93.980469 125.824219 95.046875 125.664062 96.125 125.558594 C 97.203125 125.453125 98.28125 125.398438 99.363281 125.398438 C 100.449219 125.398438 101.527344 125.453125 102.605469 125.558594 C 103.683594 125.664062 104.75 125.824219 105.8125 126.035156 C 106.875 126.246094 107.921875 126.507812 108.960938 126.824219 C 109.996094 127.136719 111.011719 127.5 112.011719 127.914062 C 113.011719 128.328125 113.992188 128.792969 114.945312 129.300781 C 115.898438 129.8125 116.828125 130.367188 117.726562 130.96875 C 118.628906 131.570312 119.496094 132.214844 120.332031 132.902344 C 121.167969 133.589844 121.96875 134.3125 122.734375 135.078125 C 123.5 135.84375 124.226562 136.644531 124.914062 137.484375 C 125.601562 138.320312 126.246094 139.1875 126.84375 140.089844 C 127.445312 140.988281 128.003906 141.914062 128.511719 142.871094 C 129.023438 143.824219 129.484375 144.800781 129.898438 145.800781 C 130.3125 146.800781 130.679688 147.820312 130.992188 148.855469 C 131.308594 149.890625 131.570312 150.941406 131.78125 152.003906 C 131.992188 153.0625 132.152344 154.132812 132.257812 155.210938 C 132.363281 156.289062 132.414062 157.367188 132.414062 158.449219 Z M 132.414062 158.449219 " fill-opacity="1" fill-rule="nonzero"/><g clip-path="url(#ed25ad387e)"><path fill="#000000" d="M 313.828125 26.246094 L 61.171875 26.246094 C 27.558594 26.246094 0.214844 53.59375 0.214844 87.207031 L 0.214844 229.691406 C 0.214844 263.304688 27.558594 290.652344 61.171875 290.652344 L 99.363281 290.652344 L 99.363281 334.71875 C 99.363281 343.5625 109.246094 348.71875 116.492188 343.886719 L 196.34375 290.652344 L 313.828125 290.652344 C 347.441406 290.652344 374.785156 263.304688 374.785156 229.691406 L 374.785156 87.207031 C 374.785156 53.59375 347.441406 26.246094 313.828125 26.246094 Z M 352.753906 229.691406 C 352.753906 251.15625 335.292969 268.617188 313.828125 268.617188 L 193.007812 268.617188 C 190.832031 268.617188 188.707031 269.261719 186.898438 270.46875 L 121.398438 314.136719 L 121.398438 279.636719 C 121.398438 273.550781 116.464844 268.617188 110.382812 268.617188 L 61.171875 268.617188 C 39.707031 268.617188 22.246094 251.15625 22.246094 229.691406 L 22.246094 87.207031 C 22.246094 65.742188 39.707031 48.28125 61.171875 48.28125 L 313.828125 48.28125 C 335.292969 48.28125 352.753906 65.742188 352.753906 87.207031 Z M 352.753906 229.691406 " fill-opacity="1" fill-rule="nonzero"/></g></svg>