<svg xmlns="http://www.w3.org/2000/svg" xmlns:xlink="http://www.w3.org/1999/xlink" width="500" zoomAndPan="magnify" viewBox="0 0 375 374.999991" height="500" preserveAspectRatio="xMidYMid meet" version="1.0"><defs><clipPath id="4f538c8cb6"><path d="M 187.5 0 C 83.945312 0 0 83.945312 0 187.5 C 0 291.054688 83.945312 375 187.5 375 C 291.054688 375 375 291.054688 375 187.5 C 375 83.945312 291.054688 0 187.5 0 Z M 187.5 0 " clip-rule="nonzero"/></clipPath><clipPath id="b11285216a"><path d="M 77 56.457031 L 298 56.457031 L 298 318.207031 L 77 318.207031 Z M 77 56.457031 " clip-rule="nonzero"/></clipPath></defs><g clip-path="url(#4f538c8cb6)"><path stroke-linecap="butt" transform="matrix(0.75, 0, 0, 0.75, 0.0000045, 0)" fill="none" stroke-linejoin="miter" d="M 249.999994 0 C 111.927078 0 -0.000006 111.927084 -0.000006 250 C -0.000006 388.072917 111.927078 500.000001 249.999994 500.000001 C 388.072911 500.000001 499.999995 388.072917 499.999995 250 C 499.999995 111.927084 388.072911 0 249.999994 0 Z M 249.999994 0 " stroke="#000000" stroke-width="60" stroke-opacity="1" stroke-miterlimit="4"/></g><g clip-path="url(#b11285216a)"><path fill="#000000" d="M 295.703125 94.558594 C 292.425781 90.851562 286.996094 91.824219 282.628906 90.832031 C 250.992188 85.628906 221.273438 72.714844 192.878906 58.25 C 191.53125 57.605469 190.121094 57.054688 188.707031 56.5625 L 186.660156 56.5625 C 181.726562 58.035156 177.359375 60.847656 172.71875 62.988281 C 147.816406 75.207031 121.703125 85.730469 94.25 90.542969 C 90.300781 91.339844 86.191406 91.277344 82.324219 92.433594 C 79.257812 93.78125 77.007812 96.988281 77.179688 100.390625 C 76.863281 119.300781 77.550781 138.222656 79.03125 157.070312 C 81.167969 181.058594 84.625 205.179688 92.703125 227.972656 C 96.621094 238.546875 101.601562 248.9375 109.109375 257.464844 C 129.597656 281.6875 155.046875 301.539062 182.894531 316.648438 C 184.082031 317.242188 185.320312 317.71875 186.589844 318.097656 L 188.367188 318.097656 C 193.335938 316.699219 197.441406 313.398438 201.980469 311.070312 C 223.5625 298.3125 243.300781 282.433594 260.300781 264.015625 C 265.433594 258.210938 270.714844 252.398438 274.386719 245.53125 C 282.933594 230.359375 287.445312 213.332031 290.820312 196.375 C 296.628906 165.460938 298.132812 133.898438 297.960938 102.507812 C 298.054688 99.707031 297.839844 96.632812 295.703125 94.558594 Z M 283.695312 189.425781 C 280.214844 208.46875 275.695312 227.859375 265.449219 244.53125 C 256.347656 257.691406 244.613281 268.785156 232.609375 279.257812 C 218.757812 291.066406 203.53125 301.179688 187.550781 309.894531 C 159.519531 294.695312 133.84375 274.710938 113.585938 250.007812 C 103.140625 236.667969 98.199219 220.066406 94.292969 203.84375 C 86.746094 169.8125 84.957031 134.769531 85.445312 100.003906 C 121.609375 95.929688 155.402344 81.0625 187.558594 64.78125 C 219.703125 81.082031 253.539062 95.90625 289.714844 99.988281 C 290.167969 129.886719 288.738281 159.910156 283.695312 189.425781 Z M 283.695312 189.425781 " fill-opacity="1" fill-rule="nonzero"/></g><path fill="#000000" d="M 101.691406 114.203125 C 102.292969 146.375 104.144531 178.894531 112.65625 210.070312 C 115.988281 221.566406 120.277344 233.242188 128.488281 242.21875 C 145.007812 261.949219 165.492188 278.039062 187.566406 291.144531 C 211.050781 277.199219 232.734375 259.800781 249.792969 238.378906 C 257.871094 227.304688 261.695312 213.855469 264.859375 200.703125 C 271.21875 172.351562 272.9375 143.183594 273.40625 114.210938 C 243.359375 108.417969 214.832031 96.730469 187.554688 83.121094 C 160.265625 96.722656 131.75 108.433594 101.691406 114.203125 Z M 101.691406 114.203125 " fill-opacity="1" fill-rule="nonzero"/></svg>