<svg xmlns="http://www.w3.org/2000/svg" xmlns:xlink="http://www.w3.org/1999/xlink" width="500" zoomAndPan="magnify" viewBox="0 0 375 374.999991" height="500" preserveAspectRatio="xMidYMid meet" version="1.0"><defs><clipPath id="8a2b9d0c6c"><path d="M 187.5 0 C 83.945312 0 0 83.945312 0 187.5 C 0 291.054688 83.945312 375 187.5 375 C 291.054688 375 375 291.054688 375 187.5 C 375 83.945312 291.054688 0 187.5 0 Z M 187.5 0 " clip-rule="nonzero"/></clipPath><clipPath id="99d1f6859b"><path d="M 50.152344 37.5 L 324.652344 37.5 L 324.652344 281 L 50.152344 281 Z M 50.152344 37.5 " clip-rule="nonzero"/></clipPath><clipPath id="579bf15198"><path d="M 54 37.5 L 324.652344 37.5 L 324.652344 281 L 54 281 Z M 54 37.5 " clip-rule="nonzero"/></clipPath></defs><g clip-path="url(#8a2b9d0c6c)"><path stroke-linecap="butt" transform="matrix(0.75, 0, 0, 0.75, 0.0000045, 0)" fill="none" stroke-linejoin="miter" d="M 249.999994 0 C 111.927078 0 -0.000006 111.927084 -0.000006 250 C -0.000006 388.072917 111.927078 500.000001 249.999994 500.000001 C 388.072911 500.000001 499.999995 388.072917 499.999995 250 C 499.999995 111.927084 388.072911 0 249.999994 0 Z M 249.999994 0 " stroke="#000000" stroke-width="60" stroke-opacity="1" stroke-miterlimit="4"/></g><g clip-path="url(#99d1f6859b)"><path fill="#ffbd59" d="M 205.300781 47.835938 L 322.019531 250.039062 C 325.792969 256.578125 325.792969 264.058594 322.019531 270.597656 C 318.246094 277.136719 311.765625 280.878906 304.21875 280.878906 L 70.785156 280.878906 C 63.238281 280.878906 56.757812 277.136719 52.984375 270.597656 C 49.210938 264.058594 49.210938 256.574219 52.984375 250.039062 L 169.703125 47.835938 C 173.476562 41.296875 179.957031 37.554688 187.503906 37.554688 C 195.050781 37.554688 201.527344 41.296875 205.300781 47.835938 Z M 205.300781 47.835938 " fill-opacity="1" fill-rule="evenodd"/></g><path fill="#ffffff" d="M 187.5 244.136719 C 195.097656 244.136719 201.292969 237.941406 201.292969 230.339844 C 201.292969 222.742188 195.097656 216.542969 187.5 216.542969 C 179.902344 216.542969 173.707031 222.742188 173.707031 230.339844 C 173.707031 237.941406 179.902344 244.136719 187.5 244.136719 Z M 187.5 244.136719 " fill-opacity="1" fill-rule="evenodd"/><path fill="#ffffff" d="M 187.5 206.378906 C 181.097656 206.378906 176.171875 201.128906 175.859375 194.734375 L 172.289062 121.730469 C 171.71875 110.058594 176.964844 100.488281 187.5 100.488281 C 198.039062 100.488281 203.28125 110.058594 202.710938 121.730469 L 199.140625 194.734375 C 198.828125 201.128906 193.902344 206.378906 187.5 206.378906 Z M 187.5 206.378906 " fill-opacity="1" fill-rule="evenodd"/><g clip-path="url(#579bf15198)"><path fill="#f69c04" d="M 180.816406 40.101562 L 239.175781 141.203125 L 297.535156 242.308594 L 271.699219 197.550781 C 291.9375 246.886719 274.488281 272.082031 219.355469 273.144531 L 54.699219 273.144531 C 58.570312 278.097656 64.28125 280.878906 70.785156 280.878906 L 304.21875 280.878906 C 311.765625 280.878906 318.246094 277.136719 322.019531 270.597656 C 325.792969 264.058594 325.792969 256.578125 322.019531 250.039062 L 205.300781 47.835938 C 201.527344 41.296875 195.046875 37.554688 187.5 37.554688 C 184.867188 37.554688 182.363281 38.011719 180.058594 38.882812 C 180.320312 39.277344 180.574219 39.683594 180.816406 40.101562 Z M 180.816406 40.101562 " fill-opacity="1" fill-rule="evenodd"/></g><path fill="#b4b4b4" d="M 195.496094 225.828125 C 195.496094 233.445312 189.320312 239.625 181.703125 239.625 C 179.835938 239.625 178.058594 239.253906 176.4375 238.582031 C 178.953125 241.953125 182.972656 244.136719 187.5 244.136719 C 195.117188 244.136719 201.292969 237.960938 201.292969 230.339844 C 201.292969 224.585938 197.773438 219.65625 192.765625 217.585938 C 194.480469 219.886719 195.496094 222.738281 195.496094 225.828125 Z M 195.496094 225.828125 " fill-opacity="1" fill-rule="evenodd"/><path fill="#b4b4b4" d="M 187.5 206.375 C 193.902344 206.375 198.828125 201.128906 199.140625 194.734375 L 202.710938 121.726562 C 203.171875 112.289062 199.828125 104.21875 192.953125 101.484375 C 195.871094 105.378906 197.214844 111 196.914062 117.214844 L 193.34375 190.222656 C 193.03125 196.617188 188.105469 201.863281 181.703125 201.863281 C 180.398438 201.863281 179.15625 201.648438 178.003906 201.246094 C 180.085938 204.332031 183.507812 206.375 187.5 206.375 Z M 187.5 206.375 " fill-opacity="1" fill-rule="evenodd"/></svg>