<svg xmlns="http://www.w3.org/2000/svg" xmlns:xlink="http://www.w3.org/1999/xlink" width="500" zoomAndPan="magnify" viewBox="0 0 375 374.999991" height="500" preserveAspectRatio="xMidYMid meet" version="1.0"><defs><clipPath id="a7dbcdafc2"><path d="M 187.5 0 C 83.945312 0 0 83.945312 0 187.5 C 0 291.054688 83.945312 375 187.5 375 C 291.054688 375 375 291.054688 375 187.5 C 375 83.945312 291.054688 0 187.5 0 Z M 187.5 0 " clip-rule="nonzero"/></clipPath><clipPath id="d2d599bbb0"><path d="M 156 217 L 219 217 L 219 318.578125 L 156 318.578125 Z M 156 217 " clip-rule="nonzero"/></clipPath><clipPath id="2686070533"><path d="M 84.660156 217 L 161 217 L 161 318.578125 L 84.660156 318.578125 Z M 84.660156 217 " clip-rule="nonzero"/></clipPath><clipPath id="64282c3b10"><path d="M 215 217 L 290.160156 217 L 290.160156 318.578125 L 215 318.578125 Z M 215 217 " clip-rule="nonzero"/></clipPath><clipPath id="61d5ae62b9"><path d="M 105 56.078125 L 269 56.078125 L 269 169 L 105 169 Z M 105 56.078125 " clip-rule="nonzero"/></clipPath></defs><g clip-path="url(#a7dbcdafc2)"><path stroke-linecap="butt" transform="matrix(0.75, 0, 0, 0.75, 0.0000045, 0)" fill="none" stroke-linejoin="miter" d="M 249.999994 0 C 111.927078 0 -0.000006 111.927084 -0.000006 250 C -0.000006 388.072917 111.927078 500.000001 249.999994 500.000001 C 388.072911 500.000001 499.999995 388.072917 499.999995 250 C 499.999995 111.927084 388.072911 0 249.999994 0 Z M 249.999994 0 " stroke="#000000" stroke-width="60" stroke-opacity="1" stroke-miterlimit="4"/></g><path fill="#000000" d="M 204.109375 191.996094 C 204.195312 192.53125 204.257812 193.074219 204.292969 193.617188 C 204.324219 194.160156 204.332031 194.703125 204.3125 195.246094 C 204.292969 195.789062 204.25 196.332031 204.175781 196.871094 C 204.105469 197.410156 204.003906 197.941406 203.878906 198.472656 C 203.753906 199 203.605469 199.523438 203.429688 200.039062 C 203.25 200.554688 203.050781 201.058594 202.824219 201.554688 C 202.597656 202.046875 202.347656 202.53125 202.074219 203 C 201.800781 203.472656 201.507812 203.925781 201.1875 204.367188 C 200.871094 204.808594 200.53125 205.234375 200.171875 205.640625 C 199.8125 206.050781 199.433594 206.441406 199.035156 206.808594 C 198.636719 207.179688 198.21875 207.53125 197.789062 207.863281 C 197.355469 208.191406 196.90625 208.5 196.445312 208.785156 C 195.980469 209.070312 195.503906 209.335938 195.015625 209.574219 C 194.527344 209.8125 194.027344 210.027344 193.519531 210.21875 C 193.007812 210.40625 192.492188 210.574219 191.964844 210.710938 C 191.4375 210.851562 190.90625 210.964844 190.371094 211.050781 C 189.832031 211.140625 189.292969 211.199219 188.75 211.234375 C 188.207031 211.269531 187.664062 211.277344 187.117188 211.257812 C 186.574219 211.238281 186.03125 211.191406 185.492188 211.117188 C 184.953125 211.046875 184.417969 210.949219 183.890625 210.824219 C 183.359375 210.699219 182.835938 210.546875 182.324219 210.371094 C 181.808594 210.195312 181.304688 209.992188 180.808594 209.769531 C 180.3125 209.542969 179.828125 209.292969 179.359375 209.019531 C 178.890625 208.746094 178.433594 208.449219 177.992188 208.132812 C 177.550781 207.8125 177.125 207.476562 176.714844 207.113281 C 176.308594 206.753906 175.917969 206.375 175.546875 205.976562 C 175.175781 205.582031 174.828125 205.164062 174.496094 204.734375 C 174.167969 204.300781 173.859375 203.851562 173.570312 203.390625 C 173.285156 202.925781 173.023438 202.453125 172.785156 201.964844 C 172.542969 201.472656 172.328125 200.976562 172.140625 200.464844 C 171.949219 199.957031 171.785156 199.4375 171.644531 198.914062 C 171.503906 198.386719 171.390625 197.855469 171.304688 197.316406 C 171.21875 196.78125 171.15625 196.242188 171.121094 195.699219 C 171.089844 195.15625 171.082031 194.613281 171.101562 194.070312 C 171.121094 193.523438 171.164062 192.984375 171.238281 192.445312 C 171.308594 191.90625 171.410156 191.371094 171.535156 190.839844 C 171.660156 190.3125 171.808594 189.789062 171.984375 189.273438 C 172.164062 188.761719 172.363281 188.253906 172.589844 187.761719 C 172.816406 187.265625 173.066406 186.785156 173.339844 186.3125 C 173.613281 185.84375 173.90625 185.386719 174.226562 184.945312 C 174.542969 184.503906 174.882812 184.078125 175.242188 183.671875 C 175.601562 183.261719 175.980469 182.875 176.378906 182.503906 C 176.777344 182.132812 177.195312 181.78125 177.625 181.453125 C 178.058594 181.121094 178.507812 180.8125 178.96875 180.527344 C 179.433594 180.242188 179.910156 179.980469 180.398438 179.738281 C 180.886719 179.5 181.386719 179.285156 181.894531 179.097656 C 182.40625 178.90625 182.921875 178.742188 183.449219 178.601562 C 183.976562 178.460938 184.507812 178.347656 185.042969 178.261719 C 185.582031 178.175781 186.121094 178.113281 186.664062 178.078125 C 187.207031 178.046875 187.75 178.039062 188.296875 178.058594 C 188.839844 178.078125 189.382812 178.121094 189.921875 178.195312 C 190.460938 178.265625 190.996094 178.367188 191.523438 178.492188 C 192.054688 178.617188 192.574219 178.765625 193.089844 178.941406 C 193.605469 179.117188 194.109375 179.320312 194.605469 179.546875 C 195.101562 179.773438 195.582031 180.019531 196.054688 180.292969 C 196.523438 180.566406 196.980469 180.863281 197.421875 181.183594 C 197.863281 181.5 198.289062 181.839844 198.695312 182.199219 C 199.105469 182.558594 199.496094 182.9375 199.867188 183.335938 C 200.238281 183.734375 200.585938 184.148438 200.917969 184.582031 C 201.246094 185.011719 201.554688 185.460938 201.84375 185.921875 C 202.128906 186.386719 202.390625 186.863281 202.628906 187.351562 C 202.871094 187.839844 203.085938 188.339844 203.273438 188.847656 C 203.464844 189.359375 203.628906 189.875 203.769531 190.402344 C 203.910156 190.925781 204.023438 191.457031 204.109375 191.996094 Z M 204.109375 191.996094 " fill-opacity="1" fill-rule="nonzero"/><g clip-path="url(#d2d599bbb0)"><path fill="#000000" d="M 208.765625 218.914062 C 207.671875 218.332031 206.480469 218.082031 205.316406 218.125 C 204.5 217.542969 203.503906 217.195312 202.421875 217.195312 L 172.96875 217.195312 C 171.832031 217.195312 170.808594 217.585938 169.964844 218.207031 C 168.839844 218.191406 167.691406 218.441406 166.625 219.011719 L 156.53125 224.3125 L 163.148438 235.925781 L 163.925781 236.089844 L 167.941406 233.972656 L 167.941406 265.488281 C 167.941406 266.597656 168.300781 267.609375 168.910156 268.4375 L 168.910156 309.949219 C 168.910156 314.476562 172.582031 318.128906 177.09375 318.128906 C 181.609375 318.128906 185.277344 314.460938 185.277344 309.949219 L 185.277344 270.527344 L 190.125 270.527344 L 190.125 309.949219 C 190.125 314.476562 193.792969 318.128906 198.308594 318.128906 C 202.824219 318.128906 206.492188 314.460938 206.492188 309.949219 L 206.492188 268.4375 C 207.089844 267.609375 207.460938 266.597656 207.460938 265.488281 L 207.460938 233.875 L 211.382812 235.9375 L 211.464844 235.910156 L 218.277344 223.910156 L 208.75 218.898438 Z M 208.765625 218.914062 " fill-opacity="1" fill-rule="nonzero"/></g><path fill="#000000" d="M 129.125 179.320312 C 129.628906 179.527344 130.117188 179.761719 130.597656 180.015625 C 131.078125 180.273438 131.546875 180.554688 131.996094 180.855469 C 132.449219 181.15625 132.886719 181.480469 133.308594 181.828125 C 133.726562 182.171875 134.128906 182.535156 134.515625 182.921875 C 134.902344 183.304688 135.265625 183.707031 135.609375 184.128906 C 135.957031 184.550781 136.28125 184.984375 136.582031 185.4375 C 136.882812 185.890625 137.164062 186.355469 137.421875 186.835938 C 137.675781 187.316406 137.910156 187.808594 138.117188 188.308594 C 138.324219 188.8125 138.507812 189.324219 138.667969 189.84375 C 138.824219 190.363281 138.957031 190.890625 139.0625 191.425781 C 139.167969 191.960938 139.25 192.496094 139.300781 193.039062 C 139.355469 193.578125 139.382812 194.121094 139.382812 194.667969 C 139.382812 195.210938 139.355469 195.753906 139.300781 196.292969 C 139.25 196.835938 139.167969 197.375 139.0625 197.90625 C 138.957031 198.441406 138.824219 198.96875 138.667969 199.488281 C 138.507812 200.007812 138.324219 200.519531 138.117188 201.023438 C 137.910156 201.523438 137.675781 202.015625 137.421875 202.496094 C 137.164062 202.976562 136.882812 203.441406 136.582031 203.894531 C 136.28125 204.347656 135.957031 204.78125 135.609375 205.203125 C 135.265625 205.625 134.902344 206.027344 134.515625 206.410156 C 134.128906 206.796875 133.726562 207.160156 133.308594 207.507812 C 132.886719 207.851562 132.449219 208.175781 131.996094 208.476562 C 131.546875 208.777344 131.078125 209.058594 130.597656 209.316406 C 130.117188 209.570312 129.628906 209.804688 129.125 210.011719 C 128.621094 210.21875 128.109375 210.402344 127.589844 210.5625 C 127.066406 210.71875 126.542969 210.851562 126.007812 210.957031 C 125.472656 211.0625 124.9375 211.144531 124.394531 211.195312 C 123.851562 211.25 123.308594 211.277344 122.765625 211.277344 C 122.222656 211.277344 121.679688 211.25 121.136719 211.195312 C 120.59375 211.144531 120.058594 211.0625 119.523438 210.957031 C 118.988281 210.851562 118.460938 210.71875 117.941406 210.5625 C 117.421875 210.402344 116.910156 210.21875 116.40625 210.011719 C 115.902344 209.804688 115.410156 209.570312 114.933594 209.316406 C 114.453125 209.058594 113.984375 208.777344 113.535156 208.476562 C 113.082031 208.175781 112.644531 207.851562 112.222656 207.507812 C 111.804688 207.160156 111.398438 206.796875 111.015625 206.410156 C 110.628906 206.027344 110.265625 205.625 109.921875 205.203125 C 109.574219 204.78125 109.25 204.347656 108.949219 203.894531 C 108.644531 203.441406 108.367188 202.976562 108.109375 202.496094 C 107.855469 202.015625 107.621094 201.523438 107.414062 201.023438 C 107.203125 200.519531 107.023438 200.007812 106.863281 199.488281 C 106.707031 198.96875 106.574219 198.441406 106.46875 197.90625 C 106.359375 197.375 106.28125 196.835938 106.226562 196.292969 C 106.175781 195.753906 106.148438 195.210938 106.148438 194.667969 C 106.148438 194.121094 106.175781 193.578125 106.226562 193.039062 C 106.28125 192.496094 106.359375 191.960938 106.46875 191.425781 C 106.574219 190.890625 106.707031 190.363281 106.863281 189.84375 C 107.023438 189.324219 107.203125 188.8125 107.414062 188.308594 C 107.621094 187.808594 107.855469 187.316406 108.109375 186.835938 C 108.367188 186.355469 108.644531 185.890625 108.949219 185.4375 C 109.25 184.984375 109.574219 184.550781 109.921875 184.128906 C 110.265625 183.707031 110.628906 183.304688 111.015625 182.921875 C 111.398438 182.535156 111.804688 182.171875 112.222656 181.828125 C 112.644531 181.480469 113.082031 181.15625 113.535156 180.855469 C 113.984375 180.554688 114.453125 180.273438 114.933594 180.015625 C 115.410156 179.761719 115.902344 179.527344 116.40625 179.320312 C 116.910156 179.113281 117.421875 178.929688 117.941406 178.773438 C 118.460938 178.613281 118.988281 178.480469 119.523438 178.375 C 120.058594 178.269531 120.59375 178.191406 121.136719 178.136719 C 121.679688 178.082031 122.222656 178.054688 122.765625 178.054688 C 123.308594 178.054688 123.851562 178.082031 124.394531 178.136719 C 124.9375 178.191406 125.472656 178.269531 126.007812 178.375 C 126.542969 178.480469 127.070312 178.613281 127.589844 178.769531 C 128.109375 178.929688 128.621094 179.113281 129.125 179.320312 Z M 129.125 179.320312 " fill-opacity="1" fill-rule="nonzero"/><g clip-path="url(#2686070533)"><path fill="#000000" d="M 146.644531 221.722656 C 145.339844 219.4375 142.960938 218.179688 140.523438 218.207031 C 140.523438 218.207031 140.507812 218.207031 140.496094 218.207031 C 139.648438 217.585938 138.625 217.195312 137.488281 217.195312 L 108.035156 217.195312 C 106.957031 217.195312 105.957031 217.542969 105.140625 218.125 C 102.191406 218.027344 99.394531 219.839844 98.371094 222.773438 L 85.035156 261.089844 C 83.773438 264.703125 85.6875 268.644531 89.300781 269.90625 C 90.046875 270.167969 90.824219 270.292969 91.570312 270.292969 C 94.4375 270.292969 97.125 268.492188 98.121094 265.640625 L 102.980469 251.664062 L 102.980469 265.503906 C 102.980469 266.613281 103.339844 267.621094 103.949219 268.453125 L 103.949219 309.964844 C 103.949219 314.488281 107.621094 318.144531 112.136719 318.144531 C 116.648438 318.144531 120.320312 314.476562 120.320312 309.964844 L 120.320312 270.542969 L 125.164062 270.542969 L 125.164062 309.964844 C 125.164062 314.488281 128.835938 318.144531 133.347656 318.144531 C 137.863281 318.144531 141.535156 314.476562 141.535156 309.964844 L 141.535156 268.453125 C 142.128906 267.621094 142.503906 266.613281 142.503906 265.503906 L 142.503906 242.539062 L 146.378906 249.363281 C 147.351562 251.082031 149.011719 252.300781 150.9375 252.714844 L 160.132812 254.695312 L 160.132812 240.519531 L 156.890625 239.828125 L 146.601562 221.738281 Z M 146.644531 221.722656 " fill-opacity="1" fill-rule="nonzero"/></g><path fill="#000000" d="M 258.402344 179.316406 C 258.90625 179.523438 259.398438 179.757812 259.878906 180.011719 C 260.355469 180.269531 260.824219 180.546875 261.277344 180.851562 C 261.726562 181.152344 262.164062 181.476562 262.585938 181.820312 C 263.007812 182.167969 263.410156 182.53125 263.792969 182.917969 C 264.179688 183.300781 264.542969 183.703125 264.890625 184.125 C 265.234375 184.542969 265.558594 184.980469 265.859375 185.433594 C 266.164062 185.886719 266.441406 186.351562 266.699219 186.832031 C 266.957031 187.3125 267.1875 187.800781 267.394531 188.304688 C 267.605469 188.808594 267.789062 189.320312 267.945312 189.839844 C 268.105469 190.359375 268.234375 190.886719 268.34375 191.421875 C 268.449219 191.953125 268.527344 192.492188 268.582031 193.035156 C 268.632812 193.574219 268.660156 194.117188 268.660156 194.660156 C 268.660156 195.207031 268.632812 195.75 268.582031 196.289062 C 268.527344 196.832031 268.449219 197.367188 268.34375 197.902344 C 268.234375 198.433594 268.105469 198.960938 267.945312 199.484375 C 267.789062 200.003906 267.605469 200.515625 267.394531 201.019531 C 267.1875 201.519531 266.957031 202.011719 266.699219 202.492188 C 266.441406 202.972656 266.164062 203.4375 265.859375 203.890625 C 265.558594 204.34375 265.234375 204.777344 264.890625 205.199219 C 264.542969 205.621094 264.179688 206.023438 263.792969 206.40625 C 263.410156 206.792969 263.007812 207.15625 262.585938 207.5 C 262.164062 207.847656 261.726562 208.171875 261.277344 208.472656 C 260.824219 208.773438 260.355469 209.054688 259.878906 209.308594 C 259.398438 209.566406 258.90625 209.800781 258.402344 210.007812 C 257.898438 210.214844 257.386719 210.398438 256.867188 210.554688 C 256.347656 210.714844 255.820312 210.847656 255.285156 210.953125 C 254.753906 211.058594 254.214844 211.136719 253.671875 211.191406 C 253.132812 211.246094 252.589844 211.273438 252.042969 211.273438 C 251.5 211.273438 250.957031 211.246094 250.414062 211.191406 C 249.875 211.136719 249.335938 211.058594 248.800781 210.953125 C 248.269531 210.847656 247.742188 210.714844 247.21875 210.554688 C 246.699219 210.398438 246.1875 210.214844 245.683594 210.007812 C 245.183594 209.800781 244.691406 209.566406 244.210938 209.308594 C 243.730469 209.054688 243.265625 208.773438 242.8125 208.472656 C 242.359375 208.171875 241.921875 207.847656 241.503906 207.5 C 241.082031 207.15625 240.679688 206.792969 240.292969 206.40625 C 239.910156 206.023438 239.542969 205.621094 239.199219 205.199219 C 238.851562 204.777344 238.53125 204.34375 238.226562 203.890625 C 237.925781 203.4375 237.644531 202.972656 237.390625 202.492188 C 237.132812 202.011719 236.898438 201.519531 236.691406 201.019531 C 236.484375 200.515625 236.300781 200.003906 236.140625 199.484375 C 235.984375 198.960938 235.851562 198.433594 235.746094 197.902344 C 235.640625 197.367188 235.558594 196.832031 235.507812 196.289062 C 235.453125 195.75 235.425781 195.207031 235.425781 194.660156 C 235.425781 194.117188 235.453125 193.574219 235.507812 193.035156 C 235.558594 192.492188 235.640625 191.953125 235.746094 191.421875 C 235.851562 190.886719 235.984375 190.359375 236.140625 189.839844 C 236.300781 189.320312 236.484375 188.808594 236.691406 188.304688 C 236.898438 187.800781 237.132812 187.3125 237.390625 186.832031 C 237.644531 186.351562 237.925781 185.886719 238.226562 185.433594 C 238.53125 184.980469 238.851562 184.542969 239.199219 184.125 C 239.542969 183.703125 239.910156 183.300781 240.292969 182.917969 C 240.679688 182.53125 241.082031 182.167969 241.503906 181.820312 C 241.921875 181.476562 242.359375 181.152344 242.8125 180.851562 C 243.265625 180.546875 243.730469 180.269531 244.210938 180.011719 C 244.691406 179.757812 245.183594 179.523438 245.683594 179.316406 C 246.1875 179.109375 246.699219 178.925781 247.21875 178.765625 C 247.742188 178.609375 248.269531 178.476562 248.800781 178.371094 C 249.335938 178.265625 249.875 178.183594 250.414062 178.132812 C 250.957031 178.078125 251.5 178.050781 252.042969 178.050781 C 252.589844 178.050781 253.132812 178.078125 253.671875 178.132812 C 254.214844 178.183594 254.753906 178.265625 255.285156 178.371094 C 255.820312 178.476562 256.347656 178.609375 256.867188 178.765625 C 257.386719 178.925781 257.898438 179.109375 258.402344 179.316406 Z M 258.402344 179.316406 " fill-opacity="1" fill-rule="nonzero"/><g clip-path="url(#64282c3b10)"><path fill="#000000" d="M 289.773438 261.089844 L 276.4375 222.773438 C 275.414062 219.839844 272.617188 218.027344 269.667969 218.125 C 268.847656 217.542969 267.851562 217.195312 266.773438 217.195312 L 237.316406 217.195312 C 236.183594 217.195312 235.15625 217.585938 234.3125 218.207031 C 231.863281 218.164062 229.464844 219.4375 228.164062 221.710938 L 217.890625 239.800781 L 215.4375 240.324219 L 215.4375 254.5 L 223.84375 252.6875 C 225.769531 252.269531 227.429688 251.054688 228.398438 249.335938 L 232.277344 242.511719 L 232.277344 265.476562 C 232.277344 266.582031 232.636719 267.59375 233.246094 268.425781 L 233.246094 309.9375 C 233.246094 314.460938 236.917969 318.117188 241.429688 318.117188 C 245.945312 318.117188 249.613281 314.449219 249.613281 309.9375 L 249.613281 270.515625 L 254.460938 270.515625 L 254.460938 309.9375 C 254.460938 314.460938 258.132812 318.117188 262.644531 318.117188 C 267.160156 318.117188 270.828125 314.449219 270.828125 309.9375 L 270.828125 268.425781 C 271.425781 267.59375 271.800781 266.582031 271.800781 265.476562 L 271.800781 251.632812 L 276.660156 265.613281 C 277.65625 268.480469 280.34375 270.265625 283.210938 270.265625 C 283.957031 270.265625 284.734375 270.140625 285.480469 269.878906 C 289.09375 268.617188 291.003906 264.671875 289.746094 261.0625 Z M 289.773438 261.089844 " fill-opacity="1" fill-rule="nonzero"/></g><g clip-path="url(#61d5ae62b9)"><path fill="#000000" d="M 122.769531 166.011719 C 124.390625 166.011719 125.953125 166.175781 127.503906 166.4375 C 123.367188 157.800781 120.984375 148.167969 120.984375 137.96875 C 120.984375 136.734375 121.023438 135.460938 121.109375 134.105469 C 126.59375 140.914062 136.1875 151.074219 145.730469 152.707031 C 152.433594 153.136719 154.964844 146.839844 158.191406 138.894531 C 161.972656 129.605469 166.667969 118.035156 179.78125 110.753906 C 183.589844 108.636719 181.953125 102.769531 180.984375 99.265625 C 180.804688 98.617188 180.652344 98.046875 180.570312 97.648438 C 180.375 96.691406 179.671875 95.957031 178.699219 95.738281 C 177.773438 95.515625 176.832031 95.859375 176.261719 96.621094 C 173.105469 100.816406 169.824219 102.53125 166.515625 101.757812 C 164.605469 101.300781 163.328125 100.289062 162.941406 98.878906 C 162.527344 97.410156 163.164062 95.722656 164.660156 94.242188 C 165.878906 93.039062 167.375 91.972656 168.828125 90.933594 C 169.394531 90.53125 169.964844 90.117188 170.503906 89.714844 C 174.101562 87.015625 175.75 83.75 175.28125 82.128906 C 174.835938 80.648438 174.089844 79.679688 173.050781 79.277344 C 170.988281 78.476562 168.398438 80.027344 166.128906 81.394531 C 165.519531 81.757812 164.9375 82.117188 164.410156 82.378906 C 160.0625 84.636719 154.355469 85.203125 149.871094 83.832031 C 149.703125 83.777344 149.523438 83.722656 149.34375 83.652344 C 160.53125 75.804688 173.632812 71.679688 187.300781 71.679688 C 202.65625 71.679688 217.53125 77.035156 229.398438 86.808594 C 227.832031 86.808594 226.253906 86.851562 224.6875 86.878906 C 221.503906 86.933594 218.222656 87.003906 214.980469 86.917969 C 208.652344 86.765625 205.59375 91.792969 202.65625 96.664062 C 201.371094 98.796875 200.152344 100.816406 198.683594 102.367188 C 196.191406 104.984375 193.574219 110.519531 193.699219 114.894531 C 193.753906 117.050781 194.445312 118.769531 195.746094 119.972656 C 199.402344 123.390625 204.554688 124.25 209.539062 125.066406 C 212.03125 125.480469 214.398438 125.871094 216.519531 126.5625 C 227.390625 130.105469 227.847656 141.800781 228.261719 152.128906 C 228.316406 153.648438 228.386719 155.117188 228.46875 156.5 C 228.664062 159.546875 229.769531 161.800781 231.667969 163.035156 C 233.773438 164.40625 236.707031 164.433594 240.128906 163.160156 C 242.925781 162.105469 246.609375 154.425781 250.765625 145.234375 C 251.761719 143.035156 252.839844 140.636719 253.589844 139.214844 C 253.410156 148.875 251.109375 158.105469 247.109375 166.4375 C 248.714844 166.164062 250.347656 165.984375 252.039062 165.984375 C 255.832031 165.984375 259.460938 166.742188 262.769531 168.085938 C 266.507812 158.757812 268.628906 148.597656 268.628906 137.941406 C 268.628906 93.09375 232.125 56.621094 187.273438 56.621094 C 142.417969 56.621094 105.917969 93.09375 105.917969 137.941406 C 105.917969 148.625 108.050781 158.800781 111.800781 168.15625 C 115.179688 166.757812 118.863281 165.984375 122.742188 165.984375 Z M 122.769531 166.011719 " fill-opacity="1" fill-rule="nonzero"/></g><path fill="#000000" d="M 187.714844 166.011719 C 193.726562 166.011719 199.292969 167.878906 203.917969 171.0625 C 204.125 170.535156 204.332031 170.011719 204.527344 169.5 C 205.691406 166.5625 206.894531 163.519531 207.976562 160.488281 C 208.875 157.996094 208.847656 154.605469 203.585938 152.625 C 197.492188 150.339844 191.175781 150.507812 185.070312 150.644531 C 182.273438 150.714844 179.378906 150.785156 176.566406 150.617188 C 173.992188 150.464844 172.539062 150.246094 171.789062 149.523438 C 169.324219 147.171875 166.03125 146.730469 163.59375 148.429688 L 162.625 149.109375 C 160.644531 150.492188 159.660156 152.929688 160.132812 155.296875 C 161.320312 161.375 162.636719 170.953125 164.4375 177.957031 C 169.644531 170.730469 178.132812 165.996094 187.714844 165.996094 Z M 187.714844 166.011719 " fill-opacity="1" fill-rule="nonzero"/></svg>