<svg xmlns="http://www.w3.org/2000/svg" xmlns:xlink="http://www.w3.org/1999/xlink" width="500" zoomAndPan="magnify" viewBox="0 0 375 374.999991" height="500" preserveAspectRatio="xMidYMid meet" version="1.0"><defs><clipPath id="cb317f9ccf"><path d="M 187.5 0 C 83.945312 0 0 83.945312 0 187.5 C 0 291.054688 83.945312 375 187.5 375 C 291.054688 375 375 291.054688 375 187.5 C 375 83.945312 291.054688 0 187.5 0 Z M 187.5 0 " clip-rule="nonzero"/></clipPath><clipPath id="c7847d8793"><path d="M 71.671875 76.59375 L 303.421875 76.59375 L 303.421875 213 L 71.671875 213 Z M 71.671875 76.59375 " clip-rule="nonzero"/></clipPath><clipPath id="b16a34fb2b"><path d="M 81 242 L 262 242 L 262 298.59375 L 81 298.59375 Z M 81 242 " clip-rule="nonzero"/></clipPath></defs><g clip-path="url(#cb317f9ccf)"><path stroke-linecap="butt" transform="matrix(0.75, 0, 0, 0.75, 0.0000045, 0)" fill="none" stroke-linejoin="miter" d="M 249.999994 0 C 111.927078 0 -0.000006 111.927084 -0.000006 250 C -0.000006 388.072917 111.927078 500.000001 249.999994 500.000001 C 388.072911 500.000001 499.999995 388.072917 499.999995 250 C 499.999995 111.927084 388.072911 0 249.999994 0 Z M 249.999994 0 " stroke="#000000" stroke-width="60" stroke-opacity="1" stroke-miterlimit="4"/></g><g clip-path="url(#c7847d8793)"><path fill="#000000" d="M 302.335938 194.925781 L 211.796875 78.476562 C 210.316406 76.578125 207.667969 76.039062 205.566406 77.21875 L 135.839844 116.257812 C 133.390625 117.625 130.464844 115.507812 130.988281 112.757812 L 131.636719 109.414062 C 132.148438 106.773438 130.417969 104.207031 127.777344 103.699219 L 112.769531 100.792969 C 110.128906 100.285156 107.5625 102.015625 107.054688 104.65625 L 101.488281 133.507812 C 101.21875 134.921875 100.335938 136.132812 99.078125 136.835938 L 74.222656 150.765625 C 71.878906 152.078125 71.035156 155.050781 72.347656 157.40625 L 79.816406 170.753906 C 81.128906 173.101562 84.101562 173.945312 86.453125 172.632812 L 199.011719 109.601562 C 201.113281 108.425781 203.761719 108.960938 205.242188 110.859375 L 282.570312 210.304688 C 284.222656 212.429688 287.285156 212.8125 289.410156 211.160156 L 301.476562 201.769531 C 303.601562 200.113281 303.988281 197.046875 302.335938 194.925781 Z M 302.335938 194.925781 " fill-opacity="1" fill-rule="nonzero"/></g><path fill="#000000" d="M 273.441406 212.429688 L 272.371094 218.011719 L 268.59375 237.59375 L 262.902344 267.070312 C 242.457031 250.394531 200.207031 251.148438 185.230469 252 L 183.894531 245.304688 L 208.128906 218.660156 L 212.191406 214.195312 L 209.382812 209.800781 L 195.605469 188.414062 L 215.960938 165.167969 C 216.207031 164.875 216.230469 164.472656 216.003906 164.164062 C 215.78125 163.855469 215.378906 163.742188 215.046875 163.894531 L 187.285156 175.441406 L 176.304688 158.378906 C 176.035156 157.957031 175.5 157.777344 175.007812 157.957031 C 174.429688 158.15625 174.132812 158.78125 174.335938 159.359375 L 193.222656 211.476562 L 174.035156 232.566406 L 152.160156 217.449219 C 151.804688 217.203125 151.335938 217.246094 151.027344 217.542969 C 150.714844 217.851562 150.648438 218.320312 150.894531 218.675781 L 167.765625 245.472656 L 167.789062 245.582031 L 140.894531 233.277344 L 136.679688 251.097656 C 136.679688 250.046875 136.679688 248.957031 136.65625 247.835938 L 136.480469 238.4375 L 103.695312 250.425781 L 83.074219 235.980469 L 85.597656 222.894531 L 86.445312 218.453125 L 94.261719 178.039062 C 94.351562 177.542969 94.660156 177.105469 95.109375 176.855469 L 161.59375 139.632812 L 199.3125 118.507812 C 200.070312 118.082031 201.011719 118.28125 201.542969 118.953125 L 227.527344 152.378906 L 273.125 211.015625 C 273.417969 211.421875 273.550781 211.933594 273.441406 212.429688 Z M 273.441406 212.429688 " fill-opacity="1" fill-rule="nonzero"/><g clip-path="url(#b16a34fb2b)"><path fill="#000000" d="M 261.34375 274.703125 L 261.34375 298.59375 L 81.074219 298.59375 L 81.074219 246.191406 L 81.652344 243.179688 L 102.699219 257.917969 L 129.953125 247.960938 C 129.953125 247.960938 130.402344 272.632812 125.625 275.226562 L 139.484375 268.304688 L 145.527344 242.785156 L 169.410156 253.707031 L 180.992188 259.023438 C 180.992188 259.023438 183.066406 258.84375 186.574219 258.667969 C 201.976562 257.933594 245.074219 257.578125 261.34375 274.703125 Z M 261.34375 274.703125 " fill-opacity="1" fill-rule="nonzero"/></g></svg>