<svg xmlns="http://www.w3.org/2000/svg" xmlns:xlink="http://www.w3.org/1999/xlink" width="500" zoomAndPan="magnify" viewBox="0 0 375 374.999991" height="500" preserveAspectRatio="xMidYMid meet" version="1.0"><defs><clipPath id="83863c6206"><path d="M 28.125 0 L 346.875 0 L 346.875 375 L 28.125 375 Z M 28.125 0 " clip-rule="nonzero"/></clipPath></defs><g clip-path="url(#83863c6206)"><path fill="#000011" d="M 330.292969 272.4375 C 336.683594 266.046875 337.351562 258.667969 334.769531 252.644531 C 333.714844 250.191406 332.167969 247.933594 330.25 246.019531 C 328.316406 244.082031 326.035156 242.511719 323.5625 241.457031 C 321.476562 240.578125 319.214844 240.039062 316.914062 239.996094 C 314.933594 240.210938 312.71875 240.535156 310.546875 241.285156 C 308.417969 242.039062 306.222656 243.246094 304.027344 245.308594 L 303.921875 245.417969 L 303.855469 245.480469 L 234.28125 315.054688 L 234.152344 315.164062 L 234.023438 315.292969 L 233.917969 315.421875 L 233.789062 315.527344 L 233.660156 315.65625 L 233.53125 315.765625 L 233.402344 315.871094 L 233.273438 316 L 233.144531 316.109375 L 233.011719 316.214844 L 232.863281 316.324219 L 232.734375 316.429688 L 232.476562 316.648438 L 232.347656 316.753906 L 232.324219 316.753906 L 232.195312 316.863281 L 232.066406 316.949219 L 232.066406 316.96875 L 231.9375 317.054688 L 231.789062 317.164062 L 231.660156 317.25 L 231.507812 317.355469 L 231.378906 317.441406 L 231.226562 317.550781 L 231.097656 317.636719 L 230.949219 317.722656 L 230.949219 317.742188 L 230.820312 317.828125 L 230.667969 317.914062 L 230.519531 318 L 230.390625 318.089844 L 230.238281 318.175781 L 230.089844 318.261719 L 229.960938 318.347656 L 229.808594 318.433594 L 229.65625 318.496094 L 229.65625 318.519531 L 229.507812 318.582031 L 229.355469 318.667969 L 229.226562 318.734375 L 229.207031 318.734375 L 229.078125 318.820312 L 228.925781 318.882812 L 228.777344 318.96875 L 228.625 319.035156 L 228.476562 319.097656 L 228.476562 319.121094 L 228.324219 319.183594 L 228.175781 319.25 L 228.023438 319.3125 L 227.871094 319.378906 L 227.722656 319.445312 L 227.699219 319.445312 L 227.550781 319.507812 L 227.398438 319.574219 L 227.25 319.636719 L 227.097656 319.679688 L 226.949219 319.746094 L 226.777344 319.808594 L 226.625 319.851562 L 226.476562 319.917969 L 226.324219 319.960938 L 226.152344 320.023438 L 226 320.066406 L 225.851562 320.109375 L 225.828125 320.109375 L 225.679688 320.152344 L 225.527344 320.21875 L 225.355469 320.261719 L 225.207031 320.304688 L 225.054688 320.347656 L 225.035156 320.347656 L 224.882812 320.390625 L 224.730469 320.410156 C 224.625 320.453125 224.515625 320.476562 224.410156 320.496094 L 224.238281 320.539062 L 224.085938 320.5625 C 223.980469 320.582031 223.871094 320.605469 223.765625 320.625 L 223.589844 320.648438 L 223.589844 320.667969 L 223.417969 320.691406 C 223.3125 320.710938 223.203125 320.734375 223.097656 320.734375 L 222.945312 320.753906 L 222.773438 320.796875 L 222.601562 320.820312 L 222.453125 320.839844 L 222.28125 320.839844 L 222.128906 320.863281 L 222.109375 320.863281 L 221.957031 320.882812 L 221.785156 320.90625 C 221.632812 320.90625 221.460938 320.925781 221.289062 320.925781 L 221.117188 320.949219 C 221.011719 320.949219 220.902344 320.949219 220.796875 320.96875 L 220.621094 320.96875 C 220.0625 320.992188 219.503906 320.96875 218.945312 320.949219 C 218.515625 320.925781 218.0625 320.882812 217.613281 320.839844 C 217.160156 320.777344 216.707031 320.710938 216.257812 320.625 C 216.082031 320.605469 215.910156 320.5625 215.738281 320.519531 L 215.566406 320.496094 C 215.351562 320.433594 215.117188 320.390625 214.902344 320.324219 L 214.726562 320.28125 L 214.554688 320.238281 L 32.878906 271.554688 C 30.039062 270.800781 28.363281 267.898438 29.113281 265.078125 C 29.4375 263.917969 30.105469 262.949219 30.964844 262.261719 L 114.867188 192.066406 C 117.382812 189.976562 120.199219 188.535156 123.210938 187.804688 C 125.320312 187.3125 127.492188 187.136719 129.710938 187.332031 L 129.839844 187.503906 L 129.859375 187.546875 L 130.03125 187.804688 C 135.066406 194.839844 137.605469 201.765625 137.605469 211.234375 C 137.605469 211.492188 137.625 211.726562 137.648438 211.964844 C 136.464844 214.308594 135.753906 217.257812 135.753906 220.398438 C 135.753906 223.839844 136.613281 227.089844 138.035156 229.519531 C 139.324219 231.734375 141.089844 233.414062 143.15625 234.25 L 143.15625 241.136719 C 143.15625 244.964844 144.703125 248.429688 147.21875 250.945312 C 149.738281 253.464844 153.222656 255.035156 157.050781 255.035156 L 171.636719 255.035156 C 175.46875 255.035156 178.953125 253.464844 181.449219 250.945312 C 183.964844 248.429688 185.535156 244.964844 185.535156 241.136719 L 185.535156 234.25 C 187.621094 233.414062 189.363281 231.757812 190.65625 229.519531 L 190.65625 229.496094 C 192.054688 227.066406 192.9375 223.839844 192.9375 220.398438 C 192.9375 217.277344 192.226562 214.332031 191.019531 211.984375 C 191.042969 211.898438 191.042969 211.8125 191.066406 211.75 L 191.066406 211.535156 L 191.085938 211.535156 L 191.085938 210.222656 L 191.105469 210.113281 L 191.105469 209.46875 L 191.128906 209.46875 L 191.128906 208.996094 L 191.148438 208.996094 L 191.148438 208.609375 L 191.171875 208.585938 L 191.171875 208.265625 L 191.191406 208.265625 L 191.191406 207.964844 L 191.214844 207.964844 L 191.214844 207.75 L 191.234375 207.683594 L 191.234375 207.445312 L 191.257812 207.425781 L 191.257812 207.210938 L 191.277344 207.210938 L 191.277344 206.996094 L 191.300781 206.929688 L 191.300781 206.78125 L 191.320312 206.757812 L 191.320312 206.585938 L 191.34375 206.566406 L 191.34375 206.414062 L 191.363281 206.371094 C 191.363281 206.199219 191.386719 206.046875 191.40625 205.898438 L 191.429688 205.789062 C 191.453125 205.640625 191.472656 205.488281 191.496094 205.359375 L 191.515625 205.210938 C 191.539062 205.058594 191.558594 204.929688 191.582031 204.800781 L 191.601562 204.648438 C 191.625 204.519531 191.644531 204.390625 191.667969 204.242188 L 191.6875 204.113281 L 191.753906 203.746094 L 191.796875 203.511719 L 191.859375 203.230469 L 191.902344 202.972656 L 191.96875 202.734375 L 192.03125 202.476562 L 192.074219 202.199219 L 192.160156 201.917969 L 192.203125 201.722656 L 192.289062 201.421875 L 192.289062 201.359375 L 192.332031 201.207031 L 213.15625 205.898438 L 210.597656 210.738281 L 210.617188 210.757812 L 204.402344 222.570312 C 204.101562 223.128906 203.90625 223.730469 203.84375 224.335938 L 193.171875 281.625 C 192.804688 283.324219 193.300781 285.195312 194.613281 286.507812 C 196.699219 288.570312 200.054688 288.550781 202.121094 286.484375 L 243.449219 245.117188 L 243.46875 245.09375 L 243.492188 245.09375 L 243.578125 245.007812 L 243.578125 244.988281 L 243.621094 244.964844 L 243.621094 244.945312 L 243.640625 244.921875 L 243.664062 244.902344 L 243.707031 244.878906 L 243.75 244.835938 L 243.75 244.816406 L 243.769531 244.792969 L 243.792969 244.773438 L 243.835938 244.730469 L 243.855469 244.707031 L 243.878906 244.6875 L 243.878906 244.664062 L 243.984375 244.558594 L 243.984375 244.535156 L 244.007812 244.515625 L 244.027344 244.492188 L 244.050781 244.472656 L 244.070312 244.429688 L 244.113281 244.386719 L 244.113281 244.363281 L 244.179688 244.300781 L 244.179688 244.277344 L 244.199219 244.257812 L 244.199219 244.234375 L 244.242188 244.191406 L 244.265625 244.171875 L 244.265625 244.148438 L 244.285156 244.125 L 244.328125 244.0625 L 244.328125 244.039062 L 244.394531 243.953125 L 244.394531 243.933594 L 244.414062 243.933594 L 244.457031 243.824219 L 244.480469 243.824219 L 244.480469 243.804688 L 244.542969 243.695312 L 256.460938 221.042969 L 256.484375 221.042969 L 259.042969 216.203125 L 317.539062 229.347656 C 321.042969 229.5 324.484375 230.335938 327.714844 231.714844 C 331.433594 233.304688 334.832031 235.652344 337.71875 238.492188 C 340.597656 241.375 342.945312 244.773438 344.535156 248.492188 C 348.6875 258.238281 347.761719 270.007812 337.804688 279.945312 L 248.867188 368.902344 C 246.222656 371.546875 243.082031 373.355469 239.660156 374.257812 C 236.261719 375.183594 232.625 375.183594 229.011719 374.214844 L 32.082031 321.445312 C 29.242188 320.691406 27.566406 317.785156 28.316406 314.945312 C 29.09375 312.105469 31.996094 310.429688 34.816406 311.183594 L 231.746094 363.953125 C 233.550781 364.449219 235.292969 364.449219 236.929688 364.019531 C 238.519531 363.589844 240.046875 362.707031 241.359375 361.371094 Z M 299.53125 116.445312 L 294.753906 113.929688 L 278.148438 105.195312 L 216.253906 222.828125 L 237.617188 234.078125 Z M 206.679688 266.929688 L 231.011719 242.578125 L 212.984375 233.089844 Z M 313.878906 89.167969 C 314.269531 88.414062 314.332031 87.554688 314.097656 86.800781 C 313.859375 86.050781 313.320312 85.382812 312.566406 84.972656 L 296.691406 76.625 C 295.9375 76.21875 295.097656 76.175781 294.324219 76.410156 C 293.574219 76.648438 292.90625 77.164062 292.496094 77.917969 L 292.496094 77.9375 L 283.09375 95.816406 L 304.480469 107.066406 Z M 216.148438 82.242188 C 218.234375 80.175781 218.234375 76.800781 216.148438 74.734375 C 215.632812 74.21875 215.285156 73.65625 215.136719 73.097656 C 214.964844 72.519531 214.941406 71.851562 215.09375 71.164062 L 221.117188 44.121094 C 221.742188 41.257812 219.953125 38.441406 217.09375 37.816406 C 215.328125 37.429688 213.585938 37.945312 212.359375 39.085938 L 191.945312 57.804688 C 191.429688 58.296875 190.871094 58.597656 190.289062 58.75 C 189.707031 58.898438 189.042969 58.878906 188.351562 58.683594 C 187.664062 58.492188 187.082031 58.191406 186.652344 57.78125 C 186.222656 57.351562 185.878906 56.792969 185.664062 56.125 L 169.207031 3.785156 C 168.34375 0.988281 165.375 -0.582031 162.582031 0.300781 C 160.816406 0.835938 159.566406 2.191406 159.074219 3.828125 L 142.636719 56.125 C 142.421875 56.792969 142.078125 57.351562 141.648438 57.78125 C 141.21875 58.191406 140.636719 58.492188 139.949219 58.683594 C 139.261719 58.878906 138.59375 58.898438 138.011719 58.75 C 137.429688 58.597656 136.871094 58.296875 136.335938 57.804688 L 115.941406 39.085938 C 113.789062 37.085938 110.433594 37.238281 108.453125 39.386719 C 107.140625 40.808594 106.753906 42.742188 107.25 44.464844 L 113.207031 71.164062 C 113.359375 71.851562 113.335938 72.519531 113.164062 73.097656 C 113.015625 73.65625 112.671875 74.21875 112.152344 74.734375 C 111.636719 75.25 111.078125 75.59375 110.519531 75.765625 C 109.917969 75.917969 109.269531 75.9375 108.5625 75.789062 L 54.992188 63.871094 C 52.15625 63.222656 49.316406 65.03125 48.691406 67.894531 C 48.304688 69.636719 48.839844 71.378906 49.960938 72.605469 L 49.960938 72.625 L 87.070312 113.046875 C 87.542969 113.566406 87.867188 114.144531 88.015625 114.703125 C 88.144531 115.308594 88.144531 115.953125 87.953125 116.664062 C 87.757812 117.351562 87.457031 117.910156 87.046875 118.339844 C 86.617188 118.792969 86.058594 119.113281 85.390625 119.332031 L 58.972656 127.632812 C 56.175781 128.515625 54.605469 131.484375 55.488281 134.28125 C 56.027344 136.023438 57.382812 137.292969 59.015625 137.789062 L 85.390625 146.070312 C 85.972656 146.265625 86.46875 146.542969 86.855469 146.910156 C 87.394531 147.40625 87.78125 148.050781 87.972656 148.738281 C 88.144531 149.449219 88.144531 150.199219 87.929688 150.910156 C 87.757812 151.40625 87.480469 151.902344 87.070312 152.351562 C 85.089844 154.503906 85.21875 157.859375 87.394531 159.859375 C 89.542969 161.839844 92.898438 161.6875 94.878906 159.539062 C 96.386719 157.882812 97.4375 156.007812 98.0625 154.050781 C 98.878906 151.40625 98.902344 148.609375 98.214844 146.007812 C 97.523438 143.402344 96.105469 140.992188 94.039062 139.101562 C 92.535156 137.722656 90.683594 136.625 88.554688 135.9375 L 78.226562 132.710938 L 88.554688 129.460938 C 90.941406 128.710938 93.027344 127.417969 94.683594 125.699219 C 96.34375 123.957031 97.546875 121.824219 98.191406 119.394531 C 98.835938 116.984375 98.878906 114.53125 98.300781 112.210938 C 97.71875 109.886719 96.578125 107.714844 94.878906 105.863281 L 69.148438 77.851562 L 106.28125 86.113281 C 108.734375 86.671875 111.1875 86.585938 113.464844 85.921875 C 115.789062 85.253906 117.898438 84.007812 119.660156 82.242188 C 121.425781 80.476562 122.652344 78.371094 123.339844 76.046875 C 124.007812 73.765625 124.070312 71.335938 123.535156 68.882812 L 121.167969 58.277344 L 129.171875 65.613281 C 131.019531 67.3125 133.171875 68.472656 135.515625 69.03125 C 137.839844 69.613281 140.269531 69.59375 142.679688 68.945312 C 145.113281 68.28125 147.242188 67.074219 148.984375 65.417969 C 150.707031 63.761719 151.996094 61.695312 152.75 59.289062 L 164.152344 23.039062 L 175.53125 59.289062 C 176.304688 61.695312 177.597656 63.761719 179.316406 65.417969 C 181.039062 67.074219 183.167969 68.28125 185.597656 68.945312 C 188.03125 69.59375 190.460938 69.613281 192.785156 69.03125 C 195.128906 68.472656 197.28125 67.3125 199.132812 65.613281 L 207.132812 58.277344 L 204.765625 68.882812 C 204.207031 71.335938 204.292969 73.765625 204.960938 76.046875 C 205.628906 78.371094 206.875 80.476562 208.640625 82.242188 C 210.726562 84.328125 214.082031 84.328125 216.148438 82.242188 Z M 210.46875 135.722656 C 210.46875 122.988281 205.304688 111.457031 196.957031 103.109375 C 188.609375 94.761719 177.078125 89.597656 164.34375 89.597656 C 151.609375 89.597656 140.078125 94.761719 131.730469 103.109375 C 123.382812 111.457031 118.21875 122.988281 118.21875 135.722656 C 118.21875 156.3125 125.921875 165.710938 133.214844 174.617188 C 140.121094 183.074219 146.726562 191.140625 147.996094 205.917969 L 159.03125 205.917969 L 159.03125 150.738281 C 156.363281 149.878906 153.953125 148.394531 152.015625 146.457031 C 148.855469 143.296875 146.898438 138.949219 146.898438 134.128906 C 146.898438 131.203125 149.285156 128.816406 152.210938 128.816406 C 155.15625 128.816406 157.523438 131.203125 157.523438 134.128906 C 157.523438 136.003906 158.300781 137.722656 159.523438 138.949219 C 160.75 140.175781 162.449219 140.949219 164.34375 140.949219 C 166.214844 140.949219 167.914062 140.175781 169.164062 138.949219 C 170.390625 137.722656 171.140625 136.003906 171.140625 134.128906 C 171.140625 131.203125 173.53125 128.816406 176.457031 128.816406 C 179.402344 128.816406 181.769531 131.203125 181.769531 134.128906 C 181.769531 138.949219 179.832031 143.296875 176.671875 146.457031 C 174.734375 148.394531 172.324219 149.878906 169.65625 150.738281 L 169.65625 205.917969 L 180.695312 205.917969 C 182.007812 191.980469 188.394531 184.082031 195.195312 175.695312 C 202.574219 166.59375 210.46875 156.847656 210.46875 135.722656 Z M 182.328125 224.25 C 182.886719 224.25 181.617188 224.226562 181.488281 224.207031 L 181.53125 224.25 Z M 181.488281 224.226562 L 181.488281 224.207031 C 182.007812 223.324219 182.308594 221.988281 182.308594 220.398438 C 182.308594 218.914062 182.027344 217.644531 181.574219 216.761719 C 181.554688 216.699219 181.511719 216.632812 181.488281 216.589844 L 181.488281 216.570312 L 181.511719 216.546875 L 147.21875 216.546875 L 147.199219 216.589844 C 146.683594 217.472656 146.378906 218.804688 146.378906 220.398438 C 146.378906 221.988281 146.683594 223.324219 147.199219 224.207031 L 147.199219 224.226562 L 147.15625 224.226562 L 147.132812 224.25 L 181.46875 224.25 Z M 147.175781 216.546875 L 146.359375 216.546875 C 145.84375 216.546875 146.941406 216.546875 147.15625 216.570312 L 147.199219 216.570312 Z M 154.726562 243.4375 C 155.332031 244.039062 156.148438 244.40625 157.050781 244.40625 L 171.636719 244.40625 C 172.539062 244.40625 173.359375 244.039062 173.9375 243.4375 C 174.542969 242.855469 174.90625 242.039062 174.90625 241.136719 L 174.90625 236.789062 L 153.78125 236.789062 L 153.78125 241.136719 C 153.78125 242.039062 154.148438 242.855469 154.726562 243.4375 Z M 154.726562 243.4375 " fill-opacity="1" fill-rule="evenodd"/></g></svg>