<svg xmlns="http://www.w3.org/2000/svg" xmlns:xlink="http://www.w3.org/1999/xlink" width="500" zoomAndPan="magnify" viewBox="0 0 375 374.999991" height="500" preserveAspectRatio="xMidYMid meet" version="1.0"><path fill="#000000" d="M 59.308594 217.054688 L 88.890625 217.054688 C 92.992188 217.054688 96.320312 213.726562 96.320312 209.621094 L 96.320312 180.019531 C 96.320312 175.914062 92.996094 172.585938 88.890625 172.585938 L 59.308594 172.585938 C 55.207031 172.585938 51.878906 175.914062 51.878906 180.019531 L 51.878906 209.621094 C 51.878906 213.726562 55.207031 217.054688 59.308594 217.054688 Z M 59.308594 217.054688 " fill-opacity="1" fill-rule="nonzero"/><path fill="#000000" d="M 59.308594 278.261719 L 88.890625 278.261719 C 92.992188 278.261719 96.320312 274.933594 96.320312 270.828125 L 96.320312 241.222656 C 96.320312 237.117188 92.996094 233.789062 88.890625 233.789062 L 59.308594 233.789062 C 55.207031 233.789062 51.878906 237.117188 51.878906 241.222656 L 51.878906 270.828125 C 51.878906 274.933594 55.207031 278.261719 59.308594 278.261719 Z M 59.308594 278.261719 " fill-opacity="1" fill-rule="nonzero"/><path fill="#000000" d="M 59.308594 339.464844 L 88.890625 339.464844 C 92.992188 339.464844 96.320312 336.136719 96.320312 332.03125 L 96.320312 302.425781 C 96.320312 298.320312 92.996094 294.992188 88.890625 294.992188 L 59.308594 294.992188 C 55.207031 294.992188 51.878906 298.320312 51.878906 302.425781 L 51.878906 332.03125 C 51.878906 336.136719 55.207031 339.464844 59.308594 339.464844 Z M 59.308594 339.464844 " fill-opacity="1" fill-rule="nonzero"/><path fill="#000000" d="M 133.910156 217.054688 L 163.492188 217.054688 C 167.59375 217.054688 170.917969 213.726562 170.917969 209.621094 L 170.917969 180.019531 C 170.917969 175.914062 167.59375 172.585938 163.492188 172.585938 L 133.910156 172.585938 C 129.804688 172.585938 126.480469 175.914062 126.480469 180.019531 L 126.480469 209.621094 C 126.480469 213.726562 129.808594 217.054688 133.910156 217.054688 Z M 133.910156 217.054688 " fill-opacity="1" fill-rule="nonzero"/><path fill="#000000" d="M 133.910156 278.261719 L 163.492188 278.261719 C 167.59375 278.261719 170.917969 274.933594 170.917969 270.828125 L 170.917969 241.222656 C 170.917969 237.117188 167.59375 233.789062 163.492188 233.789062 L 133.910156 233.789062 C 129.804688 233.789062 126.480469 237.117188 126.480469 241.222656 L 126.480469 270.828125 C 126.480469 274.933594 129.808594 278.261719 133.910156 278.261719 Z M 133.910156 278.261719 " fill-opacity="1" fill-rule="nonzero"/><path fill="#000000" d="M 133.910156 339.464844 L 163.492188 339.464844 C 167.59375 339.464844 170.917969 336.136719 170.917969 332.03125 L 170.917969 302.425781 C 170.917969 298.320312 167.59375 294.992188 163.492188 294.992188 L 133.910156 294.992188 C 129.804688 294.992188 126.480469 298.320312 126.480469 302.425781 L 126.480469 332.03125 C 126.480469 336.136719 129.808594 339.464844 133.910156 339.464844 Z M 133.910156 339.464844 " fill-opacity="1" fill-rule="nonzero"/><path fill="#000000" d="M 208.507812 217.054688 L 238.089844 217.054688 C 242.191406 217.054688 245.519531 213.726562 245.519531 209.621094 L 245.519531 180.019531 C 245.519531 175.914062 242.195312 172.585938 238.089844 172.585938 L 208.507812 172.585938 C 204.40625 172.585938 201.082031 175.914062 201.082031 180.019531 L 201.082031 209.621094 C 201.082031 213.726562 204.40625 217.054688 208.507812 217.054688 Z M 208.507812 217.054688 " fill-opacity="1" fill-rule="nonzero"/><path fill="#000000" d="M 238.089844 294.992188 L 208.507812 294.992188 C 204.40625 294.992188 201.082031 298.320312 201.082031 302.425781 L 201.082031 332.03125 C 201.082031 336.136719 204.40625 339.464844 208.507812 339.464844 L 238.089844 339.464844 C 242.191406 339.464844 245.519531 336.136719 245.519531 332.03125 L 245.519531 302.425781 C 245.519531 298.320312 242.191406 294.992188 238.089844 294.992188 Z M 238.089844 294.992188 " fill-opacity="1" fill-rule="nonzero"/><path fill="#000000" d="M 283.109375 217.054688 L 312.691406 217.054688 C 316.792969 217.054688 320.121094 213.726562 320.121094 209.621094 L 320.121094 180.019531 C 320.121094 175.914062 316.792969 172.585938 312.691406 172.585938 L 283.109375 172.585938 C 279.007812 172.585938 275.679688 175.914062 275.679688 180.019531 L 275.679688 209.621094 C 275.679688 213.726562 279.003906 217.054688 283.109375 217.054688 Z M 283.109375 217.054688 " fill-opacity="1" fill-rule="nonzero"/><path fill="#000000" d="M 283.109375 278.261719 L 312.691406 278.261719 C 316.792969 278.261719 320.121094 274.933594 320.121094 270.828125 L 320.121094 241.222656 C 320.121094 237.117188 316.792969 233.789062 312.691406 233.789062 L 283.109375 233.789062 C 279.007812 233.789062 275.679688 237.117188 275.679688 241.222656 L 275.679688 270.828125 C 275.679688 274.933594 279.003906 278.261719 283.109375 278.261719 Z M 283.109375 278.261719 " fill-opacity="1" fill-rule="nonzero"/><path fill="#000000" d="M 284.742188 0.167969 C 277.777344 0.167969 272.128906 5.820312 272.128906 12.792969 L 272.128906 38.164062 L 100.523438 38.164062 L 100.523438 12.792969 C 100.523438 5.820312 94.875 0.167969 87.90625 0.167969 C 80.941406 0.167969 75.292969 5.820312 75.292969 12.792969 L 75.292969 38.164062 L 35.527344 38.164062 C 15.9375 38.164062 0 54.109375 0 73.714844 L 0 339.28125 C 0 358.882812 15.9375 374.832031 35.527344 374.832031 L 336.472656 374.832031 C 356.0625 374.832031 372 358.882812 372 339.28125 L 372 73.714844 C 372 54.109375 356.0625 38.164062 336.472656 38.164062 L 297.359375 38.164062 L 297.359375 12.792969 C 297.359375 5.820312 291.710938 0.167969 284.742188 0.167969 Z M 75.292969 56.273438 L 75.292969 71.949219 C 75.292969 78.921875 80.941406 84.574219 87.90625 84.574219 C 94.875 84.574219 100.523438 78.921875 100.523438 71.949219 L 100.523438 56.273438 C 105.09375 59.964844 108.019531 65.613281 108.019531 71.949219 C 108.019531 83.066406 99.015625 92.078125 87.90625 92.078125 C 76.796875 92.078125 67.792969 83.066406 67.792969 71.949219 C 67.792969 65.613281 70.71875 59.964844 75.292969 56.273438 Z M 354.496094 339.28125 C 354.496094 349.226562 346.410156 357.316406 336.472656 357.316406 L 35.527344 357.316406 C 25.589844 357.316406 17.503906 349.226562 17.503906 339.28125 L 17.503906 154.734375 L 354.496094 154.734375 Z M 304.855469 71.949219 C 304.855469 83.066406 295.851562 92.078125 284.742188 92.078125 C 273.632812 92.078125 264.628906 83.066406 264.628906 71.949219 C 264.628906 65.613281 267.554688 59.964844 272.125 56.273438 L 272.125 71.949219 C 272.125 78.921875 277.773438 84.574219 284.742188 84.574219 C 291.710938 84.574219 297.359375 78.921875 297.359375 71.949219 L 297.359375 56.273438 C 301.929688 59.964844 304.855469 65.613281 304.855469 71.949219 Z M 304.855469 71.949219 " fill-opacity="1" fill-rule="nonzero"/><path fill="#000000" d="M 220.960938 282.183594 L 256.210938 246.90625 C 259.628906 243.484375 259.628906 237.941406 256.210938 234.519531 C 252.792969 231.097656 247.253906 231.097656 243.835938 234.519531 L 220.960938 257.410156 L 211.773438 248.21875 C 208.355469 244.796875 202.8125 244.796875 199.394531 248.21875 C 195.976562 251.640625 195.976562 257.183594 199.394531 260.605469 Z M 220.960938 282.183594 " fill-opacity="1" fill-rule="nonzero"/></svg>