<svg xmlns="http://www.w3.org/2000/svg" xmlns:xlink="http://www.w3.org/1999/xlink" width="500" zoomAndPan="magnify" viewBox="0 0 375 374.999991" height="500" preserveAspectRatio="xMidYMid meet" version="1.0"><defs><clipPath id="bc8d3a5ba4"><path d="M 187.5 0 C 83.945312 0 0 83.945312 0 187.5 C 0 291.054688 83.945312 375 187.5 375 C 291.054688 375 375 291.054688 375 187.5 C 375 83.945312 291.054688 0 187.5 0 Z M 187.5 0 " clip-rule="nonzero"/></clipPath><clipPath id="65b54974a0"><path d="M 74.734375 99 L 300.484375 99 L 300.484375 294.863281 L 74.734375 294.863281 Z M 74.734375 99 " clip-rule="nonzero"/></clipPath></defs><g clip-path="url(#bc8d3a5ba4)"><path stroke-linecap="butt" transform="matrix(0.75, 0, 0, 0.75, 0.0000045, 0)" fill="none" stroke-linejoin="miter" d="M 249.999994 0 C 111.927078 0 -0.000006 111.927084 -0.000006 250 C -0.000006 388.072917 111.927078 500.000001 249.999994 500.000001 C 388.072911 500.000001 499.999995 388.072917 499.999995 250 C 499.999995 111.927084 388.072911 0 249.999994 0 Z M 249.999994 0 " stroke="#000000" stroke-width="60" stroke-opacity="1" stroke-miterlimit="4"/></g><path fill="#040606" d="M 176.910156 255.703125 L 198.074219 255.703125 C 202.820312 255.703125 206.871094 251.902344 206.871094 246.921875 L 206.871094 233.875 C 206.871094 229.132812 203.0625 225.109375 198.074219 225.109375 L 176.910156 225.109375 C 172.160156 225.109375 168.128906 228.890625 168.128906 233.875 L 168.128906 246.921875 C 168.371094 251.902344 172.160156 255.703125 176.910156 255.703125 " fill-opacity="1" fill-rule="nonzero"/><path fill="#040606" d="M 122.496094 255.703125 L 143.640625 255.703125 C 148.410156 255.703125 152.4375 251.902344 152.4375 246.921875 L 152.4375 233.875 C 152.4375 229.132812 148.648438 225.109375 143.640625 225.109375 L 122.496094 225.109375 C 117.746094 225.109375 113.714844 228.890625 113.714844 233.875 L 113.714844 246.921875 C 113.714844 251.902344 117.503906 255.703125 122.496094 255.703125 " fill-opacity="1" fill-rule="nonzero"/><path fill="#040606" d="M 231.582031 255.703125 L 252.726562 255.703125 C 257.476562 255.703125 261.523438 251.902344 261.523438 246.921875 L 261.523438 233.875 C 261.523438 229.132812 257.714844 225.109375 252.726562 225.109375 L 231.582031 225.109375 C 226.832031 225.109375 222.785156 228.890625 222.785156 233.875 L 222.785156 246.921875 C 222.785156 251.902344 226.832031 255.703125 231.582031 255.703125 " fill-opacity="1" fill-rule="nonzero"/><path fill="#040606" d="M 176.910156 208.261719 L 198.074219 208.261719 C 202.820312 208.261719 206.871094 204.460938 206.871094 199.476562 L 206.871094 186.429688 C 206.871094 181.6875 203.0625 177.644531 198.074219 177.644531 L 176.910156 177.644531 C 172.160156 177.644531 168.128906 181.449219 168.128906 186.429688 L 168.128906 199.476562 C 168.371094 204.21875 172.160156 208.261719 176.910156 208.261719 " fill-opacity="1" fill-rule="nonzero"/><path fill="#040606" d="M 122.496094 208.261719 L 143.640625 208.261719 C 148.410156 208.261719 152.4375 204.460938 152.4375 199.476562 L 152.4375 186.429688 C 152.4375 181.6875 148.648438 177.644531 143.640625 177.644531 L 122.496094 177.644531 C 117.746094 177.644531 113.714844 181.449219 113.714844 186.429688 L 113.714844 199.476562 C 113.714844 204.21875 117.503906 208.261719 122.496094 208.261719 " fill-opacity="1" fill-rule="nonzero"/><path fill="#040606" d="M 231.582031 208.261719 L 252.726562 208.261719 C 257.476562 208.261719 261.523438 204.460938 261.523438 199.476562 L 261.523438 186.429688 C 261.523438 181.6875 257.714844 177.644531 252.726562 177.644531 L 231.582031 177.644531 C 226.832031 177.644531 222.785156 181.449219 222.785156 186.429688 L 222.785156 199.476562 C 222.785156 204.21875 226.832031 208.261719 231.582031 208.261719 " fill-opacity="1" fill-rule="nonzero"/><g clip-path="url(#65b54974a0)"><path fill="#040606" d="M 278.859375 266.390625 C 278.859375 269.953125 276.015625 272.792969 272.445312 272.792969 L 103.015625 272.792969 C 99.445312 272.792969 96.601562 269.953125 96.601562 266.390625 L 96.601562 160.578125 L 278.859375 160.578125 Z M 272.207031 99.585938 L 257.476562 99.585938 L 257.476562 109.09375 C 257.476562 119.757812 248.675781 128.542969 237.996094 128.542969 C 227.292969 128.542969 218.515625 119.757812 218.515625 109.09375 L 218.515625 99.585938 L 156.726562 99.585938 L 156.726562 109.09375 C 156.726562 119.757812 147.929688 128.542969 137.226562 128.542969 C 126.542969 128.542969 117.746094 119.757812 117.746094 109.09375 L 117.746094 99.585938 L 103.015625 99.585938 C 87.320312 99.585938 74.734375 112.171875 74.734375 127.820312 L 74.734375 266.628906 C 74.734375 282.039062 87.320312 294.863281 103.015625 294.863281 L 272.207031 294.863281 C 287.640625 294.863281 300.484375 282.277344 300.484375 266.628906 L 300.484375 127.820312 C 300.484375 112.171875 287.878906 99.585938 272.207031 99.585938 " fill-opacity="1" fill-rule="nonzero"/></g><path fill="#040606" d="M 137.226562 119.996094 C 143.179688 119.996094 148.167969 115.253906 148.167969 109.09375 L 148.167969 91.0625 C 148.167969 85.121094 143.417969 80.136719 137.226562 80.136719 C 131.292969 80.136719 126.304688 84.878906 126.304688 91.0625 L 126.304688 109.09375 C 126.304688 115.253906 131.054688 119.996094 137.226562 119.996094 " fill-opacity="1" fill-rule="nonzero"/><path fill="#040606" d="M 237.996094 119.996094 C 243.929688 119.996094 248.917969 115.253906 248.917969 109.09375 L 248.917969 91.0625 C 248.917969 85.121094 244.167969 80.136719 237.996094 80.136719 C 232.042969 80.136719 227.050781 84.878906 227.050781 91.0625 L 227.074219 109.09375 C 227.292969 115.253906 232.042969 119.996094 237.996094 119.996094 " fill-opacity="1" fill-rule="nonzero"/></svg>