<svg xmlns="http://www.w3.org/2000/svg" xmlns:xlink="http://www.w3.org/1999/xlink" width="500" zoomAndPan="magnify" viewBox="0 0 375 374.999991" height="500" preserveAspectRatio="xMidYMid meet" version="1.0"><defs><clipPath id="d02f432905"><path d="M 42.816406 11.59375 L 332.316406 11.59375 L 332.316406 363.34375 L 42.816406 363.34375 Z M 42.816406 11.59375 " clip-rule="nonzero"/></clipPath></defs><g clip-path="url(#d02f432905)"><path fill="#000000" d="M 233.867188 39.507812 C 279.238281 39.449219 302.285156 39.386719 302.984375 39.363281 C 313.953125 38.953125 322.3125 39.734375 329.050781 48.957031 C 333.40625 54.894531 331.90625 66.4375 331.988281 71.28125 C 332.152344 81.121094 325.3125 87.839844 315.988281 88.539062 C 315.289062 88.601562 314.714844 89.152344 314.652344 89.851562 C 305.328125 176.410156 297.417969 253.90625 290.949219 322.328125 C 289.757812 334.792969 288.054688 342.765625 285.835938 346.234375 C 281.707031 352.664062 276.261719 357.46875 269.503906 360.652344 C 265.539062 362.523438 258.554688 363.40625 248.59375 363.34375 C 200.550781 363.035156 162.160156 363.035156 133.382812 363.324219 C 119.394531 363.46875 110.417969 362.523438 106.457031 360.511719 C 99.082031 356.792969 93.597656 351.371094 89.960938 344.261719 C 88.214844 340.875 86.777344 333.277344 85.628906 321.441406 C 76.28125 225.746094 68.476562 148.78125 62.234375 90.550781 C 62.148438 89.792969 61.535156 89.214844 60.773438 89.171875 C 43.953125 88.25 41.960938 74.773438 43.070312 60.066406 C 44.074219 46.550781 51.53125 39.753906 65.394531 39.671875 C 70.53125 39.632812 95.898438 39.550781 141.519531 39.425781 C 142.15625 39.425781 142.667969 38.910156 142.644531 38.277344 C 142.503906 26.835938 146.714844 18.78125 155.320312 14.160156 C 158.628906 12.375 164.277344 11.554688 172.265625 11.65625 C 185.78125 11.839844 196.15625 11.839844 203.382812 11.65625 C 221.933594 11.164062 231.667969 20.035156 232.550781 38.257812 C 232.59375 38.953125 233.167969 39.507812 233.867188 39.507812 M 155.300781 39.363281 L 219.878906 39.488281 C 220.226562 39.488281 220.515625 39.199219 220.515625 38.851562 L 220.535156 35.875 C 220.535156 29.136719 215.484375 23.652344 209.21875 23.652344 L 166.042969 23.570312 C 159.777344 23.570312 154.683594 29.011719 154.683594 35.75 L 154.664062 38.726562 C 154.664062 39.078125 154.949219 39.363281 155.300781 39.363281 M 60.628906 77.46875 L 314.382812 77.46875 C 317.835938 77.46875 320.648438 74.652344 320.648438 71.199219 L 320.648438 62.78125 C 320.648438 56.230469 314.960938 50.929688 307.933594 50.929688 L 67.082031 50.929688 C 60.054688 50.929688 54.367188 56.230469 54.367188 62.78125 L 54.367188 71.199219 C 54.367188 74.652344 57.179688 77.46875 60.628906 77.46875 M 188.328125 351.453125 C 211.847656 351.453125 233.476562 351.433594 253.175781 351.410156 C 262.683594 351.390625 269.542969 348.289062 273.714844 342.066406 C 276.117188 338.46875 277.886719 330.953125 278.996094 319.472656 C 285.074219 255.898438 292.796875 179.574219 302.183594 90.507812 C 302.246094 89.875 301.753906 89.316406 301.113281 89.316406 C 249.539062 89.277344 211.96875 89.234375 188.390625 89.234375 C 164.8125 89.234375 127.242188 89.234375 75.664062 89.277344 C 75.027344 89.277344 74.535156 89.832031 74.597656 90.46875 C 83.941406 179.53125 91.644531 255.859375 97.683594 319.429688 C 98.792969 330.914062 100.5625 338.449219 102.964844 342.023438 C 107.132812 348.25 113.972656 351.371094 123.503906 351.390625 C 143.203125 351.410156 164.8125 351.433594 188.328125 351.453125 Z M 188.328125 351.453125 " fill-opacity="1" fill-rule="nonzero"/></g><path fill="#000000" d="M 193.9375 309.199219 C 193.9375 312.363281 191.390625 314.910156 188.226562 314.910156 L 187.773438 314.910156 C 184.609375 314.910156 182.0625 312.363281 182.0625 309.199219 L 182.0625 128.488281 C 182.0625 125.324219 184.609375 122.777344 187.773438 122.777344 L 188.226562 122.777344 C 191.390625 122.777344 193.9375 125.324219 193.9375 128.488281 Z M 193.9375 309.199219 " fill-opacity="1" fill-rule="nonzero"/><path fill="#000000" d="M 242.660156 309.796875 C 242.371094 313.105469 239.453125 315.527344 236.164062 315.25 L 236.039062 315.238281 C 232.738281 314.953125 230.292969 312.035156 230.589844 308.742188 L 246.3125 129.042969 C 246.601562 125.738281 249.519531 123.3125 252.808594 123.589844 L 252.929688 123.601562 C 256.234375 123.886719 258.679688 126.804688 258.382812 130.097656 Z M 242.660156 309.796875 " fill-opacity="1" fill-rule="nonzero"/><path fill="#000000" d="M 145.996094 308.328125 C 146.28125 311.644531 143.839844 314.5625 140.535156 314.855469 L 140.414062 314.867188 C 137.101562 315.160156 134.1875 312.714844 133.886719 309.40625 L 117.9375 130.71875 C 117.648438 127.398438 120.09375 124.484375 123.394531 124.191406 L 123.519531 124.179688 C 126.832031 123.886719 129.75 126.332031 130.050781 129.636719 Z M 145.996094 308.328125 " fill-opacity="1" fill-rule="nonzero"/></svg>