<svg xmlns="http://www.w3.org/2000/svg" xmlns:xlink="http://www.w3.org/1999/xlink" width="500" zoomAndPan="magnify" viewBox="0 0 375 374.999991" height="500" preserveAspectRatio="xMidYMid meet" version="1.0"><defs><clipPath id="ebc7bfae59"><path d="M 50.113281 0 L 324.613281 0 L 324.613281 375 L 50.113281 375 Z M 50.113281 0 " clip-rule="nonzero"/></clipPath></defs><g clip-path="url(#ebc7bfae59)"><path fill="#000000" d="M 299.660156 100.074219 C 299.660156 93.179688 294.070312 87.582031 287.183594 87.582031 L 87.546875 87.582031 C 80.65625 87.582031 75.066406 93.179688 75.066406 100.074219 L 75.066406 283.042969 C 75.066406 334.550781 108.707031 374.84375 147.910156 374.84375 C 172.902344 374.84375 201.824219 374.84375 226.816406 374.84375 C 266.019531 374.84375 299.660156 334.550781 299.660156 283.042969 Z M 274.703125 112.5625 L 274.703125 283.042969 C 274.703125 319.175781 254.316406 349.863281 226.816406 349.863281 C 226.816406 349.863281 147.910156 349.863281 147.910156 349.863281 C 120.410156 349.863281 100.023438 319.175781 100.023438 283.042969 C 100.023438 283.042969 100.023438 112.5625 100.023438 112.5625 Z M 174.886719 150.03125 L 174.886719 312.394531 C 174.886719 319.289062 180.476562 324.882812 187.363281 324.882812 C 194.25 324.882812 199.839844 319.289062 199.839844 312.394531 L 199.839844 150.03125 C 199.839844 143.136719 194.25 137.542969 187.363281 137.542969 C 180.476562 137.542969 174.886719 143.136719 174.886719 150.03125 Z M 124.976562 150.03125 L 124.976562 312.394531 C 124.976562 319.289062 130.566406 324.882812 137.453125 324.882812 C 144.34375 324.882812 149.933594 319.289062 149.933594 312.394531 L 149.933594 150.03125 C 149.933594 143.136719 144.34375 137.542969 137.453125 137.542969 C 130.566406 137.542969 124.976562 143.136719 124.976562 150.03125 Z M 224.796875 150.03125 L 224.796875 312.394531 C 224.796875 319.289062 230.386719 324.882812 237.273438 324.882812 C 244.160156 324.882812 249.75 319.289062 249.75 312.394531 L 249.75 150.03125 C 249.75 143.136719 244.160156 137.542969 237.273438 137.542969 C 230.386719 137.542969 224.796875 143.136719 224.796875 150.03125 Z M 137.453125 50.113281 L 62.589844 50.113281 C 55.703125 50.113281 50.113281 55.710938 50.113281 62.605469 C 50.113281 69.5 55.703125 75.09375 62.589844 75.09375 L 312.136719 75.09375 C 319.023438 75.09375 324.613281 69.5 324.613281 62.605469 C 324.613281 55.710938 319.023438 50.113281 312.136719 50.113281 L 237.273438 50.113281 L 237.273438 30.058594 C 237.273438 13.546875 223.898438 0.15625 207.402344 0.15625 L 167.324219 0.15625 C 150.832031 0.15625 137.453125 13.546875 137.453125 30.058594 Z M 212.316406 30.058594 L 212.316406 50.113281 C 212.316406 50.113281 162.410156 50.113281 162.410156 50.113281 C 162.410156 50.113281 162.410156 30.058594 162.410156 30.058594 C 162.410156 27.335938 164.605469 25.136719 167.324219 25.136719 C 167.324219 25.136719 207.402344 25.136719 207.402344 25.136719 C 210.121094 25.136719 212.316406 27.335938 212.316406 30.058594 Z M 212.316406 30.058594 " fill-opacity="1" fill-rule="evenodd"/></g></svg>