<svg xmlns="http://www.w3.org/2000/svg" xmlns:xlink="http://www.w3.org/1999/xlink" width="500" zoomAndPan="magnify" viewBox="0 0 375 374.999991" height="500" preserveAspectRatio="xMidYMid meet" version="1.0"><defs><clipPath id="2a09ef723b"><path d="M 187.5 0 C 83.945312 0 0 83.945312 0 187.5 C 0 291.054688 83.945312 375 187.5 375 C 291.054688 375 375 291.054688 375 187.5 C 375 83.945312 291.054688 0 187.5 0 Z M 187.5 0 " clip-rule="nonzero"/></clipPath><clipPath id="b120161a7e"><path d="M 116 55.089844 L 136 55.089844 L 136 82 L 116 82 Z M 116 55.089844 " clip-rule="nonzero"/></clipPath><clipPath id="f36027ab70"><path d="M 94.71875 81 L 121 81 L 121 101 L 94.71875 101 Z M 94.71875 81 " clip-rule="nonzero"/></clipPath><clipPath id="84d6217961"><path d="M 239 55.089844 L 259 55.089844 L 259 82 L 239 82 Z M 239 55.089844 " clip-rule="nonzero"/></clipPath><clipPath id="79c7e25a57"><path d="M 254 81 L 279.96875 81 L 279.96875 101 L 254 101 Z M 254 81 " clip-rule="nonzero"/></clipPath><clipPath id="29cb0d4357"><path d="M 171 307 L 203 307 L 203 319.839844 L 171 319.839844 Z M 171 307 " clip-rule="nonzero"/></clipPath></defs><g clip-path="url(#2a09ef723b)"><path stroke-linecap="butt" transform="matrix(0.75, 0, 0, 0.75, 0.0000045, 0)" fill="none" stroke-linejoin="miter" d="M 249.999994 0 C 111.927078 0 -0.000006 111.927084 -0.000006 250 C -0.000006 388.072917 111.927078 500.000001 249.999994 500.000001 C 388.072911 500.000001 499.999995 388.072917 499.999995 250 C 499.999995 111.927084 388.072911 0 249.999994 0 Z M 249.999994 0 " stroke="#000000" stroke-width="60" stroke-opacity="1" stroke-miterlimit="4"/></g><g clip-path="url(#b120161a7e)"><path fill="#000000" d="M 131.230469 81.660156 C 130.476562 81.660156 129.773438 81.476562 129.113281 81.109375 C 128.457031 80.742188 127.929688 80.238281 127.535156 79.597656 L 116.878906 62.355469 C 116.730469 62.113281 116.605469 61.859375 116.507812 61.589844 C 116.40625 61.324219 116.335938 61.046875 116.289062 60.765625 C 116.242188 60.484375 116.226562 60.203125 116.234375 59.917969 C 116.246094 59.628906 116.285156 59.347656 116.347656 59.070312 C 116.414062 58.792969 116.507812 58.523438 116.625 58.265625 C 116.742188 58.003906 116.886719 57.757812 117.050781 57.527344 C 117.21875 57.296875 117.40625 57.082031 117.613281 56.886719 C 117.824219 56.695312 118.046875 56.519531 118.289062 56.371094 C 118.53125 56.222656 118.789062 56.097656 119.054688 55.996094 C 119.320312 55.894531 119.59375 55.824219 119.875 55.777344 C 120.15625 55.730469 120.441406 55.710938 120.726562 55.722656 C 121.011719 55.730469 121.292969 55.769531 121.570312 55.835938 C 121.847656 55.898438 122.117188 55.992188 122.375 56.109375 C 122.632812 56.226562 122.878906 56.371094 123.109375 56.535156 C 123.34375 56.703125 123.554688 56.890625 123.75 57.101562 C 123.945312 57.308594 124.117188 57.535156 124.269531 57.777344 L 134.921875 75.019531 C 135.335938 75.691406 135.554688 76.421875 135.570312 77.207031 C 135.589844 77.996094 135.40625 78.738281 135.023438 79.425781 C 134.640625 80.113281 134.109375 80.660156 133.429688 81.058594 C 132.75 81.457031 132.019531 81.660156 131.230469 81.660156 Z M 131.230469 81.660156 " fill-opacity="1" fill-rule="nonzero"/></g><g clip-path="url(#f36027ab70)"><path fill="#000000" d="M 115.886719 100.234375 C 115.078125 100.238281 114.332031 100.027344 113.640625 99.613281 L 96.851562 89.449219 C 96.605469 89.300781 96.378906 89.128906 96.167969 88.9375 C 95.957031 88.746094 95.765625 88.53125 95.597656 88.304688 C 95.429688 88.074219 95.28125 87.828125 95.160156 87.570312 C 95.039062 87.308594 94.945312 87.042969 94.875 86.765625 C 94.808594 86.488281 94.769531 86.207031 94.753906 85.917969 C 94.742188 85.632812 94.757812 85.351562 94.800781 85.066406 C 94.84375 84.785156 94.910156 84.507812 95.007812 84.238281 C 95.105469 83.96875 95.226562 83.714844 95.375 83.46875 C 95.523438 83.222656 95.695312 82.996094 95.886719 82.785156 C 96.078125 82.574219 96.289062 82.382812 96.519531 82.214844 C 96.75 82.042969 96.992188 81.898438 97.253906 81.777344 C 97.511719 81.65625 97.777344 81.558594 98.054688 81.492188 C 98.332031 81.421875 98.613281 81.382812 98.898438 81.371094 C 99.183594 81.355469 99.46875 81.371094 99.75 81.414062 C 100.03125 81.457031 100.308594 81.527344 100.578125 81.625 C 100.84375 81.722656 101.101562 81.84375 101.347656 81.992188 L 118.144531 92.160156 C 118.550781 92.40625 118.910156 92.710938 119.214844 93.074219 C 119.523438 93.433594 119.765625 93.835938 119.941406 94.28125 C 120.117188 94.722656 120.21875 95.179688 120.242188 95.65625 C 120.269531 96.132812 120.21875 96.597656 120.089844 97.058594 C 119.960938 97.515625 119.765625 97.941406 119.496094 98.335938 C 119.230469 98.730469 118.90625 99.070312 118.527344 99.355469 C 118.148438 99.644531 117.734375 99.863281 117.285156 100.015625 C 116.832031 100.164062 116.371094 100.238281 115.894531 100.238281 Z M 115.886719 100.234375 " fill-opacity="1" fill-rule="nonzero"/></g><g clip-path="url(#84d6217961)"><path fill="#000000" d="M 243.429688 81.660156 C 242.640625 81.660156 241.90625 81.457031 241.226562 81.058594 C 240.550781 80.660156 240.019531 80.113281 239.632812 79.425781 C 239.25 78.738281 239.070312 77.996094 239.085938 77.207031 C 239.105469 76.421875 239.320312 75.691406 239.738281 75.019531 L 250.390625 57.777344 C 250.539062 57.535156 250.714844 57.308594 250.90625 57.097656 C 251.101562 56.890625 251.316406 56.703125 251.546875 56.535156 C 251.777344 56.367188 252.023438 56.226562 252.285156 56.105469 C 252.542969 55.988281 252.8125 55.898438 253.089844 55.832031 C 253.367188 55.765625 253.648438 55.726562 253.933594 55.71875 C 254.21875 55.707031 254.5 55.726562 254.78125 55.773438 C 255.066406 55.820312 255.339844 55.890625 255.605469 55.992188 C 255.875 56.089844 256.128906 56.21875 256.371094 56.367188 C 256.613281 56.519531 256.839844 56.691406 257.046875 56.886719 C 257.253906 57.078125 257.441406 57.292969 257.609375 57.523438 C 257.777344 57.757812 257.917969 58.003906 258.039062 58.261719 C 258.15625 58.523438 258.246094 58.792969 258.3125 59.070312 C 258.378906 59.347656 258.414062 59.628906 258.425781 59.914062 C 258.433594 60.199219 258.417969 60.484375 258.371094 60.765625 C 258.324219 61.046875 258.253906 61.324219 258.152344 61.589844 C 258.050781 61.859375 257.925781 62.113281 257.777344 62.355469 L 247.125 79.597656 C 246.726562 80.238281 246.199219 80.742188 245.542969 81.109375 C 244.886719 81.476562 244.179688 81.660156 243.429688 81.660156 Z M 243.429688 81.660156 " fill-opacity="1" fill-rule="nonzero"/></g><g clip-path="url(#79c7e25a57)"><path fill="#000000" d="M 258.773438 100.234375 C 258.296875 100.238281 257.835938 100.160156 257.382812 100.011719 C 256.933594 99.859375 256.519531 99.640625 256.140625 99.355469 C 255.761719 99.066406 255.4375 98.726562 255.171875 98.332031 C 254.902344 97.9375 254.707031 97.511719 254.578125 97.054688 C 254.449219 96.59375 254.398438 96.128906 254.425781 95.652344 C 254.449219 95.179688 254.550781 94.71875 254.726562 94.277344 C 254.902344 93.835938 255.144531 93.433594 255.453125 93.070312 C 255.757812 92.707031 256.117188 92.402344 256.523438 92.15625 L 273.3125 81.996094 C 273.554688 81.847656 273.8125 81.722656 274.082031 81.625 C 274.351562 81.53125 274.625 81.460938 274.90625 81.417969 C 275.191406 81.375 275.472656 81.359375 275.757812 81.371094 C 276.042969 81.382812 276.324219 81.425781 276.601562 81.492188 C 276.878906 81.5625 277.148438 81.65625 277.40625 81.777344 C 277.664062 81.902344 277.910156 82.046875 278.140625 82.214844 C 278.371094 82.386719 278.582031 82.574219 278.773438 82.785156 C 278.964844 83 279.136719 83.226562 279.285156 83.472656 C 279.429688 83.714844 279.554688 83.972656 279.652344 84.242188 C 279.746094 84.511719 279.816406 84.785156 279.859375 85.070312 C 279.902344 85.351562 279.917969 85.636719 279.90625 85.921875 C 279.890625 86.207031 279.851562 86.488281 279.78125 86.765625 C 279.714844 87.046875 279.617188 87.3125 279.496094 87.574219 C 279.375 87.832031 279.230469 88.074219 279.0625 88.304688 C 278.890625 88.535156 278.703125 88.746094 278.492188 88.941406 C 278.28125 89.132812 278.050781 89.304688 277.808594 89.453125 L 261.015625 99.617188 C 260.324219 100.03125 259.578125 100.238281 258.773438 100.234375 Z M 258.773438 100.234375 " fill-opacity="1" fill-rule="nonzero"/></g><path fill="#000000" d="M 252.839844 256.601562 C 252.839844 256.949219 252.804688 257.292969 252.738281 257.632812 C 252.667969 257.972656 252.570312 258.304688 252.4375 258.625 C 252.304688 258.945312 252.140625 259.25 251.949219 259.539062 C 251.757812 259.824219 251.539062 260.09375 251.292969 260.335938 C 251.046875 260.582031 250.78125 260.800781 250.496094 260.996094 C 250.207031 261.1875 249.902344 261.351562 249.582031 261.484375 C 249.261719 261.617188 248.933594 261.714844 248.59375 261.785156 C 248.253906 261.851562 247.910156 261.882812 247.5625 261.886719 L 127.097656 261.886719 C 126.75 261.882812 126.40625 261.851562 126.070312 261.785156 C 125.730469 261.714844 125.398438 261.617188 125.078125 261.484375 C 124.757812 261.351562 124.453125 261.1875 124.167969 260.996094 C 123.878906 260.800781 123.613281 260.582031 123.367188 260.335938 C 123.121094 260.09375 122.90625 259.824219 122.710938 259.539062 C 122.519531 259.25 122.355469 258.945312 122.222656 258.625 C 122.09375 258.304688 121.992188 257.972656 121.925781 257.632812 C 121.855469 257.292969 121.824219 256.949219 121.824219 256.601562 C 121.824219 256.257812 121.855469 255.914062 121.925781 255.574219 C 121.992188 255.230469 122.09375 254.902344 122.222656 254.582031 C 122.355469 254.261719 122.519531 253.957031 122.710938 253.667969 C 122.90625 253.378906 123.121094 253.113281 123.367188 252.867188 C 123.613281 252.621094 123.878906 252.402344 124.167969 252.210938 C 124.453125 252.019531 124.757812 251.855469 125.078125 251.722656 C 125.398438 251.589844 125.730469 251.492188 126.070312 251.421875 C 126.40625 251.355469 126.75 251.320312 127.097656 251.320312 L 247.5625 251.320312 C 247.90625 251.320312 248.25 251.355469 248.589844 251.421875 C 248.929688 251.488281 249.261719 251.589844 249.582031 251.722656 C 249.902344 251.855469 250.203125 252.019531 250.492188 252.210938 C 250.78125 252.402344 251.046875 252.621094 251.292969 252.867188 C 251.539062 253.113281 251.757812 253.378906 251.949219 253.667969 C 252.140625 253.957031 252.304688 254.261719 252.4375 254.582031 C 252.570312 254.902344 252.667969 255.230469 252.738281 255.570312 C 252.804688 255.914062 252.839844 256.257812 252.839844 256.601562 Z M 252.839844 256.601562 " fill-opacity="1" fill-rule="nonzero"/><path fill="#000000" d="M 238.808594 275.871094 C 238.808594 276.21875 238.773438 276.5625 238.707031 276.902344 C 238.640625 277.242188 238.539062 277.574219 238.40625 277.894531 C 238.273438 278.214844 238.113281 278.519531 237.921875 278.804688 C 237.726562 279.09375 237.507812 279.363281 237.265625 279.605469 C 237.019531 279.851562 236.753906 280.070312 236.464844 280.265625 C 236.175781 280.457031 235.871094 280.617188 235.554688 280.75 C 235.234375 280.882812 234.902344 280.984375 234.5625 281.050781 C 234.222656 281.121094 233.882812 281.152344 233.535156 281.152344 L 141.125 281.152344 C 140.78125 281.152344 140.4375 281.121094 140.097656 281.050781 C 139.757812 280.984375 139.429688 280.882812 139.109375 280.75 C 138.789062 280.617188 138.484375 280.457031 138.195312 280.265625 C 137.910156 280.070312 137.640625 279.851562 137.398438 279.605469 C 137.152344 279.363281 136.933594 279.09375 136.742188 278.804688 C 136.550781 278.519531 136.386719 278.214844 136.253906 277.894531 C 136.121094 277.574219 136.019531 277.242188 135.953125 276.902344 C 135.886719 276.5625 135.851562 276.21875 135.851562 275.871094 C 135.851562 275.523438 135.886719 275.183594 135.953125 274.839844 C 136.019531 274.5 136.121094 274.171875 136.253906 273.851562 C 136.386719 273.53125 136.550781 273.226562 136.742188 272.9375 C 136.933594 272.648438 137.152344 272.382812 137.398438 272.136719 C 137.640625 271.890625 137.910156 271.671875 138.195312 271.480469 C 138.484375 271.289062 138.789062 271.125 139.109375 270.992188 C 139.429688 270.859375 139.757812 270.757812 140.097656 270.691406 C 140.4375 270.625 140.78125 270.589844 141.125 270.589844 L 233.53125 270.589844 C 233.878906 270.589844 234.222656 270.625 234.5625 270.691406 C 234.902344 270.757812 235.230469 270.859375 235.550781 270.992188 C 235.871094 271.125 236.175781 271.285156 236.464844 271.480469 C 236.75 271.671875 237.019531 271.890625 237.261719 272.136719 C 237.507812 272.382812 237.726562 272.648438 237.917969 272.9375 C 238.113281 273.226562 238.273438 273.53125 238.40625 273.851562 C 238.539062 274.171875 238.640625 274.5 238.707031 274.839844 C 238.773438 275.179688 238.808594 275.523438 238.808594 275.871094 Z M 238.808594 275.871094 " fill-opacity="1" fill-rule="nonzero"/><path fill="#000000" d="M 219.625 294.558594 C 219.621094 294.863281 219.59375 295.171875 219.53125 295.472656 C 219.472656 295.773438 219.382812 296.066406 219.265625 296.351562 C 219.148438 296.636719 219.003906 296.90625 218.832031 297.164062 C 218.660156 297.417969 218.46875 297.65625 218.25 297.875 C 218.035156 298.09375 217.796875 298.289062 217.542969 298.460938 C 217.285156 298.632812 217.015625 298.777344 216.734375 298.894531 C 216.449219 299.011719 216.15625 299.101562 215.855469 299.164062 C 215.554688 299.226562 215.25 299.257812 214.941406 299.257812 L 159.71875 299.257812 C 159.410156 299.257812 159.101562 299.226562 158.800781 299.167969 C 158.5 299.105469 158.207031 299.019531 157.921875 298.898438 C 157.636719 298.78125 157.367188 298.636719 157.109375 298.464844 C 156.851562 298.292969 156.617188 298.097656 156.398438 297.882812 C 156.179688 297.664062 155.984375 297.425781 155.8125 297.167969 C 155.644531 296.910156 155.5 296.640625 155.378906 296.355469 C 155.261719 296.070312 155.171875 295.777344 155.113281 295.472656 C 155.054688 295.171875 155.023438 294.867188 155.023438 294.558594 C 155.023438 294.25 155.054688 293.941406 155.113281 293.640625 C 155.171875 293.335938 155.261719 293.042969 155.378906 292.757812 C 155.5 292.472656 155.644531 292.203125 155.8125 291.945312 C 155.984375 291.6875 156.179688 291.453125 156.398438 291.234375 C 156.617188 291.015625 156.851562 290.820312 157.109375 290.648438 C 157.367188 290.476562 157.636719 290.332031 157.921875 290.214844 C 158.207031 290.097656 158.5 290.007812 158.800781 289.945312 C 159.101562 289.886719 159.410156 289.855469 159.71875 289.855469 L 214.941406 289.855469 C 215.25 289.859375 215.554688 289.886719 215.855469 289.949219 C 216.15625 290.011719 216.449219 290.101562 216.734375 290.21875 C 217.015625 290.339844 217.285156 290.484375 217.542969 290.65625 C 217.796875 290.828125 218.035156 291.019531 218.25 291.238281 C 218.46875 291.457031 218.660156 291.695312 218.832031 291.949219 C 219.003906 292.207031 219.148438 292.476562 219.265625 292.761719 C 219.382812 293.046875 219.472656 293.339844 219.53125 293.640625 C 219.59375 293.945312 219.621094 294.25 219.625 294.558594 Z M 219.625 294.558594 " fill-opacity="1" fill-rule="nonzero"/><path fill="#000000" d="M 226.527344 145.074219 L 197.292969 242.617188 L 192.390625 242.617188 L 206.894531 147.882812 L 218.363281 138.144531 Z M 226.527344 145.074219 " fill-opacity="1" fill-rule="nonzero"/><path fill="#000000" d="M 182.273438 242.617188 L 177.363281 242.617188 L 148.136719 145.074219 L 156.296875 138.144531 L 167.769531 147.878906 Z M 182.273438 242.617188 " fill-opacity="1" fill-rule="nonzero"/><path fill="#000000" d="M 198.183594 147.359375 L 187.328125 218.261719 L 176.480469 147.359375 L 187.328125 138.144531 Z M 198.183594 147.359375 " fill-opacity="1" fill-rule="nonzero"/><g clip-path="url(#29cb0d4357)"><path fill="#000000" d="M 202.90625 307.957031 C 202.671875 308.804688 202.371094 309.625 202 310.421875 C 201.632812 311.21875 201.199219 311.980469 200.707031 312.707031 C 200.214844 313.433594 199.667969 314.117188 199.0625 314.753906 C 198.460938 315.390625 197.808594 315.976562 197.109375 316.507812 C 196.410156 317.039062 195.675781 317.511719 194.898438 317.921875 C 194.125 318.332031 193.320312 318.679688 192.488281 318.960938 C 191.65625 319.242188 190.808594 319.453125 189.945312 319.59375 C 189.078125 319.734375 188.207031 319.808594 187.328125 319.808594 C 186.453125 319.808594 185.582031 319.734375 184.714844 319.59375 C 183.847656 319.453125 183 319.242188 182.167969 318.960938 C 181.335938 318.679688 180.535156 318.332031 179.757812 317.921875 C 178.984375 317.511719 178.246094 317.039062 177.546875 316.507812 C 176.847656 315.976562 176.199219 315.394531 175.59375 314.753906 C 174.992188 314.117188 174.441406 313.433594 173.949219 312.707031 C 173.457031 311.980469 173.027344 311.21875 172.65625 310.421875 C 172.289062 309.625 171.988281 308.804688 171.75 307.957031 Z M 202.90625 307.957031 " fill-opacity="1" fill-rule="nonzero"/></g><path fill="#000000" d="M 253.617188 147.601562 C 253.617188 153.292969 252.902344 158.890625 251.464844 164.398438 C 250.03125 169.902344 247.921875 175.136719 245.140625 180.101562 C 234.238281 199.496094 227.417969 221.023438 225.285156 242.617188 L 206.359375 242.617188 L 235.660156 144.847656 C 235.78125 144.441406 235.84375 144.027344 235.84375 143.605469 C 235.84375 143.183594 235.785156 142.769531 235.664062 142.363281 C 235.542969 141.957031 235.371094 141.578125 235.140625 141.222656 C 234.910156 140.867188 234.632812 140.554688 234.308594 140.28125 L 221.167969 129.125 C 220.777344 128.792969 220.339844 128.539062 219.855469 128.363281 C 219.371094 128.183594 218.875 128.09375 218.359375 128.09375 C 217.847656 128.09375 217.347656 128.183594 216.863281 128.363281 C 216.382812 128.539062 215.945312 128.792969 215.550781 129.125 L 202.839844 139.914062 L 190.121094 129.125 C 189.730469 128.792969 189.292969 128.539062 188.808594 128.363281 C 188.328125 128.183594 187.828125 128.09375 187.3125 128.09375 C 186.800781 128.09375 186.300781 128.183594 185.820312 128.363281 C 185.335938 128.539062 184.898438 128.792969 184.507812 129.125 L 171.816406 139.914062 L 159.097656 129.125 C 158.703125 128.792969 158.265625 128.539062 157.785156 128.359375 C 157.300781 128.183594 156.800781 128.09375 156.289062 128.09375 C 155.773438 128.09375 155.273438 128.183594 154.789062 128.359375 C 154.308594 128.539062 153.871094 128.792969 153.476562 129.125 L 140.339844 140.28125 C 140.015625 140.554688 139.738281 140.867188 139.507812 141.222656 C 139.277344 141.578125 139.101562 141.957031 138.984375 142.363281 C 138.863281 142.765625 138.800781 143.183594 138.804688 143.605469 C 138.804688 144.027344 138.863281 144.441406 138.984375 144.847656 L 168.285156 242.617188 L 149.398438 242.617188 C 147.339844 221.0625 140.523438 199.582031 129.59375 180.246094 C 126.726562 175.152344 124.570312 169.777344 123.117188 164.113281 C 121.667969 158.453125 120.976562 152.699219 121.042969 146.855469 C 121.441406 110.632812 151.160156 81.21875 187.328125 81.21875 L 187.472656 81.21875 C 223.9375 81.292969 253.617188 111.070312 253.617188 147.601562 Z M 253.617188 147.601562 " fill-opacity="1" fill-rule="nonzero"/></svg>