<svg xmlns="http://www.w3.org/2000/svg" xmlns:xlink="http://www.w3.org/1999/xlink" width="500" zoomAndPan="magnify" viewBox="0 0 375 374.999991" height="500" preserveAspectRatio="xMidYMid meet" version="1.0"><path fill="#000000" d="M 355.640625 289.027344 L 291.355469 224.742188 C 301.699219 204.105469 307.648438 180.90625 307.648438 156.28125 C 307.648438 71.601562 238.761719 2.695312 154.121094 2.695312 C 140.375 2.695312 126.429688 4.65625 112.683594 8.496094 C 102.875 11.25 97.128906 21.464844 99.902344 31.273438 C 102.671875 41.121094 113 46.867188 122.660156 44.078125 C 133.171875 41.140625 143.773438 39.644531 154.136719 39.644531 C 215.578125 39.644531 265.9375 87.46875 270.277344 147.875 L 207.359375 147.894531 C 200.929688 147.894531 194.964844 151.238281 191.601562 156.707031 L 175.105469 183.601562 L 148.929688 77.199219 C 147.042969 69.382812 140.300781 63.730469 132.304688 63.175781 C 124.101562 62.753906 116.824219 67.332031 113.847656 74.777344 L 84.789062 147.949219 L 37.925781 147.929688 C 40.011719 118.375 52.925781 91.183594 75.109375 70.695312 C 82.59375 63.785156 83.054688 52.09375 76.125 44.59375 C 69.164062 37.054688 57.488281 36.648438 50.023438 43.558594 C 18.582031 72.617188 0.554688 113.71875 0.554688 156.300781 C 0.554688 240.980469 69.441406 309.863281 154.136719 309.863281 C 178.761719 309.863281 201.964844 303.898438 222.617188 293.535156 L 286.882812 357.800781 C 296.507812 367.425781 309.125 372.230469 321.707031 372.230469 C 334.136719 372.230469 346.535156 367.519531 355.953125 358.097656 C 374.890625 339.164062 374.777344 308.183594 355.640625 289.027344 Z M 41.195312 184.875 L 97.332031 184.894531 C 104.90625 184.894531 111.707031 180.277344 114.511719 173.238281 L 126.890625 142.074219 L 149.832031 235.363281 C 151.605469 242.605469 157.554688 248.054688 164.90625 249.21875 C 165.867188 249.367188 166.828125 249.441406 167.753906 249.441406 C 174.105469 249.441406 180.109375 246.152344 183.511719 240.628906 L 217.722656 184.839844 L 267.042969 184.820312 C 254.28125 235.363281 208.578125 272.917969 154.136719 272.917969 C 99.714844 272.917969 53.996094 235.382812 41.195312 184.875 Z M 329.832031 331.996094 C 325.363281 336.464844 317.660156 336.335938 313.003906 331.679688 L 254.003906 272.679688 C 259.914062 267.597656 265.4375 262.074219 270.515625 256.164062 L 329.5 315.148438 C 334.15625 319.804688 334.304688 327.523438 329.832031 331.996094 Z M 329.832031 331.996094 " fill-opacity="1" fill-rule="nonzero"/></svg>