<svg xmlns="http://www.w3.org/2000/svg" xmlns:xlink="http://www.w3.org/1999/xlink" width="500" zoomAndPan="magnify" viewBox="0 0 375 374.999991" height="500" preserveAspectRatio="xMidYMid meet" version="1.0"><defs><clipPath id="5e4e05cb61"><path d="M 13.859375 70.292969 L 361.109375 70.292969 L 361.109375 305.042969 L 13.859375 305.042969 Z M 13.859375 70.292969 " clip-rule="nonzero"/></clipPath></defs><g clip-path="url(#5e4e05cb61)"><path fill="#323431" d="M 109.097656 70.863281 C 97.675781 72.199219 90.550781 74.410156 80.109375 79.859375 C 52.878906 94.066406 36.890625 125.511719 41.175781 156.441406 C 42.015625 162.515625 44.179688 172.164062 45.984375 177.882812 L 49.265625 188.28125 L 64.8125 188.28125 L 61.65625 181.351562 C 57.5625 172.378906 54.800781 161.582031 53.734375 150.390625 C 50.386719 115.253906 74.460938 85.273438 109.078125 81.476562 C 137.183594 78.398438 161.160156 89.839844 178.535156 114.625 C 186.460938 125.929688 189.074219 126.027344 195.1875 115.257812 C 212.296875 85.097656 252.273438 73.214844 284.734375 88.640625 C 296.402344 94.1875 307.96875 105.246094 313.074219 115.730469 C 316.902344 123.597656 320.5 138.402344 320.535156 146.441406 C 320.570312 153.707031 317.101562 169.359375 313.316406 179.03125 C 311.511719 183.644531 310.203125 187.585938 310.410156 187.792969 C 310.613281 188 313.695312 188.339844 317.253906 188.550781 L 323.722656 188.941406 L 327.546875 177.066406 C 332.53125 161.578125 333.792969 141.613281 330.582031 128.902344 C 324.054688 103.03125 306.015625 83.734375 280.375 75.1875 C 271.296875 72.164062 267.640625 71.675781 254.023438 71.683594 C 240.261719 71.691406 236.867188 72.15625 227.816406 75.277344 C 212.3125 80.628906 198.785156 90.742188 189.824219 103.6875 L 187.636719 106.84375 L 177.792969 96.890625 C 158.105469 76.976562 134.21875 67.929688 109.097656 70.863281 M 140.386719 124.628906 C 139.03125 125.992188 134.050781 141.476562 128.296875 162.195312 L 118.511719 197.441406 L 115.261719 192.53125 C 106.265625 178.929688 102.5 178.359375 91.421875 188.941406 L 83.824219 196.195312 L 50.179688 196.195312 C 21.589844 196.195312 16.28125 196.5 14.859375 198.214844 C 13.582031 199.757812 13.539062 201.003906 14.671875 203.496094 L 16.152344 206.753906 L 90.105469 206.753906 L 102.722656 194.933594 L 109.203125 204.472656 C 114.703125 212.570312 116.320312 214.074219 119.882812 214.417969 C 123.105469 214.730469 124.53125 214.117188 125.988281 211.78125 C 127.035156 210.105469 131.324219 196.117188 135.515625 180.691406 C 139.710938 165.273438 143.546875 152.652344 144.042969 152.652344 C 145.019531 152.652344 145.292969 153.886719 157.1875 212.03125 C 166.078125 255.484375 166.996094 258.972656 169.875 260.078125 C 174.070312 261.6875 178.242188 260.792969 180.105469 257.886719 C 181.148438 256.25 185.921875 243.695312 190.714844 229.984375 C 195.507812 216.269531 199.796875 204.453125 200.246094 203.726562 C 200.695312 202.996094 202.230469 204.714844 203.65625 207.546875 C 207.292969 214.769531 209.816406 217.308594 213.355469 217.308594 C 217.535156 217.308594 219.210938 214.175781 225.710938 194.21875 C 228.78125 184.785156 231.710938 176.605469 232.21875 176.039062 C 232.730469 175.472656 234.8125 180.820312 236.855469 187.914062 C 238.894531 195.011719 241.382812 202.152344 242.382812 203.785156 L 244.203125 206.753906 L 301.324219 206.753906 C 350.980469 206.753906 358.664062 206.488281 360.117188 204.734375 C 361.394531 203.195312 361.4375 201.949219 360.3125 199.472656 L 358.835938 196.226562 L 251.390625 195.539062 L 245.453125 175.609375 C 242.191406 164.652344 238.707031 154.707031 237.714844 153.507812 C 236.726562 152.3125 234.222656 151.332031 232.15625 151.332031 C 227.460938 151.332031 226.316406 153.46875 219.773438 174.425781 C 211.996094 199.339844 212.964844 197.925781 208.816406 190.347656 C 204.371094 182.238281 202 180.648438 197.4375 182.730469 C 195.546875 183.59375 193.757812 185.046875 193.460938 185.960938 C 190.328125 195.535156 180.09375 224.808594 177.933594 230.367188 C 175.367188 236.976562 175.085938 237.257812 173.984375 234.324219 C 173.328125 232.585938 168.097656 207.710938 162.355469 179.042969 C 153.570312 135.191406 151.472656 126.554688 149.132812 124.613281 C 145.617188 121.691406 143.300781 121.695312 140.386719 124.628906 M 69.054688 218.832031 C 79.5 233.519531 105.753906 256.703125 130.835938 273.382812 C 148.789062 285.320312 176.816406 301.113281 185.171875 303.996094 C 190.253906 305.75 190.738281 305.652344 199.582031 301.070312 C 210.601562 295.355469 229.164062 284.15625 242.136719 275.390625 C 263.667969 260.839844 294.800781 232.617188 304.726562 218.65625 L 307.5625 214.671875 L 292.453125 214.671875 L 277.851562 228.921875 C 256.289062 249.964844 231.390625 268.621094 202.929688 285.066406 L 190.042969 292.515625 L 180.53125 287.722656 C 149.445312 272.058594 115.351562 247.667969 93.316406 225.328125 L 82.808594 214.671875 L 66.097656 214.671875 Z M 69.054688 218.832031 " fill-opacity="1" fill-rule="evenodd"/></g></svg>