<svg xmlns="http://www.w3.org/2000/svg" xmlns:xlink="http://www.w3.org/1999/xlink" width="500" zoomAndPan="magnify" viewBox="0 0 375 374.999991" height="500" preserveAspectRatio="xMidYMid meet" version="1.0"><defs><clipPath id="a107ba2df8"><path d="M 28.636719 34 L 346.636719 34 L 346.636719 340.75 L 28.636719 340.75 Z M 28.636719 34 " clip-rule="nonzero"/></clipPath></defs><g clip-path="url(#a107ba2df8)"><path fill="#100f0d" d="M 335.972656 330.171875 L 293.589844 330.171875 L 293.589844 287.859375 L 335.972656 287.859375 Z M 245.910156 224.394531 L 245.910156 171.507812 L 298.890625 171.507812 L 298.890625 224.394531 Z M 251.210938 287.859375 L 251.210938 330.171875 L 208.828125 330.171875 L 208.828125 287.859375 Z M 155.851562 108.042969 L 155.851562 44.574219 L 219.421875 44.574219 L 219.421875 108.042969 Z M 129.363281 171.507812 L 129.363281 224.394531 L 76.382812 224.394531 L 76.382812 171.507812 Z M 166.445312 287.859375 L 166.445312 330.171875 L 124.0625 330.171875 L 124.0625 287.859375 Z M 81.683594 287.859375 L 81.683594 330.171875 L 39.300781 330.171875 L 39.300781 287.859375 Z M 341.269531 277.28125 L 320.078125 277.28125 L 320.078125 256.128906 C 320.078125 253.214844 317.699219 250.839844 314.78125 250.839844 L 277.699219 250.839844 L 277.699219 234.972656 L 304.1875 234.972656 C 307.105469 234.972656 309.484375 232.597656 309.484375 229.683594 L 309.484375 166.21875 C 309.484375 163.304688 307.105469 160.929688 304.1875 160.929688 L 277.699219 160.929688 L 277.699219 139.773438 C 277.699219 136.859375 275.316406 134.484375 272.398438 134.484375 L 192.933594 134.484375 L 192.933594 118.617188 L 224.722656 118.617188 C 227.636719 118.617188 230.019531 116.242188 230.019531 113.332031 L 230.019531 39.285156 C 230.019531 36.375 227.636719 34 224.722656 34 L 150.550781 34 C 147.632812 34 145.253906 36.375 145.253906 39.285156 L 145.253906 113.332031 C 145.253906 116.242188 147.632812 118.617188 150.550781 118.617188 L 182.339844 118.617188 L 182.339844 134.484375 L 102.875 134.484375 C 99.957031 134.484375 97.574219 136.859375 97.574219 139.773438 L 97.574219 160.929688 L 71.085938 160.929688 C 68.167969 160.929688 65.789062 163.304688 65.789062 166.21875 L 65.789062 229.683594 C 65.789062 232.597656 68.167969 234.972656 71.085938 234.972656 L 97.574219 234.972656 L 97.574219 250.839844 L 60.492188 250.839844 C 57.574219 250.839844 55.195312 253.214844 55.195312 256.128906 L 55.195312 277.28125 L 34.003906 277.28125 C 31.085938 277.28125 28.703125 279.660156 28.703125 282.570312 L 28.703125 335.460938 C 28.703125 338.371094 31.085938 340.75 34.003906 340.75 L 86.980469 340.75 C 89.898438 340.75 92.277344 338.371094 92.277344 335.460938 L 92.277344 282.570312 C 92.277344 279.660156 89.898438 277.28125 86.980469 277.28125 L 65.789062 277.28125 L 65.789062 261.417969 L 139.957031 261.417969 L 139.957031 277.28125 L 118.765625 277.28125 C 115.847656 277.28125 113.46875 279.660156 113.46875 282.570312 L 113.46875 335.460938 C 113.46875 338.371094 115.847656 340.75 118.765625 340.75 L 171.742188 340.75 C 174.660156 340.75 177.042969 338.371094 177.042969 335.460938 L 177.042969 282.570312 C 177.042969 279.660156 174.660156 277.28125 171.742188 277.28125 L 150.550781 277.28125 L 150.550781 256.128906 C 150.550781 253.214844 148.171875 250.839844 145.253906 250.839844 L 108.171875 250.839844 L 108.171875 234.972656 L 134.660156 234.972656 C 137.578125 234.972656 139.957031 232.597656 139.957031 229.683594 L 139.957031 166.21875 C 139.957031 163.304688 137.578125 160.929688 134.660156 160.929688 L 108.171875 160.929688 L 108.171875 145.0625 L 267.101562 145.0625 L 267.101562 160.929688 L 240.613281 160.929688 C 237.695312 160.929688 235.316406 163.304688 235.316406 166.21875 L 235.316406 229.683594 C 235.316406 232.597656 237.695312 234.972656 240.613281 234.972656 L 267.101562 234.972656 L 267.101562 250.839844 L 230.019531 250.839844 C 227.101562 250.839844 224.722656 253.214844 224.722656 256.128906 L 224.722656 277.28125 L 203.53125 277.28125 C 200.613281 277.28125 198.230469 279.660156 198.230469 282.570312 L 198.230469 335.460938 C 198.230469 338.371094 200.613281 340.75 203.53125 340.75 L 256.507812 340.75 C 259.425781 340.75 261.804688 338.371094 261.804688 335.460938 L 261.804688 282.570312 C 261.804688 279.660156 259.425781 277.28125 256.507812 277.28125 L 235.316406 277.28125 L 235.316406 261.417969 L 309.484375 261.417969 L 309.484375 277.28125 L 288.292969 277.28125 C 285.375 277.28125 282.996094 279.660156 282.996094 282.570312 L 282.996094 335.460938 C 282.996094 338.371094 285.375 340.75 288.292969 340.75 L 341.269531 340.75 C 344.1875 340.75 346.566406 338.371094 346.566406 335.460938 L 346.566406 282.570312 C 346.566406 279.660156 344.1875 277.28125 341.269531 277.28125 " fill-opacity="1" fill-rule="nonzero"/></g></svg>