<svg xmlns="http://www.w3.org/2000/svg" xmlns:xlink="http://www.w3.org/1999/xlink" width="500" zoomAndPan="magnify" viewBox="0 0 375 374.999991" height="500" preserveAspectRatio="xMidYMid meet" version="1.0"><defs><clipPath id="0cb4b4a42c"><path d="M 23.890625 22 L 350.890625 22 L 350.890625 353 L 23.890625 353 Z M 23.890625 22 " clip-rule="nonzero"/></clipPath></defs><g clip-path="url(#0cb4b4a42c)"><path fill="#000000" d="M 135.363281 81 L 268.863281 81 L 268.863281 74.992188 C 268.867188 73.066406 268.683594 71.15625 268.308594 69.261719 C 267.9375 67.371094 267.382812 65.535156 266.648438 63.753906 C 265.910156 61.972656 265.007812 60.277344 263.9375 58.675781 C 262.871094 57.074219 261.652344 55.589844 260.289062 54.226562 C 258.933594 52.886719 257.460938 51.6875 255.875 50.632812 C 254.289062 49.574219 252.617188 48.679688 250.859375 47.945312 C 249.097656 47.207031 247.285156 46.648438 245.421875 46.261719 C 243.554688 45.875 241.667969 45.671875 239.761719 45.648438 L 82.046875 45.648438 C 79.738281 45.679688 77.449219 45.933594 75.1875 46.410156 C 72.925781 46.886719 70.730469 47.578125 68.605469 48.480469 C 66.476562 49.386719 64.457031 50.488281 62.542969 51.789062 C 60.628906 53.085938 58.859375 54.558594 57.234375 56.199219 C 55.617188 57.851562 54.171875 59.640625 52.894531 61.566406 C 51.621094 63.496094 50.542969 65.527344 49.65625 67.664062 C 48.773438 69.796875 48.097656 71.996094 47.636719 74.261719 C 47.171875 76.527344 46.929688 78.816406 46.90625 81.128906 L 46.90625 240.296875 C 46.910156 242.222656 47.101562 244.125 47.480469 246.011719 C 47.855469 247.898438 48.414062 249.726562 49.148438 251.503906 C 49.882812 253.28125 50.78125 254.972656 51.847656 256.570312 C 52.914062 258.171875 54.121094 259.65625 55.476562 261.019531 C 56.828125 262.386719 58.296875 263.609375 59.890625 264.679688 C 61.484375 265.753906 63.167969 266.660156 64.941406 267.394531 C 66.714844 268.132812 68.542969 268.6875 70.425781 269.058594 C 72.3125 269.429688 74.214844 269.609375 76.132812 269.601562 L 81.960938 269.601562 L 81.960938 134.84375 C 81.953125 131.3125 82.289062 127.8125 82.96875 124.351562 C 83.644531 120.886719 84.65625 117.519531 86 114.253906 C 87.339844 110.992188 88.988281 107.886719 90.941406 104.949219 C 92.894531 102.007812 95.117188 99.289062 97.605469 96.789062 C 100.0625 94.28125 102.742188 92.046875 105.644531 90.078125 C 108.546875 88.105469 111.617188 86.445312 114.851562 85.089844 C 118.085938 83.734375 121.421875 82.710938 124.859375 82.023438 C 128.296875 81.335938 131.769531 80.992188 135.277344 81 Z M 274.820312 204.859375 C 275.597656 204.859375 276.367188 204.9375 277.128906 205.085938 C 277.890625 205.238281 278.628906 205.464844 279.347656 205.761719 C 280.0625 206.058594 280.746094 206.421875 281.390625 206.855469 C 282.035156 207.289062 282.632812 207.777344 283.183594 208.328125 C 283.734375 208.878906 284.222656 209.476562 284.65625 210.121094 C 285.085938 210.769531 285.449219 211.453125 285.746094 212.167969 C 286.042969 212.886719 286.269531 213.628906 286.421875 214.390625 C 286.570312 215.152344 286.648438 215.921875 286.648438 216.699219 C 286.648438 217.476562 286.570312 218.25 286.421875 219.011719 C 286.269531 219.773438 286.042969 220.515625 285.746094 221.234375 C 285.449219 221.949219 285.085938 222.632812 284.65625 223.28125 C 284.222656 223.925781 283.734375 224.523438 283.183594 225.074219 C 282.632812 225.625 282.035156 226.113281 281.390625 226.546875 C 280.746094 226.980469 280.0625 227.34375 279.347656 227.640625 C 278.628906 227.9375 277.890625 228.164062 277.128906 228.316406 C 276.367188 228.464844 275.597656 228.542969 274.820312 228.542969 L 228.0625 228.542969 L 228.0625 275.734375 C 228.0625 276.5 227.988281 277.261719 227.839844 278.011719 C 227.6875 278.761719 227.46875 279.492188 227.175781 280.203125 C 226.882812 280.910156 226.523438 281.582031 226.097656 282.21875 C 225.671875 282.855469 225.1875 283.445312 224.648438 283.988281 C 224.105469 284.527344 223.519531 285.011719 222.882812 285.4375 C 222.246094 285.863281 221.574219 286.222656 220.867188 286.515625 C 220.160156 286.808594 219.429688 287.03125 218.679688 287.179688 C 217.929688 287.332031 217.171875 287.40625 216.40625 287.40625 C 215.640625 287.40625 214.882812 287.332031 214.132812 287.179688 C 213.378906 287.03125 212.652344 286.808594 211.945312 286.515625 C 211.238281 286.222656 210.566406 285.863281 209.929688 285.4375 C 209.292969 285.011719 208.703125 284.527344 208.164062 283.988281 C 207.621094 283.445312 207.136719 282.855469 206.710938 282.21875 C 206.289062 281.582031 205.929688 280.910156 205.636719 280.203125 C 205.34375 279.492188 205.121094 278.761719 204.972656 278.011719 C 204.824219 277.261719 204.746094 276.5 204.746094 275.734375 L 204.746094 228.542969 L 157.949219 228.542969 C 157.171875 228.542969 156.402344 228.464844 155.640625 228.316406 C 154.878906 228.164062 154.140625 227.9375 153.421875 227.640625 C 152.703125 227.34375 152.023438 226.980469 151.375 226.546875 C 150.730469 226.113281 150.132812 225.625 149.582031 225.074219 C 149.035156 224.523438 148.542969 223.925781 148.113281 223.28125 C 147.679688 222.632812 147.316406 221.949219 147.019531 221.234375 C 146.722656 220.515625 146.5 219.773438 146.347656 219.011719 C 146.195312 218.25 146.121094 217.476562 146.121094 216.699219 C 146.121094 215.921875 146.195312 215.152344 146.347656 214.390625 C 146.5 213.628906 146.722656 212.886719 147.019531 212.167969 C 147.316406 211.453125 147.679688 210.769531 148.113281 210.121094 C 148.542969 209.476562 149.035156 208.878906 149.582031 208.328125 C 150.132812 207.777344 150.730469 207.289062 151.375 206.855469 C 152.023438 206.421875 152.703125 206.058594 153.421875 205.761719 C 154.140625 205.464844 154.878906 205.238281 155.640625 205.085938 C 156.402344 204.9375 157.171875 204.859375 157.949219 204.859375 L 204.746094 204.859375 L 204.746094 157.667969 C 204.746094 156.898438 204.820312 156.140625 204.96875 155.386719 C 205.117188 154.636719 205.339844 153.90625 205.628906 153.195312 C 205.921875 152.488281 206.28125 151.8125 206.707031 151.175781 C 207.132812 150.539062 207.617188 149.945312 208.15625 149.40625 C 208.699219 148.863281 209.285156 148.378906 209.925781 147.949219 C 210.5625 147.523438 211.234375 147.164062 211.941406 146.871094 C 212.648438 146.578125 213.378906 146.355469 214.128906 146.207031 C 214.878906 146.054688 215.640625 145.980469 216.40625 145.980469 C 217.171875 145.980469 217.929688 146.054688 218.679688 146.207031 C 219.433594 146.355469 220.164062 146.578125 220.871094 146.871094 C 221.578125 147.164062 222.25 147.523438 222.886719 147.949219 C 223.523438 148.378906 224.113281 148.863281 224.652344 149.40625 C 225.195312 149.945312 225.679688 150.539062 226.101562 151.175781 C 226.527344 151.8125 226.886719 152.488281 227.179688 153.195312 C 227.472656 153.90625 227.691406 154.636719 227.839844 155.386719 C 227.988281 156.140625 228.0625 156.898438 228.0625 157.667969 L 228.0625 204.859375 Z M 292.21875 81 L 297.40625 81 C 300.921875 80.992188 304.402344 81.335938 307.851562 82.023438 C 311.300781 82.710938 314.644531 83.730469 317.890625 85.085938 C 321.136719 86.441406 324.214844 88.105469 327.128906 90.074219 C 330.042969 92.042969 332.734375 94.28125 335.207031 96.789062 C 337.679688 99.296875 339.890625 102.023438 341.832031 104.964844 C 343.773438 107.90625 345.410156 111.007812 346.746094 114.273438 C 348.078125 117.539062 349.085938 120.898438 349.761719 124.359375 C 350.4375 127.820312 350.769531 131.316406 350.761719 134.84375 L 350.761719 298.6875 C 350.765625 302.210938 350.429688 305.699219 349.753906 309.15625 C 349.074219 312.613281 348.070312 315.972656 346.734375 319.234375 C 345.398438 322.492188 343.761719 325.59375 341.824219 328.53125 C 339.882812 331.46875 337.675781 334.195312 335.207031 336.699219 C 332.726562 339.191406 330.03125 341.417969 327.113281 343.375 C 324.195312 345.332031 321.117188 346.988281 317.871094 348.332031 C 314.628906 349.679688 311.285156 350.699219 307.839844 351.382812 C 304.394531 352.066406 300.917969 352.40625 297.40625 352.402344 L 135.363281 352.402344 C 131.859375 352.40625 128.390625 352.066406 124.957031 351.382812 C 121.523438 350.695312 118.1875 349.679688 114.953125 348.332031 C 111.722656 346.984375 108.652344 345.332031 105.746094 343.375 C 102.839844 341.417969 100.15625 339.191406 97.691406 336.699219 C 95.207031 334.203125 92.988281 331.484375 91.035156 328.546875 C 89.085938 325.609375 87.4375 322.511719 86.097656 319.25 C 84.753906 315.988281 83.742188 312.628906 83.0625 309.167969 C 82.378906 305.707031 82.042969 302.214844 82.046875 298.6875 L 82.046875 293.28125 L 76.21875 293.28125 C 72.757812 293.285156 69.332031 292.945312 65.9375 292.261719 C 62.542969 291.582031 59.25 290.574219 56.058594 289.238281 C 52.863281 287.898438 49.832031 286.261719 46.964844 284.320312 C 44.097656 282.378906 41.449219 280.175781 39.019531 277.710938 C 36.582031 275.242188 34.410156 272.566406 32.5 269.671875 C 30.589844 266.78125 28.976562 263.730469 27.664062 260.519531 C 26.351562 257.3125 25.363281 254.007812 24.699219 250.601562 C 24.035156 247.199219 23.710938 243.765625 23.71875 240.296875 L 23.71875 81 C 23.714844 77.140625 24.085938 73.316406 24.832031 69.53125 C 25.578125 65.746094 26.6875 62.070312 28.160156 58.503906 C 29.628906 54.9375 31.433594 51.550781 33.570312 48.339844 C 35.710938 45.128906 38.140625 42.15625 40.863281 39.425781 C 43.566406 36.695312 46.511719 34.257812 49.695312 32.117188 C 52.882812 29.972656 56.25 28.164062 59.796875 26.691406 C 63.34375 25.21875 67 24.109375 70.765625 23.363281 C 74.535156 22.617188 78.335938 22.253906 82.175781 22.265625 L 239.847656 22.265625 C 243.292969 22.261719 246.703125 22.601562 250.082031 23.277344 C 253.460938 23.953125 256.738281 24.957031 259.914062 26.289062 C 263.09375 27.617188 266.109375 29.246094 268.964844 31.175781 C 271.820312 33.105469 274.457031 35.296875 276.875 37.753906 C 279.304688 40.199219 281.476562 42.859375 283.390625 45.726562 C 285.300781 48.597656 286.917969 51.625 288.242188 54.808594 C 289.5625 57.996094 290.566406 61.277344 291.25 64.660156 C 291.933594 68.042969 292.285156 71.457031 292.304688 74.90625 L 292.304688 75.507812 Z M 297.40625 104.636719 L 135.363281 104.636719 C 133.402344 104.636719 131.460938 104.828125 129.542969 105.214844 C 127.621094 105.597656 125.757812 106.171875 123.949219 106.929688 C 122.140625 107.6875 120.429688 108.621094 118.808594 109.722656 C 117.1875 110.824219 115.691406 112.074219 114.320312 113.476562 C 112.925781 114.886719 111.6875 116.425781 110.601562 118.082031 C 109.515625 119.742188 108.605469 121.492188 107.871094 123.335938 C 107.132812 125.179688 106.589844 127.074219 106.230469 129.027344 C 105.875 130.976562 105.710938 132.945312 105.746094 134.929688 L 105.746094 298.6875 C 105.746094 299.671875 105.796875 300.652344 105.890625 301.632812 C 105.988281 302.609375 106.132812 303.582031 106.324219 304.546875 C 106.515625 305.511719 106.753906 306.464844 107.039062 307.40625 C 107.324219 308.347656 107.65625 309.273438 108.03125 310.179688 C 108.40625 311.089844 108.828125 311.976562 109.289062 312.84375 C 109.753906 313.714844 110.257812 314.554688 110.804688 315.375 C 111.351562 316.191406 111.933594 316.980469 112.558594 317.742188 C 113.179688 318.5 113.839844 319.230469 114.535156 319.925781 C 115.230469 320.621094 115.957031 321.28125 116.714844 321.902344 C 117.476562 322.527344 118.265625 323.113281 119.082031 323.660156 C 119.898438 324.207031 120.738281 324.710938 121.605469 325.175781 C 122.472656 325.636719 123.359375 326.058594 124.265625 326.433594 C 125.175781 326.8125 126.097656 327.140625 127.039062 327.425781 C 127.980469 327.714844 128.933594 327.953125 129.894531 328.144531 C 130.859375 328.335938 131.828125 328.480469 132.808594 328.574219 C 133.785156 328.671875 134.765625 328.71875 135.746094 328.71875 L 297.40625 328.71875 C 299.394531 328.722656 301.363281 328.53125 303.3125 328.144531 C 305.261719 327.761719 307.15625 327.1875 308.996094 326.429688 C 310.832031 325.671875 312.582031 324.742188 314.234375 323.640625 C 315.890625 322.539062 317.425781 321.285156 318.832031 319.882812 C 320.203125 318.457031 321.425781 316.910156 322.496094 315.246094 C 323.570312 313.582031 324.472656 311.832031 325.207031 309.992188 C 325.941406 308.15625 326.496094 306.261719 326.863281 304.316406 C 327.234375 302.375 327.414062 300.410156 327.40625 298.429688 L 327.40625 134.84375 C 327.421875 132.863281 327.246094 130.898438 326.878906 128.949219 C 326.511719 127.003906 325.960938 125.113281 325.226562 123.273438 C 324.492188 121.433594 323.585938 119.683594 322.511719 118.019531 C 321.433594 116.355469 320.210938 114.8125 318.832031 113.390625 C 317.429688 111.980469 315.902344 110.722656 314.246094 109.613281 C 312.59375 108.507812 310.847656 107.574219 309.007812 106.816406 C 307.167969 106.058594 305.269531 105.488281 303.316406 105.105469 C 301.367188 104.726562 299.394531 104.542969 297.40625 104.550781 Z M 297.40625 104.636719 " fill-opacity="1" fill-rule="nonzero"/></g></svg>