<svg xmlns="http://www.w3.org/2000/svg" xmlns:xlink="http://www.w3.org/1999/xlink" width="500" zoomAndPan="magnify" viewBox="0 0 375 374.999991" height="500" preserveAspectRatio="xMidYMid meet" version="1.0"><path fill="#000000" d="M 367.660156 43.371094 L 331.628906 7.339844 C 324.289062 0 312.277344 0 304.9375 7.339844 L 277.578125 34.699219 L 42.039062 35.363281 C 18.683594 35.363281 0 54.046875 0 77.402344 L 0 332.960938 C 0 356.316406 18.683594 375 42.039062 375 L 297.597656 375 C 320.953125 375 339.636719 356.316406 339.636719 332.960938 L 340.300781 97.417969 L 367.660156 70.0625 C 375 62.722656 375 50.710938 367.660156 43.371094 Z M 326.289062 332.960938 C 326.289062 348.976562 313.613281 361.65625 297.597656 361.65625 L 42.039062 361.65625 C 26.023438 361.65625 13.34375 348.976562 13.34375 332.960938 L 13.34375 76.734375 C 13.34375 60.71875 26.023438 48.042969 42.039062 48.042969 L 264.234375 48.042969 L 141.460938 170.820312 C 138.789062 173.488281 136.789062 176.824219 136.121094 180.160156 L 126.78125 226.199219 C 125.445312 232.207031 127.445312 238.878906 132.117188 243.550781 C 135.453125 246.886719 140.792969 248.886719 145.460938 248.886719 C 146.796875 248.886719 148.132812 248.886719 149.464844 248.21875 L 194.839844 238.878906 C 198.175781 238.210938 201.511719 236.210938 204.179688 233.539062 L 326.957031 110.765625 Z M 326.289062 332.960938 " fill-opacity="1" fill-rule="nonzero"/></svg>