<svg xmlns="http://www.w3.org/2000/svg" xmlns:xlink="http://www.w3.org/1999/xlink" width="500" zoomAndPan="magnify" viewBox="0 0 375 374.999991" height="500" preserveAspectRatio="xMidYMid meet" version="1.0"><defs><clipPath id="7aab69607a"><path d="M 0 86 L 375 86 L 375 317.390625 L 0 317.390625 Z M 0 86 " clip-rule="nonzero"/></clipPath></defs><path fill="#100f0d" d="M 187.582031 208.890625 C 203.203125 207.742188 287.453125 138.332031 362.21875 69.953125 C 354.625 62.566406 344.28125 58 332.855469 58 L 42.179688 58 C 30.433594 58 19.816406 62.8125 12.164062 70.566406 C 87.140625 138.589844 171.8125 207.785156 187.582031 208.890625 " fill-opacity="1" fill-rule="nonzero"/><g clip-path="url(#7aab69607a)"><path fill="#100f0d" d="M 297.84375 152.421875 C 208.28125 228.316406 193.722656 228.316406 187.511719 228.316406 C 181.304688 228.316406 166.769531 228.316406 77.179688 153.046875 C 45.855469 126.730469 16.054688 100.171875 1.953125 87.484375 C 0.675781 91.507812 -0.0195312 95.792969 -0.0195312 100.242188 L -0.0195312 275.164062 C -0.0195312 298.476562 18.859375 317.375 42.144531 317.375 L 332.820312 317.375 C 356.125 317.375 375.019531 298.464844 375.019531 275.132812 L 375.019531 100.210938 C 375.019531 95.441406 374.191406 90.878906 372.734375 86.601562 C 358.515625 99.507812 328.925781 126.085938 297.84375 152.421875 " fill-opacity="1" fill-rule="nonzero"/></g></svg>