<svg xmlns="http://www.w3.org/2000/svg" xmlns:xlink="http://www.w3.org/1999/xlink" width="500" zoomAndPan="magnify" viewBox="0 0 375 374.999991" height="500" preserveAspectRatio="xMidYMid meet" version="1.0"><defs><clipPath id="5a9d446518"><path d="M 187.5 0 C 83.945312 0 0 83.945312 0 187.5 C 0 291.054688 83.945312 375 187.5 375 C 291.054688 375 375 291.054688 375 187.5 C 375 83.945312 291.054688 0 187.5 0 Z M 187.5 0 " clip-rule="nonzero"/></clipPath><clipPath id="bb1983e7cc"><path d="M 131 59.308594 L 237 59.308594 L 237 114 L 131 114 Z M 131 59.308594 " clip-rule="nonzero"/></clipPath><clipPath id="aa04077a34"><path d="M 83.34375 189 L 291.84375 189 L 291.84375 315.808594 L 83.34375 315.808594 Z M 83.34375 189 " clip-rule="nonzero"/></clipPath></defs><g clip-path="url(#5a9d446518)"><path stroke-linecap="butt" transform="matrix(0.75, 0, 0, 0.75, 0.0000045, 0)" fill="none" stroke-linejoin="miter" d="M 249.999994 0 C 111.927078 0 -0.000006 111.927084 -0.000006 250 C -0.000006 388.072917 111.927078 500.000001 249.999994 500.000001 C 388.072911 500.000001 499.999995 388.072917 499.999995 250 C 499.999995 111.927084 388.072911 0 249.999994 0 Z M 249.999994 0 " stroke="#000000" stroke-width="60" stroke-opacity="1" stroke-miterlimit="4"/></g><g clip-path="url(#bb1983e7cc)"><path fill="#000000" d="M 184.050781 59.429688 C 155.371094 59.429688 131.109375 71.855469 131.109375 86.570312 C 131.109375 101.285156 155.371094 113.710938 184.050781 113.710938 C 212.785156 113.710938 236.992188 101.285156 236.992188 86.570312 C 236.992188 71.855469 212.785156 59.429688 184.050781 59.429688 Z M 160.824219 101.832031 C 151.445312 101.832031 144.085938 96.601562 144.085938 89.949219 C 144.085938 83.300781 151.445312 78.070312 160.824219 78.070312 C 170.203125 78.070312 177.5625 83.300781 177.5625 89.949219 C 177.5625 96.601562 170.203125 101.832031 160.824219 101.832031 Z M 160.824219 101.832031 " fill-opacity="1" fill-rule="nonzero"/></g><path fill="#000000" d="M 236.992188 227.996094 L 236.992188 229.140625 C 236.992188 243.855469 212.730469 256.28125 184.050781 256.28125 C 155.371094 256.28125 131.109375 243.855469 131.109375 229.140625 L 131.109375 227.996094 C 142.066406 238.242188 161.476562 244.949219 184.050781 244.949219 C 206.625 244.949219 226.089844 238.296875 236.992188 227.996094 Z M 236.992188 227.996094 " fill-opacity="1" fill-rule="nonzero"/><path fill="#000000" d="M 184.050781 144.832031 C 161.476562 144.832031 142.011719 138.128906 131.109375 127.882812 L 131.109375 191.046875 C 131.109375 191.15625 131.109375 191.320312 131.109375 191.484375 L 131.109375 208.378906 C 131.109375 223.09375 155.371094 235.519531 184.050781 235.519531 C 212.785156 235.519531 236.992188 223.09375 236.992188 208.378906 L 236.992188 127.882812 C 226.089844 138.128906 206.625 144.832031 184.050781 144.832031 Z M 202.535156 203.09375 C 198.664062 209.796875 191.792969 213.773438 184.050781 213.773438 C 176.363281 213.773438 169.4375 209.796875 165.566406 203.09375 C 161.695312 196.386719 161.695312 188.429688 165.566406 181.78125 L 179.960938 156.875 C 180.78125 155.40625 182.359375 154.53125 184.050781 154.53125 C 185.742188 154.53125 187.324219 155.40625 188.140625 156.875 L 202.535156 181.78125 C 206.40625 188.429688 206.40625 196.441406 202.535156 203.09375 Z M 202.535156 203.09375 " fill-opacity="1" fill-rule="nonzero"/><path fill="#000000" d="M 236.992188 106.191406 L 236.992188 108.261719 C 236.992188 122.976562 212.730469 135.402344 184.050781 135.402344 C 155.371094 135.402344 131.109375 122.976562 131.109375 108.261719 L 131.109375 106.191406 C 131.328125 106.410156 131.597656 106.628906 131.816406 106.847656 C 132.308594 107.28125 132.742188 107.664062 133.234375 108.097656 C 133.507812 108.316406 133.726562 108.480469 134 108.699219 C 135.359375 109.789062 136.832031 110.769531 138.359375 111.75 C 138.6875 111.96875 139.070312 112.1875 139.449219 112.40625 C 140.324219 112.949219 141.304688 113.441406 142.230469 113.984375 C 142.722656 114.257812 143.210938 114.476562 143.703125 114.75 C 144.304688 115.019531 144.902344 115.347656 145.503906 115.621094 C 145.828125 115.730469 146.101562 115.894531 146.429688 116 C 148.121094 116.765625 149.863281 117.417969 151.664062 118.074219 C 151.882812 118.128906 152.101562 118.234375 152.371094 118.289062 C 153.734375 118.726562 155.097656 119.164062 156.515625 119.597656 C 157.0625 119.761719 157.660156 119.925781 158.207031 120.035156 C 158.535156 120.144531 158.859375 120.199219 159.132812 120.253906 C 160.167969 120.523438 161.207031 120.742188 162.242188 120.960938 C 162.675781 121.070312 163.058594 121.125 163.496094 121.234375 C 164.203125 121.398438 164.914062 121.507812 165.675781 121.617188 C 165.894531 121.667969 166.113281 121.667969 166.277344 121.722656 C 166.601562 121.777344 166.929688 121.832031 167.257812 121.886719 C 167.53125 121.941406 167.804688 121.996094 168.074219 121.996094 C 169.167969 122.160156 170.257812 122.324219 171.347656 122.433594 C 171.675781 122.488281 172 122.488281 172.382812 122.542969 C 173.636719 122.652344 174.890625 122.8125 176.199219 122.867188 C 176.582031 122.921875 176.910156 122.921875 177.289062 122.921875 C 177.617188 122.921875 177.890625 122.976562 178.21875 122.976562 L 178.273438 122.976562 C 178.761719 123.03125 179.308594 123.03125 179.796875 123.03125 C 179.851562 123.03125 179.90625 123.03125 179.960938 123.03125 C 180.453125 123.03125 180.890625 123.085938 181.378906 123.085938 C 181.433594 123.085938 181.488281 123.085938 181.542969 123.085938 C 181.816406 123.085938 182.144531 123.085938 182.414062 123.085938 C 183.015625 123.085938 183.613281 123.085938 184.214844 123.085938 C 184.816406 123.085938 185.414062 123.085938 186.015625 123.085938 C 186.285156 123.085938 186.558594 123.085938 186.886719 123.085938 C 186.941406 123.085938 186.996094 123.085938 187.050781 123.085938 C 187.539062 123.085938 187.976562 123.085938 188.46875 123.03125 C 188.523438 123.03125 188.578125 123.03125 188.632812 123.03125 C 189.121094 123.03125 189.667969 122.976562 190.15625 122.976562 L 190.210938 122.976562 C 190.484375 122.976562 190.8125 122.921875 191.085938 122.921875 C 191.464844 122.921875 191.847656 122.867188 192.230469 122.867188 C 193.59375 122.757812 194.957031 122.652344 196.265625 122.488281 C 196.539062 122.433594 196.753906 122.433594 197.027344 122.378906 C 198.335938 122.214844 199.644531 122.050781 200.953125 121.832031 C 201.335938 121.777344 201.664062 121.722656 202.042969 121.667969 C 202.261719 121.617188 202.535156 121.617188 202.753906 121.5625 C 204.933594 121.179688 207.113281 120.742188 209.1875 120.199219 C 209.570312 120.089844 209.894531 120.035156 210.277344 119.925781 C 210.824219 119.761719 211.421875 119.597656 211.96875 119.433594 C 212.078125 119.433594 212.132812 119.378906 212.238281 119.378906 C 212.730469 119.21875 213.222656 119.109375 213.765625 118.945312 C 214.855469 118.617188 215.894531 118.289062 216.929688 117.910156 C 217.203125 117.800781 217.472656 117.691406 217.746094 117.636719 C 219.21875 117.09375 220.582031 116.546875 221.945312 115.949219 C 222.328125 115.785156 222.761719 115.621094 223.144531 115.402344 C 225.488281 114.3125 227.726562 113.167969 229.742188 111.859375 C 230.015625 111.695312 230.34375 111.476562 230.613281 111.316406 C 232.796875 109.789062 235.03125 108.046875 236.992188 106.191406 Z M 236.992188 106.191406 " fill-opacity="1" fill-rule="nonzero"/><path fill="#000000" d="M 168.074219 89.949219 C 167.640625 90.714844 165.078125 92.402344 160.824219 92.402344 C 156.570312 92.402344 154.007812 90.714844 153.570312 89.949219 C 154.007812 89.1875 156.570312 87.5 160.824219 87.5 C 165.078125 87.5 167.640625 89.1875 168.074219 89.949219 Z M 168.074219 89.949219 " fill-opacity="1" fill-rule="nonzero"/><g clip-path="url(#aa04077a34)"><path fill="#000000" d="M 291.519531 250.234375 C 290.589844 254.375 289.066406 254.703125 284.210938 255.140625 C 282.304688 255.300781 280.285156 255.464844 278.378906 256.121094 C 277.015625 256.609375 275.925781 257.644531 275.433594 259.0625 C 273.851562 263.640625 275.050781 268.492188 275.980469 272.359375 C 276.359375 273.886719 276.90625 276.121094 276.851562 277.101562 C 275.925781 277.484375 271.945312 278.246094 257.984375 275.03125 C 255.75 274.484375 254.277344 275.414062 250.460938 277.757812 C 245.554688 280.753906 234.050781 287.839844 227.617188 286.148438 C 226.035156 285.710938 224.890625 284.730469 223.960938 283.097656 C 221.617188 278.792969 218.457031 277.59375 216.273438 277.375 C 209.023438 276.558594 202.042969 284.40625 193.265625 294.324219 C 184.324219 304.351562 173.253906 316.886719 164.640625 315.578125 C 160.007812 314.925781 155.589844 310.074219 151.5 301.300781 C 149.644531 297.320312 150.027344 294.542969 150.355469 291.652344 C 150.847656 287.566406 151.554688 282.007812 144.25 277.265625 C 138.632812 273.613281 127.671875 270.015625 107.5 265.222656 C 102.648438 264.078125 88.46875 255.957031 87 249.851562 C 83.5625 235.792969 83.179688 230.449219 83.398438 228.433594 C 83.890625 228.488281 84.4375 228.542969 84.925781 228.652344 C 90.871094 229.46875 101.882812 231.050781 108.316406 211.648438 C 111.152344 202.984375 107.5 195.789062 105.046875 191.046875 C 104.773438 190.503906 104.445312 189.847656 104.117188 189.25 C 105.480469 189.085938 107.828125 188.976562 111.859375 189.140625 C 112.570312 189.46875 114.207031 190.339844 115.625 191.101562 C 117.3125 192.027344 119.277344 193.117188 121.621094 194.316406 L 121.621094 229.359375 C 121.621094 249.851562 149.046875 265.929688 184.050781 265.929688 C 219.054688 265.929688 246.480469 249.851562 246.480469 229.359375 L 246.480469 211.484375 C 247.898438 212.140625 249.425781 212.847656 250.953125 213.554688 C 269.597656 221.894531 295.171875 233.613281 291.519531 250.234375 Z M 291.519531 250.234375 " fill-opacity="1" fill-rule="nonzero"/></g><path fill="#000000" d="M 194.355469 198.40625 C 192.230469 202.109375 188.359375 204.34375 184.050781 204.34375 C 179.742188 204.34375 175.925781 202.109375 173.746094 198.40625 C 171.621094 194.699219 171.621094 190.230469 173.746094 186.523438 L 184.050781 168.703125 L 194.355469 186.523438 C 196.484375 190.230469 196.484375 194.644531 194.355469 198.40625 Z M 194.355469 198.40625 " fill-opacity="1" fill-rule="nonzero"/></svg>