<svg xmlns="http://www.w3.org/2000/svg" xmlns:xlink="http://www.w3.org/1999/xlink" width="500" zoomAndPan="magnify" viewBox="0 0 375 374.999991" height="500" preserveAspectRatio="xMidYMid meet" version="1.0"><defs><clipPath id="317b9b69cf"><path d="M 187.5 0 C 83.945312 0 0 83.945312 0 187.5 C 0 291.054688 83.945312 375 187.5 375 C 291.054688 375 375 291.054688 375 187.5 C 375 83.945312 291.054688 0 187.5 0 Z M 187.5 0 " clip-rule="nonzero"/></clipPath><clipPath id="c581272099"><path d="M 96 68.109375 L 280 68.109375 L 280 168 L 96 168 Z M 96 68.109375 " clip-rule="nonzero"/></clipPath><clipPath id="0e58418f4a"><path d="M 78.105469 177 L 297.105469 177 L 297.105469 306.609375 L 78.105469 306.609375 Z M 78.105469 177 " clip-rule="nonzero"/></clipPath></defs><g clip-path="url(#317b9b69cf)"><path stroke-linecap="butt" transform="matrix(0.75, 0, 0, 0.75, 0.0000045, 0)" fill="none" stroke-linejoin="miter" d="M 249.999994 0 C 111.927078 0 -0.000006 111.927084 -0.000006 250 C -0.000006 388.072917 111.927078 500.000001 249.999994 500.000001 C 388.072911 500.000001 499.999995 388.072917 499.999995 250 C 499.999995 111.927084 388.072911 0 249.999994 0 Z M 249.999994 0 " stroke="#000000" stroke-width="60" stroke-opacity="1" stroke-miterlimit="4"/></g><g clip-path="url(#c581272099)"><path fill="#000000" d="M 271.683594 141.066406 L 254.925781 138.53125 C 252.828125 133.578125 252.269531 132.15625 250.175781 127.085938 L 260.332031 113.648438 C 262.96875 110.019531 262.640625 104.949219 259.445312 101.761719 L 245.765625 88.113281 C 242.554688 84.925781 237.492188 84.601562 233.855469 87.230469 L 220.386719 97.367188 C 215.308594 95.277344 213.882812 94.71875 208.800781 92.625 L 206.378906 75.90625 C 205.820312 71.488281 201.953125 68.1875 197.433594 68.1875 L 178.019531 68.1875 C 173.5 68.1875 169.746094 71.488281 169.089844 75.90625 L 166.648438 92.625 C 161.585938 94.71875 160.257812 95.277344 155.179688 97.367188 L 141.613281 87.230469 C 137.976562 84.601562 133.011719 84.925781 129.800781 88.113281 L 116.117188 101.761719 C 112.925781 104.949219 112.484375 110.019531 115.234375 113.648438 L 125.277344 127.085938 C 123.179688 132.15625 122.640625 133.574219 120.542969 138.53125 L 103.882812 141.066406 C 99.359375 141.621094 96.050781 145.480469 96.050781 149.972656 L 96.050781 167.175781 C 104.863281 165.695312 115.289062 164.488281 125.910156 164.488281 C 136.203125 164.488281 145.421875 165.617188 153.519531 167.882812 C 152.882812 165.253906 152.558594 162.488281 152.558594 159.667969 C 152.558594 140.296875 168.296875 124.574219 187.726562 124.574219 C 207.140625 124.574219 222.878906 140.296875 222.878906 159.667969 C 222.878906 162.511719 222.535156 165.253906 221.898438 167.902344 C 230 165.617188 239.238281 164.488281 249.546875 164.488281 C 260.167969 164.488281 270.597656 165.695312 279.410156 167.195312 L 279.410156 149.972656 C 279.421875 145.480469 276.109375 141.621094 271.683594 141.066406 Z M 271.683594 141.066406 " fill-opacity="1" fill-rule="nonzero"/></g><g clip-path="url(#0e58418f4a)"><path fill="#000000" d="M 293.902344 183.960938 C 278.621094 180.078125 234.671875 170.96875 210.882812 187.453125 C 185.671875 204.941406 195.917969 223.433594 199.828125 227.804688 C 213.980469 210.859375 237.097656 199.019531 262.578125 199.695312 C 252.804688 202.519531 199.828125 223.300781 187.765625 267.417969 C 175.632812 223.300781 122.65625 202.519531 112.949219 199.695312 C 138.429688 199.023438 161.480469 210.859375 175.632812 227.804688 C 179.542969 223.433594 189.855469 204.941406 164.644531 187.453125 C 140.804688 170.96875 96.855469 180.074219 81.5625 183.957031 C 78.726562 184.679688 77.359375 187.8125 78.742188 190.382812 C 84.9375 201.894531 101.195312 230.398438 116.453125 242.332031 C 135.863281 257.398438 153.863281 255.109375 164.308594 252.691406 C 172.277344 269.113281 176.796875 284.992188 176.796875 284.992188 C 176.796875 284.992188 148.710938 291.90625 143.179688 298.730469 C 140.644531 301.863281 142.847656 306.527344 146.878906 306.527344 L 228.582031 306.527344 C 232.617188 306.527344 234.820312 301.859375 232.28125 298.730469 C 226.761719 291.914062 198.730469 285 198.730469 285 C 198.730469 285 203.246094 269.117188 211.152344 252.691406 C 214.992188 253.5625 219.914062 254.4375 225.441406 254.4375 C 235.082031 254.4375 246.738281 251.882812 259.003906 242.332031 C 274.316406 230.398438 290.550781 201.890625 296.722656 190.382812 C 298.105469 187.8125 296.738281 184.679688 293.902344 183.960938 Z M 293.902344 183.960938 " fill-opacity="1" fill-rule="nonzero"/></g></svg>