<svg xmlns="http://www.w3.org/2000/svg" xmlns:xlink="http://www.w3.org/1999/xlink" width="500" zoomAndPan="magnify" viewBox="0 0 375 374.999991" height="500" preserveAspectRatio="xMidYMid meet" version="1.0"><defs><clipPath id="674f7015b3"><path d="M 187.5 0 C 83.945312 0 0 83.945312 0 187.5 C 0 291.054688 83.945312 375 187.5 375 C 291.054688 375 375 291.054688 375 187.5 C 375 83.945312 291.054688 0 187.5 0 Z M 187.5 0 " clip-rule="nonzero"/></clipPath><clipPath id="e788b0ed86"><path d="M 58.96875 71.339844 L 316.21875 71.339844 L 316.21875 303.839844 L 58.96875 303.839844 Z M 58.96875 71.339844 " clip-rule="nonzero"/></clipPath></defs><g clip-path="url(#674f7015b3)"><path stroke-linecap="butt" transform="matrix(0.75, 0, 0, 0.75, 0.0000045, 0)" fill="none" stroke-linejoin="miter" d="M 249.999994 0 C 111.927078 0 -0.000006 111.927084 -0.000006 250 C -0.000006 388.072917 111.927078 500.000001 249.999994 500.000001 C 388.072911 500.000001 499.999995 388.072917 499.999995 250 C 499.999995 111.927084 388.072911 0 249.999994 0 Z M 249.999994 0 " stroke="#000000" stroke-width="60" stroke-opacity="1" stroke-miterlimit="4"/></g><g clip-path="url(#e788b0ed86)"><path fill="#000000" d="M 256.5625 302.332031 C 243 304.796875 228.488281 300.894531 217.839844 290.5625 C 206.453125 279.507812 202.289062 263.820312 205.4375 249.378906 C 205.6875 248.234375 205.351562 247.128906 204.511719 246.3125 L 188.917969 231.175781 L 117.015625 161.390625 C 116.175781 160.570312 115.0625 160.269531 113.925781 160.554688 C 99.582031 164.132812 83.773438 160.441406 72.386719 149.390625 C 61.742188 139.054688 57.40625 124.660156 59.464844 111.027344 C 59.652344 109.777344 60.46875 108.800781 61.671875 108.394531 C 62.871094 107.992188 64.113281 108.273438 65.019531 109.15625 L 87.160156 130.644531 C 87.941406 131.402344 88.941406 131.710938 90.015625 131.527344 L 110.96875 127.933594 C 112.40625 127.6875 113.472656 126.585938 113.675781 125.144531 L 116.644531 104.085938 C 116.796875 103.011719 116.457031 102.015625 115.675781 101.257812 L 93.539062 79.769531 C 92.628906 78.886719 92.3125 77.65625 92.679688 76.445312 C 93.046875 75.230469 94 74.386719 95.246094 74.160156 C 108.808594 71.699219 123.320312 75.597656 133.964844 85.933594 C 145.355469 96.984375 149.519531 112.675781 146.371094 127.117188 C 146.121094 128.261719 146.453125 129.367188 147.296875 130.183594 L 219.144531 199.921875 L 234.792969 215.105469 C 235.632812 215.921875 236.746094 216.222656 237.886719 215.9375 C 252.226562 212.363281 268.035156 216.054688 279.421875 227.105469 C 290.066406 237.4375 294.402344 251.835938 292.34375 265.464844 C 292.15625 266.71875 291.335938 267.695312 290.136719 268.097656 C 288.9375 268.503906 287.695312 268.222656 286.785156 267.339844 L 264.644531 245.851562 C 263.867188 245.09375 262.863281 244.785156 261.792969 244.96875 L 240.832031 248.5625 C 239.398438 248.808594 238.332031 249.90625 238.125 251.351562 L 235.164062 272.40625 C 235.011719 273.484375 235.351562 274.476562 236.128906 275.234375 L 258.269531 296.726562 C 259.179688 297.605469 259.496094 298.839844 259.128906 300.050781 C 258.757812 301.261719 257.808594 302.109375 256.5625 302.332031 Z M 101.945312 287.492188 L 123.132812 303.195312 C 124.589844 304.277344 126.664062 303.96875 127.742188 302.507812 L 180.214844 231.707031 L 156.351562 208.546875 L 101.257812 282.878906 C 100.175781 284.339844 100.484375 286.410156 101.945312 287.492188 Z M 214.074219 186.023438 L 243.972656 145.679688 L 217.492188 126.050781 L 190.210938 162.859375 Z M 232.722656 100.917969 L 230.582031 103.890625 L 220.605469 117.351562 C 219.820312 118.414062 220.042969 119.921875 221.101562 120.707031 L 248.035156 140.671875 C 249.097656 141.457031 250.601562 141.234375 251.390625 140.175781 L 260.652344 127.675781 C 261.117188 127.046875 261.789062 126.707031 262.570312 126.707031 L 274.683594 126.667969 C 275.222656 126.664062 275.6875 126.816406 276.121094 127.136719 L 283.3125 132.46875 C 283.792969 132.824219 284.089844 133.285156 284.21875 133.867188 L 285.597656 139.953125 C 285.730469 140.535156 286.03125 140.996094 286.511719 141.347656 L 297.703125 149.648438 C 298.761719 150.433594 300.269531 150.210938 301.058594 149.148438 L 315.6875 129.402344 C 316.476562 128.339844 316.25 126.832031 315.191406 126.046875 L 304.003906 117.75 C 303.523438 117.394531 302.996094 117.242188 302.398438 117.285156 L 296.171875 117.742188 C 295.574219 117.785156 295.046875 117.632812 294.570312 117.277344 L 287.378906 111.945312 C 286.945312 111.625 286.664062 111.226562 286.511719 110.707031 L 282.910156 98.71875 C 282.753906 98.199219 282.472656 97.800781 282.039062 97.480469 L 249.519531 73.375 C 249.191406 73.132812 248.859375 72.992188 248.457031 72.929688 C 221.121094 68.691406 198.722656 72.902344 181.277344 85.570312 C 180.371094 86.226562 180.042969 87.378906 180.464844 88.414062 C 180.886719 89.449219 181.925781 90.046875 183.03125 89.882812 C 214.578125 85.273438 229.511719 87.160156 233.070312 98.8125 C 233.296875 99.554688 233.175781 100.289062 232.722656 100.917969 Z M 232.722656 100.917969 " fill-opacity="1" fill-rule="evenodd"/></g></svg>