<svg xmlns="http://www.w3.org/2000/svg" xmlns:xlink="http://www.w3.org/1999/xlink" width="500" zoomAndPan="magnify" viewBox="0 0 375 374.999991" height="500" preserveAspectRatio="xMidYMid meet" version="1.0"><defs><clipPath id="e3248236a9"><path d="M 187.5 0 C 83.945312 0 0 83.945312 0 187.5 C 0 291.054688 83.945312 375 187.5 375 C 291.054688 375 375 291.054688 375 187.5 C 375 83.945312 291.054688 0 187.5 0 Z M 187.5 0 " clip-rule="nonzero"/></clipPath><clipPath id="159d228965"><path d="M 50.429688 37.5 L 324.929688 37.5 L 324.929688 280.5 L 50.429688 280.5 Z M 50.429688 37.5 " clip-rule="nonzero"/></clipPath><clipPath id="33909dfe2d"><path d="M 54 37.5 L 324.929688 37.5 L 324.929688 280.5 L 54 280.5 Z M 54 37.5 " clip-rule="nonzero"/></clipPath></defs><g clip-path="url(#e3248236a9)"><path stroke-linecap="butt" transform="matrix(0.75, 0, 0, 0.75, 0.0000045, 0)" fill="none" stroke-linejoin="miter" d="M 249.999994 0 C 111.927078 0 -0.000006 111.927084 -0.000006 250 C -0.000006 388.072917 111.927078 500.000001 249.999994 500.000001 C 388.072911 500.000001 499.999995 388.072917 499.999995 250 C 499.999995 111.927084 388.072911 0 249.999994 0 Z M 249.999994 0 " stroke="#000000" stroke-width="60" stroke-opacity="1" stroke-miterlimit="4"/></g><g clip-path="url(#159d228965)"><path fill="#f14b4e" d="M 205.472656 47.8125 L 263.792969 148.734375 L 322.109375 249.652344 C 325.882812 256.179688 325.882812 263.648438 322.109375 270.171875 C 318.339844 276.699219 311.863281 280.433594 304.324219 280.433594 L 71.050781 280.433594 C 63.507812 280.433594 57.03125 276.699219 53.261719 270.171875 C 49.488281 263.648438 49.488281 256.175781 53.261719 249.652344 L 111.578125 148.734375 L 169.898438 47.8125 C 173.667969 41.289062 180.144531 37.550781 187.6875 37.550781 C 195.226562 37.550781 201.703125 41.289062 205.472656 47.8125 Z M 205.472656 47.8125 " fill-opacity="1" fill-rule="evenodd"/></g><path fill="#ffffff" d="M 187.683594 243.761719 C 195.277344 243.761719 201.46875 237.574219 201.46875 229.988281 C 201.46875 222.40625 195.277344 216.21875 187.683594 216.21875 C 180.09375 216.21875 173.898438 222.40625 173.898438 229.988281 C 173.898438 237.574219 180.09375 243.761719 187.683594 243.761719 Z M 187.683594 243.761719 " fill-opacity="1" fill-rule="evenodd"/><path fill="#ffffff" d="M 187.683594 206.070312 C 181.285156 206.070312 176.363281 200.832031 176.050781 194.445312 L 172.484375 121.574219 C 171.914062 109.925781 177.152344 100.371094 187.683594 100.371094 C 198.214844 100.371094 203.453125 109.925781 202.886719 121.574219 L 199.316406 194.445312 C 199.003906 200.832031 194.082031 206.070312 187.683594 206.070312 Z M 187.683594 206.070312 " fill-opacity="1" fill-rule="evenodd"/><g clip-path="url(#33909dfe2d)"><path fill="#cc2a2e" d="M 181.003906 40.097656 L 239.324219 141.015625 L 297.640625 241.933594 L 271.824219 197.261719 C 292.046875 246.503906 274.613281 271.65625 219.515625 272.714844 L 54.976562 272.714844 C 58.839844 277.660156 64.550781 280.433594 71.046875 280.433594 L 304.320312 280.433594 C 311.863281 280.433594 318.339844 276.699219 322.109375 270.175781 C 325.878906 263.648438 325.878906 256.175781 322.109375 249.652344 L 263.792969 148.730469 L 205.472656 47.816406 C 201.703125 41.289062 195.226562 37.550781 187.683594 37.550781 C 185.050781 37.550781 182.550781 38.007812 180.246094 38.878906 C 180.511719 39.273438 180.765625 39.679688 181.003906 40.097656 Z M 181.003906 40.097656 " fill-opacity="1" fill-rule="evenodd"/></g><path fill="#e5e9f7" d="M 195.675781 225.484375 C 195.675781 233.089844 189.503906 239.253906 181.890625 239.253906 C 180.027344 239.253906 178.25 238.886719 176.628906 238.214844 C 179.140625 241.582031 183.160156 243.761719 187.683594 243.761719 C 195.296875 243.761719 201.46875 237.59375 201.46875 229.988281 C 201.46875 224.246094 197.949219 219.324219 192.945312 217.257812 C 194.660156 219.554688 195.675781 222.398438 195.675781 225.484375 Z M 195.675781 225.484375 " fill-opacity="1" fill-rule="evenodd"/><path fill="#e5e9f7" d="M 187.683594 206.066406 C 194.082031 206.066406 199.003906 200.832031 199.316406 194.449219 L 202.882812 121.574219 C 203.34375 112.152344 200.003906 104.097656 193.132812 101.367188 C 196.046875 105.253906 197.394531 110.863281 197.089844 117.066406 L 193.523438 189.941406 C 193.210938 196.328125 188.289062 201.5625 181.890625 201.5625 C 180.585938 201.5625 179.347656 201.347656 178.195312 200.945312 C 180.273438 204.03125 183.695312 206.066406 187.683594 206.066406 Z M 187.683594 206.066406 " fill-opacity="1" fill-rule="evenodd"/></svg>