<svg xmlns="http://www.w3.org/2000/svg" xmlns:xlink="http://www.w3.org/1999/xlink" width="500" zoomAndPan="magnify" viewBox="0 0 375 374.999991" height="500" preserveAspectRatio="xMidYMid meet" version="1.0"><defs><clipPath id="444f63d842"><path d="M 187.5 0 C 83.945312 0 0 83.945312 0 187.5 C 0 291.054688 83.945312 375 187.5 375 C 291.054688 375 375 291.054688 375 187.5 C 375 83.945312 291.054688 0 187.5 0 Z M 187.5 0 " clip-rule="nonzero"/></clipPath><clipPath id="88a2f1fcf4"><path d="M 205 91 L 316.675781 91 L 316.675781 203 L 205 203 Z M 205 91 " clip-rule="nonzero"/></clipPath><clipPath id="6a91de5e7d"><path d="M 205 86.210938 L 241 86.210938 L 241 121 L 205 121 Z M 205 86.210938 " clip-rule="nonzero"/></clipPath><clipPath id="1898eae463"><path d="M 58.675781 119 L 291 119 L 291 288.710938 L 58.675781 288.710938 Z M 58.675781 119 " clip-rule="nonzero"/></clipPath></defs><g clip-path="url(#444f63d842)"><path stroke-linecap="butt" transform="matrix(0.75, 0, 0, 0.75, 0.0000045, 0)" fill="none" stroke-linejoin="miter" d="M 249.999994 0 C 111.927078 0 -0.000006 111.927084 -0.000006 250 C -0.000006 388.072917 111.927078 500.000001 249.999994 500.000001 C 388.072911 500.000001 499.999995 388.072917 499.999995 250 C 499.999995 111.927084 388.072911 0 249.999994 0 Z M 249.999994 0 " stroke="#000000" stroke-width="60" stroke-opacity="1" stroke-miterlimit="4"/></g><g clip-path="url(#88a2f1fcf4)"><path fill="#000000" d="M 314.542969 144.761719 C 305.964844 143.707031 299.277344 141.453125 294.808594 139.59375 C 289.117188 137.234375 283.875 134.980469 278.675781 129.894531 C 273.585938 124.695312 271.324219 119.472656 268.960938 113.792969 C 267.097656 109.328125 264.839844 102.644531 263.785156 94.089844 C 263.632812 92.863281 262.582031 91.941406 261.339844 91.941406 C 260.097656 91.941406 259.046875 92.863281 258.894531 94.089844 C 257.839844 102.65625 255.582031 109.328125 253.71875 113.792969 C 251.355469 119.472656 249.09375 124.707031 244.003906 129.894531 C 238.792969 134.980469 233.5625 137.234375 227.871094 139.59375 C 223.402344 141.453125 216.707031 143.707031 208.136719 144.761719 C 206.90625 144.914062 205.984375 145.964844 205.984375 147.203125 C 205.984375 148.441406 206.90625 149.492188 208.136719 149.644531 C 216.71875 150.695312 223.402344 152.953125 227.871094 154.808594 C 233.5625 157.171875 238.804688 159.425781 244.003906 164.507812 C 249.09375 169.710938 251.355469 174.933594 253.71875 180.613281 C 255.582031 185.078125 257.839844 191.761719 258.894531 200.316406 C 259.046875 201.542969 260.097656 202.464844 261.339844 202.464844 C 262.582031 202.464844 263.632812 201.542969 263.785156 200.316406 C 264.839844 191.75 267.097656 185.078125 268.960938 180.613281 C 271.324219 174.933594 273.585938 169.699219 278.675781 164.507812 C 283.886719 159.425781 289.117188 157.171875 294.808594 154.808594 C 299.277344 152.953125 305.976562 150.695312 314.542969 149.644531 C 315.773438 149.492188 316.699219 148.441406 316.699219 147.203125 C 316.699219 145.964844 315.773438 144.914062 314.542969 144.761719 Z M 314.542969 144.761719 " fill-opacity="1" fill-rule="nonzero"/></g><g clip-path="url(#6a91de5e7d)"><path fill="#000000" d="M 206.660156 104.410156 C 209.34375 104.734375 211.425781 105.4375 212.832031 106.019531 C 214.609375 106.757812 216.25 107.457031 217.875 109.046875 C 219.46875 110.671875 220.171875 112.308594 220.90625 114.085938 C 221.492188 115.476562 222.195312 117.566406 222.523438 120.242188 C 222.570312 120.628906 222.898438 120.921875 223.285156 120.921875 C 223.671875 120.921875 223.996094 120.628906 224.042969 120.242188 C 224.371094 117.566406 225.074219 115.488281 225.660156 114.085938 C 226.398438 112.308594 227.101562 110.671875 228.691406 109.046875 C 230.320312 107.457031 231.957031 106.757812 233.738281 106.019531 C 235.128906 105.4375 237.226562 104.734375 239.90625 104.410156 C 240.292969 104.363281 240.585938 104.035156 240.585938 103.648438 C 240.585938 103.261719 240.292969 102.9375 239.90625 102.890625 C 237.226562 102.5625 235.140625 101.859375 233.738281 101.277344 C 231.957031 100.539062 230.320312 99.839844 228.691406 98.25 C 227.101562 96.625 226.398438 94.988281 225.660156 93.214844 C 225.074219 91.824219 224.371094 89.730469 224.042969 87.054688 C 223.996094 86.667969 223.671875 86.378906 223.285156 86.378906 C 222.898438 86.378906 222.570312 86.667969 222.523438 87.054688 C 222.195312 89.730469 221.492188 91.8125 220.90625 93.214844 C 220.171875 94.988281 219.46875 96.625 217.875 98.25 C 216.25 99.839844 214.609375 100.539062 212.832031 101.277344 C 211.4375 101.859375 209.34375 102.5625 206.660156 102.890625 C 206.273438 102.9375 205.984375 103.261719 205.984375 103.648438 C 205.984375 104.035156 206.273438 104.363281 206.660156 104.410156 Z M 206.660156 104.410156 " fill-opacity="1" fill-rule="nonzero"/></g><g clip-path="url(#1898eae463)"><path fill="#000000" d="M 283.769531 201.332031 C 280.210938 201.332031 277.332031 204.207031 277.332031 207.757812 L 277.332031 236.261719 L 232.671875 198.515625 C 228.703125 195.160156 222.886719 195.160156 218.917969 198.515625 L 182.277344 229.472656 L 118.410156 167.128906 C 114.3125 163.128906 107.769531 163.128906 103.671875 167.128906 L 71.539062 198.492188 L 71.539062 153.476562 C 71.539062 141.746094 81.089844 132.210938 92.832031 132.210938 L 201.125 132.210938 C 204.683594 132.210938 207.5625 129.335938 207.5625 125.78125 C 207.5625 122.230469 204.683594 119.355469 201.125 119.355469 L 92.84375 119.355469 C 73.996094 119.355469 58.675781 134.664062 58.675781 153.476562 L 58.675781 254.398438 C 58.675781 273.210938 73.996094 288.519531 92.84375 288.519531 L 256.027344 288.519531 C 274.871094 288.519531 290.207031 273.210938 290.207031 254.398438 L 290.207031 207.757812 C 290.207031 204.207031 287.328125 201.332031 283.769531 201.332031 Z M 283.769531 201.332031 " fill-opacity="1" fill-rule="nonzero"/></g><path fill="#000000" d="M 180.910156 149.25 C 181.3125 149.648438 181.691406 150.070312 182.050781 150.507812 C 182.410156 150.945312 182.75 151.398438 183.066406 151.871094 C 183.378906 152.34375 183.671875 152.828125 183.941406 153.328125 C 184.207031 153.828125 184.449219 154.339844 184.667969 154.863281 C 184.882812 155.386719 185.074219 155.921875 185.242188 156.460938 C 185.40625 157.003906 185.542969 157.554688 185.652344 158.109375 C 185.765625 158.664062 185.847656 159.226562 185.902344 159.789062 C 185.957031 160.355469 185.988281 160.917969 185.988281 161.488281 C 185.988281 162.054688 185.957031 162.617188 185.902344 163.183594 C 185.847656 163.746094 185.765625 164.308594 185.652344 164.863281 C 185.542969 165.417969 185.40625 165.96875 185.242188 166.511719 C 185.074219 167.054688 184.882812 167.585938 184.667969 168.109375 C 184.449219 168.632812 184.207031 169.144531 183.941406 169.644531 C 183.671875 170.144531 183.378906 170.628906 183.066406 171.101562 C 182.75 171.574219 182.410156 172.027344 182.050781 172.464844 C 181.691406 172.902344 181.3125 173.324219 180.910156 173.722656 C 180.507812 174.125 180.085938 174.503906 179.648438 174.863281 C 179.210938 175.222656 178.753906 175.5625 178.28125 175.875 C 177.808594 176.191406 177.324219 176.484375 176.824219 176.75 C 176.320312 177.015625 175.808594 177.257812 175.285156 177.476562 C 174.761719 177.691406 174.226562 177.882812 173.683594 178.046875 C 173.140625 178.210938 172.589844 178.351562 172.03125 178.460938 C 171.476562 178.570312 170.914062 178.65625 170.347656 178.710938 C 169.785156 178.765625 169.21875 178.792969 168.648438 178.792969 C 168.082031 178.792969 167.515625 178.765625 166.949219 178.710938 C 166.386719 178.65625 165.824219 178.570312 165.269531 178.460938 C 164.710938 178.351562 164.160156 178.210938 163.617188 178.046875 C 163.074219 177.882812 162.539062 177.691406 162.015625 177.476562 C 161.492188 177.257812 160.980469 177.015625 160.476562 176.75 C 159.976562 176.484375 159.492188 176.191406 159.019531 175.875 C 158.546875 175.5625 158.089844 175.222656 157.652344 174.863281 C 157.214844 174.503906 156.792969 174.125 156.390625 173.722656 C 155.988281 173.324219 155.609375 172.902344 155.25 172.464844 C 154.890625 172.027344 154.550781 171.574219 154.234375 171.101562 C 153.921875 170.628906 153.628906 170.144531 153.359375 169.644531 C 153.09375 169.144531 152.851562 168.632812 152.632812 168.109375 C 152.417969 167.585938 152.226562 167.054688 152.058594 166.511719 C 151.894531 165.96875 151.757812 165.417969 151.648438 164.863281 C 151.535156 164.308594 151.453125 163.746094 151.398438 163.183594 C 151.339844 162.617188 151.3125 162.054688 151.3125 161.488281 C 151.3125 160.917969 151.339844 160.355469 151.398438 159.789062 C 151.453125 159.226562 151.535156 158.664062 151.648438 158.109375 C 151.757812 157.554688 151.894531 157.003906 152.058594 156.460938 C 152.226562 155.921875 152.417969 155.386719 152.632812 154.863281 C 152.851562 154.339844 153.09375 153.828125 153.359375 153.328125 C 153.628906 152.828125 153.921875 152.34375 154.234375 151.871094 C 154.550781 151.398438 154.890625 150.945312 155.25 150.507812 C 155.609375 150.070312 155.988281 149.648438 156.390625 149.25 C 156.792969 148.847656 157.214844 148.46875 157.652344 148.109375 C 158.089844 147.75 158.546875 147.410156 159.019531 147.097656 C 159.492188 146.78125 159.976562 146.492188 160.476562 146.222656 C 160.980469 145.957031 161.492188 145.714844 162.015625 145.496094 C 162.539062 145.28125 163.074219 145.089844 163.617188 144.925781 C 164.160156 144.761719 164.710938 144.621094 165.269531 144.511719 C 165.824219 144.402344 166.386719 144.320312 166.949219 144.261719 C 167.515625 144.207031 168.082031 144.179688 168.648438 144.179688 C 169.21875 144.179688 169.785156 144.207031 170.347656 144.261719 C 170.914062 144.320312 171.476562 144.402344 172.03125 144.511719 C 172.589844 144.621094 173.140625 144.761719 173.683594 144.925781 C 174.226562 145.089844 174.761719 145.28125 175.285156 145.496094 C 175.808594 145.714844 176.320312 145.957031 176.824219 146.222656 C 177.324219 146.492188 177.808594 146.78125 178.28125 147.097656 C 178.753906 147.410156 179.210938 147.75 179.648438 148.109375 C 180.085938 148.46875 180.507812 148.847656 180.910156 149.25 Z M 180.910156 149.25 " fill-opacity="1" fill-rule="nonzero"/></svg>