<svg xmlns="http://www.w3.org/2000/svg" xmlns:xlink="http://www.w3.org/1999/xlink" width="500" zoomAndPan="magnify" viewBox="0 0 375 374.999991" height="500" preserveAspectRatio="xMidYMid meet" version="1.0"><defs><clipPath id="55b420e42d"><path d="M 187.5 0 C 83.945312 0 0 83.945312 0 187.5 C 0 291.054688 83.945312 375 187.5 375 C 291.054688 375 375 291.054688 375 187.5 C 375 83.945312 291.054688 0 187.5 0 Z M 187.5 0 " clip-rule="nonzero"/></clipPath><clipPath id="975c03cf3c"><path d="M 79.515625 69 L 295.515625 69 L 295.515625 306 L 79.515625 306 Z M 79.515625 69 " clip-rule="nonzero"/></clipPath></defs><g clip-path="url(#55b420e42d)"><path stroke-linecap="butt" transform="matrix(0.75, 0, 0, 0.75, 0.0000045, 0)" fill="none" stroke-linejoin="miter" d="M 249.999994 0 C 111.927078 0 -0.000006 111.927084 -0.000006 250 C -0.000006 388.072917 111.927078 500.000001 249.999994 500.000001 C 388.072911 500.000001 499.999995 388.072917 499.999995 250 C 499.999995 111.927084 388.072911 0 249.999994 0 Z M 249.999994 0 " stroke="#000000" stroke-width="60" stroke-opacity="1" stroke-miterlimit="4"/></g><g clip-path="url(#975c03cf3c)"><path fill="#000000" d="M 130.609375 196.230469 C 132.054688 197.679688 132.054688 200.019531 130.609375 201.464844 L 112.460938 219.613281 C 111.769531 220.304688 110.824219 220.695312 109.847656 220.695312 C 108.871094 220.695312 107.925781 220.304688 107.234375 219.613281 L 97.644531 210.023438 C 96.195312 208.574219 96.195312 206.234375 97.644531 204.789062 C 99.089844 203.339844 101.429688 203.339844 102.878906 204.789062 L 109.851562 211.761719 L 125.386719 196.230469 C 126.820312 194.789062 129.160156 194.789062 130.609375 196.230469 Z M 125.375 163.085938 L 109.84375 178.617188 L 102.867188 171.644531 C 101.421875 170.195312 99.082031 170.195312 97.632812 171.644531 C 96.1875 173.089844 96.1875 175.429688 97.632812 176.875 L 107.222656 186.464844 C 107.917969 187.160156 108.859375 187.550781 109.835938 187.550781 C 110.816406 187.550781 111.757812 187.160156 112.453125 186.464844 L 130.597656 168.320312 C 132.046875 166.871094 132.046875 164.53125 130.597656 163.085938 C 129.160156 161.644531 126.820312 161.644531 125.375 163.085938 Z M 125.375 129.941406 L 109.84375 145.472656 L 102.867188 138.496094 C 101.421875 137.050781 99.082031 137.050781 97.632812 138.496094 C 96.1875 139.945312 96.1875 142.285156 97.632812 143.730469 L 107.222656 153.320312 C 107.945312 154.046875 108.894531 154.402344 109.835938 154.402344 C 110.78125 154.402344 111.734375 154.046875 112.453125 153.320312 L 130.597656 135.175781 C 132.046875 133.726562 132.046875 131.386719 130.597656 129.941406 C 129.160156 128.5 126.820312 128.5 125.375 129.941406 Z M 125.375 229.375 L 109.84375 244.910156 L 102.867188 237.933594 C 101.421875 236.484375 99.082031 236.484375 97.632812 237.933594 C 96.1875 239.378906 96.1875 241.71875 97.632812 243.167969 L 107.222656 252.757812 C 107.945312 253.480469 108.894531 253.839844 109.835938 253.839844 C 110.78125 253.839844 111.734375 253.480469 112.453125 252.757812 L 130.597656 234.609375 C 132.046875 233.164062 132.046875 230.824219 130.597656 229.375 C 129.160156 227.933594 126.820312 227.933594 125.375 229.375 Z M 145.640625 137.9375 L 228.78125 137.9375 C 230.828125 137.9375 232.484375 136.28125 232.484375 134.238281 C 232.484375 132.191406 230.828125 130.535156 228.78125 130.535156 L 145.640625 130.535156 C 143.597656 130.535156 141.941406 132.191406 141.941406 134.238281 C 141.941406 136.28125 143.597656 137.9375 145.640625 137.9375 Z M 125.375 262.519531 L 109.84375 278.054688 L 102.867188 271.078125 C 101.421875 269.632812 99.082031 269.632812 97.632812 271.078125 C 96.1875 272.523438 96.1875 274.863281 97.632812 276.3125 L 107.222656 285.902344 C 107.917969 286.59375 108.859375 286.984375 109.835938 286.984375 C 110.816406 286.984375 111.757812 286.59375 112.453125 285.902344 L 130.597656 267.753906 C 132.046875 266.308594 132.046875 263.96875 130.597656 262.519531 C 129.160156 261.078125 126.820312 261.078125 125.375 262.519531 Z M 214.890625 226.558594 L 240.546875 179.867188 C 240.546875 179.867188 240.546875 179.859375 240.550781 179.859375 C 241.628906 177.90625 243.574219 176.738281 245.761719 176.738281 C 247.953125 176.738281 249.90625 177.90625 250.984375 179.855469 L 276.644531 226.558594 C 277.667969 228.40625 277.671875 230.632812 276.65625 232.503906 C 275.566406 234.476562 273.617188 235.636719 271.421875 235.636719 L 220.109375 235.636719 C 217.914062 235.636719 215.964844 234.476562 214.886719 232.53125 C 213.863281 230.636719 213.867188 228.40625 214.890625 226.558594 Z M 242.054688 201.625 L 242.054688 211.46875 C 242.054688 213.515625 243.710938 215.171875 245.757812 215.171875 C 247.800781 215.171875 249.457031 213.515625 249.457031 211.46875 L 249.457031 201.625 C 249.457031 199.578125 247.800781 197.921875 245.757812 197.921875 C 243.714844 197.921875 242.054688 199.578125 242.054688 201.625 Z M 242.042969 221.371094 C 242.042969 223.417969 243.699219 225.074219 245.746094 225.074219 L 245.769531 225.074219 C 247.816406 225.074219 249.457031 223.417969 249.457031 221.371094 C 249.457031 219.328125 247.785156 217.671875 245.746094 217.671875 C 243.699219 217.671875 242.042969 219.332031 242.042969 221.371094 Z M 145.640625 185.882812 L 189.390625 185.882812 C 191.433594 185.882812 193.09375 184.226562 193.09375 182.179688 C 193.09375 180.136719 191.433594 178.476562 189.390625 178.476562 L 145.640625 178.476562 C 143.597656 178.476562 141.941406 180.136719 141.941406 182.179688 C 141.941406 184.226562 143.597656 185.882812 145.640625 185.882812 Z M 199.1875 263.105469 L 145.640625 263.105469 C 143.597656 263.105469 141.941406 264.761719 141.941406 266.808594 C 141.941406 268.851562 143.597656 270.507812 145.640625 270.507812 L 199.1875 270.507812 C 201.234375 270.507812 202.890625 268.851562 202.890625 266.808594 C 202.890625 264.761719 201.234375 263.105469 199.1875 263.105469 Z M 196.339844 277.902344 L 145.640625 277.902344 C 143.597656 277.902344 141.941406 279.558594 141.941406 281.605469 C 141.941406 283.652344 143.597656 285.308594 145.640625 285.308594 L 196.34375 285.308594 C 198.390625 285.308594 200.046875 283.652344 200.046875 281.605469 C 200.042969 279.558594 198.386719 277.902344 196.339844 277.902344 Z M 234.261719 306 L 83.273438 306 C 81.226562 306 79.570312 304.34375 79.570312 302.296875 L 79.570312 115.726562 C 79.570312 114.703125 79.996094 113.726562 80.742188 113.023438 L 126.761719 69.996094 C 127.445312 69.359375 128.347656 69 129.292969 69 L 245.757812 69 C 247.800781 69 249.457031 70.65625 249.457031 72.703125 L 249.457031 164.007812 C 275.148438 165.910156 295.476562 187.414062 295.476562 213.574219 C 295.476562 231.710938 288.03125 240.035156 280.144531 248.839844 C 278.949219 250.171875 277.71875 251.550781 276.507812 252.964844 C 273.777344 256.164062 271.992188 259.605469 271.097656 263.414062 C 275.59375 265.199219 278.796875 269.765625 278.796875 275.101562 C 278.796875 280.710938 275.261719 285.46875 270.414062 287.050781 L 270.414062 291.03125 C 270.414062 299.289062 264.515625 306.003906 257.265625 306.003906 L 234.261719 306.003906 Z M 245.757812 171.269531 C 222.429688 171.269531 203.449219 190.242188 203.449219 213.574219 C 203.449219 228.882812 209.382812 235.511719 216.890625 243.90625 C 218.113281 245.269531 219.371094 246.679688 220.644531 248.160156 C 224.386719 252.558594 226.75 257.3125 227.828125 262.609375 L 263.6875 262.609375 C 264.769531 257.296875 267.128906 252.542969 270.871094 248.160156 C 272.140625 246.675781 273.402344 245.269531 274.625 243.90625 C 282.132812 235.511719 288.066406 228.886719 288.066406 213.574219 C 288.070312 190.242188 269.089844 171.269531 245.757812 171.269531 Z M 222.925781 298.601562 C 221.777344 296.375 221.113281 293.789062 221.113281 291.03125 L 221.113281 287.050781 C 216.261719 285.472656 212.730469 280.71875 212.730469 275.113281 C 212.730469 269.769531 215.933594 265.207031 220.429688 263.414062 C 219.535156 259.617188 217.75 256.175781 215.015625 252.960938 C 213.808594 251.550781 212.574219 250.171875 211.382812 248.839844 C 203.5 240.035156 196.050781 231.714844 196.050781 213.574219 C 196.050781 187.410156 216.367188 165.90625 242.054688 164.007812 L 242.054688 76.398438 L 132.988281 76.398438 L 132.988281 115.726562 C 132.988281 117.773438 131.332031 119.429688 129.285156 119.429688 L 86.976562 119.429688 L 86.976562 298.601562 Z M 234.261719 298.601562 L 257.261719 298.601562 C 260.375 298.601562 263.007812 295.132812 263.007812 291.03125 L 263.007812 287.609375 L 228.511719 287.609375 L 228.511719 291.03125 C 228.515625 295.132812 231.148438 298.601562 234.261719 298.601562 Z M 145.640625 152.742188 L 196.34375 152.742188 C 198.390625 152.742188 200.046875 151.085938 200.046875 149.039062 C 200.046875 146.996094 198.390625 145.339844 196.34375 145.339844 L 145.640625 145.339844 C 143.597656 145.339844 141.941406 146.996094 141.941406 149.039062 C 141.941406 151.085938 143.597656 152.742188 145.640625 152.742188 Z M 145.640625 252.171875 L 191.894531 252.171875 C 193.941406 252.171875 195.597656 250.515625 195.597656 248.472656 C 195.597656 246.425781 193.941406 244.769531 191.894531 244.769531 L 145.640625 244.769531 C 143.597656 244.769531 141.941406 246.425781 141.941406 248.472656 C 141.941406 250.515625 143.597656 252.171875 145.640625 252.171875 Z M 145.640625 237.359375 L 184.296875 237.359375 C 186.339844 237.359375 187.996094 235.703125 187.996094 233.65625 C 187.996094 231.613281 186.339844 229.953125 184.296875 229.953125 L 145.640625 229.953125 C 143.597656 229.953125 141.941406 231.613281 141.941406 233.65625 C 141.941406 235.703125 143.597656 237.359375 145.640625 237.359375 Z M 145.640625 204.214844 L 182.5625 204.214844 C 184.609375 204.214844 186.265625 202.558594 186.265625 200.511719 C 186.265625 198.464844 184.609375 196.808594 182.5625 196.808594 L 145.640625 196.808594 C 143.597656 196.808594 141.941406 198.464844 141.941406 200.511719 C 141.941406 202.558594 143.597656 204.214844 145.640625 204.214844 Z M 145.640625 171.085938 L 200.726562 171.085938 C 202.773438 171.085938 204.429688 169.425781 204.429688 167.382812 C 204.429688 165.335938 202.773438 163.679688 200.726562 163.679688 L 145.640625 163.679688 C 143.597656 163.679688 141.941406 165.335938 141.941406 167.382812 C 141.941406 169.425781 143.597656 171.085938 145.640625 171.085938 Z M 145.640625 219.027344 L 181.265625 219.027344 C 183.3125 219.027344 184.96875 217.371094 184.96875 215.324219 C 184.96875 213.28125 183.3125 211.625 181.265625 211.625 L 145.640625 211.625 C 143.597656 211.625 141.941406 213.28125 141.941406 215.324219 C 141.941406 217.371094 143.597656 219.027344 145.640625 219.027344 Z M 149.5625 118.753906 L 225.484375 118.753906 C 227.53125 118.753906 229.1875 117.097656 229.1875 115.050781 L 229.1875 91.710938 C 229.1875 89.664062 227.53125 88.007812 225.484375 88.007812 L 149.5625 88.007812 C 147.519531 88.007812 145.863281 89.664062 145.863281 91.710938 L 145.863281 115.050781 C 145.863281 117.097656 147.519531 118.753906 149.5625 118.753906 Z M 149.5625 118.753906 " fill-opacity="1" fill-rule="nonzero"/></g></svg>