<svg xmlns="http://www.w3.org/2000/svg" xmlns:xlink="http://www.w3.org/1999/xlink" width="500" zoomAndPan="magnify" viewBox="0 0 375 374.999991" height="500" preserveAspectRatio="xMidYMid meet" version="1.0"><defs><clipPath id="654dbad810"><path d="M 187.5 0 C 83.945312 0 0 83.945312 0 187.5 C 0 291.054688 83.945312 375 187.5 375 C 291.054688 375 375 291.054688 375 187.5 C 375 83.945312 291.054688 0 187.5 0 Z M 187.5 0 " clip-rule="nonzero"/></clipPath><clipPath id="88c0fb17e4"><path d="M 63.007812 85.105469 L 290 85.105469 L 290 275 L 63.007812 275 Z M 63.007812 85.105469 " clip-rule="nonzero"/></clipPath><clipPath id="c7089fea75"><path d="M 63.007812 153 L 312 153 L 312 289.855469 L 63.007812 289.855469 Z M 63.007812 153 " clip-rule="nonzero"/></clipPath></defs><g clip-path="url(#654dbad810)"><path stroke-linecap="butt" transform="matrix(0.75, 0, 0, 0.75, 0.0000045, 0)" fill="none" stroke-linejoin="miter" d="M 249.999994 0 C 111.927078 0 -0.000006 111.927084 -0.000006 250 C -0.000006 388.072917 111.927078 500.000001 249.999994 500.000001 C 388.072911 500.000001 499.999995 388.072917 499.999995 250 C 499.999995 111.927084 388.072911 0 249.999994 0 Z M 249.999994 0 " stroke="#000000" stroke-width="60" stroke-opacity="1" stroke-miterlimit="4"/></g><g clip-path="url(#88c0fb17e4)"><path fill="#000000" d="M 67.628906 274.152344 C 65.410156 274.152344 63.613281 272.355469 63.613281 270.136719 L 63.613281 108.066406 C 63.613281 95.871094 73.539062 85.953125 85.734375 85.953125 L 143.957031 85.953125 C 155.109375 85.953125 164.363281 94.253906 165.859375 105 L 265.082031 105 C 278.589844 105 289.578125 115.988281 289.578125 129.496094 L 289.578125 157.421875 C 289.578125 159.640625 287.78125 161.4375 285.5625 161.4375 C 283.339844 161.4375 281.542969 159.640625 281.542969 157.421875 L 281.542969 129.496094 C 281.542969 120.414062 274.160156 113.027344 265.082031 113.027344 L 162.058594 113.027344 C 159.835938 113.027344 158.039062 111.230469 158.039062 109.011719 L 158.039062 108.066406 C 158.039062 100.300781 151.722656 93.984375 143.957031 93.984375 L 85.734375 93.984375 C 77.964844 93.984375 71.644531 100.300781 71.644531 108.066406 L 71.644531 270.136719 C 71.644531 272.359375 69.851562 274.152344 67.628906 274.152344 Z M 67.628906 274.152344 " fill-opacity="1" fill-rule="nonzero"/></g><g clip-path="url(#c7089fea75)"><path fill="#000000" d="M 270.324219 289.003906 L 80.050781 289.003906 C 74.863281 289.003906 70.3125 286.957031 67.234375 283.230469 C 64.175781 279.527344 62.984375 274.480469 63.960938 269.378906 L 82.871094 171.511719 C 84.808594 161.527344 94.601562 153.402344 104.695312 153.402344 L 294.960938 153.402344 C 300.160156 153.402344 304.71875 155.460938 307.792969 159.1875 C 310.855469 162.894531 312.042969 167.941406 311.054688 173.035156 L 292.148438 270.894531 C 290.207031 280.886719 280.421875 289.003906 270.324219 289.003906 Z M 104.691406 161.4375 C 98.359375 161.4375 91.976562 166.753906 90.75 173.042969 L 71.847656 270.902344 C 71.316406 273.679688 71.875 276.246094 73.429688 278.121094 C 74.949219 279.960938 77.304688 280.972656 80.050781 280.972656 L 270.324219 280.972656 C 276.65625 280.972656 283.039062 275.664062 284.257812 269.375 L 303.167969 171.511719 C 303.703125 168.742188 303.144531 166.179688 301.59375 164.304688 C 300.066406 162.453125 297.710938 161.4375 294.957031 161.4375 Z M 104.691406 161.4375 " fill-opacity="1" fill-rule="nonzero"/></g><path fill="#000000" d="M 86.9375 175.714844 C 84.71875 175.714844 82.921875 173.917969 82.921875 171.699219 L 82.921875 134.207031 C 82.921875 130.527344 85.914062 127.535156 89.59375 127.535156 L 259.382812 127.535156 C 263.054688 127.535156 266.042969 130.53125 266.042969 134.207031 L 266.042969 157.425781 C 266.042969 159.644531 264.246094 161.441406 262.027344 161.441406 C 259.804688 161.441406 258.011719 159.644531 258.011719 157.425781 L 258.011719 135.566406 L 90.957031 135.566406 L 90.957031 171.699219 C 90.957031 173.917969 89.160156 175.714844 86.9375 175.714844 Z M 86.9375 175.714844 " fill-opacity="1" fill-rule="nonzero"/></svg>