<svg xmlns="http://www.w3.org/2000/svg" xmlns:xlink="http://www.w3.org/1999/xlink" width="500" zoomAndPan="magnify" viewBox="0 0 375 374.999991" height="500" preserveAspectRatio="xMidYMid meet" version="1.0"><defs><clipPath id="1e238ca6c9"><path d="M 4.257812 85.34375 L 371 85.34375 L 371 289 L 4.257812 289 Z M 4.257812 85.34375 " clip-rule="nonzero"/></clipPath></defs><g clip-path="url(#1e238ca6c9)"><path fill="#000000" d="M 350.167969 85.683594 C 348.839844 85.714844 347.527344 85.871094 346.226562 86.160156 C 344.929688 86.449219 343.671875 86.859375 342.457031 87.394531 C 341.238281 87.929688 340.085938 88.574219 338.996094 89.335938 C 337.90625 90.09375 336.902344 90.953125 335.980469 91.90625 L 187.582031 239.972656 L 39.1875 91.90625 C 38.238281 90.933594 37.203125 90.066406 36.082031 89.300781 C 34.957031 88.535156 33.769531 87.890625 32.519531 87.359375 C 31.265625 86.832031 29.972656 86.433594 28.640625 86.164062 C 27.308594 85.894531 25.960938 85.761719 24.601562 85.761719 C 23.597656 85.761719 22.59375 85.835938 21.597656 85.984375 C 20.605469 86.132812 19.625 86.351562 18.664062 86.648438 C 17.699219 86.941406 16.765625 87.300781 15.855469 87.734375 C 14.949219 88.167969 14.074219 88.664062 13.242188 89.222656 C 12.40625 89.785156 11.617188 90.402344 10.875 91.082031 C 10.132812 91.757812 9.445312 92.488281 8.808594 93.265625 C 8.175781 94.046875 7.601562 94.867188 7.089844 95.734375 C 6.578125 96.597656 6.132812 97.496094 5.753906 98.425781 C 5.375 99.355469 5.066406 100.308594 4.828125 101.285156 C 4.59375 102.261719 4.429688 103.25 4.339844 104.25 C 4.25 105.25 4.234375 106.25 4.292969 107.253906 C 4.351562 108.253906 4.484375 109.246094 4.691406 110.230469 C 4.898438 111.214844 5.175781 112.175781 5.523438 113.117188 C 5.875 114.058594 6.289062 114.96875 6.777344 115.847656 C 7.261719 116.730469 7.808594 117.570312 8.417969 118.367188 C 9.027344 119.167969 9.691406 119.917969 10.414062 120.617188 L 173.195312 283.039062 C 173.667969 283.507812 174.160156 283.953125 174.675781 284.375 C 175.191406 284.796875 175.726562 285.191406 176.28125 285.5625 C 176.835938 285.929688 177.40625 286.273438 177.992188 286.585938 C 178.582031 286.898438 179.183594 287.183594 179.796875 287.4375 C 180.414062 287.691406 181.039062 287.914062 181.679688 288.109375 C 182.316406 288.300781 182.960938 288.460938 183.613281 288.589844 C 184.269531 288.722656 184.925781 288.820312 185.589844 288.882812 C 186.253906 288.949219 186.917969 288.980469 187.582031 288.980469 C 188.25 288.980469 188.914062 288.949219 189.578125 288.882812 C 190.242188 288.820312 190.898438 288.722656 191.554688 288.589844 C 192.207031 288.460938 192.851562 288.300781 193.488281 288.109375 C 194.128906 287.914062 194.753906 287.691406 195.371094 287.4375 C 195.984375 287.183594 196.585938 286.898438 197.175781 286.585938 C 197.761719 286.273438 198.332031 285.929688 198.886719 285.5625 C 199.441406 285.191406 199.976562 284.796875 200.492188 284.375 C 201.007812 283.953125 201.5 283.507812 201.96875 283.039062 L 364.753906 120.617188 C 365.488281 119.910156 366.164062 119.15625 366.785156 118.351562 C 367.40625 117.542969 367.964844 116.695312 368.457031 115.804688 C 368.949219 114.914062 369.375 113.992188 369.730469 113.039062 C 370.082031 112.085938 370.363281 111.113281 370.570312 110.117188 C 370.777344 109.121094 370.910156 108.117188 370.96875 107.101562 C 371.023438 106.085938 371.003906 105.070312 370.90625 104.058594 C 370.808594 103.046875 370.636719 102.046875 370.390625 101.0625 C 370.144531 100.074219 369.824219 99.113281 369.433594 98.171875 C 369.042969 97.234375 368.582031 96.328125 368.054688 95.460938 C 367.523438 94.589844 366.933594 93.765625 366.28125 92.984375 C 365.628906 92.203125 364.921875 91.472656 364.160156 90.800781 C 363.398438 90.125 362.589844 89.507812 361.738281 88.953125 C 360.882812 88.402344 359.992188 87.914062 359.0625 87.492188 C 358.132812 87.074219 357.179688 86.722656 356.199219 86.445312 C 355.21875 86.167969 354.222656 85.964844 353.210938 85.839844 C 352.203125 85.710938 351.1875 85.65625 350.167969 85.683594 Z M 350.167969 85.683594 " fill-opacity="1" fill-rule="nonzero"/></g></svg>