<svg xmlns="http://www.w3.org/2000/svg" xmlns:xlink="http://www.w3.org/1999/xlink" width="500" zoomAndPan="magnify" viewBox="0 0 375 374.999991" height="500" preserveAspectRatio="xMidYMid meet" version="1.0"><path fill="#000000" d="M 304.542969 374.488281 C 302.773438 374.488281 300.976562 374.078125 299.335938 373.265625 L 188.082031 317.632812 L 76.828125 373.253906 C 72.949219 375.175781 68.339844 374.824219 64.808594 372.285156 C 61.292969 369.746094 59.476562 365.472656 60.09375 361.1875 L 78.796875 230.308594 L 4.296875 137.199219 C 1.503906 133.695312 0.964844 128.910156 2.898438 124.867188 C 4.84375 120.839844 8.910156 118.277344 13.394531 118.277344 L 122.65625 118.277344 L 177.671875 8.257812 C 181.628906 0.359375 194.546875 0.359375 198.503906 8.257812 L 253.519531 118.277344 L 362.773438 118.277344 C 367.253906 118.277344 371.320312 120.851562 373.265625 124.867188 C 375.199219 128.910156 374.664062 133.695312 371.867188 137.199219 L 297.367188 230.308594 L 316.070312 361.1875 C 316.6875 365.472656 314.859375 369.746094 311.355469 372.285156 C 309.328125 373.742188 306.941406 374.488281 304.542969 374.488281 Z M 188.082031 292.964844 C 189.863281 292.964844 191.65625 293.375 193.289062 294.1875 L 289.867188 342.472656 L 273.597656 228.609375 C 273.144531 225.429688 274.03125 222.191406 276.03125 219.679688 L 338.535156 141.558594 L 246.3125 141.558594 C 241.898438 141.558594 237.867188 139.0625 235.890625 135.117188 L 188.082031 39.503906 L 140.277344 135.128906 C 138.296875 139.074219 134.265625 141.566406 129.851562 141.566406 L 37.628906 141.566406 L 100.132812 219.6875 C 102.136719 222.203125 103.019531 225.429688 102.566406 228.621094 L 86.296875 342.484375 L 182.875 294.199219 C 184.507812 293.375 186.300781 292.964844 188.082031 292.964844 Z M 188.082031 292.964844 " fill-opacity="1" fill-rule="nonzero"/></svg>