<svg xmlns="http://www.w3.org/2000/svg" xmlns:xlink="http://www.w3.org/1999/xlink" width="500" zoomAndPan="magnify" viewBox="0 0 375 374.999991" height="500" preserveAspectRatio="xMidYMid meet" version="1.0"><defs><clipPath id="6f7be522eb"><path d="M 7 5.035156 L 351 5.035156 L 351 353 L 7 353 Z M 7 5.035156 " clip-rule="nonzero"/></clipPath></defs><g clip-path="url(#6f7be522eb)"><path fill="#000000" d="M 343.113281 307.1875 C 342.460938 306.53125 341.804688 305.933594 341.03125 305.339844 L 274.296875 249.566406 C 290.027344 224.066406 290.203125 191.710938 274.773438 166.089844 L 274.773438 80.585938 C 274.773438 80.527344 274.773438 80.46875 274.773438 80.46875 C 274.773438 80.289062 274.652344 80.109375 274.652344 79.871094 C 274.652344 79.753906 274.59375 79.574219 274.59375 79.515625 C 274.355469 78.144531 273.820312 76.894531 272.804688 76 L 203.628906 6.761719 C 202.496094 5.691406 200.949219 5.035156 199.339844 5.035156 L 37.210938 5.035156 C 20.765625 5.035156 7.417969 18.382812 7.417969 34.828125 L 7.417969 320.832031 C 7.417969 337.277344 20.765625 350.621094 37.210938 350.621094 L 244.980469 350.621094 C 261.425781 350.621094 274.773438 337.277344 274.773438 320.832031 L 274.773438 307.902344 L 303.730469 342.519531 C 327.859375 370.285156 368.019531 334.175781 343.113281 307.1875 Z M 274.414062 207.441406 C 274.414062 225.675781 267.324219 242.835938 254.394531 255.703125 C 241.464844 268.574219 224.363281 275.726562 206.132812 275.726562 C 187.898438 275.726562 170.738281 268.632812 157.867188 255.703125 C 131.234375 229.070312 131.234375 185.753906 157.867188 159.179688 C 170.738281 146.308594 187.898438 139.160156 206.132812 139.160156 C 224.363281 139.160156 241.523438 146.25 254.394531 159.179688 C 267.265625 172.109375 274.414062 189.210938 274.414062 207.441406 Z M 262.855469 320.832031 C 262.855469 330.660156 254.8125 338.707031 244.980469 338.707031 L 37.210938 338.707031 C 27.378906 338.707031 19.335938 330.660156 19.335938 320.832031 L 19.335938 34.828125 C 19.335938 24.996094 27.378906 16.953125 37.210938 16.953125 L 193.378906 16.953125 L 193.378906 80.46875 C 193.378906 83.746094 196.0625 86.425781 199.339844 86.425781 L 262.855469 86.425781 L 262.855469 150.777344 C 247.722656 135.644531 227.582031 127.300781 206.191406 127.300781 C 185.695312 127.300781 166.386719 134.988281 151.492188 148.929688 L 60.449219 148.929688 C 57.171875 148.929688 54.488281 151.613281 54.488281 154.890625 C 54.488281 158.164062 57.171875 160.847656 60.449219 160.847656 L 141.066406 160.847656 C 134.988281 169.367188 130.757812 178.78125 128.375 188.613281 L 60.449219 188.613281 C 57.171875 188.613281 54.488281 191.292969 54.488281 194.570312 C 54.488281 197.847656 57.171875 200.53125 60.449219 200.53125 L 126.347656 200.53125 C 125.574219 209.824219 126.40625 219.179688 128.792969 228.238281 L 60.449219 228.238281 C 57.171875 228.238281 54.488281 230.917969 54.488281 234.195312 C 54.488281 237.472656 57.171875 240.152344 60.449219 240.152344 L 133.082031 240.152344 C 136.953125 248.851562 142.375 257.015625 149.527344 264.164062 C 150.835938 265.476562 152.265625 266.726562 153.695312 267.917969 L 60.449219 267.917969 C 57.171875 267.917969 54.488281 270.601562 54.488281 273.878906 C 54.488281 277.15625 57.171875 279.835938 60.449219 279.835938 L 171.871094 279.835938 C 182.714844 284.960938 194.394531 287.582031 206.191406 287.582031 C 220.730469 287.582031 235.148438 283.589844 247.960938 275.785156 L 262.855469 293.601562 Z M 262.855469 320.832031 " fill-opacity="1" fill-rule="nonzero"/></g><path fill="#000000" d="M 60.449219 121.164062 L 141.066406 121.164062 C 144.34375 121.164062 147.023438 118.484375 147.023438 115.207031 C 147.023438 111.929688 144.34375 109.246094 141.066406 109.246094 L 60.449219 109.246094 C 57.171875 109.246094 54.488281 111.929688 54.488281 115.207031 C 54.488281 118.484375 57.171875 121.164062 60.449219 121.164062 Z M 60.449219 121.164062 " fill-opacity="1" fill-rule="nonzero"/></svg>