<svg xmlns="http://www.w3.org/2000/svg" xmlns:xlink="http://www.w3.org/1999/xlink" width="500" zoomAndPan="magnify" viewBox="0 0 375 374.999991" height="500" preserveAspectRatio="xMidYMid meet" version="1.0"><defs><clipPath id="982164dee2"><path d="M 15.1875 190 L 141 190 L 141 314.457031 L 15.1875 314.457031 Z M 15.1875 190 " clip-rule="nonzero"/></clipPath><clipPath id="5589d178ff"><path d="M 187 60.207031 L 359.4375 60.207031 L 359.4375 280 L 187 280 Z M 187 60.207031 " clip-rule="nonzero"/></clipPath></defs><g clip-path="url(#982164dee2)"><path fill="#000000" d="M 40.21875 314.457031 C 39 314.457031 37.785156 313.980469 36.90625 313.105469 L 16.691406 292.964844 C 15.8125 292.085938 15.273438 290.867188 15.273438 289.585938 C 15.273438 288.300781 15.746094 287.152344 16.691406 286.207031 L 111.804688 191.519531 C 113.628906 189.695312 116.605469 189.695312 118.496094 191.519531 L 138.710938 211.660156 C 139.589844 212.539062 140.128906 213.753906 140.128906 215.039062 C 140.128906 216.324219 139.65625 217.472656 138.710938 218.417969 L 43.53125 313.105469 C 42.582031 314.050781 41.367188 314.457031 40.21875 314.457031 Z M 26.699219 289.585938 L 40.21875 303.035156 L 128.636719 214.972656 L 115.117188 201.523438 Z M 26.699219 289.585938 " fill-opacity="1" fill-rule="nonzero"/></g><path fill="#000000" d="M 137.695312 222.070312 C 136.480469 222.070312 135.261719 221.59375 134.382812 220.714844 L 109.4375 195.914062 C 108.5625 195.035156 108.019531 193.820312 108.019531 192.535156 C 108.019531 191.25 108.492188 190.101562 109.4375 189.15625 L 138.914062 159.824219 C 147.09375 151.714844 160.34375 151.714844 168.453125 159.824219 L 170.550781 161.851562 C 174.46875 165.769531 176.699219 171.042969 176.699219 176.585938 C 176.699219 182.125 174.539062 187.398438 170.550781 191.316406 L 141.074219 220.648438 C 140.128906 221.59375 138.914062 222 137.765625 222 Z M 119.445312 192.535156 L 137.695312 210.714844 L 163.855469 184.695312 C 166.019531 182.53125 167.167969 179.695312 167.167969 176.652344 C 167.167969 173.609375 165.953125 170.773438 163.855469 168.609375 L 161.761719 166.582031 C 157.300781 162.121094 150.066406 162.121094 145.605469 166.582031 L 119.511719 192.601562 Z M 119.445312 192.535156 " fill-opacity="1" fill-rule="nonzero"/><path fill="#000000" d="M 100.3125 160.636719 C 98.082031 160.636719 96.191406 159.082031 95.714844 156.917969 C 91.929688 139.953125 89.902344 137.792969 73.8125 133.871094 C 71.71875 133.332031 70.230469 131.4375 70.230469 129.277344 C 70.230469 127.113281 71.71875 125.222656 73.8125 124.679688 C 89.835938 120.691406 91.863281 118.597656 95.714844 101.632812 C 96.191406 99.472656 98.148438 97.917969 100.3125 97.917969 C 102.476562 97.917969 104.4375 99.472656 104.910156 101.632812 C 108.695312 118.597656 110.722656 120.761719 126.8125 124.679688 C 128.90625 125.222656 130.394531 127.113281 130.394531 129.277344 C 130.394531 131.4375 128.90625 133.332031 126.8125 133.871094 C 110.792969 137.859375 108.761719 139.953125 104.910156 156.917969 C 104.4375 159.082031 102.476562 160.636719 100.3125 160.636719 Z M 89.632812 129.277344 C 94.636719 131.777344 97.878906 135.089844 100.3125 140.15625 C 102.746094 135.089844 105.992188 131.777344 110.996094 129.277344 C 105.992188 126.773438 102.746094 123.464844 100.3125 118.394531 C 97.878906 123.464844 94.636719 126.773438 89.632812 129.277344 Z M 89.632812 129.277344 " fill-opacity="1" fill-rule="nonzero"/><path fill="#000000" d="M 158.988281 122.246094 C 156.757812 122.246094 154.867188 120.691406 154.394531 118.53125 C 151.351562 104.878906 149.863281 103.390625 137.019531 100.214844 C 134.925781 99.675781 133.4375 97.78125 133.4375 95.621094 C 133.4375 93.457031 134.925781 91.5625 137.019531 91.023438 C 149.863281 87.847656 151.351562 86.292969 154.394531 72.707031 C 154.867188 70.546875 156.828125 68.992188 158.988281 68.992188 C 161.222656 68.992188 163.113281 70.546875 163.585938 72.707031 C 166.628906 86.359375 168.117188 87.847656 180.960938 91.023438 C 183.054688 91.5625 184.542969 93.457031 184.542969 95.621094 C 184.542969 97.78125 183.054688 99.675781 180.960938 100.214844 C 168.117188 103.390625 166.628906 104.945312 163.585938 118.53125 C 163.113281 120.691406 161.152344 122.246094 158.988281 122.246094 Z M 152.027344 95.621094 C 155.070312 97.375 157.230469 99.605469 158.988281 102.714844 C 160.746094 99.605469 162.910156 97.375 165.953125 95.621094 C 162.910156 93.863281 160.746094 91.632812 158.988281 88.523438 C 157.230469 91.632812 155.070312 93.863281 152.027344 95.621094 Z M 152.027344 95.621094 " fill-opacity="1" fill-rule="nonzero"/><path fill="#000000" d="M 213.203125 213.824219 C 210.972656 213.824219 209.082031 212.269531 208.609375 210.105469 C 205.566406 196.453125 204.078125 194.96875 191.234375 191.789062 C 189.140625 191.25 187.652344 189.359375 187.652344 187.195312 C 187.652344 185.03125 189.140625 183.140625 191.234375 182.597656 C 204.078125 179.421875 205.566406 177.867188 208.609375 164.285156 C 209.082031 162.121094 211.042969 160.566406 213.203125 160.566406 C 215.4375 160.566406 217.328125 162.121094 217.800781 164.285156 C 220.84375 177.9375 222.332031 179.421875 235.175781 182.597656 C 237.269531 183.140625 238.757812 185.03125 238.757812 187.195312 C 238.757812 189.359375 237.269531 191.25 235.175781 191.789062 C 222.332031 194.96875 220.84375 196.523438 217.800781 210.105469 C 217.328125 212.269531 215.367188 213.824219 213.203125 213.824219 Z M 206.242188 187.195312 C 209.285156 188.953125 211.445312 191.183594 213.203125 194.292969 C 214.960938 191.183594 217.125 188.953125 220.167969 187.195312 C 217.125 185.4375 214.960938 183.207031 213.203125 180.097656 C 211.445312 183.207031 209.285156 185.4375 206.242188 187.195312 Z M 206.242188 187.195312 " fill-opacity="1" fill-rule="nonzero"/><path fill="#000000" d="M 192.65625 152.863281 C 190.421875 152.863281 188.53125 151.308594 188.058594 149.144531 C 186.03125 140.222656 185.421875 139.546875 177.039062 137.519531 C 174.945312 136.980469 173.457031 135.089844 173.457031 132.925781 C 173.457031 130.761719 174.945312 128.871094 177.039062 128.328125 C 185.421875 126.234375 186.03125 125.625 188.058594 116.707031 C 188.53125 114.542969 190.492188 112.988281 192.65625 112.988281 C 194.886719 112.988281 196.777344 114.542969 197.25 116.707031 C 199.28125 125.625 199.886719 126.300781 208.269531 128.328125 C 210.367188 128.871094 211.851562 130.761719 211.851562 132.925781 C 211.851562 135.089844 210.367188 136.980469 208.269531 137.519531 C 199.886719 139.617188 199.28125 140.222656 197.25 149.144531 C 196.777344 151.308594 194.816406 152.863281 192.65625 152.863281 Z M 190.355469 132.925781 C 191.234375 133.601562 191.980469 134.414062 192.722656 135.289062 C 193.398438 134.414062 194.210938 133.601562 195.089844 132.925781 C 194.210938 132.25 193.464844 131.4375 192.722656 130.558594 C 192.046875 131.4375 191.234375 132.25 190.355469 132.925781 Z M 190.355469 132.925781 " fill-opacity="1" fill-rule="nonzero"/><g clip-path="url(#5589d178ff)"><path fill="#000000" d="M 354.625 279.175781 L 192.382812 279.175781 C 189.746094 279.175781 187.652344 277.082031 187.652344 274.445312 L 187.652344 222.542969 C 187.652344 219.90625 189.746094 217.8125 192.382812 217.8125 C 195.019531 217.8125 197.117188 219.90625 197.117188 222.542969 L 197.117188 269.714844 L 349.890625 269.714844 L 349.890625 69.667969 L 197.117188 69.667969 L 197.117188 92.714844 C 197.117188 95.347656 195.019531 97.445312 192.382812 97.445312 C 189.746094 97.445312 187.652344 95.347656 187.652344 92.714844 L 187.652344 64.9375 C 187.652344 62.300781 189.746094 60.207031 192.382812 60.207031 L 354.625 60.207031 C 357.257812 60.207031 359.355469 62.300781 359.355469 64.9375 L 359.355469 274.445312 C 359.355469 277.082031 357.257812 279.175781 354.625 279.175781 Z M 354.625 279.175781 " fill-opacity="1" fill-rule="nonzero"/></g><path fill="#000000" d="M 329.746094 131.507812 L 292.5 131.507812 C 289.863281 131.507812 287.765625 129.410156 287.765625 126.773438 L 287.765625 89.671875 C 287.765625 87.035156 289.863281 84.941406 292.5 84.941406 L 329.746094 84.941406 C 332.382812 84.941406 334.480469 87.035156 334.480469 89.671875 L 334.480469 126.773438 C 334.480469 129.410156 332.382812 131.507812 329.746094 131.507812 Z M 297.230469 122.042969 L 325.015625 122.042969 L 325.015625 94.402344 L 297.230469 94.402344 Z M 297.230469 122.042969 " fill-opacity="1" fill-rule="nonzero"/><path fill="#000000" d="M 268.433594 101.363281 L 213.203125 101.363281 C 210.570312 101.363281 208.472656 99.269531 208.472656 96.632812 C 208.472656 93.996094 210.570312 91.902344 213.203125 91.902344 L 268.433594 91.902344 C 271.070312 91.902344 273.164062 93.996094 273.164062 96.632812 C 273.164062 99.269531 271.070312 101.363281 268.433594 101.363281 Z M 268.433594 101.363281 " fill-opacity="1" fill-rule="nonzero"/><path fill="#000000" d="M 268.433594 124.546875 L 213.203125 124.546875 C 210.570312 124.546875 208.472656 122.449219 208.472656 119.8125 C 208.472656 117.179688 210.570312 115.082031 213.203125 115.082031 L 268.433594 115.082031 C 271.070312 115.082031 273.164062 117.179688 273.164062 119.8125 C 273.164062 122.449219 271.070312 124.546875 268.433594 124.546875 Z M 268.433594 124.546875 " fill-opacity="1" fill-rule="nonzero"/><path fill="#000000" d="M 329.746094 152.863281 L 238.621094 152.863281 C 235.984375 152.863281 233.890625 150.765625 233.890625 148.132812 C 233.890625 145.496094 235.984375 143.402344 238.621094 143.402344 L 329.746094 143.402344 C 332.382812 143.402344 334.480469 145.496094 334.480469 148.132812 C 334.480469 150.765625 332.382812 152.863281 329.746094 152.863281 Z M 329.746094 152.863281 " fill-opacity="1" fill-rule="nonzero"/><path fill="#000000" d="M 329.746094 175.976562 L 256.265625 175.976562 C 253.628906 175.976562 251.535156 173.882812 251.535156 171.246094 C 251.535156 168.609375 253.628906 166.515625 256.265625 166.515625 L 329.746094 166.515625 C 332.382812 166.515625 334.480469 168.609375 334.480469 171.246094 C 334.480469 173.882812 332.382812 175.976562 329.746094 175.976562 Z M 329.746094 175.976562 " fill-opacity="1" fill-rule="nonzero"/><path fill="#000000" d="M 329.746094 204.363281 L 261.875 204.363281 C 259.238281 204.363281 257.144531 202.265625 257.144531 199.628906 C 257.144531 196.996094 259.238281 194.898438 261.875 194.898438 L 329.746094 194.898438 C 332.382812 194.898438 334.480469 196.996094 334.480469 199.628906 C 334.480469 202.265625 332.382812 204.363281 329.746094 204.363281 Z M 329.746094 204.363281 " fill-opacity="1" fill-rule="nonzero"/><path fill="#000000" d="M 329.746094 227.476562 L 240.785156 227.476562 C 238.148438 227.476562 236.054688 225.378906 236.054688 222.746094 C 236.054688 220.109375 238.148438 218.011719 240.785156 218.011719 L 329.746094 218.011719 C 332.382812 218.011719 334.480469 220.109375 334.480469 222.746094 C 334.480469 225.378906 332.382812 227.476562 329.746094 227.476562 Z M 329.746094 227.476562 " fill-opacity="1" fill-rule="nonzero"/></svg>