<svg xmlns="http://www.w3.org/2000/svg" xmlns:xlink="http://www.w3.org/1999/xlink" width="500" zoomAndPan="magnify" viewBox="0 0 375 374.999991" height="500" preserveAspectRatio="xMidYMid meet" version="1.0"><path fill="#212121" d="M 15.625 375 C 11.625 375 7.625 373.46875 4.578125 370.421875 C -1.53125 364.3125 -1.53125 354.4375 4.578125 348.328125 L 348.328125 4.578125 C 354.4375 -1.53125 364.3125 -1.53125 370.421875 4.578125 C 376.53125 10.6875 376.53125 20.5625 370.421875 26.671875 L 26.671875 370.421875 C 23.625 373.46875 19.625 375 15.625 375 Z M 15.625 375 " fill-opacity="1" fill-rule="nonzero"/><path fill="#212121" d="M 250 187.5 C 250 221.96875 221.96875 250 187.5 250 C 181.9375 250 176.65625 249.03125 171.515625 247.671875 L 130.109375 289.078125 C 148.34375 293.9375 167.625 296.875 187.5 296.875 C 288.203125 296.875 375 223.515625 375 187.5 C 375 167.515625 348.203125 136.0625 307.203125 111.984375 L 247.671875 171.515625 C 249.046875 176.640625 250 181.9375 250 187.5 Z M 250 187.5 " fill-opacity="1" fill-rule="nonzero"/><path fill="#212121" d="M 125 187.5 C 125 153.03125 153.03125 125 187.5 125 C 193.0625 125 198.34375 125.96875 203.484375 127.328125 L 244.890625 85.921875 C 226.65625 81.0625 207.375 78.125 187.5 78.125 C 86.796875 78.125 0 151.484375 0 187.5 C 0 207.484375 26.796875 238.9375 67.796875 263.015625 L 127.328125 203.484375 C 125.953125 198.359375 125 193.0625 125 187.5 Z M 125 187.5 " fill-opacity="1" fill-rule="nonzero"/></svg>