<svg xmlns="http://www.w3.org/2000/svg" xmlns:xlink="http://www.w3.org/1999/xlink" width="500" zoomAndPan="magnify" viewBox="0 0 375 374.999991" height="500" preserveAspectRatio="xMidYMid meet" version="1.0"><defs><clipPath id="c8165e13bb"><path d="M 7 14 L 368 14 L 368 361.703125 L 7 361.703125 Z M 7 14 " clip-rule="nonzero"/></clipPath></defs><g clip-path="url(#c8165e13bb)"><path fill="#000000" d="M 347.8125 195.300781 L 333.0625 195.300781 L 333.0625 346.398438 C 333 347.414062 332.835938 348.417969 332.578125 349.40625 C 332.316406 350.394531 331.964844 351.34375 331.519531 352.265625 C 331.070312 353.183594 330.542969 354.046875 329.925781 354.863281 C 329.308594 355.675781 328.621094 356.425781 327.859375 357.105469 C 327.097656 357.785156 326.277344 358.386719 325.398438 358.90625 C 324.519531 359.425781 323.597656 359.855469 322.632812 360.195312 C 321.671875 360.535156 320.683594 360.777344 319.671875 360.925781 C 318.660156 361.070312 317.644531 361.117188 316.625 361.066406 L 229.492188 361.066406 L 229.492188 258.042969 C 229.492188 257.339844 229.425781 256.636719 229.285156 255.945312 C 229.148438 255.253906 228.945312 254.578125 228.675781 253.925781 C 228.402344 253.273438 228.070312 252.652344 227.679688 252.066406 C 227.285156 251.476562 226.839844 250.933594 226.339844 250.433594 C 225.839844 249.933594 225.296875 249.488281 224.707031 249.097656 C 224.121094 248.703125 223.5 248.371094 222.847656 248.101562 C 222.191406 247.832031 221.519531 247.625 220.824219 247.488281 C 220.132812 247.347656 219.433594 247.28125 218.726562 247.28125 L 155.507812 247.28125 C 154.800781 247.28125 154.101562 247.347656 153.40625 247.488281 C 152.714844 247.625 152.039062 247.828125 151.386719 248.097656 C 150.734375 248.371094 150.113281 248.703125 149.523438 249.09375 C 148.9375 249.488281 148.390625 249.933594 147.890625 250.433594 C 147.390625 250.933594 146.945312 251.476562 146.550781 252.066406 C 146.160156 252.652344 145.828125 253.273438 145.558594 253.925781 C 145.289062 254.578125 145.082031 255.25 144.945312 255.945312 C 144.808594 256.636719 144.738281 257.339844 144.738281 258.042969 L 144.738281 361.0625 L 57.601562 361.0625 C 56.585938 361.113281 55.574219 361.070312 54.566406 360.925781 C 53.558594 360.78125 52.574219 360.539062 51.613281 360.203125 C 50.652344 359.863281 49.730469 359.4375 48.855469 358.921875 C 47.976562 358.402344 47.160156 357.804688 46.402344 357.125 C 45.640625 356.449219 44.953125 355.703125 44.339844 354.890625 C 43.726562 354.078125 43.199219 353.214844 42.757812 352.300781 C 42.3125 351.382812 41.964844 350.433594 41.707031 349.449219 C 41.449219 348.464844 41.289062 347.464844 41.230469 346.449219 L 41.230469 195.300781 L 26.417969 195.300781 C 10 195.300781 1.105469 179.859375 11.859375 169.949219 L 173.972656 20.226562 C 174.988281 19.367188 176.070312 18.605469 177.21875 17.9375 C 178.367188 17.273438 179.566406 16.710938 180.8125 16.253906 C 182.0625 15.800781 183.339844 15.457031 184.648438 15.226562 C 185.957031 14.996094 187.277344 14.882812 188.605469 14.886719 C 189.933594 14.886719 191.253906 15.007812 192.558594 15.242188 C 193.867188 15.476562 195.144531 15.824219 196.390625 16.285156 C 197.636719 16.746094 198.832031 17.3125 199.980469 17.984375 C 201.125 18.65625 202.203125 19.421875 203.214844 20.285156 C 256.289062 70.1875 309.382812 120.09375 362.503906 170 C 373.058594 180.007812 364.171875 195.300781 347.8125 195.300781 Z M 347.8125 195.300781 " fill-opacity="1" fill-rule="nonzero"/></g></svg>