<svg xmlns="http://www.w3.org/2000/svg" xmlns:xlink="http://www.w3.org/1999/xlink" width="500" zoomAndPan="magnify" viewBox="0 0 375 374.999991" height="500" preserveAspectRatio="xMidYMid meet" version="1.0"><defs><clipPath id="87539975bd"><path d="M 187.5 0 C 83.945312 0 0 83.945312 0 187.5 C 0 291.054688 83.945312 375 187.5 375 C 291.054688 375 375 291.054688 375 187.5 C 375 83.945312 291.054688 0 187.5 0 Z M 187.5 0 " clip-rule="nonzero"/></clipPath><clipPath id="44e948c49c"><path d="M 78.640625 78.640625 L 296.140625 78.640625 L 296.140625 296.140625 L 78.640625 296.140625 Z M 78.640625 78.640625 " clip-rule="nonzero"/></clipPath></defs><g clip-path="url(#87539975bd)"><path stroke-linecap="butt" transform="matrix(0.75, 0, 0, 0.75, 0.0000045, 0)" fill="none" stroke-linejoin="miter" d="M 249.999994 0 C 111.927078 0 -0.000006 111.927084 -0.000006 250 C -0.000006 388.072917 111.927078 500.000001 249.999994 500.000001 C 388.072911 500.000001 499.999995 388.072917 499.999995 250 C 499.999995 111.927084 388.072911 0 249.999994 0 Z M 249.999994 0 " stroke="#000000" stroke-width="60" stroke-opacity="1" stroke-miterlimit="4"/></g><g clip-path="url(#44e948c49c)"><path fill="#000000" d="M 292.617188 296.125 L 82.183594 296.125 C 80.277344 296.125 78.734375 294.582031 78.734375 292.675781 L 78.734375 273.019531 C 78.734375 240.3125 105.339844 213.703125 138.046875 213.703125 L 236.753906 213.703125 C 269.460938 213.703125 296.066406 240.3125 296.066406 273.019531 L 296.066406 292.675781 C 296.066406 294.582031 294.523438 296.125 292.617188 296.125 Z M 187.398438 204.429688 C 152.71875 204.429688 124.507812 176.214844 124.507812 141.535156 C 124.507812 106.855469 152.71875 78.640625 187.398438 78.640625 C 222.082031 78.640625 250.292969 106.855469 250.292969 141.535156 C 250.292969 176.214844 222.082031 204.429688 187.398438 204.429688 Z M 187.398438 204.429688 " fill-opacity="1" fill-rule="nonzero"/></g></svg>