<svg xmlns="http://www.w3.org/2000/svg" xmlns:xlink="http://www.w3.org/1999/xlink" width="500" zoomAndPan="magnify" viewBox="0 0 375 374.999991" height="500" preserveAspectRatio="xMidYMid meet" version="1.0"><defs><clipPath id="2a6ac3b857"><path d="M 214 40.078125 L 265 40.078125 L 265 91 L 214 91 Z M 214 40.078125 " clip-rule="nonzero"/></clipPath><clipPath id="1175c31626"><path d="M 0 88 L 337 88 L 337 334.828125 L 0 334.828125 Z M 0 88 " clip-rule="nonzero"/></clipPath></defs><path fill="#000000" d="M 371.902344 125.300781 C 359.433594 123.769531 349.714844 120.488281 343.21875 117.785156 C 334.949219 114.347656 327.324219 111.066406 319.769531 103.667969 C 312.371094 96.097656 309.085938 88.492188 305.648438 80.226562 C 302.945312 73.730469 299.660156 64 298.128906 51.550781 C 297.90625 49.765625 296.375 48.421875 294.574219 48.421875 C 292.769531 48.421875 291.238281 49.765625 291.015625 51.550781 C 289.484375 64.019531 286.203125 73.730469 283.496094 80.226562 C 280.058594 88.492188 276.773438 96.113281 269.375 103.667969 C 261.800781 111.066406 254.195312 114.347656 245.929688 117.785156 C 239.429688 120.488281 229.695312 123.769531 217.242188 125.300781 C 215.453125 125.523438 214.109375 127.054688 214.109375 128.855469 C 214.109375 130.660156 215.453125 132.191406 217.242188 132.410156 C 229.714844 133.941406 239.429688 137.226562 245.929688 139.929688 C 254.195312 143.367188 261.820312 146.648438 269.375 154.046875 C 276.773438 161.617188 280.058594 169.21875 283.496094 177.484375 C 286.203125 183.984375 289.484375 193.710938 291.015625 206.164062 C 291.238281 207.949219 292.769531 209.292969 294.574219 209.292969 C 296.375 209.292969 297.90625 207.949219 298.128906 206.164062 C 299.660156 193.695312 302.945312 183.984375 305.648438 177.484375 C 309.085938 169.21875 312.371094 161.597656 319.769531 154.046875 C 327.34375 146.648438 334.949219 143.367188 343.21875 139.929688 C 349.714844 137.226562 359.449219 133.941406 371.902344 132.410156 C 373.691406 132.191406 375.035156 130.660156 375.035156 128.855469 C 375.035156 127.054688 373.691406 125.523438 371.902344 125.300781 Z M 371.902344 125.300781 " fill-opacity="1" fill-rule="nonzero"/><g clip-path="url(#2a6ac3b857)"><path fill="#000000" d="M 215.097656 66.570312 C 218.992188 67.046875 222.023438 68.066406 224.0625 68.917969 C 226.652344 69.988281 229.03125 71.007812 231.398438 73.320312 C 233.710938 75.6875 234.730469 78.066406 235.804688 80.652344 C 236.65625 82.675781 237.675781 85.722656 238.152344 89.617188 C 238.21875 90.179688 238.695312 90.601562 239.257812 90.601562 C 239.820312 90.601562 240.296875 90.179688 240.363281 89.617188 C 240.839844 85.722656 241.863281 82.695312 242.710938 80.652344 C 243.785156 78.066406 244.804688 75.6875 247.117188 73.320312 C 249.484375 71.007812 251.867188 69.988281 254.453125 68.917969 C 256.476562 68.066406 259.523438 67.046875 263.417969 66.570312 C 263.980469 66.5 264.40625 66.023438 264.40625 65.464844 C 264.40625 64.902344 263.980469 64.425781 263.417969 64.359375 C 259.523438 63.882812 256.492188 62.863281 254.453125 62.011719 C 251.867188 60.9375 249.484375 59.917969 247.117188 57.605469 C 244.804688 55.242188 243.785156 52.859375 242.710938 50.273438 C 241.863281 48.25 240.839844 45.207031 240.363281 41.3125 C 240.296875 40.75 239.820312 40.324219 239.257812 40.324219 C 238.695312 40.324219 238.21875 40.75 238.152344 41.3125 C 237.675781 45.207031 236.65625 48.234375 235.804688 50.273438 C 234.730469 52.859375 233.710938 55.242188 231.398438 57.605469 C 229.03125 59.917969 226.652344 60.9375 224.0625 62.011719 C 222.039062 62.863281 218.992188 63.882812 215.097656 64.359375 C 214.535156 64.425781 214.109375 64.902344 214.109375 65.464844 C 214.109375 66.023438 214.535156 66.5 215.097656 66.570312 Z M 215.097656 66.570312 " fill-opacity="1" fill-rule="nonzero"/></g><g clip-path="url(#1175c31626)"><path fill="#000000" d="M 327.171875 207.644531 C 322 207.644531 317.8125 211.828125 317.8125 216.996094 L 317.8125 258.484375 L 252.902344 203.542969 C 247.136719 198.664062 238.679688 198.664062 232.910156 203.542969 L 179.65625 248.601562 L 86.824219 157.855469 C 80.871094 152.039062 71.359375 152.039062 65.402344 157.855469 L 18.699219 203.507812 L 18.699219 137.992188 C 18.699219 120.914062 32.582031 107.035156 49.648438 107.035156 L 207.050781 107.035156 C 212.222656 107.035156 216.40625 102.851562 216.40625 97.679688 C 216.40625 92.507812 212.222656 88.324219 207.050781 88.324219 L 49.664062 88.324219 C 22.273438 88.324219 0 110.605469 0 137.992188 L 0 284.882812 C 0 312.265625 22.273438 334.546875 49.664062 334.546875 L 286.847656 334.546875 C 314.242188 334.546875 336.53125 312.265625 336.53125 284.882812 L 336.53125 216.996094 C 336.53125 211.828125 332.34375 207.644531 327.171875 207.644531 Z M 327.171875 207.644531 " fill-opacity="1" fill-rule="nonzero"/></g><path fill="#000000" d="M 177.667969 131.835938 C 178.25 132.417969 178.804688 133.027344 179.328125 133.667969 C 179.851562 134.304688 180.34375 134.964844 180.800781 135.652344 C 181.257812 136.339844 181.683594 137.042969 182.070312 137.773438 C 182.460938 138.5 182.8125 139.246094 183.128906 140.007812 C 183.445312 140.769531 183.722656 141.546875 183.960938 142.335938 C 184.203125 143.125 184.402344 143.921875 184.5625 144.734375 C 184.722656 145.542969 184.84375 146.355469 184.925781 147.179688 C 185.007812 148 185.046875 148.820312 185.046875 149.648438 C 185.046875 150.472656 185.007812 151.296875 184.925781 152.117188 C 184.84375 152.9375 184.722656 153.753906 184.5625 154.5625 C 184.402344 155.371094 184.203125 156.171875 183.960938 156.960938 C 183.722656 157.75 183.445312 158.523438 183.128906 159.285156 C 182.8125 160.050781 182.460938 160.792969 182.070312 161.523438 C 181.683594 162.25 181.257812 162.957031 180.800781 163.640625 C 180.34375 164.328125 179.851562 164.988281 179.328125 165.628906 C 178.804688 166.265625 178.25 166.875 177.667969 167.460938 C 177.082031 168.042969 176.472656 168.597656 175.835938 169.121094 C 175.195312 169.644531 174.535156 170.132812 173.847656 170.59375 C 173.160156 171.050781 172.453125 171.472656 171.726562 171.863281 C 171 172.253906 170.253906 172.605469 169.492188 172.921875 C 168.730469 173.234375 167.953125 173.511719 167.164062 173.753906 C 166.375 173.992188 165.574219 174.191406 164.765625 174.355469 C 163.957031 174.515625 163.140625 174.636719 162.320312 174.714844 C 161.496094 174.796875 160.675781 174.835938 159.847656 174.835938 C 159.023438 174.835938 158.199219 174.796875 157.378906 174.714844 C 156.558594 174.636719 155.742188 174.515625 154.933594 174.355469 C 154.125 174.191406 153.324219 173.992188 152.535156 173.753906 C 151.746094 173.511719 150.96875 173.234375 150.207031 172.921875 C 149.441406 172.605469 148.699219 172.253906 147.96875 171.863281 C 147.242188 171.472656 146.535156 171.050781 145.847656 170.59375 C 145.164062 170.132812 144.5 169.644531 143.863281 169.121094 C 143.226562 168.597656 142.613281 168.042969 142.03125 167.460938 C 141.445312 166.875 140.894531 166.265625 140.371094 165.628906 C 139.847656 164.988281 139.355469 164.328125 138.898438 163.640625 C 138.4375 162.957031 138.015625 162.25 137.625 161.523438 C 137.238281 160.792969 136.882812 160.050781 136.566406 159.285156 C 136.253906 158.523438 135.976562 157.75 135.734375 156.960938 C 135.496094 156.171875 135.296875 155.371094 135.132812 154.5625 C 134.972656 153.753906 134.851562 152.9375 134.773438 152.117188 C 134.691406 151.296875 134.648438 150.472656 134.648438 149.648438 C 134.648438 148.820312 134.691406 148 134.773438 147.179688 C 134.851562 146.355469 134.972656 145.542969 135.132812 144.734375 C 135.296875 143.921875 135.496094 143.125 135.734375 142.335938 C 135.976562 141.546875 136.253906 140.769531 136.566406 140.007812 C 136.882812 139.246094 137.238281 138.5 137.625 137.773438 C 138.015625 137.042969 138.4375 136.339844 138.898438 135.652344 C 139.355469 134.964844 139.847656 134.304688 140.371094 133.667969 C 140.894531 133.027344 141.445312 132.417969 142.03125 131.835938 C 142.613281 131.25 143.226562 130.699219 143.863281 130.175781 C 144.5 129.652344 145.164062 129.160156 145.847656 128.703125 C 146.535156 128.242188 147.242188 127.820312 147.96875 127.429688 C 148.699219 127.042969 149.441406 126.691406 150.207031 126.375 C 150.96875 126.058594 151.746094 125.78125 152.535156 125.542969 C 153.324219 125.300781 154.125 125.101562 154.933594 124.941406 C 155.742188 124.78125 156.558594 124.660156 157.378906 124.578125 C 158.199219 124.496094 159.023438 124.457031 159.847656 124.457031 C 160.675781 124.457031 161.496094 124.496094 162.320312 124.578125 C 163.140625 124.660156 163.957031 124.78125 164.765625 124.941406 C 165.574219 125.101562 166.375 125.300781 167.164062 125.542969 C 167.953125 125.78125 168.730469 126.058594 169.492188 126.375 C 170.253906 126.691406 171 127.042969 171.726562 127.429688 C 172.453125 127.820312 173.160156 128.242188 173.847656 128.703125 C 174.535156 129.160156 175.195312 129.652344 175.835938 130.175781 C 176.472656 130.699219 177.082031 131.25 177.667969 131.835938 Z M 177.667969 131.835938 " fill-opacity="1" fill-rule="nonzero"/></svg>