<svg xmlns="http://www.w3.org/2000/svg" xmlns:xlink="http://www.w3.org/1999/xlink" width="500" zoomAndPan="magnify" viewBox="0 0 375 374.999991" height="500" preserveAspectRatio="xMidYMid meet" version="1.0"><defs><clipPath id="4ed4e7e8fa"><path d="M 5.128906 5.128906 L 369.628906 5.128906 L 369.628906 369.628906 L 5.128906 369.628906 Z M 5.128906 5.128906 " clip-rule="nonzero"/></clipPath></defs><g clip-path="url(#4ed4e7e8fa)"><path fill="#000000" d="M 187.335938 5.101562 C 86.960938 5.101562 5.101562 86.960938 5.101562 187.335938 C 5.101562 287.710938 86.960938 369.570312 187.335938 369.570312 C 287.710938 369.570312 369.570312 287.710938 369.570312 187.335938 C 369.570312 86.960938 287.710938 5.101562 187.335938 5.101562 Z M 187.335938 50.660156 C 263.089844 50.660156 324.011719 111.582031 324.011719 187.335938 C 324.011719 263.089844 263.089844 324.011719 187.335938 324.011719 C 111.582031 324.011719 50.660156 263.089844 50.660156 187.335938 C 50.660156 111.582031 111.582031 50.660156 187.335938 50.660156 Z M 187.335938 96.21875 C 186.589844 96.21875 185.84375 96.253906 185.101562 96.328125 C 184.359375 96.398438 183.621094 96.507812 182.890625 96.65625 C 182.160156 96.800781 181.4375 96.980469 180.722656 97.199219 C 180.007812 97.414062 179.308594 97.667969 178.617188 97.953125 C 177.929688 98.238281 177.253906 98.554688 176.597656 98.90625 C 175.9375 99.257812 175.300781 99.640625 174.679688 100.054688 C 174.058594 100.472656 173.460938 100.914062 172.882812 101.386719 C 172.308594 101.863281 171.753906 102.363281 171.226562 102.890625 C 170.699219 103.417969 170.199219 103.96875 169.726562 104.546875 C 169.253906 105.121094 168.808594 105.722656 168.394531 106.339844 C 167.980469 106.960938 167.597656 107.601562 167.246094 108.257812 C 166.894531 108.917969 166.574219 109.589844 166.289062 110.28125 C 166.003906 110.96875 165.753906 111.671875 165.535156 112.382812 C 165.320312 113.097656 165.140625 113.820312 164.992188 114.554688 C 164.847656 115.285156 164.738281 116.023438 164.664062 116.765625 C 164.59375 117.507812 164.554688 118.25 164.554688 118.996094 C 164.554688 119.742188 164.59375 120.488281 164.664062 121.230469 C 164.738281 121.972656 164.847656 122.710938 164.992188 123.441406 C 165.140625 124.171875 165.320312 124.894531 165.535156 125.609375 C 165.753906 126.324219 166.003906 127.023438 166.289062 127.714844 C 166.574219 128.402344 166.894531 129.078125 167.246094 129.734375 C 167.597656 130.394531 167.980469 131.03125 168.394531 131.652344 C 168.808594 132.273438 169.253906 132.871094 169.726562 133.449219 C 170.199219 134.023438 170.699219 134.578125 171.226562 135.105469 C 171.753906 135.632812 172.308594 136.132812 172.882812 136.605469 C 173.460938 137.078125 174.058594 137.523438 174.679688 137.9375 C 175.300781 138.351562 175.9375 138.734375 176.597656 139.085938 C 177.253906 139.4375 177.929688 139.757812 178.617188 140.042969 C 179.308594 140.328125 180.007812 140.578125 180.722656 140.796875 C 181.4375 141.011719 182.160156 141.191406 182.890625 141.339844 C 183.621094 141.484375 184.359375 141.59375 185.101562 141.667969 C 185.84375 141.738281 186.589844 141.777344 187.335938 141.777344 C 188.082031 141.777344 188.824219 141.738281 189.566406 141.667969 C 190.308594 141.59375 191.046875 141.484375 191.777344 141.339844 C 192.511719 141.191406 193.234375 141.011719 193.949219 140.796875 C 194.660156 140.578125 195.363281 140.328125 196.050781 140.042969 C 196.742188 139.757812 197.414062 139.4375 198.074219 139.085938 C 198.730469 138.734375 199.371094 138.351562 199.992188 137.9375 C 200.609375 137.523438 201.210938 137.078125 201.785156 136.605469 C 202.363281 136.132812 202.914062 135.632812 203.441406 135.105469 C 203.96875 134.578125 204.46875 134.023438 204.945312 133.449219 C 205.417969 132.871094 205.859375 132.273438 206.277344 131.652344 C 206.691406 131.03125 207.074219 130.394531 207.425781 129.734375 C 207.777344 129.078125 208.09375 128.402344 208.378906 127.714844 C 208.667969 127.023438 208.917969 126.324219 209.132812 125.609375 C 209.351562 124.894531 209.53125 124.171875 209.675781 123.441406 C 209.824219 122.710938 209.933594 121.972656 210.003906 121.230469 C 210.078125 120.488281 210.113281 119.742188 210.113281 118.996094 C 210.113281 118.25 210.078125 117.507812 210.003906 116.765625 C 209.933594 116.023438 209.824219 115.285156 209.675781 114.554688 C 209.53125 113.820312 209.351562 113.097656 209.132812 112.382812 C 208.917969 111.671875 208.667969 110.96875 208.378906 110.28125 C 208.09375 109.589844 207.777344 108.917969 207.425781 108.257812 C 207.074219 107.601562 206.691406 106.960938 206.277344 106.339844 C 205.859375 105.722656 205.417969 105.121094 204.945312 104.546875 C 204.46875 103.96875 203.96875 103.417969 203.441406 102.890625 C 202.914062 102.363281 202.363281 101.863281 201.785156 101.386719 C 201.210938 100.914062 200.609375 100.472656 199.992188 100.054688 C 199.371094 99.640625 198.730469 99.257812 198.074219 98.90625 C 197.414062 98.554688 196.742188 98.238281 196.050781 97.953125 C 195.363281 97.667969 194.660156 97.414062 193.949219 97.199219 C 193.234375 96.980469 192.511719 96.800781 191.777344 96.65625 C 191.046875 96.507812 190.308594 96.398438 189.566406 96.328125 C 188.824219 96.253906 188.082031 96.21875 187.335938 96.21875 Z M 187.015625 168.96875 C 186.296875 168.980469 185.582031 169.023438 184.871094 169.105469 C 184.160156 169.1875 183.453125 169.300781 182.75 169.453125 C 182.050781 169.601562 181.355469 169.785156 180.675781 170.003906 C 179.992188 170.222656 179.320312 170.472656 178.660156 170.757812 C 178.003906 171.042969 177.359375 171.355469 176.734375 171.703125 C 176.105469 172.050781 175.496094 172.429688 174.90625 172.835938 C 174.316406 173.242188 173.746094 173.675781 173.199219 174.140625 C 172.652344 174.601562 172.128906 175.09375 171.628906 175.605469 C 171.128906 176.121094 170.65625 176.660156 170.210938 177.21875 C 169.761719 177.78125 169.34375 178.363281 168.957031 178.964844 C 168.566406 179.566406 168.207031 180.183594 167.878906 180.820312 C 167.550781 181.460938 167.253906 182.109375 166.988281 182.777344 C 166.722656 183.445312 166.492188 184.121094 166.292969 184.8125 C 166.097656 185.5 165.933594 186.195312 165.804688 186.902344 C 165.671875 187.609375 165.578125 188.316406 165.519531 189.03125 C 165.460938 189.746094 165.433594 190.460938 165.445312 191.179688 L 165.445312 275 C 165.445312 275.71875 165.480469 276.433594 165.550781 277.144531 C 165.621094 277.859375 165.726562 278.566406 165.867188 279.269531 C 166.007812 279.972656 166.179688 280.667969 166.386719 281.355469 C 166.597656 282.039062 166.835938 282.714844 167.113281 283.378906 C 167.386719 284.039062 167.691406 284.6875 168.03125 285.320312 C 168.367188 285.953125 168.738281 286.566406 169.132812 287.160156 C 169.53125 287.757812 169.960938 288.332031 170.414062 288.886719 C 170.871094 289.441406 171.351562 289.972656 171.855469 290.480469 C 172.363281 290.984375 172.894531 291.464844 173.449219 291.921875 C 174.003906 292.375 174.578125 292.800781 175.175781 293.199219 C 175.769531 293.597656 176.382812 293.96875 177.015625 294.304688 C 177.648438 294.644531 178.296875 294.949219 178.957031 295.222656 C 179.621094 295.5 180.296875 295.738281 180.980469 295.949219 C 181.667969 296.15625 182.363281 296.328125 183.066406 296.46875 C 183.769531 296.609375 184.476562 296.714844 185.191406 296.785156 C 185.902344 296.855469 186.617188 296.890625 187.335938 296.890625 C 188.050781 296.890625 188.765625 296.855469 189.480469 296.785156 C 190.195312 296.714844 190.902344 296.609375 191.605469 296.46875 C 192.308594 296.328125 193.003906 296.15625 193.691406 295.949219 C 194.375 295.738281 195.050781 295.5 195.710938 295.222656 C 196.375 294.949219 197.023438 294.644531 197.652344 294.304688 C 198.285156 293.96875 198.898438 293.597656 199.496094 293.199219 C 200.09375 292.800781 200.667969 292.375 201.222656 291.921875 C 201.777344 291.464844 202.304688 290.984375 202.8125 290.480469 C 203.320312 289.972656 203.800781 289.441406 204.257812 288.886719 C 204.710938 288.332031 205.136719 287.757812 205.535156 287.160156 C 205.933594 286.566406 206.300781 285.953125 206.640625 285.320312 C 206.976562 284.6875 207.285156 284.039062 207.558594 283.378906 C 207.832031 282.714844 208.074219 282.039062 208.28125 281.355469 C 208.492188 280.667969 208.664062 279.972656 208.804688 279.269531 C 208.945312 278.566406 209.050781 277.859375 209.121094 277.144531 C 209.191406 276.433594 209.226562 275.71875 209.226562 275 L 209.226562 191.179688 C 209.234375 190.449219 209.210938 189.71875 209.148438 188.992188 C 209.085938 188.265625 208.988281 187.542969 208.851562 186.824219 C 208.71875 186.105469 208.546875 185.394531 208.34375 184.695312 C 208.136719 183.996094 207.898438 183.304688 207.621094 182.628906 C 207.347656 181.953125 207.039062 181.289062 206.699219 180.644531 C 206.359375 180 205.988281 179.371094 205.582031 178.761719 C 205.179688 178.152344 204.746094 177.566406 204.285156 177 C 203.820312 176.433594 203.332031 175.894531 202.816406 175.378906 C 202.300781 174.863281 201.757812 174.371094 201.195312 173.910156 C 200.628906 173.449219 200.039062 173.015625 199.433594 172.609375 C 198.824219 172.207031 198.195312 171.835938 197.550781 171.496094 C 196.902344 171.152344 196.242188 170.847656 195.566406 170.570312 C 194.886719 170.296875 194.199219 170.058594 193.5 169.851562 C 192.796875 169.644531 192.089844 169.476562 191.371094 169.339844 C 190.652344 169.207031 189.929688 169.109375 189.203125 169.046875 C 188.472656 168.984375 187.746094 168.957031 187.015625 168.96875 Z M 187.015625 168.96875 " fill-opacity="1" fill-rule="nonzero"/></g></svg>