<svg xmlns="http://www.w3.org/2000/svg" xmlns:xlink="http://www.w3.org/1999/xlink" width="500" zoomAndPan="magnify" viewBox="0 0 375 374.999991" height="500" preserveAspectRatio="xMidYMid meet" version="1.0"><defs><clipPath id="62a53642e6"><path d="M 187.5 0 C 83.945312 0 0 83.945312 0 187.5 C 0 291.054688 83.945312 375 187.5 375 C 291.054688 375 375 291.054688 375 187.5 C 375 83.945312 291.054688 0 187.5 0 Z M 187.5 0 " clip-rule="nonzero"/></clipPath><clipPath id="f6df5ab0f6"><path d="M 117.273438 40.039062 L 257.523438 40.039062 L 257.523438 334.789062 L 117.273438 334.789062 Z M 117.273438 40.039062 " clip-rule="nonzero"/></clipPath></defs><g clip-path="url(#62a53642e6)"><path stroke-linecap="butt" transform="matrix(0.75, 0, 0, 0.75, 0.0000045, 0)" fill="none" stroke-linejoin="miter" d="M 249.999994 0 C 111.927078 0 -0.000006 111.927084 -0.000006 250 C -0.000006 388.072917 111.927078 500.000001 249.999994 500.000001 C 388.072911 500.000001 499.999995 388.072917 499.999995 250 C 499.999995 111.927084 388.072911 0 249.999994 0 Z M 249.999994 0 " stroke="#000000" stroke-width="60" stroke-opacity="1" stroke-miterlimit="4"/></g><g clip-path="url(#f6df5ab0f6)"><path fill="#000000" d="M 187.496094 40.125 C 174.34375 40.125 163.15625 45.4375 155.964844 53.53125 C 148.773438 61.628906 145.386719 72.027344 145.386719 82.269531 C 145.386719 92.511719 148.773438 102.882812 155.964844 110.980469 C 163.15625 119.074219 174.34375 124.386719 187.496094 124.386719 C 200.652344 124.386719 211.839844 119.074219 219.03125 110.980469 C 226.222656 102.882812 229.605469 92.511719 229.605469 82.269531 C 229.605469 72.027344 226.222656 61.628906 219.03125 53.53125 C 211.839844 45.4375 200.652344 40.125 187.496094 40.125 Z M 187.496094 61.183594 C 195.394531 61.183594 199.972656 63.761719 203.304688 67.515625 C 206.640625 71.273438 208.566406 76.710938 208.566406 82.269531 C 208.566406 87.832031 206.640625 93.238281 203.304688 96.996094 C 199.972656 100.75 195.394531 103.328125 187.496094 103.328125 C 179.601562 103.328125 175.023438 100.75 171.691406 96.996094 C 168.355469 93.238281 166.429688 87.832031 166.429688 82.269531 C 166.429688 76.710938 168.355469 71.273438 171.691406 67.515625 C 175.023438 63.761719 179.601562 61.183594 187.496094 61.183594 Z M 127.800781 138.179688 C 127.109375 138.179688 126.425781 138.246094 125.746094 138.382812 C 125.070312 138.519531 124.410156 138.71875 123.773438 138.980469 C 123.136719 139.246094 122.53125 139.570312 121.957031 139.957031 C 121.378906 140.339844 120.847656 140.777344 120.359375 141.265625 C 119.871094 141.753906 119.4375 142.285156 119.050781 142.859375 C 118.667969 143.433594 118.34375 144.042969 118.082031 144.679688 C 117.816406 145.320312 117.617188 145.976562 117.480469 146.65625 C 117.347656 147.332031 117.28125 148.019531 117.277344 148.710938 L 117.277344 198.066406 C 117.28125 198.757812 117.347656 199.441406 117.480469 200.121094 C 117.617188 200.800781 117.816406 201.457031 118.082031 202.097656 C 118.34375 202.734375 118.667969 203.34375 119.050781 203.917969 C 119.4375 204.492188 119.871094 205.023438 120.359375 205.511719 C 120.847656 206 121.378906 206.4375 121.957031 206.820312 C 122.53125 207.207031 123.136719 207.53125 123.773438 207.792969 C 124.410156 208.058594 125.070312 208.257812 125.746094 208.394531 C 126.425781 208.527344 127.109375 208.597656 127.800781 208.597656 L 131.359375 208.597656 L 131.445312 264.617188 L 127.9375 264.617188 C 127.246094 264.617188 126.5625 264.683594 125.882812 264.820312 C 125.207031 264.953125 124.550781 265.152344 123.910156 265.417969 C 123.273438 265.683594 122.667969 266.007812 122.09375 266.390625 C 121.519531 266.777344 120.988281 267.210938 120.496094 267.703125 C 120.007812 268.191406 119.574219 268.722656 119.191406 269.296875 C 118.804688 269.871094 118.480469 270.476562 118.21875 271.117188 C 117.953125 271.753906 117.753906 272.414062 117.617188 273.09375 C 117.484375 273.769531 117.417969 274.453125 117.417969 275.144531 L 117.277344 324.175781 C 117.277344 324.867188 117.34375 325.554688 117.476562 326.234375 C 117.609375 326.910156 117.808594 327.570312 118.074219 328.210938 C 118.335938 328.851562 118.660156 329.460938 119.042969 330.039062 C 119.425781 330.613281 119.863281 331.148438 120.351562 331.636719 C 120.839844 332.128906 121.371094 332.566406 121.945312 332.949219 C 122.523438 333.335938 123.128906 333.660156 123.765625 333.925781 C 124.40625 334.191406 125.066406 334.394531 125.742188 334.527344 C 126.421875 334.664062 127.109375 334.730469 127.800781 334.730469 L 247.03125 334.730469 C 247.722656 334.730469 248.40625 334.664062 249.082031 334.527344 C 249.761719 334.394531 250.417969 334.195312 251.058594 333.929688 C 251.695312 333.664062 252.300781 333.339844 252.875 332.957031 C 253.449219 332.574219 253.980469 332.136719 254.46875 331.648438 C 254.957031 331.15625 255.394531 330.625 255.777344 330.050781 C 256.164062 329.476562 256.484375 328.871094 256.75 328.230469 C 257.015625 327.59375 257.214844 326.933594 257.347656 326.257812 C 257.484375 325.578125 257.550781 324.894531 257.550781 324.203125 L 257.550781 275.558594 C 257.550781 274.867188 257.484375 274.179688 257.347656 273.503906 C 257.214844 272.824219 257.015625 272.167969 256.75 271.527344 C 256.484375 270.890625 256.164062 270.28125 255.777344 269.707031 C 255.394531 269.132812 254.957031 268.601562 254.46875 268.113281 C 253.980469 267.625 253.449219 267.1875 252.875 266.804688 C 252.300781 266.417969 251.695312 266.09375 251.058594 265.828125 C 250.417969 265.566406 249.761719 265.367188 249.082031 265.230469 C 248.40625 265.097656 247.722656 265.027344 247.03125 265.027344 L 243.414062 265.027344 L 243.523438 148.738281 C 243.527344 148.042969 243.460938 147.359375 243.328125 146.679688 C 243.191406 146 242.996094 145.339844 242.730469 144.699219 C 242.46875 144.058594 242.144531 143.449219 241.761719 142.875 C 241.378906 142.296875 240.941406 141.765625 240.453125 141.273438 C 239.964844 140.785156 239.433594 140.347656 238.855469 139.960938 C 238.28125 139.574219 237.675781 139.25 237.035156 138.984375 C 236.398438 138.71875 235.738281 138.519531 235.058594 138.382812 C 234.382812 138.25 233.695312 138.179688 233.003906 138.179688 Z M 138.320312 159.238281 L 222.484375 159.238281 L 222.375 275.558594 C 222.371094 276.25 222.4375 276.9375 222.574219 277.617188 C 222.707031 278.300781 222.90625 278.960938 223.167969 279.601562 C 223.433594 280.242188 223.757812 280.851562 224.144531 281.429688 C 224.527344 282.007812 224.964844 282.539062 225.457031 283.03125 C 225.945312 283.519531 226.480469 283.957031 227.054688 284.34375 C 227.632812 284.730469 228.242188 285.054688 228.882812 285.316406 C 229.523438 285.582031 230.183594 285.78125 230.863281 285.917969 C 231.542969 286.050781 232.230469 286.117188 232.921875 286.113281 L 236.511719 286.113281 L 236.511719 313.671875 L 138.347656 313.671875 L 138.429688 285.703125 L 141.9375 285.703125 C 142.628906 285.703125 143.3125 285.640625 143.992188 285.503906 C 144.671875 285.371094 145.332031 285.171875 145.972656 284.910156 C 146.609375 284.644531 147.21875 284.320312 147.792969 283.9375 C 148.371094 283.554688 148.902344 283.117188 149.394531 282.628906 C 149.882812 282.140625 150.320312 281.605469 150.707031 281.03125 C 151.089844 280.457031 151.414062 279.847656 151.679688 279.210938 C 151.945312 278.570312 152.144531 277.910156 152.28125 277.230469 C 152.417969 276.550781 152.484375 275.867188 152.484375 275.171875 L 152.375 198.039062 C 152.371094 197.347656 152.304688 196.664062 152.167969 195.988281 C 152.03125 195.3125 151.832031 194.65625 151.566406 194.019531 C 151.300781 193.382812 150.976562 192.777344 150.59375 192.203125 C 150.207031 191.628906 149.773438 191.097656 149.285156 190.613281 C 148.796875 190.125 148.265625 189.691406 147.691406 189.308594 C 147.117188 188.921875 146.511719 188.601562 145.875 188.335938 C 145.238281 188.074219 144.578125 187.875 143.902344 187.738281 C 143.226562 187.605469 142.542969 187.539062 141.855469 187.539062 L 138.320312 187.539062 Z M 138.320312 159.238281 " fill-opacity="1" fill-rule="nonzero"/></g></svg>