<svg xmlns="http://www.w3.org/2000/svg" xmlns:xlink="http://www.w3.org/1999/xlink" width="500" zoomAndPan="magnify" viewBox="0 0 375 374.999991" height="500" preserveAspectRatio="xMidYMid meet" version="1.0"><defs><clipPath id="ef74313dcb"><path d="M 187.5 0 C 83.945312 0 0 83.945312 0 187.5 C 0 291.054688 83.945312 375 187.5 375 C 291.054688 375 375 291.054688 375 187.5 C 375 83.945312 291.054688 0 187.5 0 Z M 187.5 0 " clip-rule="nonzero"/></clipPath><clipPath id="952c2d4cc5"><path d="M 64.171875 65.714844 L 310.921875 65.714844 L 310.921875 309.464844 L 64.171875 309.464844 Z M 64.171875 65.714844 " clip-rule="nonzero"/></clipPath><clipPath id="05abb7e114"><path d="M 64.171875 65.714844 L 179 65.714844 L 179 180 L 64.171875 180 Z M 64.171875 65.714844 " clip-rule="nonzero"/></clipPath><clipPath id="3b7531077c"><path d="M 197 195 L 310.921875 195 L 310.921875 309 L 197 309 Z M 197 195 " clip-rule="nonzero"/></clipPath></defs><g clip-path="url(#ef74313dcb)"><path stroke-linecap="butt" transform="matrix(0.75, 0, 0, 0.75, 0.0000045, 0)" fill="none" stroke-linejoin="miter" d="M 249.999994 0 C 111.927078 0 -0.000006 111.927084 -0.000006 250 C -0.000006 388.072917 111.927078 500.000001 249.999994 500.000001 C 388.072911 500.000001 499.999995 388.072917 499.999995 250 C 499.999995 111.927084 388.072911 0 249.999994 0 Z M 249.999994 0 " stroke="#000000" stroke-width="60" stroke-opacity="1" stroke-miterlimit="4"/></g><g clip-path="url(#952c2d4cc5)"><path fill="#000000" d="M 153.132812 152.617188 C 153.1875 152.566406 153.246094 152.511719 153.304688 152.453125 C 186.949219 118.878906 205.71875 100.453125 231.4375 74.726562 C 234.988281 71.179688 239.675781 68.675781 245.496094 67.21875 C 256.160156 64.539062 265.890625 65.699219 274.695312 70.695312 C 277.972656 72.558594 281.375 75.332031 284.910156 79.019531 C 286.214844 80.378906 291.777344 85.914062 301.589844 95.617188 C 305.152344 99.140625 308.722656 106.605469 309.8125 111.5 C 311.886719 120.882812 310.734375 129.488281 306.351562 137.320312 C 305.019531 139.691406 302.503906 142.691406 298.796875 146.308594 C 285.753906 159.066406 263.351562 181.253906 231.582031 212.875 C 228.359375 216.082031 225.132812 219.261719 221.90625 222.425781 C 221.851562 222.480469 221.792969 222.535156 221.730469 222.589844 C 188.085938 256.160156 169.316406 274.589844 143.601562 300.316406 C 140.050781 303.863281 135.363281 306.363281 129.539062 307.824219 C 118.875 310.503906 109.144531 309.34375 100.34375 304.34375 C 97.066406 302.484375 93.660156 299.707031 90.125 296.023438 C 88.820312 294.660156 83.261719 289.128906 73.445312 279.425781 C 69.886719 275.898438 66.3125 268.4375 65.226562 263.539062 C 63.148438 254.160156 64.304688 245.554688 68.6875 237.722656 C 70.015625 235.347656 72.535156 232.351562 76.238281 228.734375 C 89.28125 215.976562 111.6875 193.789062 143.457031 162.164062 C 146.675781 158.960938 149.902344 155.777344 153.132812 152.617188 Z M 255.640625 98.199219 C 255.640625 95.625 253.554688 93.539062 250.980469 93.539062 C 248.40625 93.539062 246.320312 95.625 246.320312 98.199219 C 246.320312 100.773438 248.40625 102.859375 250.980469 102.859375 C 253.554688 102.859375 255.640625 100.773438 255.640625 98.199219 Z M 237.664062 106.375 C 236.203125 107.882812 236.425781 110.464844 238.15625 112.144531 C 239.890625 113.820312 242.476562 113.960938 243.9375 112.453125 C 245.398438 110.945312 245.175781 108.363281 243.445312 106.6875 C 241.714844 105.007812 239.125 104.867188 237.664062 106.375 Z M 268.640625 111.21875 C 268.640625 108.71875 266.617188 106.695312 264.121094 106.695312 C 261.621094 106.695312 259.597656 108.71875 259.597656 111.21875 C 259.597656 113.714844 261.621094 115.742188 264.121094 115.742188 C 266.617188 115.742188 268.640625 113.714844 268.640625 111.21875 Z M 226.109375 118.285156 C 225.105469 120.511719 226.195312 123.175781 228.542969 124.238281 C 230.894531 125.300781 233.613281 124.355469 234.621094 122.128906 C 235.625 119.902344 234.535156 117.238281 232.183594 116.179688 C 229.832031 115.117188 227.113281 116.0625 226.109375 118.285156 Z M 249.761719 120.09375 C 248.617188 122.027344 249.378906 124.589844 251.457031 125.820312 C 253.539062 127.050781 256.152344 126.484375 257.292969 124.550781 C 258.4375 122.617188 257.675781 120.054688 255.597656 118.824219 C 253.515625 117.59375 250.902344 118.164062 249.761719 120.09375 Z M 272.898438 124.804688 C 272.851562 127.246094 274.902344 129.265625 277.472656 129.316406 C 280.046875 129.367188 282.171875 127.425781 282.21875 124.984375 C 282.265625 122.542969 280.21875 120.523438 277.644531 120.472656 C 275.070312 120.425781 272.945312 122.363281 272.898438 124.804688 Z M 248.015625 133.34375 C 248.015625 130.894531 246.027344 128.90625 243.574219 128.90625 C 241.121094 128.90625 239.136719 130.894531 239.136719 133.34375 C 239.136719 135.796875 241.121094 137.785156 243.574219 137.785156 C 246.027344 137.785156 248.015625 135.796875 248.015625 133.34375 Z M 164.585938 166.046875 C 156.652344 173.828125 145.296875 185.222656 130.519531 200.222656 C 130.226562 200.519531 129.976562 200.855469 129.777344 201.222656 C 127.496094 205.324219 127.085938 209.40625 128.550781 213.472656 C 129.199219 215.273438 130.886719 217.511719 133.621094 220.191406 C 145.464844 231.800781 152.183594 238.429688 153.78125 240.074219 C 159.339844 245.808594 165.410156 248.351562 172.945312 245.496094 C 174.878906 244.761719 177.179688 243.003906 179.847656 240.222656 C 186.042969 233.742188 195.757812 223.890625 208.832031 211.0625 C 216.765625 203.289062 228.117188 191.894531 242.886719 176.886719 C 243.183594 176.59375 243.4375 176.261719 243.640625 175.898438 C 245.921875 171.796875 246.332031 167.714844 244.867188 163.648438 C 244.21875 161.847656 242.527344 159.609375 239.792969 156.929688 C 227.953125 145.320312 221.234375 138.691406 219.632812 137.042969 C 214.078125 131.3125 208.007812 128.769531 200.472656 131.625 C 198.539062 132.355469 196.238281 134.113281 193.570312 136.898438 C 187.371094 143.378906 177.660156 153.230469 164.585938 166.046875 Z M 263.070312 133.296875 C 261.941406 135.207031 262.761719 137.78125 264.902344 139.046875 C 267.042969 140.3125 269.695312 139.792969 270.824219 137.882812 C 271.957031 135.972656 271.136719 133.394531 268.992188 132.128906 C 266.851562 130.863281 264.199219 131.386719 263.070312 133.296875 Z M 252.644531 143.96875 C 251.304688 146.070312 252 148.910156 254.195312 150.308594 C 256.390625 151.707031 259.257812 151.136719 260.597656 149.035156 C 261.9375 146.933594 261.242188 144.09375 259.046875 142.695312 C 256.851562 141.296875 253.984375 141.867188 252.644531 143.96875 Z M 113.511719 228.566406 C 112.011719 230.558594 112.472656 233.445312 114.550781 235.007812 C 116.625 236.574219 119.527344 236.222656 121.03125 234.226562 C 122.53125 232.234375 122.070312 229.347656 119.992188 227.785156 C 117.917969 226.21875 115.015625 226.570312 113.511719 228.566406 Z M 102.699219 239.960938 C 101.332031 241.8125 101.867188 244.523438 103.894531 246.019531 C 105.921875 247.515625 108.671875 247.222656 110.039062 245.371094 C 111.402344 243.519531 110.867188 240.808594 108.839844 239.3125 C 106.8125 237.820312 104.0625 238.109375 102.699219 239.960938 Z M 134.675781 244.652344 C 134.675781 242.214844 132.699219 240.242188 130.261719 240.242188 C 127.824219 240.242188 125.851562 242.214844 125.851562 244.652344 C 125.851562 247.089844 127.824219 249.066406 130.261719 249.066406 C 132.699219 249.066406 134.675781 247.089844 134.675781 244.652344 Z M 91.308594 252.074219 C 90.652344 254.414062 92.148438 256.886719 94.65625 257.589844 C 97.164062 258.292969 99.730469 256.96875 100.386719 254.625 C 101.046875 252.285156 99.546875 249.816406 97.039062 249.109375 C 94.535156 248.40625 91.96875 249.734375 91.308594 252.074219 Z M 115.960938 253.417969 C 114.757812 255.304688 115.390625 257.859375 117.371094 259.125 C 119.355469 260.386719 121.9375 259.878906 123.140625 257.992188 C 124.34375 256.101562 123.714844 253.546875 121.730469 252.28125 C 119.746094 251.019531 117.164062 251.527344 115.960938 253.417969 Z M 147.792969 258.46875 C 147.792969 256.003906 145.796875 254.007812 143.335938 254.007812 C 140.875 254.007812 138.878906 256.003906 138.878906 258.46875 C 138.878906 260.929688 140.875 262.925781 143.335938 262.925781 C 145.796875 262.925781 147.792969 260.929688 147.792969 258.46875 Z M 113.320312 266.707031 C 113.457031 264.5625 111.828125 262.714844 109.683594 262.578125 L 108.75 262.519531 C 106.605469 262.386719 104.757812 264.015625 104.625 266.160156 L 104.578125 266.890625 C 104.441406 269.035156 106.070312 270.882812 108.214844 271.019531 L 109.148438 271.078125 C 111.292969 271.210938 113.140625 269.582031 113.277344 267.4375 Z M 129.320312 266.257812 C 127.898438 267.847656 128.199219 270.4375 129.996094 272.042969 C 131.789062 273.644531 134.394531 273.65625 135.816406 272.066406 C 135.816406 272.066406 135.816406 272.066406 135.820312 272.066406 C 137.242188 270.476562 136.9375 267.886719 135.144531 266.28125 C 133.351562 264.675781 130.742188 264.664062 129.320312 266.257812 Z M 117.898438 277.796875 C 116.761719 279.910156 117.664062 282.609375 119.914062 283.820312 C 122.167969 285.035156 124.917969 284.300781 126.054688 282.1875 C 127.195312 280.074219 126.292969 277.375 124.039062 276.164062 C 121.785156 274.949219 119.039062 275.679688 117.898438 277.796875 Z M 117.898438 277.796875 " fill-opacity="1" fill-rule="nonzero"/></g><g clip-path="url(#05abb7e114)"><path fill="#000000" d="M 178.472656 110.769531 C 178.75 111.035156 178.753906 111.476562 178.488281 111.753906 C 178.484375 111.753906 178.484375 111.757812 178.484375 111.757812 C 170.925781 119.320312 158.128906 132.125 140.085938 150.171875 C 135.839844 154.421875 132.476562 157.722656 130.007812 160.078125 C 122.636719 167.101562 117.867188 172.601562 110.6875 178.828125 C 110.4375 179.046875 110.074219 179.074219 109.792969 178.902344 C 108.710938 178.253906 107.792969 177.550781 107.035156 176.796875 C 97.53125 167.238281 87.8125 157.558594 77.878906 147.753906 C 73.050781 142.996094 69.867188 139.191406 68.328125 136.339844 C 62.46875 125.453125 62.953125 112.582031 68.804688 101.667969 C 70.355469 98.78125 73.246094 95.214844 77.472656 90.964844 C 86.757812 81.652344 92.113281 76.320312 93.542969 74.964844 C 97.8125 70.90625 103.042969 68.191406 109.234375 66.824219 C 119.175781 64.613281 128.234375 65.867188 136.414062 70.578125 C 139.113281 72.132812 142.929688 75.441406 147.867188 80.492188 C 158.964844 91.84375 167.816406 100.332031 178.472656 110.769531 Z M 126.457031 96.050781 C 125.140625 93.960938 122.28125 93.394531 120.066406 94.785156 C 117.855469 96.179688 117.128906 99.003906 118.449219 101.097656 C 119.765625 103.1875 122.628906 103.753906 124.839844 102.363281 C 127.050781 100.96875 127.777344 98.144531 126.457031 96.050781 Z M 137.871094 107.429688 C 136.527344 105.390625 133.679688 104.894531 131.507812 106.328125 C 129.339844 107.757812 128.671875 110.570312 130.015625 112.609375 C 131.359375 114.648438 134.207031 115.140625 136.378906 113.710938 C 138.546875 112.28125 139.214844 109.46875 137.871094 107.429688 Z M 112.320312 110.503906 C 111.121094 108.429688 108.402344 107.753906 106.25 108.996094 C 104.09375 110.242188 103.320312 112.933594 104.519531 115.007812 C 105.714844 117.082031 108.433594 117.757812 110.589844 116.515625 C 112.742188 115.269531 113.519531 112.578125 112.320312 110.503906 Z M 149.648438 119.863281 C 148.710938 117.609375 146.011719 116.585938 143.625 117.582031 C 141.234375 118.578125 140.058594 121.210938 140.996094 123.464844 C 141.933594 125.71875 144.632812 126.742188 147.023438 125.746094 C 149.410156 124.75 150.589844 122.117188 149.648438 119.863281 Z M 124.78125 122.355469 C 124.089844 120.089844 121.578125 118.847656 119.175781 119.582031 C 116.773438 120.316406 115.386719 122.75 116.078125 125.015625 C 116.773438 127.285156 119.28125 128.527344 121.683594 127.792969 C 124.089844 127.058594 125.476562 124.625 124.78125 122.355469 Z M 100.160156 123.570312 C 98.972656 121.429688 96.179688 120.710938 93.921875 121.960938 C 91.660156 123.214844 90.789062 125.964844 91.976562 128.105469 C 93.164062 130.246094 95.957031 130.964844 98.214844 129.714844 C 100.476562 128.460938 101.347656 125.710938 100.160156 123.570312 Z M 136.296875 132.890625 C 135.160156 130.753906 132.382812 130.011719 130.09375 131.230469 C 127.804688 132.449219 126.867188 135.164062 128 137.300781 C 129.136719 139.433594 131.914062 140.175781 134.203125 138.957031 C 136.492188 137.742188 137.429688 135.023438 136.296875 132.890625 Z M 111.976562 135.109375 C 110.785156 133.011719 107.957031 132.371094 105.65625 133.675781 C 103.359375 134.984375 102.460938 137.742188 103.652344 139.839844 C 104.84375 141.9375 107.671875 142.578125 109.972656 141.273438 C 112.269531 139.964844 113.167969 137.207031 111.976562 135.109375 Z M 123.332031 145.933594 C 122.070312 143.835938 119.179688 143.257812 116.875 144.644531 C 114.570312 146.03125 113.722656 148.851562 114.984375 150.949219 C 116.242188 153.046875 119.132812 153.625 121.441406 152.242188 C 123.746094 150.855469 124.59375 148.03125 123.332031 145.933594 Z M 123.332031 145.933594 " fill-opacity="1" fill-rule="nonzero"/></g><g clip-path="url(#3b7531077c)"><path fill="#000000" d="M 265.007812 195.617188 C 265.261719 195.363281 265.671875 195.359375 265.933594 195.609375 L 299.953125 229.511719 C 314.277344 243.789062 314.308594 266.984375 300.027344 281.320312 L 283.199219 298.210938 C 268.910156 312.546875 245.714844 312.59375 231.382812 298.3125 C 231.382812 298.3125 231.382812 298.3125 231.378906 298.3125 L 197.371094 264.417969 C 197.113281 264.160156 197.109375 263.746094 197.367188 263.488281 C 197.367188 263.484375 197.367188 263.484375 197.371094 263.484375 Z M 260.257812 226.925781 C 259.304688 224.652344 256.582031 223.621094 254.175781 224.628906 C 251.765625 225.636719 250.585938 228.296875 251.539062 230.574219 C 252.492188 232.851562 255.214844 233.878906 257.621094 232.871094 C 260.027344 231.867188 261.207031 229.203125 260.257812 226.925781 Z M 271.855469 238.730469 C 271.070312 236.414062 268.4375 235.210938 265.976562 236.042969 C 263.515625 236.875 262.15625 239.429688 262.9375 241.75 C 263.722656 244.066406 266.355469 245.269531 268.816406 244.4375 C 271.277344 243.605469 272.640625 241.050781 271.855469 238.730469 Z M 246.160156 239.519531 C 244.652344 237.578125 241.800781 237.269531 239.785156 238.832031 C 237.773438 240.390625 237.359375 243.230469 238.867188 245.175781 C 240.375 247.117188 243.226562 247.421875 245.242188 245.863281 C 247.253906 244.300781 247.664062 241.460938 246.160156 239.519531 Z M 284.179688 251.949219 C 284.179688 249.421875 282.128906 247.371094 279.601562 247.371094 C 277.074219 247.371094 275.023438 249.421875 275.023438 251.949219 C 275.023438 254.476562 277.074219 256.527344 279.601562 256.527344 C 282.128906 256.527344 284.179688 254.476562 284.179688 251.949219 Z M 258.476562 252.503906 C 257.910156 250.222656 255.492188 248.855469 253.070312 249.457031 C 250.652344 250.054688 249.148438 252.390625 249.714844 254.671875 C 250.277344 256.953125 252.699219 258.320312 255.117188 257.722656 C 257.535156 257.121094 259.039062 254.785156 258.476562 252.503906 Z M 233.519531 254.023438 C 232.429688 251.792969 229.621094 250.925781 227.25 252.085938 C 224.882812 253.25 223.84375 255.996094 224.9375 258.226562 C 226.03125 260.457031 228.835938 261.324219 231.207031 260.160156 C 233.578125 259 234.613281 256.25 233.519531 254.023438 Z M 271.03125 264.960938 C 271.03125 262.5625 269.089844 260.621094 266.691406 260.621094 C 264.296875 260.621094 262.351562 262.5625 262.351562 264.960938 C 262.351562 267.355469 264.296875 269.296875 266.691406 269.296875 C 269.089844 269.296875 271.03125 267.355469 271.03125 264.960938 Z M 244.9375 264.910156 C 243.75 262.839844 240.925781 262.226562 238.625 263.542969 C 236.328125 264.859375 235.425781 267.605469 236.609375 269.679688 C 237.796875 271.75 240.621094 272.359375 242.921875 271.042969 C 245.21875 269.726562 246.121094 266.980469 244.9375 264.910156 Z M 256.632812 276.753906 C 255.726562 274.464844 253.007812 273.394531 250.558594 274.363281 C 248.109375 275.332031 246.859375 277.976562 247.765625 280.265625 C 248.671875 282.554688 251.390625 283.625 253.839844 282.652344 C 256.289062 281.683594 257.539062 279.042969 256.632812 276.753906 Z M 256.632812 276.753906 " fill-opacity="1" fill-rule="nonzero"/></g></svg>