<svg xmlns="http://www.w3.org/2000/svg" xmlns:xlink="http://www.w3.org/1999/xlink" width="500" zoomAndPan="magnify" viewBox="0 0 375 374.999991" height="500" preserveAspectRatio="xMidYMid meet" version="1.0"><defs><clipPath id="415331d046"><path d="M 11.65625 17.589844 L 363.40625 17.589844 L 363.40625 357.339844 L 11.65625 357.339844 Z M 11.65625 17.589844 " clip-rule="nonzero"/></clipPath></defs><path fill="#000000" d="M 95.527344 52.679688 C 93.117188 52.679688 91.160156 54.636719 91.160156 57.046875 C 91.160156 59.457031 93.117188 61.410156 95.527344 61.410156 L 185.644531 61.410156 C 188.058594 61.410156 190.011719 59.457031 190.011719 57.046875 C 190.011719 54.636719 188.058594 52.679688 185.644531 52.679688 Z M 95.527344 52.679688 " fill-opacity="1" fill-rule="nonzero"/><path fill="#000000" d="M 44.636719 246.339844 C 42.222656 246.339844 40.269531 248.292969 40.269531 250.703125 L 40.269531 281.425781 C 40.269531 287.695312 45.371094 292.796875 51.644531 292.796875 L 155.582031 292.796875 C 161.855469 292.796875 166.957031 287.695312 166.957031 281.425781 L 166.957031 232.300781 C 166.957031 226.03125 161.855469 220.929688 155.582031 220.929688 L 51.644531 220.929688 C 45.371094 220.929688 40.269531 226.03125 40.269531 232.300781 C 40.269531 234.714844 42.222656 236.667969 44.636719 236.667969 C 47.046875 236.667969 49.003906 234.714844 49.003906 232.300781 C 49.003906 230.847656 50.1875 229.660156 51.644531 229.660156 L 155.582031 229.660156 C 157.039062 229.660156 158.222656 230.847656 158.222656 232.300781 L 158.222656 281.425781 C 158.222656 282.882812 157.039062 284.066406 155.582031 284.066406 L 51.644531 284.066406 C 50.1875 284.066406 49.003906 282.882812 49.003906 281.425781 L 49.003906 250.703125 C 49.003906 248.292969 47.046875 246.339844 44.636719 246.339844 Z M 44.636719 246.339844 " fill-opacity="1" fill-rule="nonzero"/><g clip-path="url(#415331d046)"><path fill="#000000" d="M 362.160156 331.976562 L 322.664062 263.585938 C 321.480469 261.535156 319.566406 260.070312 317.28125 259.457031 C 314.996094 258.847656 312.605469 259.160156 310.554688 260.34375 L 303.984375 264.136719 L 298.953125 255.421875 C 334.988281 231.996094 346.808594 184.039062 325.066406 146.394531 C 302.59375 107.484375 252.640625 94.105469 213.714844 116.570312 C 212.234375 117.425781 210.792969 118.324219 209.386719 119.257812 L 161.015625 119.257812 C 158.226562 119.257812 155.59375 118.035156 153.792969 115.910156 L 131.214844 89.238281 C 127.75 85.144531 122.6875 82.796875 117.324219 82.796875 L 56.558594 82.796875 L 56.558594 28.660156 C 56.558594 27.4375 57.554688 26.445312 58.777344 26.445312 L 205.550781 26.445312 L 205.550781 60.519531 C 205.550781 68.394531 211.960938 74.800781 219.839844 74.800781 L 252.640625 74.800781 L 252.640625 96.125 C 252.640625 98.535156 254.597656 100.488281 257.007812 100.488281 C 259.417969 100.488281 261.375 98.535156 261.375 96.125 L 261.375 65.832031 C 261.375 64.671875 260.914062 63.5625 260.09375 62.742188 L 216.328125 18.992188 C 215.507812 18.175781 214.398438 17.714844 213.242188 17.714844 L 58.777344 17.714844 C 52.738281 17.714844 47.828125 22.625 47.828125 28.660156 L 47.828125 82.796875 L 22.589844 82.796875 C 16.550781 82.796875 11.636719 87.707031 11.636719 93.746094 L 11.636719 307.699219 C 11.636719 313.734375 16.550781 318.648438 22.589844 318.648438 L 280.765625 318.648438 C 283.175781 318.648438 285.132812 316.691406 285.132812 314.28125 C 285.132812 311.871094 283.175781 309.917969 280.765625 309.917969 L 22.589844 309.917969 C 21.367188 309.917969 20.371094 308.921875 20.371094 307.699219 L 20.371094 93.746094 C 20.371094 92.523438 21.367188 91.527344 22.589844 91.527344 L 117.324219 91.527344 C 120.113281 91.527344 122.746094 92.75 124.546875 94.875 L 147.125 121.546875 C 150.589844 125.640625 155.652344 127.988281 161.015625 127.988281 L 198.402344 127.988281 C 171.660156 153.316406 164.667969 194.625 183.878906 227.882812 C 198.960938 253.996094 226.414062 268.609375 254.609375 268.609375 C 267.058594 268.609375 279.648438 265.746094 291.386719 259.78125 L 296.421875 268.5 L 289.851562 272.292969 C 287.800781 273.476562 286.335938 275.386719 285.722656 277.671875 C 285.109375 279.957031 285.425781 282.34375 286.609375 284.394531 L 326.105469 352.785156 C 327.292969 354.835938 329.203125 356.300781 331.488281 356.914062 C 332.253906 357.117188 333.027344 357.21875 333.796875 357.21875 C 335.332031 357.21875 336.847656 356.816406 338.214844 356.027344 L 358.917969 344.078125 C 360.96875 342.894531 362.433594 340.984375 363.046875 338.699219 C 363.660156 336.414062 363.34375 334.027344 362.160156 331.976562 Z M 251.074219 66.070312 L 219.839844 66.070312 C 216.773438 66.070312 214.28125 63.582031 214.28125 60.519531 L 214.28125 29.292969 Z M 191.441406 223.515625 C 171.375 188.773438 183.324219 144.191406 218.082031 124.132812 C 229.515625 117.53125 242.007812 114.398438 254.351562 114.398438 C 279.523438 114.398438 304.039062 127.449219 317.503906 150.761719 C 327.222656 167.589844 329.804688 187.199219 324.773438 205.96875 C 319.742188 224.742188 307.699219 240.429688 290.863281 250.144531 C 256.109375 270.207031 211.507812 258.257812 191.441406 223.515625 Z M 354.550781 336.515625 L 333.847656 348.464844 C 333.792969 348.496094 333.699219 348.472656 333.671875 348.417969 L 294.171875 280.03125 C 294.140625 279.976562 294.167969 279.882812 294.21875 279.855469 L 314.921875 267.90625 C 314.9375 267.894531 314.957031 267.890625 314.976562 267.890625 C 315.023438 267.890625 315.078125 267.914062 315.097656 267.953125 L 354.597656 336.339844 C 354.628906 336.394531 354.601562 336.488281 354.550781 336.515625 Z M 354.550781 336.515625 " fill-opacity="1" fill-rule="nonzero"/></g><path fill="#000000" d="M 311.164062 187.179688 C 311.164062 155.953125 285.75 130.550781 254.511719 130.550781 C 223.277344 130.550781 197.863281 155.953125 197.863281 187.179688 C 197.863281 218.40625 223.273438 243.808594 254.511719 243.808594 C 285.75 243.808594 311.164062 218.40625 311.164062 187.179688 Z M 254.511719 235.078125 C 228.089844 235.078125 206.59375 213.589844 206.59375 187.179688 C 206.59375 160.765625 228.089844 139.28125 254.511719 139.28125 C 280.933594 139.28125 302.429688 160.765625 302.429688 187.179688 C 302.429688 213.589844 280.933594 235.078125 254.511719 235.078125 Z M 254.511719 235.078125 " fill-opacity="1" fill-rule="nonzero"/></svg>