<svg width="24" height="24" viewBox="0 0 24 24" fill="none" xmlns="http://www.w3.org/2000/svg">
  <path d="M12 2C8.13401 2 5 5.13401 5 9C5 11.5147 6.32574 13.7175 8.31545 14.9469C8.78232 15.2354 9 15.7497 9 16.2985V17C9 17.5523 9.44772 18 10 18H14C14.5523 18 15 17.5523 15 17V16.2985C15 15.7497 15.2177 15.2354 15.6845 14.9469C17.6743 13.7175 19 11.5147 19 9C19 5.13401 15.866 2 12 2Z" fill="currentColor"/>
  <path d="M9.5 20C9.22386 20 9 20.2239 9 20.5C9 21.8807 10.1193 23 11.5 23H12.5C13.8807 23 15 21.8807 15 20.5C15 20.2239 14.7761 20 14.5 20H9.5Z" fill="currentColor"/>
  <path d="M10 18H14V19H10V18Z" fill="currentColor"/>
</svg>
