<svg xmlns="http://www.w3.org/2000/svg" xmlns:xlink="http://www.w3.org/1999/xlink" width="500" zoomAndPan="magnify" viewBox="0 0 375 374.999991" height="500" preserveAspectRatio="xMidYMid meet" version="1.0"><path fill="#000000" d="M 375.007812 187.488281 C 375.007812 190.558594 374.929688 193.625 374.78125 196.6875 C 374.628906 199.753906 374.40625 202.8125 374.105469 205.867188 C 373.800781 208.921875 373.425781 211.964844 372.976562 215 C 372.527344 218.039062 372.003906 221.058594 371.402344 224.070312 C 370.804688 227.078125 370.132812 230.074219 369.386719 233.050781 C 368.640625 236.027344 367.824219 238.984375 366.933594 241.921875 C 366.042969 244.855469 365.078125 247.769531 364.046875 250.660156 C 363.011719 253.546875 361.90625 256.410156 360.734375 259.246094 C 359.558594 262.082031 358.316406 264.886719 357.003906 267.660156 C 355.691406 270.433594 354.3125 273.175781 352.867188 275.878906 C 351.417969 278.585938 349.90625 281.257812 348.328125 283.886719 C 346.75 286.519531 345.109375 289.113281 343.40625 291.664062 C 341.699219 294.214844 339.933594 296.722656 338.105469 299.1875 C 336.277344 301.652344 334.390625 304.074219 332.441406 306.445312 C 330.496094 308.816406 328.492188 311.140625 326.433594 313.414062 C 324.371094 315.6875 322.253906 317.910156 320.085938 320.078125 C 317.914062 322.25 315.695312 324.363281 313.417969 326.425781 C 311.144531 328.484375 308.824219 330.488281 306.449219 332.4375 C 304.078125 334.382812 301.660156 336.269531 299.195312 338.097656 C 296.730469 339.925781 294.222656 341.695312 291.671875 343.398438 C 289.117188 345.101562 286.527344 346.746094 283.894531 348.324219 C 281.261719 349.898438 278.59375 351.414062 275.886719 352.859375 C 273.179688 354.304688 270.441406 355.683594 267.667969 356.996094 C 264.890625 358.308594 262.085938 359.550781 259.253906 360.726562 C 256.417969 361.902344 253.554688 363.003906 250.664062 364.039062 C 247.777344 365.074219 244.863281 366.035156 241.925781 366.925781 C 238.988281 367.816406 236.03125 368.636719 233.054688 369.378906 C 230.078125 370.125 227.085938 370.796875 224.078125 371.398438 C 221.066406 371.996094 218.042969 372.519531 215.007812 372.96875 C 211.972656 373.421875 208.929688 373.796875 205.875 374.097656 C 202.820312 374.398438 199.761719 374.625 196.695312 374.773438 C 193.628906 374.925781 190.5625 375 187.496094 375 C 184.425781 375 181.359375 374.925781 178.292969 374.773438 C 175.230469 374.625 172.167969 374.398438 169.117188 374.097656 C 166.0625 373.796875 163.015625 373.421875 159.980469 372.96875 C 156.945312 372.519531 153.921875 371.996094 150.914062 371.398438 C 147.902344 370.796875 144.910156 370.125 141.933594 369.378906 C 138.957031 368.636719 136 367.816406 133.0625 366.925781 C 130.125 366.035156 127.214844 365.074219 124.324219 364.039062 C 121.433594 363.003906 118.570312 361.902344 115.738281 360.726562 C 112.902344 359.550781 110.097656 358.308594 107.324219 356.996094 C 104.550781 355.683594 101.808594 354.304688 99.101562 352.859375 C 96.394531 351.414062 93.726562 349.898438 91.09375 348.324219 C 88.460938 346.746094 85.871094 345.101562 83.320312 343.398438 C 80.765625 341.695312 78.257812 339.925781 75.792969 338.097656 C 73.328125 336.269531 70.910156 334.382812 68.539062 332.4375 C 66.167969 330.488281 63.84375 328.484375 61.570312 326.425781 C 59.296875 324.363281 57.074219 322.25 54.902344 320.078125 C 52.734375 317.910156 50.617188 315.6875 48.558594 313.414062 C 46.496094 311.140625 44.492188 308.816406 42.546875 306.445312 C 40.597656 304.074219 38.710938 301.652344 36.882812 299.1875 C 35.054688 296.722656 33.289062 294.214844 31.585938 291.664062 C 29.878906 289.113281 28.238281 286.519531 26.660156 283.886719 C 25.082031 281.257812 23.570312 278.585938 22.125 275.878906 C 20.675781 273.175781 19.296875 270.433594 17.984375 267.660156 C 16.675781 264.886719 15.429688 262.082031 14.257812 259.246094 C 13.082031 256.410156 11.976562 253.546875 10.945312 250.660156 C 9.910156 247.769531 8.949219 244.855469 8.058594 241.921875 C 7.167969 238.984375 6.347656 236.027344 5.601562 233.050781 C 4.855469 230.074219 4.183594 227.078125 3.585938 224.070312 C 2.988281 221.058594 2.460938 218.039062 2.011719 215 C 1.5625 211.964844 1.1875 208.921875 0.886719 205.867188 C 0.585938 202.8125 0.359375 199.753906 0.207031 196.6875 C 0.0585938 193.625 -0.015625 190.558594 -0.015625 187.488281 C -0.015625 184.417969 0.0585938 181.351562 0.207031 178.289062 C 0.359375 175.222656 0.585938 172.164062 0.886719 169.109375 C 1.1875 166.054688 1.5625 163.011719 2.011719 159.972656 C 2.460938 156.9375 2.988281 153.917969 3.585938 150.90625 C 4.183594 147.898438 4.855469 144.902344 5.601562 141.925781 C 6.347656 138.949219 7.167969 135.992188 8.058594 133.054688 C 8.949219 130.121094 9.910156 127.207031 10.945312 124.316406 C 11.976562 121.429688 13.082031 118.566406 14.257812 115.730469 C 15.429688 112.894531 16.675781 110.089844 17.984375 107.316406 C 19.296875 104.542969 20.675781 101.800781 22.125 99.097656 C 23.570312 96.390625 25.082031 93.71875 26.660156 91.085938 C 28.238281 88.457031 29.878906 85.863281 31.585938 83.3125 C 33.289062 80.761719 35.054688 78.253906 36.882812 75.789062 C 38.710938 73.324219 40.597656 70.902344 42.546875 68.53125 C 44.492188 66.160156 46.496094 63.835938 48.558594 61.5625 C 50.617188 59.289062 52.734375 57.066406 54.902344 54.898438 C 57.074219 52.726562 59.296875 50.613281 61.570312 48.550781 C 63.84375 46.488281 66.167969 44.488281 68.539062 42.539062 C 70.910156 40.59375 73.328125 38.707031 75.792969 36.878906 C 78.257812 35.050781 80.765625 33.28125 83.320312 31.578125 C 85.871094 29.871094 88.460938 28.230469 91.09375 26.652344 C 93.726562 25.078125 96.394531 23.5625 99.101562 22.117188 C 101.808594 20.671875 104.550781 19.292969 107.324219 17.980469 C 110.097656 16.667969 112.902344 15.425781 115.738281 14.25 C 118.570312 13.074219 121.433594 11.972656 124.324219 10.9375 C 127.214844 9.902344 130.125 8.941406 133.0625 8.050781 C 136 7.160156 138.957031 6.339844 141.933594 5.597656 C 144.910156 4.851562 147.902344 4.179688 150.914062 3.578125 C 153.921875 2.980469 156.945312 2.457031 159.980469 2.007812 C 163.015625 1.554688 166.0625 1.179688 169.117188 0.878906 C 172.167969 0.578125 175.230469 0.351562 178.292969 0.203125 C 181.359375 0.0507812 184.425781 -0.0234375 187.496094 -0.0234375 C 190.5625 -0.0234375 193.628906 0.0507812 196.695312 0.203125 C 199.761719 0.351562 202.820312 0.578125 205.875 0.878906 C 208.929688 1.179688 211.972656 1.554688 215.007812 2.007812 C 218.042969 2.457031 221.066406 2.980469 224.078125 3.578125 C 227.085938 4.179688 230.078125 4.851562 233.054688 5.597656 C 236.03125 6.339844 238.988281 7.160156 241.925781 8.050781 C 244.863281 8.941406 247.777344 9.902344 250.664062 10.9375 C 253.554688 11.972656 256.417969 13.074219 259.253906 14.25 C 262.085938 15.425781 264.890625 16.667969 267.667969 17.980469 C 270.441406 19.292969 273.179688 20.671875 275.886719 22.117188 C 278.59375 23.5625 281.261719 25.078125 283.894531 26.652344 C 286.527344 28.230469 289.117188 29.871094 291.671875 31.578125 C 294.222656 33.28125 296.730469 35.050781 299.195312 36.878906 C 301.660156 38.707031 304.078125 40.59375 306.449219 42.539062 C 308.824219 44.488281 311.144531 46.488281 313.417969 48.550781 C 315.695312 50.613281 317.914062 52.726562 320.085938 54.898438 C 322.253906 57.066406 324.371094 59.289062 326.433594 61.5625 C 328.492188 63.835938 330.496094 66.160156 332.441406 68.53125 C 334.390625 70.902344 336.277344 73.324219 338.105469 75.789062 C 339.933594 78.253906 341.699219 80.761719 343.40625 83.3125 C 345.109375 85.863281 346.75 88.457031 348.328125 91.085938 C 349.90625 93.71875 351.417969 96.390625 352.867188 99.097656 C 354.3125 101.800781 355.691406 104.542969 357.003906 107.316406 C 358.316406 110.089844 359.558594 112.894531 360.734375 115.730469 C 361.90625 118.566406 363.011719 121.429688 364.046875 124.316406 C 365.078125 127.207031 366.042969 130.121094 366.933594 133.054688 C 367.824219 135.992188 368.640625 138.949219 369.386719 141.925781 C 370.132812 144.902344 370.804688 147.898438 371.402344 150.90625 C 372.003906 153.917969 372.527344 156.9375 372.976562 159.972656 C 373.425781 163.011719 373.804688 166.054688 374.105469 169.109375 C 374.40625 172.164062 374.628906 175.222656 374.78125 178.289062 C 374.929688 181.351562 375.007812 184.417969 375.007812 187.488281 Z M 375.007812 187.488281 " fill-opacity="1" fill-rule="nonzero"/><path fill="#ffffff" d="M 219.390625 251.144531 C 229.742188 252.933594 238.230469 255.539062 243.761719 258.566406 C 251.148438 262.59375 254.28125 267.988281 254.28125 272.839844 C 254.28125 277.6875 251.148438 283.082031 243.761719 287.109375 C 233.214844 292.878906 212.003906 297.109375 187.511719 297.109375 C 163.019531 297.109375 141.78125 292.878906 131.234375 287.109375 C 123.871094 283.082031 120.714844 277.6875 120.714844 272.839844 C 120.714844 267.988281 123.871094 262.59375 131.234375 258.566406 C 136.789062 255.539062 145.253906 252.933594 155.605469 251.144531 C 159.273438 256.074219 162.824219 260.617188 166.078125 264.667969 C 156.558594 265.757812 148.363281 267.5625 142.34375 269.886719 C 140.363281 270.644531 138.257812 271.9375 136.886719 272.839844 C 138.257812 273.738281 140.363281 275.03125 142.34375 275.792969 C 152.523438 279.726562 168.964844 282.171875 187.511719 282.171875 C 206.03125 282.171875 222.472656 279.726562 232.675781 275.792969 C 234.632812 275.03125 236.761719 273.738281 238.109375 272.839844 C 236.761719 271.9375 234.632812 270.644531 232.675781 269.886719 C 226.660156 267.5625 218.4375 265.757812 208.917969 264.667969 C 212.199219 260.617188 215.746094 256.074219 219.390625 251.144531 Z M 192.011719 269.878906 C 190.863281 271.171875 189.222656 271.90625 187.511719 271.90625 C 185.773438 271.90625 184.132812 271.171875 183.007812 269.890625 C 171.851562 257.070312 151.421875 231.839844 136.863281 203.691406 C 127.371094 185.363281 120.347656 165.800781 120.347656 147.695312 C 120.347656 109.207031 150.394531 77.875 187.511719 77.875 C 224.628906 77.875 254.648438 109.207031 254.648438 147.695312 C 254.648438 165.800781 247.628906 185.363281 238.132812 203.691406 C 223.574219 231.839844 203.144531 257.070312 192.011719 269.878906 Z M 187.511719 111.300781 C 169.941406 111.300781 155.703125 125.546875 155.703125 143.097656 C 155.703125 160.644531 169.941406 174.890625 187.511719 174.890625 C 205.054688 174.890625 219.292969 160.644531 219.292969 143.097656 C 219.292969 125.546875 205.054688 111.300781 187.511719 111.300781 Z M 187.511719 111.300781 " fill-opacity="1" fill-rule="evenodd"/></svg>