<svg xmlns="http://www.w3.org/2000/svg" xmlns:xlink="http://www.w3.org/1999/xlink" width="500" zoomAndPan="magnify" viewBox="0 0 375 374.999991" height="500" preserveAspectRatio="xMidYMid meet" version="1.0"><defs><clipPath id="d481691635"><path d="M 187.5 0 C 83.945312 0 0 83.945312 0 187.5 C 0 291.054688 83.945312 375 187.5 375 C 291.054688 375 375 291.054688 375 187.5 C 375 83.945312 291.054688 0 187.5 0 Z M 187.5 0 " clip-rule="nonzero"/></clipPath><clipPath id="d24f15cf04"><path d="M 83 62.21875 L 293 62.21875 L 293 312.71875 L 83 312.71875 Z M 83 62.21875 " clip-rule="nonzero"/></clipPath></defs><g clip-path="url(#d481691635)"><path stroke-linecap="butt" transform="matrix(0.75, 0, 0, 0.75, 0.0000045, 0)" fill="none" stroke-linejoin="miter" d="M 249.999994 0 C 111.927078 0 -0.000006 111.927084 -0.000006 250 C -0.000006 388.072917 111.927078 500.000001 249.999994 500.000001 C 388.072911 500.000001 499.999995 388.072917 499.999995 250 C 499.999995 111.927084 388.072911 0 249.999994 0 Z M 249.999994 0 " stroke="#000000" stroke-width="60" stroke-opacity="1" stroke-miterlimit="4"/></g><g clip-path="url(#d24f15cf04)"><path fill="#000000" d="M 196.375 237.121094 L 196.375 175.390625 C 223.253906 171.363281 243.863281 147.207031 243.863281 119.027344 C 243.863281 87.714844 218.777344 62.21875 187.863281 62.21875 C 156.949219 62.21875 131.859375 87.714844 131.859375 119.027344 C 131.859375 147.207031 152.46875 170.917969 179.347656 175.390625 L 179.347656 237.121094 C 132.308594 238.460938 83.023438 250.539062 83.023438 274.695312 C 83.472656 300.640625 137.683594 312.71875 187.863281 312.71875 C 238.039062 312.71875 292.25 300.640625 292.25 274.695312 C 292.25 250.539062 243.417969 238.460938 196.375 237.121094 Z M 187.863281 296.167969 C 130.960938 296.167969 100.050781 280.957031 100.050781 275.144531 C 100.050781 270.667969 123.792969 255.460938 179.347656 254.117188 L 179.347656 272.011719 C 179.347656 276.484375 182.933594 280.511719 187.863281 280.511719 C 192.34375 280.511719 196.375 276.933594 196.375 272.011719 L 196.375 254.117188 C 251.929688 255.460938 275.675781 270.222656 275.675781 275.144531 C 275.675781 280.957031 244.761719 296.167969 187.863281 296.167969 Z M 187.863281 296.167969 " fill-opacity="1" fill-rule="nonzero"/></g></svg>