<svg xmlns="http://www.w3.org/2000/svg" xmlns:xlink="http://www.w3.org/1999/xlink" width="500" zoomAndPan="magnify" viewBox="0 0 375 374.999991" height="500" preserveAspectRatio="xMidYMid meet" version="1.0"><defs><clipPath id="2bfed64cbf"><path d="M 20.957031 20.957031 L 353.957031 20.957031 L 353.957031 353.957031 L 20.957031 353.957031 Z M 20.957031 20.957031 " clip-rule="nonzero"/></clipPath></defs><path fill="#000000" d="M 187.457031 103.273438 C 174.324219 103.273438 163.679688 113.917969 163.679688 127.050781 L 163.679688 147.660156 L 211.238281 147.660156 L 211.238281 127.050781 C 211.238281 113.917969 200.589844 103.273438 187.457031 103.273438 Z M 187.457031 103.273438 " fill-opacity="1" fill-rule="nonzero"/><path fill="#000000" d="M 187.105469 179.371094 C 174.394531 179.554688 163.960938 189.90625 163.683594 202.617188 C 163.484375 211.636719 168.320312 219.542969 175.566406 223.738281 L 175.566406 238.816406 C 175.566406 245.382812 180.890625 250.707031 187.457031 250.707031 C 194.023438 250.707031 199.347656 245.382812 199.347656 238.816406 L 199.347656 223.738281 C 206.453125 219.628906 211.238281 211.949219 211.238281 203.148438 C 211.238281 189.898438 200.402344 179.179688 187.105469 179.371094 Z M 187.105469 179.371094 " fill-opacity="1" fill-rule="nonzero"/><g clip-path="url(#2bfed64cbf)"><path fill="#000000" d="M 187.457031 20.957031 C 95.503906 20.957031 20.957031 95.503906 20.957031 187.457031 C 20.957031 279.414062 95.503906 353.957031 187.457031 353.957031 C 279.414062 353.957031 353.957031 279.414062 353.957031 187.457031 C 353.957031 95.503906 279.414062 20.957031 187.457031 20.957031 Z M 274.648438 258.636719 C 274.648438 271.769531 264.003906 282.414062 250.871094 282.414062 L 124.042969 282.414062 C 110.910156 282.414062 100.265625 271.769531 100.265625 258.636719 L 100.265625 171.441406 C 100.265625 158.308594 110.910156 147.664062 124.042969 147.664062 L 139.898438 147.664062 L 139.898438 127.050781 C 139.898438 100.785156 161.191406 79.492188 187.457031 79.492188 C 213.722656 79.492188 235.015625 100.785156 235.015625 127.050781 L 235.015625 147.664062 L 250.871094 147.664062 C 264.003906 147.664062 274.648438 158.308594 274.648438 171.441406 Z M 274.648438 258.636719 " fill-opacity="1" fill-rule="nonzero"/></g></svg>