<svg xmlns="http://www.w3.org/2000/svg" xmlns:xlink="http://www.w3.org/1999/xlink" width="500" zoomAndPan="magnify" viewBox="0 0 375 374.999991" height="500" preserveAspectRatio="xMidYMid meet" version="1.0"><defs><clipPath id="df55b19e20"><path d="M 0 42.613281 L 375 42.613281 L 375 332.113281 L 0 332.113281 Z M 0 42.613281 " clip-rule="nonzero"/></clipPath><clipPath id="40cf201ddd"><rect x="0" width="375" y="0" height="291"/></clipPath></defs><g clip-path="url(#df55b19e20)"><g transform="matrix(1, 0, 0, 1, 0, 42)"><g clip-path="url(#40cf201ddd)"><path fill="#000000" d="M 356.335938 128.410156 L 152.714844 128.410156 L 152.714844 162.316406 L 356.335938 162.316406 Z M 356.335938 128.410156 " fill-opacity="1" fill-rule="evenodd"/><path fill="#000000" d="M 308.945312 74.042969 L 368.335938 133.375 C 374.960938 139.996094 374.960938 150.730469 368.335938 157.351562 L 308.945312 216.683594 L 284.949219 192.710938 L 332.339844 145.363281 L 284.949219 98.015625 Z M 308.945312 74.042969 " fill-opacity="1" fill-rule="evenodd"/><path fill="#000000" d="M 142.613281 35.171875 C 184.683594 35.171875 221.308594 59.429688 239.382812 95.160156 L 269.671875 79.867188 C 246.128906 33.324219 198.144531 1.265625 142.613281 1.265625 C 63.648438 1.265625 0 65.988281 0 145.363281 C 0 224.742188 63.648438 289.460938 142.613281 289.460938 C 198.144531 289.460938 246.128906 257.40625 269.671875 210.859375 L 239.382812 195.570312 C 221.308594 231.296875 184.683594 255.554688 142.613281 255.554688 C 82.796875 255.554688 33.9375 206.425781 33.9375 145.363281 C 33.9375 84.300781 82.796875 35.171875 142.613281 35.171875 Z M 142.613281 35.171875 " fill-opacity="1" fill-rule="evenodd"/></g></g></g></svg>