<svg xmlns="http://www.w3.org/2000/svg" xmlns:xlink="http://www.w3.org/1999/xlink" width="500" zoomAndPan="magnify" viewBox="0 0 375 374.999991" height="500" preserveAspectRatio="xMidYMid meet" version="1.0"><defs><clipPath id="15a6f598b0"><path d="M 187.5 0 C 83.945312 0 0 83.945312 0 187.5 C 0 291.054688 83.945312 375 187.5 375 C 291.054688 375 375 291.054688 375 187.5 C 375 83.945312 291.054688 0 187.5 0 Z M 187.5 0 " clip-rule="nonzero"/></clipPath><clipPath id="86ef79fa93"><path d="M 71.671875 71.671875 L 303.421875 71.671875 L 303.421875 303.421875 L 71.671875 303.421875 Z M 71.671875 71.671875 " clip-rule="nonzero"/></clipPath></defs><g clip-path="url(#15a6f598b0)"><path stroke-linecap="butt" transform="matrix(0.75, 0, 0, 0.75, 0.0000045, 0)" fill="none" stroke-linejoin="miter" d="M 249.999994 0 C 111.927078 0 -0.000006 111.927084 -0.000006 250 C -0.000006 388.072917 111.927078 500.000001 249.999994 500.000001 C 388.072911 500.000001 499.999995 388.072917 499.999995 250 C 499.999995 111.927084 388.072911 0 249.999994 0 Z M 249.999994 0 " stroke="#000000" stroke-width="60" stroke-opacity="1" stroke-miterlimit="4"/></g><g clip-path="url(#86ef79fa93)"><path fill="#000000" d="M 198.539062 170.070312 L 239.898438 170.070312 L 239.898438 210.90625 C 237.507812 207.417969 234.796875 204.203125 231.769531 201.257812 C 228.738281 198.308594 225.449219 195.691406 221.902344 193.398438 C 218.351562 191.105469 214.609375 189.1875 210.675781 187.636719 C 206.746094 186.089844 202.699219 184.945312 198.539062 184.203125 Z M 130.945312 246.765625 C 130.945312 244.914062 131.035156 243.066406 131.21875 241.222656 C 131.398438 239.378906 131.671875 237.550781 132.03125 235.734375 C 132.394531 233.917969 132.84375 232.121094 133.382812 230.347656 C 133.921875 228.578125 134.542969 226.835938 135.253906 225.125 C 135.960938 223.414062 136.753906 221.742188 137.625 220.109375 C 138.5 218.472656 139.449219 216.886719 140.480469 215.347656 C 141.507812 213.808594 142.613281 212.320312 143.785156 210.890625 C 144.960938 209.457031 146.203125 208.085938 147.515625 206.777344 C 148.824219 205.46875 150.195312 204.226562 151.628906 203.050781 C 153.058594 201.875 154.546875 200.773438 156.085938 199.746094 C 157.625 198.71875 159.210938 197.765625 160.847656 196.894531 C 162.480469 196.019531 164.152344 195.230469 165.863281 194.519531 C 167.574219 193.8125 169.316406 193.191406 171.089844 192.652344 C 172.863281 192.113281 174.65625 191.664062 176.472656 191.304688 C 178.289062 190.941406 180.121094 190.671875 181.960938 190.492188 C 183.804688 190.308594 185.652344 190.21875 187.507812 190.21875 C 189.359375 190.21875 191.207031 190.308594 193.050781 190.492188 C 194.894531 190.671875 196.722656 190.945312 198.539062 191.308594 C 200.355469 191.667969 202.148438 192.117188 203.921875 192.65625 C 205.695312 193.195312 207.4375 193.816406 209.148438 194.527344 C 210.859375 195.234375 212.53125 196.027344 214.164062 196.898438 C 215.796875 197.773438 217.386719 198.726562 218.925781 199.753906 C 220.464844 200.785156 221.949219 201.886719 223.382812 203.0625 C 224.8125 204.234375 226.183594 205.476562 227.492188 206.789062 C 228.804688 208.097656 230.046875 209.46875 231.21875 210.902344 C 232.394531 212.332031 233.496094 213.820312 234.527344 215.359375 C 235.554688 216.898438 236.503906 218.484375 237.378906 220.121094 C 238.25 221.753906 239.042969 223.425781 239.75 225.136719 C 240.460938 226.847656 241.082031 228.589844 241.621094 230.363281 C 242.15625 232.136719 242.605469 233.929688 242.96875 235.746094 C 243.328125 237.5625 243.601562 239.394531 243.78125 241.238281 C 243.964844 243.082031 244.054688 244.929688 244.054688 246.78125 C 244.054688 248.632812 243.960938 250.480469 243.78125 252.324219 C 243.597656 254.167969 243.328125 255.996094 242.964844 257.8125 C 242.605469 259.628906 242.152344 261.425781 241.617188 263.195312 C 241.078125 264.96875 240.453125 266.710938 239.746094 268.421875 C 239.035156 270.132812 238.246094 271.804688 237.371094 273.4375 C 236.5 275.070312 235.546875 276.660156 234.519531 278.199219 C 233.488281 279.738281 232.386719 281.222656 231.210938 282.65625 C 230.035156 284.085938 228.792969 285.457031 227.484375 286.769531 C 226.175781 288.078125 224.804688 289.320312 223.371094 290.496094 C 221.9375 291.667969 220.453125 292.769531 218.914062 293.800781 C 217.371094 294.828125 215.785156 295.78125 214.152344 296.652344 C 212.519531 297.527344 210.847656 298.316406 209.136719 299.023438 C 207.421875 299.734375 205.683594 300.355469 203.910156 300.894531 C 202.136719 301.429688 200.34375 301.878906 198.523438 302.242188 C 196.707031 302.601562 194.878906 302.875 193.035156 303.054688 C 191.191406 303.238281 189.34375 303.328125 187.492188 303.328125 C 185.640625 303.324219 183.792969 303.230469 181.949219 303.046875 C 180.109375 302.863281 178.277344 302.589844 176.464844 302.226562 C 174.648438 301.867188 172.855469 301.414062 171.082031 300.875 C 169.3125 300.335938 167.570312 299.710938 165.859375 299.003906 C 164.148438 298.292969 162.480469 297.5 160.847656 296.625 C 159.214844 295.753906 157.628906 294.800781 156.089844 293.773438 C 154.550781 292.742188 153.066406 291.640625 151.632812 290.464844 C 150.203125 289.289062 148.832031 288.046875 147.523438 286.738281 C 146.214844 285.429688 144.972656 284.058594 143.796875 282.628906 C 142.621094 281.195312 141.519531 279.710938 140.492188 278.171875 C 139.464844 276.632812 138.511719 275.046875 137.640625 273.414062 C 136.765625 271.78125 135.972656 270.109375 135.265625 268.398438 C 134.554688 266.6875 133.929688 264.949219 133.394531 263.175781 C 132.855469 261.40625 132.402344 259.609375 132.042969 257.792969 C 131.679688 255.980469 131.40625 254.148438 131.222656 252.308594 C 131.039062 250.464844 130.945312 248.617188 130.945312 246.765625 Z M 144.585938 246.765625 C 144.585938 248.171875 144.65625 249.574219 144.792969 250.972656 C 144.929688 252.371094 145.136719 253.757812 145.410156 255.136719 C 145.683594 256.515625 146.027344 257.878906 146.433594 259.222656 C 146.84375 260.566406 147.316406 261.890625 147.855469 263.1875 C 148.390625 264.484375 148.992188 265.753906 149.65625 266.996094 C 150.320312 268.234375 151.039062 269.4375 151.820312 270.605469 C 152.601562 271.773438 153.4375 272.902344 154.332031 273.988281 C 155.222656 275.074219 156.164062 276.113281 157.160156 277.109375 C 158.152344 278.101562 159.195312 279.042969 160.28125 279.9375 C 161.367188 280.828125 162.496094 281.664062 163.664062 282.445312 C 164.832031 283.226562 166.035156 283.945312 167.277344 284.609375 C 168.515625 285.269531 169.785156 285.871094 171.082031 286.410156 C 172.382812 286.945312 173.703125 287.417969 175.046875 287.828125 C 176.394531 288.234375 177.753906 288.574219 179.132812 288.847656 C 180.511719 289.125 181.902344 289.328125 183.300781 289.464844 C 184.699219 289.605469 186.101562 289.671875 187.507812 289.671875 C 188.910156 289.671875 190.3125 289.601562 191.710938 289.464844 C 193.109375 289.328125 194.5 289.121094 195.878906 288.847656 C 197.257812 288.574219 198.617188 288.230469 199.964844 287.824219 C 201.308594 287.414062 202.628906 286.941406 203.929688 286.402344 C 205.226562 285.867188 206.496094 285.265625 207.734375 284.601562 C 208.972656 283.941406 210.179688 283.21875 211.347656 282.4375 C 212.515625 281.65625 213.640625 280.820312 214.730469 279.925781 C 215.816406 279.035156 216.855469 278.09375 217.847656 277.097656 C 218.84375 276.105469 219.785156 275.0625 220.675781 273.976562 C 221.566406 272.890625 222.402344 271.761719 223.183594 270.59375 C 223.964844 269.425781 224.6875 268.222656 225.347656 266.980469 C 226.011719 265.742188 226.613281 264.472656 227.148438 263.175781 C 227.6875 261.875 228.160156 260.554688 228.566406 259.210938 C 228.976562 257.863281 229.316406 256.503906 229.589844 255.125 C 229.863281 253.746094 230.070312 252.355469 230.207031 250.957031 C 230.34375 249.558594 230.414062 248.15625 230.414062 246.753906 C 230.414062 245.347656 230.34375 243.945312 230.207031 242.546875 C 230.066406 241.148438 229.863281 239.757812 229.585938 238.378906 C 229.3125 237 228.972656 235.640625 228.5625 234.296875 C 228.15625 232.949219 227.683594 231.628906 227.144531 230.332031 C 226.605469 229.03125 226.003906 227.761719 225.34375 226.523438 C 224.679688 225.285156 223.957031 224.078125 223.175781 222.910156 C 222.394531 221.742188 221.558594 220.617188 220.667969 219.527344 C 219.777344 218.441406 218.832031 217.402344 217.839844 216.410156 C 216.84375 215.414062 215.804688 214.472656 214.71875 213.582031 C 213.632812 212.691406 212.503906 211.855469 211.335938 211.074219 C 210.167969 210.292969 208.960938 209.570312 207.722656 208.910156 C 206.484375 208.246094 205.214844 207.644531 203.914062 207.109375 C 202.617188 206.570312 201.296875 206.097656 199.949219 205.691406 C 198.605469 205.28125 197.242188 204.941406 195.863281 204.667969 C 194.488281 204.394531 193.097656 204.1875 191.699219 204.050781 C 190.300781 203.914062 188.898438 203.84375 187.492188 203.84375 C 186.089844 203.847656 184.6875 203.917969 183.289062 204.054688 C 181.890625 204.195312 180.5 204.402344 179.125 204.675781 C 177.746094 204.953125 176.382812 205.292969 175.039062 205.703125 C 173.695312 206.113281 172.375 206.585938 171.078125 207.125 C 169.777344 207.664062 168.511719 208.265625 167.273438 208.925781 C 166.03125 209.589844 164.828125 210.3125 163.660156 211.09375 C 162.492188 211.875 161.367188 212.710938 160.28125 213.601562 C 159.195312 214.492188 158.15625 215.4375 157.160156 216.429688 C 156.167969 217.425781 155.226562 218.464844 154.335938 219.550781 C 153.441406 220.636719 152.605469 221.765625 151.824219 222.933594 C 151.046875 224.101562 150.324219 225.304688 149.660156 226.542969 C 149 227.78125 148.398438 229.050781 147.859375 230.347656 C 147.320312 231.648438 146.847656 232.96875 146.441406 234.3125 C 146.03125 235.65625 145.691406 237.019531 145.414062 238.394531 C 145.140625 239.773438 144.933594 241.164062 144.792969 242.5625 C 144.65625 243.960938 144.585938 245.359375 144.585938 246.765625 Z M 151.546875 246.765625 C 151.546875 245.589844 151.601562 244.414062 151.71875 243.242188 C 151.832031 242.070312 152.007812 240.90625 152.234375 239.75 C 152.464844 238.597656 152.75 237.457031 153.09375 236.328125 C 153.433594 235.203125 153.828125 234.09375 154.28125 233.003906 C 154.730469 231.917969 155.234375 230.855469 155.789062 229.816406 C 156.34375 228.777344 156.949219 227.769531 157.601562 226.789062 C 158.257812 225.808594 158.957031 224.863281 159.703125 223.953125 C 160.449219 223.042969 161.242188 222.171875 162.074219 221.339844 C 162.90625 220.507812 163.777344 219.71875 164.6875 218.96875 C 165.597656 218.222656 166.542969 217.523438 167.519531 216.867188 C 168.5 216.214844 169.507812 215.609375 170.546875 215.054688 C 171.585938 214.496094 172.648438 213.996094 173.738281 213.542969 C 174.824219 213.09375 175.933594 212.695312 177.058594 212.355469 C 178.1875 212.011719 179.328125 211.726562 180.480469 211.496094 C 181.636719 211.265625 182.800781 211.09375 183.972656 210.980469 C 185.144531 210.863281 186.320312 210.804688 187.496094 210.804688 C 188.675781 210.804688 189.847656 210.863281 191.019531 210.980469 C 192.191406 211.09375 193.355469 211.265625 194.511719 211.496094 C 195.667969 211.726562 196.808594 212.011719 197.933594 212.355469 C 199.0625 212.695312 200.167969 213.089844 201.257812 213.542969 C 202.34375 213.992188 203.40625 214.496094 204.445312 215.050781 C 205.484375 215.605469 206.492188 216.210938 207.472656 216.863281 C 208.453125 217.519531 209.398438 218.21875 210.308594 218.964844 C 211.21875 219.714844 212.089844 220.503906 212.921875 221.335938 C 213.753906 222.167969 214.542969 223.039062 215.292969 223.949219 C 216.039062 224.859375 216.738281 225.804688 217.394531 226.785156 C 218.046875 227.765625 218.652344 228.773438 219.207031 229.8125 C 219.761719 230.851562 220.265625 231.914062 220.714844 233 C 221.167969 234.089844 221.5625 235.195312 221.90625 236.324219 C 222.246094 237.449219 222.53125 238.589844 222.761719 239.746094 C 222.992188 240.902344 223.164062 242.066406 223.28125 243.238281 C 223.394531 244.410156 223.453125 245.582031 223.453125 246.761719 C 223.453125 247.9375 223.394531 249.113281 223.277344 250.285156 C 223.164062 251.457031 222.992188 252.621094 222.761719 253.777344 C 222.53125 254.929688 222.246094 256.070312 221.902344 257.199219 C 221.5625 258.324219 221.164062 259.433594 220.714844 260.519531 C 220.261719 261.609375 219.761719 262.671875 219.207031 263.710938 C 218.648438 264.75 218.046875 265.757812 217.390625 266.738281 C 216.738281 267.714844 216.035156 268.660156 215.289062 269.570312 C 214.542969 270.480469 213.75 271.351562 212.917969 272.183594 C 212.085938 273.019531 211.214844 273.808594 210.304688 274.554688 C 209.394531 275.300781 208.449219 276 207.46875 276.65625 C 206.488281 277.308594 205.480469 277.914062 204.441406 278.46875 C 203.402344 279.023438 202.339844 279.527344 201.253906 279.976562 C 200.164062 280.429688 199.058594 280.824219 197.929688 281.164062 C 196.804688 281.507812 195.660156 281.792969 194.507812 282.023438 C 193.351562 282.253906 192.1875 282.425781 191.015625 282.539062 C 189.84375 282.65625 188.667969 282.710938 187.492188 282.710938 C 186.316406 282.710938 185.140625 282.652344 183.96875 282.535156 C 182.800781 282.417969 181.636719 282.246094 180.484375 282.015625 C 179.328125 281.785156 178.1875 281.496094 177.0625 281.152344 C 175.9375 280.8125 174.832031 280.414062 173.742188 279.964844 C 172.65625 279.511719 171.59375 279.007812 170.554688 278.453125 C 169.519531 277.898438 168.511719 277.292969 167.53125 276.640625 C 166.554688 275.984375 165.609375 275.285156 164.699219 274.539062 C 163.789062 273.792969 162.917969 273.003906 162.085938 272.171875 C 161.253906 271.339844 160.464844 270.46875 159.71875 269.558594 C 158.972656 268.648438 158.273438 267.703125 157.617188 266.726562 C 156.964844 265.746094 156.359375 264.738281 155.804688 263.703125 C 155.25 262.664062 154.746094 261.601562 154.292969 260.515625 C 153.84375 259.429688 153.445312 258.320312 153.105469 257.195312 C 152.761719 256.070312 152.476562 254.929688 152.246094 253.777344 C 152.011719 252.621094 151.839844 251.460938 151.722656 250.289062 C 151.605469 249.117188 151.546875 247.941406 151.546875 246.765625 Z M 193.140625 255.882812 C 193.140625 256.253906 193.105469 256.621094 193.03125 256.984375 C 192.960938 257.347656 192.851562 257.699219 192.710938 258.042969 C 192.570312 258.382812 192.394531 258.710938 192.191406 259.019531 C 191.984375 259.324219 191.75 259.609375 191.488281 259.875 C 191.226562 260.136719 190.941406 260.367188 190.632812 260.574219 C 190.324219 260.78125 190 260.953125 189.65625 261.097656 C 189.316406 261.238281 188.960938 261.34375 188.597656 261.417969 C 188.234375 261.488281 187.867188 261.527344 187.496094 261.527344 C 187.128906 261.527344 186.761719 261.488281 186.398438 261.417969 C 186.035156 261.34375 185.679688 261.238281 185.339844 261.097656 C 184.996094 260.953125 184.671875 260.78125 184.363281 260.574219 C 184.054688 260.367188 183.769531 260.136719 183.507812 259.875 C 183.246094 259.609375 183.011719 259.324219 182.804688 259.019531 C 182.601562 258.710938 182.425781 258.382812 182.285156 258.042969 C 182.140625 257.699219 182.035156 257.347656 181.964844 256.984375 C 181.890625 256.621094 181.855469 256.253906 181.855469 255.882812 C 181.847656 255.425781 181.757812 254.984375 181.578125 254.5625 C 181.398438 254.140625 181.148438 253.769531 180.820312 253.449219 C 180.496094 253.125 180.121094 252.878906 179.695312 252.703125 C 179.273438 252.527344 178.832031 252.441406 178.375 252.441406 C 177.914062 252.441406 177.476562 252.527344 177.050781 252.703125 C 176.628906 252.878906 176.253906 253.125 175.925781 253.449219 C 175.601562 253.769531 175.347656 254.140625 175.167969 254.5625 C 174.992188 254.984375 174.898438 255.425781 174.894531 255.882812 C 174.894531 256.5625 174.949219 257.234375 175.058594 257.90625 C 175.167969 258.574219 175.328125 259.234375 175.546875 259.875 C 175.761719 260.519531 176.027344 261.144531 176.34375 261.742188 C 176.660156 262.34375 177.019531 262.914062 177.429688 263.457031 C 177.839844 264 178.289062 264.507812 178.777344 264.976562 C 179.269531 265.445312 179.792969 265.871094 180.351562 266.257812 C 180.910156 266.640625 181.496094 266.980469 182.109375 267.269531 C 182.726562 267.558594 183.359375 267.800781 184.011719 267.988281 L 184.011719 270.085938 C 184.011719 270.546875 184.097656 270.992188 184.273438 271.417969 C 184.453125 271.84375 184.703125 272.222656 185.03125 272.546875 C 185.355469 272.875 185.730469 273.125 186.160156 273.300781 C 186.585938 273.480469 187.027344 273.566406 187.492188 273.566406 C 187.953125 273.566406 188.394531 273.480469 188.824219 273.300781 C 189.25 273.125 189.625 272.875 189.953125 272.546875 C 190.277344 272.222656 190.53125 271.84375 190.707031 271.417969 C 190.882812 270.992188 190.972656 270.546875 190.972656 270.085938 L 190.972656 267.988281 C 191.625 267.800781 192.257812 267.5625 192.871094 267.273438 C 193.488281 266.984375 194.074219 266.644531 194.632812 266.261719 C 195.195312 265.875 195.71875 265.449219 196.210938 264.980469 C 196.703125 264.511719 197.152344 264.003906 197.5625 263.460938 C 197.96875 262.917969 198.332031 262.347656 198.648438 261.746094 C 198.964844 261.144531 199.234375 260.523438 199.449219 259.878906 C 199.664062 259.234375 199.828125 258.578125 199.9375 257.90625 C 200.046875 257.238281 200.101562 256.5625 200.101562 255.882812 C 200.101562 247.640625 192.097656 244.738281 188.6875 243.496094 C 182.996094 241.425781 181.855469 239.71875 181.855469 237.648438 C 181.855469 237.277344 181.890625 236.910156 181.964844 236.546875 C 182.035156 236.183594 182.140625 235.832031 182.285156 235.488281 C 182.425781 235.148438 182.601562 234.820312 182.804688 234.515625 C 183.011719 234.207031 183.246094 233.921875 183.507812 233.660156 C 183.769531 233.398438 184.054688 233.164062 184.363281 232.957031 C 184.671875 232.75 184.996094 232.578125 185.339844 232.433594 C 185.679688 232.292969 186.035156 232.1875 186.398438 232.113281 C 186.761719 232.042969 187.128906 232.003906 187.496094 232.003906 C 187.867188 232.003906 188.234375 232.042969 188.597656 232.113281 C 188.960938 232.1875 189.316406 232.292969 189.65625 232.433594 C 190 232.578125 190.324219 232.75 190.632812 232.957031 C 190.941406 233.164062 191.226562 233.398438 191.488281 233.660156 C 191.75 233.921875 191.984375 234.207031 192.191406 234.515625 C 192.394531 234.820312 192.570312 235.148438 192.710938 235.488281 C 192.851562 235.832031 192.960938 236.183594 193.03125 236.546875 C 193.105469 236.910156 193.140625 237.277344 193.140625 237.648438 C 193.140625 238.109375 193.226562 238.554688 193.402344 238.984375 C 193.582031 239.410156 193.832031 239.789062 194.15625 240.113281 C 194.484375 240.441406 194.859375 240.695312 195.289062 240.871094 C 195.714844 241.046875 196.160156 241.136719 196.621094 241.136719 C 197.082031 241.136719 197.527344 241.046875 197.953125 240.871094 C 198.382812 240.695312 198.757812 240.441406 199.085938 240.113281 C 199.410156 239.789062 199.664062 239.410156 199.839844 238.984375 C 200.015625 238.554688 200.101562 238.109375 200.101562 237.648438 C 200.101562 236.96875 200.046875 236.292969 199.9375 235.625 C 199.824219 234.953125 199.664062 234.296875 199.445312 233.652344 C 199.230469 233.007812 198.964844 232.382812 198.648438 231.78125 C 198.332031 231.179688 197.96875 230.609375 197.558594 230.066406 C 197.152344 229.523438 196.699219 229.015625 196.210938 228.546875 C 195.71875 228.074219 195.195312 227.648438 194.632812 227.261719 C 194.074219 226.878906 193.488281 226.539062 192.875 226.25 C 192.257812 225.957031 191.625 225.71875 190.972656 225.53125 L 190.972656 223.445312 C 190.972656 222.984375 190.882812 222.539062 190.707031 222.113281 C 190.53125 221.6875 190.28125 221.308594 189.953125 220.984375 C 189.625 220.65625 189.25 220.40625 188.824219 220.230469 C 188.398438 220.050781 187.953125 219.964844 187.492188 219.964844 C 187.03125 219.964844 186.585938 220.050781 186.160156 220.230469 C 185.734375 220.40625 185.355469 220.65625 185.03125 220.984375 C 184.703125 221.308594 184.453125 221.6875 184.277344 222.113281 C 184.101562 222.539062 184.011719 222.984375 184.011719 223.445312 L 184.011719 225.53125 C 183.359375 225.71875 182.726562 225.960938 182.113281 226.25 C 181.5 226.542969 180.914062 226.878906 180.355469 227.265625 C 179.792969 227.652344 179.269531 228.078125 178.78125 228.550781 C 178.289062 229.019531 177.839844 229.527344 177.433594 230.070312 C 177.023438 230.613281 176.664062 231.183594 176.347656 231.785156 C 176.03125 232.386719 175.765625 233.007812 175.546875 233.652344 C 175.332031 234.296875 175.171875 234.953125 175.058594 235.625 C 174.949219 236.292969 174.894531 236.96875 174.894531 237.648438 C 174.894531 245.890625 182.882812 248.792969 186.308594 250.035156 C 192 252.105469 193.140625 253.8125 193.140625 255.882812 Z M 155.785156 99.769531 C 155.324219 99.769531 154.882812 99.859375 154.457031 100.035156 C 154.03125 100.210938 153.65625 100.464844 153.328125 100.789062 C 153.003906 101.117188 152.75 101.492188 152.574219 101.917969 C 152.398438 102.34375 152.308594 102.789062 152.304688 103.25 L 152.304688 117.820312 L 150.007812 115.507812 C 149.679688 115.1875 149.304688 114.941406 148.878906 114.773438 C 148.453125 114.601562 148.011719 114.519531 147.550781 114.519531 C 147.09375 114.523438 146.652344 114.613281 146.230469 114.792969 C 145.808594 114.96875 145.433594 115.21875 145.109375 115.542969 C 144.785156 115.867188 144.535156 116.242188 144.359375 116.664062 C 144.183594 117.085938 144.09375 117.527344 144.089844 117.984375 C 144.085938 118.445312 144.171875 118.886719 144.34375 119.308594 C 144.511719 119.734375 144.757812 120.113281 145.078125 120.441406 L 153.320312 128.683594 C 153.40625 128.753906 153.492188 128.839844 153.574219 128.910156 C 153.597656 128.921875 153.613281 128.933594 153.632812 128.953125 C 153.703125 129.007812 153.773438 129.0625 153.855469 129.121094 C 153.871094 129.121094 153.886719 129.136719 153.898438 129.136719 C 153.980469 129.191406 154.066406 129.242188 154.152344 129.289062 C 154.160156 129.296875 154.167969 129.300781 154.179688 129.304688 C 154.265625 129.347656 154.363281 129.386719 154.460938 129.429688 L 154.476562 129.429688 C 154.570312 129.480469 154.667969 129.519531 154.773438 129.542969 L 154.800781 129.542969 C 154.894531 129.585938 154.992188 129.613281 155.097656 129.628906 C 155.125 129.640625 155.152344 129.644531 155.179688 129.640625 L 155.433594 129.683594 C 155.550781 129.695312 155.667969 129.699219 155.785156 129.699219 C 155.90625 129.699219 156.023438 129.695312 156.140625 129.683594 C 156.238281 129.671875 156.335938 129.65625 156.421875 129.640625 C 156.449219 129.640625 156.460938 129.640625 156.476562 129.628906 C 156.589844 129.613281 156.695312 129.585938 156.800781 129.542969 C 156.90625 129.515625 157.011719 129.476562 157.109375 129.429688 L 157.125 129.429688 C 157.222656 129.386719 157.324219 129.347656 157.40625 129.304688 C 157.421875 129.289062 157.421875 129.289062 157.433594 129.289062 C 157.519531 129.234375 157.605469 129.191406 157.6875 129.136719 C 157.695312 129.125 157.703125 129.121094 157.714844 129.121094 C 157.804688 129.0625 157.890625 128.996094 157.96875 128.921875 C 157.984375 128.921875 157.984375 128.910156 158 128.910156 C 158.082031 128.839844 158.167969 128.753906 158.25 128.667969 L 166.480469 120.441406 C 166.808594 120.113281 167.058594 119.738281 167.234375 119.308594 C 167.410156 118.882812 167.5 118.4375 167.5 117.976562 C 167.5 117.515625 167.410156 117.070312 167.230469 116.644531 C 167.054688 116.21875 166.800781 115.84375 166.476562 115.515625 C 166.148438 115.191406 165.769531 114.9375 165.34375 114.761719 C 164.917969 114.585938 164.472656 114.5 164.011719 114.5 C 163.550781 114.5 163.105469 114.589844 162.679688 114.765625 C 162.253906 114.941406 161.875 115.195312 161.550781 115.523438 L 159.265625 117.804688 L 159.265625 103.25 C 159.265625 102.789062 159.175781 102.34375 159 101.917969 C 158.824219 101.492188 158.570312 101.117188 158.246094 100.789062 C 157.921875 100.464844 157.542969 100.210938 157.117188 100.035156 C 156.691406 99.859375 156.25 99.769531 155.785156 99.769531 Z M 135.101562 210.90625 C 137.488281 207.417969 140.199219 204.199219 143.226562 201.253906 C 146.253906 198.308594 149.546875 195.6875 153.09375 193.394531 C 156.644531 191.101562 160.386719 189.183594 164.320312 187.636719 C 168.253906 186.089844 172.296875 184.945312 176.457031 184.203125 L 176.457031 143.578125 L 135.101562 143.578125 Z M 219.210938 127.867188 C 218.75 127.867188 218.304688 127.957031 217.878906 128.132812 C 217.453125 128.308594 217.078125 128.5625 216.753906 128.886719 C 216.425781 129.214844 216.175781 129.589844 215.996094 130.015625 C 215.820312 130.441406 215.730469 130.886719 215.730469 131.347656 L 215.730469 145.902344 L 213.449219 143.621094 C 213.121094 143.296875 212.746094 143.042969 212.320312 142.867188 C 211.898438 142.6875 211.453125 142.601562 210.992188 142.597656 C 210.53125 142.597656 210.089844 142.683594 209.664062 142.859375 C 209.238281 143.035156 208.859375 143.285156 208.535156 143.609375 C 208.207031 143.933594 207.953125 144.308594 207.777344 144.734375 C 207.597656 145.160156 207.507812 145.605469 207.507812 146.0625 C 207.507812 146.523438 207.59375 146.96875 207.765625 147.394531 C 207.941406 147.820312 208.191406 148.199219 208.515625 148.523438 L 216.746094 156.769531 C 216.828125 156.851562 216.914062 156.9375 217 157.007812 C 217.011719 157.007812 217.011719 157.023438 217.027344 157.023438 C 217.109375 157.078125 217.179688 157.148438 217.28125 157.207031 L 217.308594 157.234375 C 217.394531 157.289062 217.476562 157.332031 217.578125 157.386719 L 217.589844 157.386719 C 217.683594 157.445312 217.785156 157.492188 217.886719 157.527344 C 217.984375 157.570312 218.097656 157.613281 218.195312 157.65625 C 218.308594 157.671875 218.421875 157.710938 218.519531 157.726562 C 218.546875 157.726562 218.5625 157.726562 218.578125 157.742188 C 218.675781 157.753906 218.761719 157.769531 218.859375 157.78125 C 218.976562 157.792969 219.09375 157.800781 219.210938 157.796875 C 219.328125 157.800781 219.445312 157.792969 219.5625 157.78125 L 219.816406 157.742188 C 219.84375 157.742188 219.871094 157.726562 219.902344 157.726562 C 220.003906 157.707031 220.109375 157.683594 220.210938 157.65625 L 220.226562 157.65625 C 220.324219 157.613281 220.421875 157.585938 220.535156 157.542969 C 220.535156 157.527344 220.535156 157.527344 220.550781 157.527344 C 220.632812 157.488281 220.734375 157.445312 220.816406 157.402344 C 220.828125 157.390625 220.84375 157.386719 220.859375 157.386719 C 220.929688 157.347656 221.015625 157.289062 221.085938 157.246094 C 221.105469 157.238281 221.125 157.222656 221.140625 157.207031 C 221.226562 157.164062 221.28125 157.105469 221.351562 157.066406 C 221.371094 157.042969 221.394531 157.023438 221.421875 157.007812 C 221.492188 156.953125 221.550781 156.882812 221.621094 156.824219 C 221.632812 156.8125 221.664062 156.796875 221.675781 156.78125 L 229.917969 148.539062 C 230.246094 148.210938 230.496094 147.835938 230.675781 147.410156 C 230.851562 146.980469 230.941406 146.535156 230.941406 146.074219 C 230.941406 145.613281 230.851562 145.167969 230.675781 144.738281 C 230.496094 144.3125 230.246094 143.9375 229.917969 143.609375 C 229.59375 143.28125 229.214844 143.03125 228.789062 142.851562 C 228.359375 142.675781 227.917969 142.585938 227.453125 142.585938 C 226.992188 142.585938 226.546875 142.675781 226.121094 142.851562 C 225.691406 143.027344 225.316406 143.28125 224.988281 143.605469 L 222.691406 145.917969 L 222.691406 131.347656 C 222.691406 130.886719 222.601562 130.441406 222.425781 130.015625 C 222.25 129.589844 222 129.210938 221.671875 128.886719 C 221.347656 128.558594 220.96875 128.308594 220.542969 128.132812 C 220.117188 127.953125 219.671875 127.867188 219.210938 127.867188 Z M 282.648438 155.964844 C 282.1875 155.964844 281.742188 156.054688 281.316406 156.230469 C 280.890625 156.40625 280.515625 156.660156 280.1875 156.984375 C 279.863281 157.3125 279.609375 157.6875 279.433594 158.113281 C 279.257812 158.539062 279.167969 158.984375 279.167969 159.445312 L 279.167969 174 L 276.855469 171.703125 C 276.53125 171.367188 276.152344 171.109375 275.722656 170.925781 C 275.292969 170.742188 274.847656 170.648438 274.378906 170.644531 C 273.914062 170.644531 273.464844 170.730469 273.03125 170.910156 C 272.601562 171.085938 272.222656 171.339844 271.890625 171.671875 C 271.5625 172.003906 271.3125 172.386719 271.136719 172.816406 C 270.960938 173.25 270.875 173.699219 270.882812 174.167969 C 270.886719 174.632812 270.984375 175.082031 271.171875 175.507812 C 271.355469 175.9375 271.617188 176.3125 271.957031 176.636719 L 280.183594 184.863281 C 280.269531 184.933594 280.351562 185.019531 280.453125 185.089844 C 280.480469 185.117188 280.523438 185.144531 280.550781 185.175781 L 280.71875 185.300781 C 280.761719 185.328125 280.816406 185.359375 280.859375 185.386719 C 280.917969 185.414062 280.960938 185.441406 281.015625 185.46875 C 281.058594 185.5 281.113281 185.511719 281.15625 185.539062 C 281.210938 185.570312 281.265625 185.59375 281.324219 185.609375 C 281.371094 185.636719 281.417969 185.65625 281.464844 185.667969 C 281.523438 185.695312 281.585938 185.714844 281.648438 185.722656 C 281.695312 185.746094 281.742188 185.757812 281.789062 185.765625 C 281.847656 185.78125 281.917969 185.792969 281.972656 185.808594 C 282.03125 185.824219 282.09375 185.835938 282.15625 185.835938 C 282.199219 185.851562 282.253906 185.851562 282.3125 185.863281 C 282.421875 185.863281 282.535156 185.878906 282.648438 185.878906 C 282.761719 185.878906 282.886719 185.863281 282.988281 185.863281 C 283.042969 185.851562 283.101562 185.851562 283.15625 185.835938 C 283.214844 185.832031 283.269531 185.824219 283.324219 185.808594 C 283.394531 185.792969 283.453125 185.78125 283.507812 185.765625 C 283.566406 185.75 283.605469 185.738281 283.664062 185.722656 C 283.722656 185.710938 283.777344 185.691406 283.832031 185.667969 C 283.882812 185.65625 283.929688 185.636719 283.972656 185.609375 C 284.03125 185.59375 284.089844 185.570312 284.144531 185.539062 C 284.191406 185.519531 284.238281 185.496094 284.285156 185.46875 C 284.335938 185.445312 284.386719 185.417969 284.4375 185.386719 C 284.488281 185.359375 284.535156 185.332031 284.578125 185.300781 L 284.75 185.175781 C 284.777344 185.144531 284.820312 185.117188 284.847656 185.089844 C 284.941406 185.023438 285.03125 184.945312 285.113281 184.863281 L 293.34375 176.636719 C 293.671875 176.308594 293.921875 175.929688 294.101562 175.503906 C 294.277344 175.078125 294.367188 174.632812 294.367188 174.167969 C 294.367188 173.707031 294.277344 173.261719 294.101562 172.835938 C 293.921875 172.40625 293.671875 172.03125 293.34375 171.703125 C 293.015625 171.375 292.640625 171.125 292.210938 170.945312 C 291.785156 170.769531 291.339844 170.679688 290.878906 170.679688 C 290.414062 170.679688 289.972656 170.769531 289.542969 170.945312 C 289.117188 171.125 288.738281 171.375 288.410156 171.703125 L 286.128906 174 L 286.128906 159.445312 C 286.128906 158.984375 286.039062 158.539062 285.863281 158.113281 C 285.6875 157.6875 285.433594 157.3125 285.109375 156.984375 C 284.78125 156.660156 284.40625 156.40625 283.980469 156.230469 C 283.550781 156.054688 283.109375 155.964844 282.648438 155.964844 Z M 92.351562 71.671875 C 91.890625 71.671875 91.445312 71.761719 91.019531 71.9375 C 90.59375 72.113281 90.21875 72.367188 89.890625 72.691406 C 89.566406 73.019531 89.316406 73.394531 89.136719 73.820312 C 88.960938 74.246094 88.871094 74.691406 88.871094 75.152344 L 88.871094 89.722656 L 86.589844 87.4375 C 86.261719 87.113281 85.886719 86.859375 85.460938 86.683594 C 85.035156 86.503906 84.589844 86.414062 84.128906 86.414062 C 83.664062 86.414062 83.222656 86.5 82.792969 86.675781 C 82.367188 86.855469 81.988281 87.105469 81.664062 87.429688 C 81.335938 87.757812 81.082031 88.132812 80.90625 88.558594 C 80.726562 88.984375 80.640625 89.429688 80.636719 89.890625 C 80.636719 90.355469 80.726562 90.796875 80.902344 91.226562 C 81.078125 91.652344 81.328125 92.027344 81.652344 92.355469 L 89.882812 100.570312 C 89.960938 100.660156 90.046875 100.738281 90.136719 100.8125 L 90.265625 100.894531 C 90.3125 100.9375 90.363281 100.976562 90.417969 101.007812 C 90.464844 101.050781 90.515625 101.082031 90.574219 101.105469 C 90.617188 101.136719 90.664062 101.167969 90.714844 101.191406 C 90.765625 101.21875 90.816406 101.242188 90.871094 101.261719 C 90.914062 101.292969 90.960938 101.316406 91.011719 101.332031 C 91.0625 101.359375 91.121094 101.375 91.179688 101.390625 C 91.226562 101.414062 91.28125 101.433594 91.335938 101.445312 L 91.503906 101.488281 C 91.558594 101.507812 91.613281 101.523438 91.671875 101.53125 C 91.730469 101.546875 91.792969 101.554688 91.855469 101.558594 C 91.898438 101.570312 91.953125 101.570312 92.011719 101.585938 C 92.121094 101.597656 92.234375 101.601562 92.347656 101.601562 C 92.464844 101.601562 92.582031 101.597656 92.699219 101.585938 C 92.742188 101.570312 92.800781 101.570312 92.839844 101.558594 C 92.902344 101.554688 92.964844 101.546875 93.023438 101.53125 C 93.082031 101.515625 93.152344 101.5 93.207031 101.488281 C 93.25 101.472656 93.308594 101.460938 93.363281 101.445312 C 93.421875 101.433594 93.476562 101.414062 93.53125 101.390625 C 93.582031 101.375 93.628906 101.359375 93.671875 101.332031 C 93.730469 101.316406 93.789062 101.292969 93.84375 101.261719 C 93.882812 101.234375 93.941406 101.21875 93.984375 101.191406 C 94.035156 101.167969 94.085938 101.136719 94.136719 101.105469 C 94.1875 101.082031 94.234375 101.054688 94.277344 101.023438 L 94.449219 100.894531 C 94.476562 100.867188 94.519531 100.839844 94.546875 100.8125 C 94.640625 100.738281 94.730469 100.660156 94.8125 100.570312 L 103.058594 92.355469 C 103.386719 92.03125 103.636719 91.652344 103.816406 91.226562 C 103.992188 90.800781 104.082031 90.355469 104.082031 89.894531 C 104.082031 89.433594 103.996094 88.988281 103.820312 88.5625 C 103.644531 88.136719 103.390625 87.757812 103.066406 87.429688 C 102.738281 87.105469 102.363281 86.851562 101.9375 86.675781 C 101.511719 86.496094 101.066406 86.410156 100.605469 86.40625 C 100.144531 86.40625 99.699219 86.496094 99.273438 86.671875 C 98.84375 86.847656 98.46875 87.097656 98.140625 87.425781 L 95.828125 89.734375 L 95.828125 75.152344 C 95.828125 74.691406 95.738281 74.246094 95.5625 73.820312 C 95.386719 73.394531 95.136719 73.019531 94.808594 72.691406 C 94.484375 72.367188 94.105469 72.117188 93.679688 71.9375 C 93.253906 71.761719 92.8125 71.671875 92.351562 71.671875 Z M 261.976562 248.257812 L 303.320312 248.257812 L 303.320312 196.574219 L 261.976562 196.574219 Z M 71.679688 248.257812 L 113.019531 248.257812 L 113.019531 117.074219 L 71.679688 117.074219 Z M 71.679688 248.257812 " fill-opacity="1" fill-rule="nonzero"/></g></svg>