<svg xmlns="http://www.w3.org/2000/svg" xmlns:xlink="http://www.w3.org/1999/xlink" width="500" zoomAndPan="magnify" viewBox="0 0 375 374.999991" height="500" preserveAspectRatio="xMidYMid meet" version="1.0"><defs><clipPath id="47d7d9702b"><path d="M 10.921875 92.699219 L 363.917969 92.699219 L 363.917969 332.074219 L 10.921875 332.074219 Z M 10.921875 92.699219 " clip-rule="nonzero"/></clipPath><clipPath id="ffab5d2014"><path d="M 55 42.601562 L 156 42.601562 L 156 189 L 55 189 Z M 55 42.601562 " clip-rule="nonzero"/></clipPath></defs><path fill="#000000" d="M 242.3125 154.335938 L 243.039062 161.351562 C 245.359375 161.125 247.765625 161.007812 250.1875 161.007812 C 252.1875 161.007812 254.25 161.085938 256.3125 161.242188 L 256.871094 154.214844 C 254.621094 154.042969 252.375 153.957031 250.1875 153.957031 C 247.527344 153.957031 244.878906 154.082031 242.3125 154.335938 " fill-opacity="1" fill-rule="nonzero"/><path fill="#000000" d="M 214.523438 163.066406 L 218.175781 169.152344 C 221.960938 166.988281 225.988281 165.234375 230.148438 163.9375 L 227.949219 157.21875 C 223.285156 158.675781 218.765625 160.640625 214.523438 163.066406 " fill-opacity="1" fill-rule="nonzero"/><path fill="#000000" d="M 117.933594 259.351562 C 122.699219 258.40625 127.386719 257.078125 131.871094 255.40625 L 129.289062 248.820312 C 125.175781 250.355469 120.867188 251.570312 116.488281 252.441406 L 117.933594 259.351562 " fill-opacity="1" fill-rule="nonzero"/><path fill="#000000" d="M 192.835938 181.921875 L 198.515625 186.277344 C 201.359375 182.757812 204.402344 179.554688 207.566406 176.769531 L 202.726562 171.53125 C 199.257812 174.585938 195.929688 178.082031 192.835938 181.921875 " fill-opacity="1" fill-rule="nonzero"/><path fill="#000000" d="M 89.785156 253.75 L 89.140625 260.773438 C 92.367188 261.054688 95.597656 261.195312 98.746094 261.195312 C 100.355469 261.195312 101.976562 261.160156 103.5625 261.085938 L 103.21875 254.042969 C 101.746094 254.109375 100.242188 254.144531 98.746094 254.144531 C 95.8125 254.144531 92.796875 254.011719 89.785156 253.75 " fill-opacity="1" fill-rule="nonzero"/><path fill="#000000" d="M 152.242188 235.714844 C 148.746094 238.507812 145.0625 241.023438 141.289062 243.179688 L 144.953125 249.261719 C 149.046875 246.917969 153.039062 244.195312 156.820312 241.171875 L 152.242188 235.714844 " fill-opacity="1" fill-rule="nonzero"/><path fill="#000000" d="M 170.558594 216.53125 C 167.839844 220.175781 164.960938 223.601562 162 226.71875 L 167.308594 231.511719 C 170.457031 228.191406 173.519531 224.546875 176.402344 220.683594 L 170.558594 216.53125 " fill-opacity="1" fill-rule="nonzero"/><path fill="#000000" d="M 61.101562 255.050781 C 65.707031 256.511719 70.359375 257.730469 74.933594 258.675781 L 76.429688 251.777344 C 72.105469 250.878906 67.699219 249.726562 63.335938 248.34375 L 61.101562 255.050781 " fill-opacity="1" fill-rule="nonzero"/><path fill="#000000" d="M 295.230469 171.800781 C 299.246094 173.574219 303.363281 175.582031 307.464844 177.769531 L 310.933594 171.582031 C 306.671875 169.308594 302.390625 167.21875 298.207031 165.375 L 295.230469 171.800781 " fill-opacity="1" fill-rule="nonzero"/><path fill="#000000" d="M 269.570312 163.21875 C 273.789062 164.144531 278.167969 165.367188 282.585938 166.859375 L 284.953125 160.195312 C 280.28125 158.617188 275.636719 157.320312 271.152344 156.339844 L 269.570312 163.21875 " fill-opacity="1" fill-rule="nonzero"/><g clip-path="url(#47d7d9702b)"><path fill="#000000" d="M 273.464844 231.714844 L 269.597656 231.957031 L 266.753906 234.582031 L 218.652344 278.925781 L 173.964844 144.535156 L 221.511719 103.996094 L 288.367188 106.496094 L 323.558594 178.878906 C 323.421875 178.796875 323.285156 178.710938 323.148438 178.625 L 319.277344 184.582031 C 322.765625 186.738281 326.246094 189.03125 329.644531 191.398438 L 346.980469 227.058594 Z M 295.324219 95.832031 L 217.664062 92.929688 L 165.765625 137.179688 L 152.941406 134.921875 C 151.269531 138.183594 149.433594 141.558594 147.449219 145.039062 L 163.566406 147.875 L 180.980469 200.238281 C 180 202.015625 178.996094 203.761719 177.984375 205.449219 L 183.824219 208.792969 L 208.496094 282.988281 L 133.84375 279.582031 L 130.617188 279.433594 L 127.828125 281.0625 L 68.5625 315.714844 L 47.976562 249.539062 L 50.636719 243.625 C 48.679688 242.785156 46.925781 241.980469 45.402344 241.25 L 23.8125 171.835938 L 64.195312 145.769531 C 62.304688 142.476562 60.546875 139.277344 58.933594 136.175781 L 10.921875 167.164062 L 62.214844 332.074219 L 133.34375 290.484375 L 218.027344 294.355469 L 274.15625 242.605469 L 363.917969 236.921875 L 295.324219 95.832031 " fill-opacity="1" fill-rule="nonzero"/></g><g clip-path="url(#ffab5d2014)"><path fill="#000000" d="M 78.273438 89.605469 C 78.273438 74.515625 90.515625 62.28125 105.613281 62.28125 C 120.710938 62.28125 132.953125 74.515625 132.953125 89.605469 C 132.953125 104.695312 120.710938 116.929688 105.613281 116.929688 C 90.515625 116.929688 78.273438 104.695312 78.273438 89.605469 Z M 155.785156 92.742188 C 155.785156 65.046875 133.324219 42.597656 105.613281 42.597656 C 77.902344 42.597656 55.4375 65.046875 55.4375 92.742188 C 55.4375 125.089844 105.613281 188.320312 105.613281 188.320312 C 105.613281 188.320312 155.785156 125.089844 155.785156 92.742188 " fill-opacity="1" fill-rule="nonzero"/></g></svg>