<svg xmlns="http://www.w3.org/2000/svg" xmlns:xlink="http://www.w3.org/1999/xlink" width="500" zoomAndPan="magnify" viewBox="0 0 375 374.999991" height="500" preserveAspectRatio="xMidYMid meet" version="1.0"><defs><clipPath id="8da1d63fcc"><path d="M 0.015625 32.578125 L 374.996094 32.578125 L 374.996094 94.789062 L 0.015625 94.789062 Z M 0.015625 32.578125 " clip-rule="nonzero"/></clipPath><clipPath id="5accac1fad"><path d="M 0.015625 156 L 374.996094 156 L 374.996094 219 L 0.015625 219 Z M 0.015625 156 " clip-rule="nonzero"/></clipPath><clipPath id="89dd75cae0"><path d="M 0.015625 280 L 374.996094 280 L 374.996094 342.328125 L 0.015625 342.328125 Z M 0.015625 280 " clip-rule="nonzero"/></clipPath></defs><g clip-path="url(#8da1d63fcc)"><path fill="#1e1e1e" d="M 344 94.539062 L 31.007812 94.539062 C 13.890625 94.539062 0.015625 80.671875 0.015625 63.558594 C 0.015625 46.453125 13.890625 32.582031 31.007812 32.582031 L 344 32.582031 C 361.117188 32.582031 374.992188 46.453125 374.992188 63.558594 C 374.992188 80.671875 361.117188 94.539062 344 94.539062 " fill-opacity="1" fill-rule="nonzero"/></g><g clip-path="url(#5accac1fad)"><path fill="#1e1e1e" d="M 344 218.464844 L 31.007812 218.464844 C 13.890625 218.464844 0.015625 204.59375 0.015625 187.484375 C 0.015625 170.371094 13.890625 156.5 31.007812 156.5 L 344 156.5 C 361.117188 156.5 374.992188 170.371094 374.992188 187.484375 C 374.992188 204.59375 361.117188 218.464844 344 218.464844 " fill-opacity="1" fill-rule="nonzero"/></g><g clip-path="url(#89dd75cae0)"><path fill="#1e1e1e" d="M 344 342.386719 L 31.007812 342.386719 C 13.890625 342.386719 0.015625 328.519531 0.015625 311.40625 C 0.015625 294.292969 13.890625 280.425781 31.007812 280.425781 L 344 280.425781 C 361.117188 280.425781 374.992188 294.292969 374.992188 311.40625 C 374.992188 328.519531 361.117188 342.386719 344 342.386719 " fill-opacity="1" fill-rule="nonzero"/></g></svg>