<svg xmlns="http://www.w3.org/2000/svg" xmlns:xlink="http://www.w3.org/1999/xlink" width="500" zoomAndPan="magnify" viewBox="0 0 375 374.999991" height="500" preserveAspectRatio="xMidYMid meet" version="1.0"><defs><clipPath id="9046f8ad8a"><path d="M 187.5 0 C 83.945312 0 0 83.945312 0 187.5 C 0 291.054688 83.945312 375 187.5 375 C 291.054688 375 375 291.054688 375 187.5 C 375 83.945312 291.054688 0 187.5 0 Z M 187.5 0 " clip-rule="nonzero"/></clipPath><clipPath id="403d3dbadf"><path d="M 50.429688 37.5 L 324.929688 37.5 L 324.929688 280.5 L 50.429688 280.5 Z M 50.429688 37.5 " clip-rule="nonzero"/></clipPath><clipPath id="2f1845ac02"><path d="M 54 37.5 L 324.929688 37.5 L 324.929688 280.5 L 54 280.5 Z M 54 37.5 " clip-rule="nonzero"/></clipPath></defs><g clip-path="url(#9046f8ad8a)"><path stroke-linecap="butt" transform="matrix(0.75, 0, 0, 0.75, 0.0000045, 0)" fill="none" stroke-linejoin="miter" d="M 249.999994 0 C 111.927078 0 -0.000006 111.927084 -0.000006 250 C -0.000006 388.072917 111.927078 500.000001 249.999994 500.000001 C 388.072911 500.000001 499.999995 388.072917 499.999995 250 C 499.999995 111.927084 388.072911 0 249.999994 0 Z M 249.999994 0 " stroke="#000000" stroke-width="60" stroke-opacity="1" stroke-miterlimit="4"/></g><g clip-path="url(#403d3dbadf)"><path fill="#e5e9f7" d="M 205.269531 47.8125 L 263.507812 148.710938 L 321.75 249.609375 C 325.515625 256.136719 325.515625 263.605469 321.75 270.128906 C 317.984375 276.652344 311.519531 280.386719 303.984375 280.386719 L 71.023438 280.386719 C 63.488281 280.386719 57.023438 276.652344 53.257812 270.128906 C 49.492188 263.605469 49.492188 256.136719 53.257812 249.609375 L 111.5 148.710938 L 169.738281 47.8125 C 173.503906 41.289062 179.972656 37.550781 187.503906 37.550781 C 195.035156 37.550781 201.503906 41.289062 205.269531 47.8125 Z M 205.269531 47.8125 " fill-opacity="1" fill-rule="evenodd"/></g><path fill="#e5e9f7" d="M 187.503906 243.722656 C 195.085938 243.722656 201.269531 237.535156 201.269531 229.953125 C 201.269531 222.367188 195.085938 216.183594 187.503906 216.183594 C 179.921875 216.183594 173.738281 222.367188 173.738281 229.953125 C 173.738281 237.535156 179.921875 243.722656 187.503906 243.722656 Z M 187.503906 243.722656 " fill-opacity="1" fill-rule="evenodd"/><path fill="#e5e9f7" d="M 187.503906 206.035156 C 181.113281 206.035156 176.195312 200.800781 175.886719 194.417969 L 172.320312 121.558594 C 171.753906 109.910156 176.984375 100.359375 187.503906 100.359375 C 198.019531 100.359375 203.25 109.910156 202.683594 121.558594 L 199.121094 194.417969 C 198.808594 200.800781 193.890625 206.035156 187.503906 206.035156 Z M 187.503906 206.035156 " fill-opacity="1" fill-rule="evenodd"/><g clip-path="url(#2f1845ac02)"><path fill="#a6a6a6" d="M 180.832031 40.097656 L 239.074219 140.992188 L 297.316406 241.894531 L 271.53125 197.230469 C 291.730469 246.464844 274.316406 271.609375 219.292969 272.671875 L 54.96875 272.671875 C 58.832031 277.613281 64.53125 280.386719 71.019531 280.386719 L 303.984375 280.386719 C 311.515625 280.386719 317.984375 276.652344 321.75 270.128906 C 325.515625 263.601562 325.515625 256.136719 321.75 249.609375 L 263.511719 148.710938 L 205.269531 47.8125 C 201.5 41.285156 195.035156 37.550781 187.503906 37.550781 C 184.875 37.550781 182.375 38.007812 180.074219 38.875 C 180.339844 39.273438 180.589844 39.679688 180.832031 40.097656 Z M 180.832031 40.097656 " fill-opacity="1" fill-rule="evenodd"/></g><path fill="#e5e9f7" d="M 195.480469 225.449219 C 195.480469 233.050781 189.320312 239.214844 181.714844 239.214844 C 179.855469 239.214844 178.082031 238.847656 176.460938 238.175781 C 178.972656 241.542969 182.984375 243.71875 187.5 243.71875 C 195.105469 243.71875 201.269531 237.554688 201.269531 229.953125 C 201.269531 224.207031 197.753906 219.289062 192.757812 217.222656 C 194.46875 219.519531 195.480469 222.363281 195.480469 225.449219 Z M 195.480469 225.449219 " fill-opacity="1" fill-rule="evenodd"/><path fill="#e5e9f7" d="M 187.5 206.035156 C 193.890625 206.035156 198.808594 200.800781 199.121094 194.417969 L 202.683594 121.558594 C 203.144531 112.136719 199.804688 104.082031 192.945312 101.351562 C 195.855469 105.242188 197.199219 110.847656 196.894531 117.050781 L 193.332031 189.914062 C 193.019531 196.296875 188.105469 201.53125 181.714844 201.53125 C 180.414062 201.53125 179.175781 201.316406 178.023438 200.914062 C 180.101562 203.996094 183.515625 206.035156 187.5 206.035156 Z M 187.5 206.035156 " fill-opacity="1" fill-rule="evenodd"/></svg>