<svg xmlns="http://www.w3.org/2000/svg" xmlns:xlink="http://www.w3.org/1999/xlink" width="500" zoomAndPan="magnify" viewBox="0 0 375 374.999991" height="500" preserveAspectRatio="xMidYMid meet" version="1.0"><path fill="#000000" d="M 193.042969 209.8125 L 72.003906 330.804688 C 71.273438 331.535156 70.503906 332.230469 69.703125 332.886719 C 68.902344 333.542969 68.070312 334.160156 67.210938 334.734375 C 66.347656 335.308594 65.460938 335.839844 64.546875 336.328125 C 63.632812 336.816406 62.699219 337.257812 61.742188 337.65625 C 60.785156 338.050781 59.808594 338.398438 58.816406 338.699219 C 57.828125 339 56.824219 339.25 55.808594 339.453125 C 54.789062 339.652344 53.765625 339.804688 52.738281 339.90625 C 51.707031 340.007812 50.671875 340.058594 49.636719 340.058594 C 48.601562 340.058594 47.566406 340.007812 46.535156 339.90625 C 45.503906 339.804688 44.480469 339.652344 43.464844 339.449219 C 42.449219 339.246094 41.445312 338.996094 40.457031 338.695312 C 39.464844 338.394531 38.488281 338.046875 37.53125 337.648438 C 36.574219 337.253906 35.640625 336.8125 34.726562 336.324219 C 33.8125 335.835938 32.925781 335.300781 32.066406 334.726562 C 31.203125 334.152344 30.371094 333.535156 29.570312 332.878906 C 28.769531 332.222656 28.003906 331.527344 27.273438 330.792969 C 26.539062 330.0625 25.84375 329.296875 25.1875 328.496094 C 24.53125 327.695312 23.914062 326.863281 23.339844 326.003906 C 22.761719 325.140625 22.230469 324.253906 21.742188 323.34375 C 21.253906 322.429688 20.8125 321.492188 20.417969 320.539062 C 20.019531 319.582031 19.671875 318.605469 19.371094 317.617188 C 19.070312 316.625 18.816406 315.621094 18.617188 314.605469 C 18.414062 313.589844 18.261719 312.566406 18.160156 311.539062 C 18.058594 310.507812 18.007812 309.472656 18.007812 308.4375 C 18.007812 307.402344 18.058594 306.371094 18.160156 305.339844 C 18.261719 304.308594 18.414062 303.285156 18.613281 302.269531 C 18.816406 301.253906 19.066406 300.25 19.367188 299.261719 C 19.667969 298.269531 20.015625 297.296875 20.414062 296.339844 C 20.808594 295.382812 21.25 294.445312 21.738281 293.535156 C 22.226562 292.621094 22.757812 291.734375 23.335938 290.871094 C 23.910156 290.011719 24.527344 289.179688 25.183594 288.378906 C 25.839844 287.578125 26.535156 286.8125 27.265625 286.078125 L 97.890625 215.480469 C 98.808594 214.5625 99.679688 213.601562 100.503906 212.597656 C 101.328125 211.59375 102.101562 210.554688 102.820312 209.472656 C 103.542969 208.394531 104.210938 207.28125 104.824219 206.136719 C 105.433594 204.992188 105.988281 203.820312 106.488281 202.621094 C 106.984375 201.421875 107.421875 200.199219 107.796875 198.957031 C 108.175781 197.714844 108.488281 196.457031 108.742188 195.183594 C 108.996094 193.910156 109.1875 192.628906 109.3125 191.335938 C 109.441406 190.042969 109.503906 188.75 109.503906 187.449219 C 109.503906 186.152344 109.441406 184.855469 109.3125 183.566406 C 109.1875 182.273438 108.996094 180.988281 108.742188 179.714844 C 108.488281 178.445312 108.175781 177.183594 107.796875 175.941406 C 107.421875 174.699219 106.984375 173.480469 106.488281 172.28125 C 105.988281 171.082031 105.433594 169.910156 104.824219 168.761719 C 104.210938 167.617188 103.542969 166.507812 102.820312 165.425781 C 102.101562 164.347656 101.328125 163.304688 100.503906 162.300781 C 99.679688 161.296875 98.808594 160.335938 97.890625 159.417969 L 27.265625 88.820312 C 26.535156 88.089844 25.839844 87.324219 25.183594 86.523438 C 24.523438 85.722656 23.90625 84.890625 23.332031 84.027344 C 22.757812 83.167969 22.226562 82.28125 21.738281 81.367188 C 21.25 80.453125 20.804688 79.519531 20.410156 78.5625 C 20.011719 77.605469 19.664062 76.632812 19.363281 75.640625 C 19.0625 74.648438 18.8125 73.644531 18.609375 72.628906 C 18.40625 71.613281 18.253906 70.589844 18.152344 69.558594 C 18.050781 68.53125 18 67.496094 18 66.460938 C 18 65.425781 18.050781 64.390625 18.152344 63.359375 C 18.253906 62.332031 18.40625 61.308594 18.609375 60.292969 C 18.8125 59.277344 19.0625 58.273438 19.363281 57.28125 C 19.664062 56.289062 20.011719 55.316406 20.410156 54.359375 C 20.804688 53.402344 21.25 52.46875 21.738281 51.554688 C 22.226562 50.640625 22.757812 49.753906 23.332031 48.890625 C 23.90625 48.03125 24.523438 47.199219 25.183594 46.398438 C 25.839844 45.597656 26.535156 44.832031 27.265625 44.101562 C 28 43.367188 28.765625 42.671875 29.566406 42.015625 C 30.367188 41.359375 31.199219 40.742188 32.058594 40.167969 C 32.921875 39.59375 33.808594 39.058594 34.722656 38.570312 C 35.636719 38.082031 36.574219 37.640625 37.53125 37.246094 C 38.488281 36.847656 39.460938 36.5 40.453125 36.199219 C 41.445312 35.898438 42.449219 35.648438 43.464844 35.445312 C 44.480469 35.242188 45.503906 35.09375 46.535156 34.992188 C 47.566406 34.890625 48.597656 34.839844 49.636719 34.839844 C 50.671875 34.839844 51.707031 34.890625 52.734375 34.992188 C 53.765625 35.09375 54.789062 35.242188 55.808594 35.445312 C 56.824219 35.648438 57.828125 35.898438 58.820312 36.199219 C 59.808594 36.5 60.785156 36.847656 61.742188 37.246094 C 62.699219 37.640625 63.632812 38.082031 64.546875 38.570312 C 65.460938 39.058594 66.347656 39.59375 67.210938 40.167969 C 68.070312 40.742188 68.902344 41.359375 69.703125 42.015625 C 70.503906 42.671875 71.273438 43.367188 72.003906 44.101562 L 193.042969 165.089844 C 193.773438 165.824219 194.46875 166.589844 195.125 167.390625 C 195.78125 168.191406 196.394531 169.023438 196.96875 169.882812 C 197.542969 170.746094 198.074219 171.632812 198.5625 172.546875 C 199.050781 173.460938 199.492188 174.394531 199.886719 175.351562 C 200.285156 176.308594 200.632812 177.28125 200.933594 178.273438 C 201.230469 179.265625 201.484375 180.265625 201.683594 181.28125 C 201.886719 182.296875 202.039062 183.320312 202.140625 184.351562 C 202.242188 185.382812 202.292969 186.414062 202.292969 187.449219 C 202.292969 188.484375 202.242188 189.519531 202.140625 190.546875 C 202.039062 191.578125 201.886719 192.601562 201.683594 193.617188 C 201.484375 194.632812 201.230469 195.636719 200.933594 196.628906 C 200.632812 197.617188 200.285156 198.589844 199.886719 199.546875 C 199.492188 200.503906 199.050781 201.441406 198.5625 202.355469 C 198.074219 203.265625 197.542969 204.15625 196.96875 205.015625 C 196.394531 205.878906 195.78125 206.707031 195.125 207.511719 C 194.46875 208.3125 193.773438 209.078125 193.042969 209.8125 Z M 193.042969 209.8125 " fill-opacity="1" fill-rule="nonzero"/><path fill="#000000" d="M 359.964844 187.449219 C 359.96875 189.527344 359.773438 191.585938 359.371094 193.625 C 358.964844 195.664062 358.367188 197.640625 357.574219 199.5625 C 356.777344 201.480469 355.800781 203.304688 354.644531 205.027344 C 353.488281 206.753906 352.171875 208.351562 350.695312 209.816406 L 229.664062 330.800781 C 228.929688 331.53125 228.164062 332.226562 227.363281 332.882812 C 226.5625 333.539062 225.730469 334.15625 224.867188 334.730469 C 224.007812 335.304688 223.117188 335.835938 222.203125 336.324219 C 221.292969 336.8125 220.355469 337.253906 219.398438 337.648438 C 218.441406 338.046875 217.46875 338.394531 216.476562 338.695312 C 215.484375 338.992188 214.480469 339.246094 213.464844 339.445312 C 212.449219 339.648438 211.425781 339.800781 210.394531 339.902344 C 209.363281 340 208.328125 340.050781 207.292969 340.050781 C 206.257812 340.050781 205.222656 340 204.195312 339.898438 C 203.164062 339.796875 202.140625 339.644531 201.125 339.441406 C 200.105469 339.242188 199.105469 338.988281 198.113281 338.6875 C 197.121094 338.386719 196.148438 338.039062 195.191406 337.640625 C 194.234375 337.246094 193.296875 336.804688 192.382812 336.316406 C 191.472656 335.828125 190.582031 335.296875 189.722656 334.71875 C 188.859375 334.144531 188.03125 333.527344 187.230469 332.871094 C 186.429688 332.214844 185.664062 331.519531 184.929688 330.789062 C 184.199219 330.054688 183.503906 329.289062 182.84375 328.488281 C 182.1875 327.6875 181.570312 326.855469 180.996094 325.996094 C 180.421875 325.136719 179.890625 324.246094 179.402344 323.335938 C 178.914062 322.421875 178.46875 321.488281 178.074219 320.53125 C 177.675781 319.574219 177.328125 318.597656 177.027344 317.609375 C 176.726562 316.617188 176.476562 315.613281 176.273438 314.597656 C 176.070312 313.582031 175.917969 312.558594 175.816406 311.53125 C 175.714844 310.5 175.664062 309.464844 175.664062 308.429688 C 175.664062 307.394531 175.714844 306.363281 175.816406 305.332031 C 175.917969 304.300781 176.070312 303.277344 176.269531 302.261719 C 176.472656 301.246094 176.722656 300.242188 177.023438 299.253906 C 177.324219 298.261719 177.671875 297.289062 178.070312 296.332031 C 178.464844 295.375 178.90625 294.4375 179.394531 293.527344 C 179.882812 292.613281 180.414062 291.726562 180.988281 290.863281 C 181.566406 290.003906 182.179688 289.171875 182.835938 288.371094 C 183.496094 287.570312 184.1875 286.804688 184.921875 286.070312 L 255.550781 215.472656 C 256.46875 214.554688 257.339844 213.59375 258.164062 212.589844 C 258.988281 211.585938 259.757812 210.546875 260.480469 209.464844 C 261.203125 208.386719 261.867188 207.273438 262.480469 206.128906 C 263.09375 204.984375 263.648438 203.8125 264.144531 202.613281 C 264.640625 201.414062 265.078125 200.191406 265.457031 198.949219 C 265.832031 197.707031 266.148438 196.449219 266.402344 195.175781 C 266.65625 193.902344 266.84375 192.621094 266.972656 191.328125 C 267.097656 190.039062 267.164062 188.742188 267.164062 187.445312 C 267.164062 186.144531 267.097656 184.851562 266.972656 183.558594 C 266.84375 182.265625 266.65625 180.984375 266.402344 179.710938 C 266.148438 178.4375 265.832031 177.179688 265.457031 175.9375 C 265.078125 174.695312 264.640625 173.472656 264.144531 172.273438 C 263.648438 171.074219 263.09375 169.902344 262.480469 168.757812 C 261.867188 167.613281 261.203125 166.5 260.480469 165.421875 C 259.757812 164.34375 258.988281 163.300781 258.164062 162.296875 C 257.339844 161.292969 256.46875 160.332031 255.550781 159.414062 L 184.921875 88.816406 C 184.1875 88.085938 183.492188 87.316406 182.835938 86.515625 C 182.179688 85.714844 181.5625 84.886719 180.988281 84.023438 C 180.410156 83.164062 179.878906 82.277344 179.390625 81.363281 C 178.902344 80.449219 178.460938 79.515625 178.0625 78.558594 C 177.667969 77.601562 177.316406 76.625 177.015625 75.632812 C 176.714844 74.644531 176.464844 73.640625 176.261719 72.625 C 176.058594 71.609375 175.910156 70.585938 175.808594 69.554688 C 175.707031 68.523438 175.65625 67.488281 175.65625 66.453125 C 175.65625 65.417969 175.707031 64.386719 175.808594 63.355469 C 175.910156 62.324219 176.0625 61.300781 176.261719 60.285156 C 176.464844 59.269531 176.714844 58.265625 177.015625 57.273438 C 177.316406 56.28125 177.667969 55.308594 178.0625 54.351562 C 178.460938 53.394531 178.902344 52.460938 179.390625 51.546875 C 179.878906 50.632812 180.410156 49.746094 180.988281 48.882812 C 181.5625 48.023438 182.179688 47.191406 182.835938 46.390625 C 183.492188 45.589844 184.1875 44.824219 184.921875 44.089844 C 185.652344 43.359375 186.421875 42.664062 187.222656 42.007812 C 188.023438 41.351562 188.855469 40.734375 189.714844 40.160156 C 190.578125 39.582031 191.464844 39.050781 192.378906 38.5625 C 193.292969 38.074219 194.226562 37.632812 195.183594 37.234375 C 196.140625 36.839844 197.117188 36.492188 198.109375 36.191406 C 199.101562 35.890625 200.105469 35.636719 201.121094 35.4375 C 202.136719 35.234375 203.160156 35.082031 204.191406 34.980469 C 205.222656 34.878906 206.257812 34.828125 207.292969 34.828125 C 208.328125 34.828125 209.363281 34.878906 210.394531 34.980469 C 211.425781 35.082031 212.449219 35.234375 213.464844 35.4375 C 214.480469 35.636719 215.484375 35.890625 216.476562 36.191406 C 217.46875 36.492188 218.441406 36.839844 219.398438 37.234375 C 220.355469 37.632812 221.292969 38.074219 222.207031 38.5625 C 223.121094 39.050781 224.007812 39.582031 224.867188 40.160156 C 225.730469 40.734375 226.5625 41.351562 227.363281 42.007812 C 228.164062 42.664062 228.929688 43.359375 229.664062 44.089844 L 350.695312 165.082031 C 352.171875 166.546875 353.488281 168.140625 354.644531 169.867188 C 355.800781 171.59375 356.777344 173.417969 357.574219 175.335938 C 358.367188 177.257812 358.96875 179.238281 359.371094 181.273438 C 359.773438 183.3125 359.96875 185.371094 359.964844 187.449219 Z M 359.964844 187.449219 " fill-opacity="1" fill-rule="nonzero"/></svg>