<svg xmlns="http://www.w3.org/2000/svg" xmlns:xlink="http://www.w3.org/1999/xlink" width="500" zoomAndPan="magnify" viewBox="0 0 375 374.999991" height="500" preserveAspectRatio="xMidYMid meet" version="1.0"><defs><clipPath id="44209492d9"><path d="M 43.710938 15.554688 L 330.960938 15.554688 L 330.960938 359.804688 L 43.710938 359.804688 Z M 43.710938 15.554688 " clip-rule="nonzero"/></clipPath></defs><g clip-path="url(#44209492d9)"><path fill="#000000" d="M 187.300781 72.816406 C 220.863281 72.816406 248.066406 100.078125 248.066406 133.710938 C 248.066406 167.34375 220.863281 194.609375 187.300781 194.609375 C 153.742188 194.609375 126.539062 167.34375 126.539062 133.710938 C 126.539062 100.082031 153.742188 72.816406 187.300781 72.816406 Z M 192.8125 245.53125 L 192.8125 359.808594 L 305.296875 315.980469 L 305.296875 244.511719 L 217.34375 278.785156 C 214.785156 279.777344 211.941406 278.71875 210.609375 276.410156 Z M 181.789062 359.808594 L 181.789062 245.53125 L 164 276.414062 C 162.582031 278.867188 159.5625 279.8125 157.03125 278.695312 L 69.308594 244.511719 L 69.308594 315.976562 Z M 308.402344 183.660156 L 195.265625 227.746094 L 217.769531 266.804688 L 330.90625 222.71875 Z M 179.339844 227.746094 L 66.203125 183.660156 L 43.699219 222.71875 L 156.835938 266.804688 Z M 187.300781 205.65625 C 157.125 205.65625 131.296875 186.992188 120.679688 160.558594 L 78.957031 176.816406 L 187.300781 219.035156 L 295.648438 176.816406 L 253.925781 160.558594 C 243.308594 186.992188 217.480469 205.65625 187.300781 205.65625 Z M 298.242188 129.640625 C 301.289062 129.640625 303.753906 132.113281 303.753906 135.164062 C 303.753906 138.214844 301.289062 140.6875 298.242188 140.6875 L 272.429688 140.6875 C 269.386719 140.6875 266.917969 138.214844 266.917969 135.164062 C 266.917969 132.113281 269.386719 129.640625 272.429688 129.640625 Z M 181.789062 21.078125 C 181.789062 18.027344 184.257812 15.554688 187.300781 15.554688 C 190.347656 15.554688 192.8125 18.027344 192.8125 21.078125 L 192.8125 46.945312 C 192.8125 49.996094 190.347656 52.46875 187.300781 52.46875 C 184.257812 52.46875 181.789062 49.996094 181.789062 46.945312 Z M 126.152344 38.179688 C 124.644531 35.546875 125.550781 32.183594 128.179688 30.671875 C 130.804688 29.160156 134.160156 30.066406 135.671875 32.699219 L 148.578125 55.101562 C 150.085938 57.738281 149.179688 61.097656 146.554688 62.613281 C 143.925781 64.125 140.570312 63.21875 139.058594 60.582031 Z M 86.488281 80.902344 C 83.859375 79.378906 82.964844 76.007812 84.484375 73.375 C 86.007812 70.742188 89.371094 69.839844 92 71.367188 L 114.351562 84.300781 C 116.980469 85.828125 117.878906 89.199219 116.355469 91.832031 C 114.835938 94.464844 111.46875 95.363281 108.84375 93.839844 Z M 73.460938 137.78125 C 70.414062 137.78125 67.949219 135.308594 67.949219 132.257812 C 67.949219 129.207031 70.414062 126.734375 73.460938 126.734375 L 99.273438 126.734375 C 102.316406 126.734375 104.785156 129.207031 104.785156 132.257812 C 104.785156 135.308594 102.316406 137.78125 99.273438 137.78125 Z M 238.546875 34.152344 C 240.054688 31.519531 243.410156 30.613281 246.039062 32.125 C 248.664062 33.636719 249.574219 37 248.0625 39.632812 L 235.15625 62.035156 C 233.648438 64.671875 230.292969 65.578125 227.664062 64.066406 C 225.035156 62.550781 224.128906 59.191406 225.640625 56.558594 Z M 281.15625 73.882812 C 283.785156 72.359375 287.148438 73.257812 288.667969 75.890625 C 290.191406 78.523438 289.292969 81.894531 286.667969 83.421875 L 264.3125 96.355469 C 261.6875 97.878906 258.320312 96.980469 256.796875 94.347656 C 255.277344 91.714844 256.175781 88.34375 258.800781 86.820312 Z M 210.308594 105.941406 L 174.316406 142.015625 L 162.03125 126.523438 C 159.007812 122.710938 153.480469 122.082031 149.679688 125.109375 C 145.875 128.136719 145.246094 133.679688 148.265625 137.488281 L 166.34375 160.285156 C 169.46875 164.773438 175.90625 165.386719 179.800781 161.484375 L 222.765625 118.425781 C 226.207031 114.976562 226.207031 109.390625 222.765625 105.941406 C 219.328125 102.492188 213.75 102.492188 210.308594 105.941406 Z M 210.308594 105.941406 " fill-opacity="1" fill-rule="evenodd"/></g></svg>