<svg xmlns="http://www.w3.org/2000/svg" xmlns:xlink="http://www.w3.org/1999/xlink" width="500" zoomAndPan="magnify" viewBox="0 0 375 374.999991" height="500" preserveAspectRatio="xMidYMid meet" version="1.0"><defs><clipPath id="5d33a1b521"><path d="M 4.769531 4.769531 L 370 4.769531 L 370 370 L 4.769531 370 Z M 4.769531 4.769531 " clip-rule="nonzero"/></clipPath></defs><g clip-path="url(#5d33a1b521)"><path fill="#000000" d="M 4.726562 369.976562 L 4.726562 96.039062 L 118.867188 96.039062 L 118.867188 369.976562 Z M 27.554688 118.867188 L 27.554688 141.695312 L 50.382812 141.695312 L 50.382812 118.867188 Z M 73.210938 118.867188 L 73.210938 141.695312 L 96.039062 141.695312 L 96.039062 118.867188 Z M 73.210938 164.523438 L 73.210938 187.351562 L 96.039062 187.351562 L 96.039062 164.523438 Z M 27.554688 164.523438 L 27.554688 187.351562 L 50.382812 187.351562 L 50.382812 164.523438 Z M 73.210938 233.007812 L 96.039062 233.007812 L 96.039062 210.179688 L 73.210938 210.179688 Z M 27.554688 210.179688 L 27.554688 233.007812 L 50.382812 233.007812 L 50.382812 210.179688 Z M 27.554688 255.835938 L 27.554688 278.664062 L 50.382812 278.664062 L 50.382812 255.835938 Z M 73.210938 278.664062 L 96.039062 278.664062 L 96.039062 255.835938 L 73.210938 255.835938 Z M 73.210938 301.492188 L 73.210938 324.320312 L 96.039062 324.320312 L 96.039062 301.492188 Z M 27.554688 301.492188 L 27.554688 324.320312 L 50.382812 324.320312 L 50.382812 301.492188 Z M 310.625 4.726562 L 315.191406 4.726562 L 315.191406 36.6875 L 319.753906 41.253906 L 347.148438 59.515625 L 369.976562 91.472656 L 369.976562 369.976562 L 255.835938 369.976562 L 255.835938 91.472656 L 278.664062 59.515625 L 306.058594 41.253906 L 310.625 36.6875 Z M 278.664062 96.039062 L 301.492188 96.039062 L 301.492188 73.210938 Z M 324.320312 73.210938 L 324.320312 96.039062 L 347.148438 96.039062 Z M 278.664062 118.867188 L 278.664062 141.695312 L 301.492188 141.695312 L 301.492188 118.867188 Z M 324.320312 118.867188 L 324.320312 141.695312 L 347.148438 141.695312 L 347.148438 118.867188 Z M 324.320312 164.523438 L 324.320312 187.351562 L 347.148438 187.351562 L 347.148438 164.523438 Z M 278.664062 164.523438 L 278.664062 187.351562 L 301.492188 187.351562 L 301.492188 164.523438 Z M 324.320312 233.007812 L 347.148438 233.007812 L 347.148438 210.179688 L 324.320312 210.179688 Z M 278.054688 210.179688 L 278.054688 233.007812 L 300.882812 233.007812 L 300.882812 210.179688 Z M 278.664062 255.835938 L 278.664062 278.664062 L 301.492188 278.664062 L 301.492188 255.835938 Z M 324.320312 278.664062 L 347.148438 278.664062 L 347.148438 255.835938 L 324.320312 255.835938 Z M 324.320312 301.492188 L 324.320312 324.320312 L 347.148438 324.320312 L 347.148438 301.492188 Z M 278.664062 301.492188 L 278.664062 324.320312 L 301.492188 324.320312 L 301.492188 301.492188 Z M 128 369.976562 L 128 4.726562 L 246.707031 50.382812 L 246.707031 369.976562 Z M 141.695312 73.210938 L 141.695312 96.039062 L 164.523438 96.039062 L 164.523438 73.210938 Z M 210.179688 73.210938 L 210.179688 96.039062 L 233.007812 96.039062 L 233.007812 73.210938 Z M 141.695312 118.867188 L 141.695312 141.695312 L 164.523438 141.695312 L 164.523438 118.867188 Z M 210.179688 118.867188 L 210.179688 141.695312 L 233.007812 141.695312 L 233.007812 118.867188 Z M 210.179688 164.523438 L 210.179688 187.351562 L 233.007812 187.351562 L 233.007812 164.523438 Z M 141.695312 164.523438 L 141.695312 187.351562 L 164.523438 187.351562 L 164.523438 164.523438 Z M 210.179688 233.007812 L 233.007812 233.007812 L 233.007812 210.179688 L 210.179688 210.179688 Z M 141.695312 210.179688 L 141.695312 233.007812 L 164.523438 233.007812 L 164.523438 210.179688 Z M 141.695312 255.835938 L 141.695312 278.664062 L 164.523438 278.664062 L 164.523438 255.835938 Z M 210.179688 278.664062 L 233.007812 278.664062 L 233.007812 255.835938 L 210.179688 255.835938 Z M 210.179688 301.492188 L 210.179688 324.320312 L 233.007812 324.320312 L 233.007812 301.492188 Z M 141.695312 301.492188 L 141.695312 324.320312 L 164.523438 324.320312 L 164.523438 301.492188 Z M 196.484375 73.210938 L 178.222656 73.210938 L 178.222656 96.039062 L 196.484375 96.039062 Z M 178.222656 118.867188 L 178.222656 141.695312 L 196.484375 141.695312 L 196.484375 118.867188 Z M 178.222656 164.523438 L 178.222656 187.351562 L 196.484375 187.351562 L 196.484375 164.523438 Z M 178.222656 210.179688 L 178.222656 233.007812 L 196.484375 233.007812 L 196.484375 210.179688 Z M 178.222656 278.664062 L 196.484375 278.664062 L 196.484375 255.835938 L 178.222656 255.835938 Z M 178.222656 324.320312 L 196.484375 324.320312 L 196.484375 301.492188 L 178.222656 301.492188 Z M 178.222656 324.320312 " fill-opacity="1" fill-rule="nonzero"/></g></svg>