<svg xmlns="http://www.w3.org/2000/svg" xmlns:xlink="http://www.w3.org/1999/xlink" width="500" zoomAndPan="magnify" viewBox="0 0 375 374.999991" height="500" preserveAspectRatio="xMidYMid meet" version="1.0"><defs><clipPath id="63f4252ee0"><path d="M 25.917969 39 L 349.167969 39 L 349.167969 335 L 25.917969 335 Z M 25.917969 39 " clip-rule="nonzero"/></clipPath></defs><g clip-path="url(#63f4252ee0)"><path fill="#000000" d="M 183.746094 174.0625 C 185.257812 174.0625 186.769531 174.046875 188.28125 174.015625 C 209.035156 173.574219 229.289062 170.160156 249.039062 163.773438 L 254.660156 161.957031 L 252.523438 156.453125 C 251.5625 153.957031 250.464844 151.519531 249.230469 149.140625 C 248 146.765625 246.636719 144.464844 245.148438 142.238281 C 243.660156 140.011719 242.054688 137.875 240.328125 135.828125 C 238.601562 133.78125 236.769531 131.835938 234.824219 129.988281 C 232.882812 128.144531 230.84375 126.414062 228.710938 124.796875 C 226.574219 123.179688 224.359375 121.683594 222.054688 120.308594 C 219.753906 118.9375 217.386719 117.695312 214.945312 116.585938 C 212.507812 115.476562 210.015625 114.507812 207.46875 113.671875 C 208.675781 112.890625 209.835938 112.042969 210.953125 111.136719 C 212.070312 110.226562 213.136719 109.261719 214.148438 108.238281 C 215.160156 107.21875 216.117188 106.144531 217.015625 105.019531 C 217.914062 103.898438 218.746094 102.726562 219.519531 101.515625 C 220.292969 100.300781 221 99.050781 221.636719 97.761719 C 222.277344 96.472656 222.84375 95.152344 223.339844 93.804688 C 223.835938 92.453125 224.261719 91.082031 224.609375 89.6875 C 224.960938 88.292969 225.234375 86.882812 225.433594 85.457031 C 225.632812 84.035156 225.753906 82.601562 225.800781 81.164062 C 225.84375 79.726562 225.8125 78.292969 225.703125 76.859375 C 225.59375 75.425781 225.410156 74 225.148438 72.585938 C 224.886719 71.171875 224.550781 69.777344 224.140625 68.398438 C 223.730469 67.019531 223.246094 65.667969 222.691406 64.339844 C 222.132812 63.015625 221.507812 61.722656 220.8125 60.460938 C 220.117188 59.203125 219.359375 57.984375 218.535156 56.804688 C 217.707031 55.628906 216.820312 54.496094 215.875 53.414062 C 214.929688 52.328125 213.925781 51.300781 212.871094 50.324219 C 211.8125 49.347656 210.707031 48.429688 209.550781 47.570312 C 208.394531 46.714844 207.195312 45.917969 205.957031 45.191406 C 204.714844 44.460938 203.441406 43.796875 202.128906 43.203125 C 200.816406 42.609375 199.476562 42.089844 198.109375 41.640625 C 196.742188 41.1875 195.355469 40.8125 193.945312 40.511719 C 192.539062 40.210938 191.117188 39.984375 189.6875 39.832031 C 188.253906 39.683594 186.820312 39.609375 185.378906 39.613281 C 183.9375 39.617188 182.503906 39.699219 181.070312 39.855469 C 179.640625 40.011719 178.222656 40.246094 176.816406 40.554688 C 175.410156 40.863281 174.023438 41.246094 172.660156 41.703125 C 171.292969 42.160156 169.957031 42.691406 168.648438 43.289062 C 167.339844 43.890625 166.066406 44.558594 164.828125 45.292969 C 163.59375 46.03125 162.398438 46.832031 161.25 47.695312 C 160.097656 48.558594 158.996094 49.480469 157.941406 50.464844 C 156.890625 51.445312 155.894531 52.480469 154.953125 53.566406 C 154.011719 54.65625 153.132812 55.792969 152.3125 56.972656 C 151.492188 58.15625 150.738281 59.378906 150.050781 60.640625 C 149.363281 61.90625 148.742188 63.203125 148.195312 64.53125 C 147.644531 65.859375 147.167969 67.214844 146.765625 68.59375 C 146.359375 69.976562 146.03125 71.375 145.777344 72.789062 C 145.523438 74.203125 145.34375 75.628906 145.246094 77.0625 C 145.144531 78.496094 145.117188 79.933594 145.171875 81.371094 C 145.222656 82.808594 145.351562 84.238281 145.558594 85.660156 C 145.765625 87.085938 146.046875 88.492188 146.402344 89.886719 C 146.761719 91.277344 147.191406 92.648438 147.695312 93.996094 C 148.199219 95.34375 148.773438 96.660156 149.417969 97.945312 C 150.0625 99.230469 150.773438 100.476562 151.554688 101.6875 C 152.332031 102.898438 153.175781 104.0625 154.078125 105.179688 C 154.980469 106.300781 155.941406 107.367188 156.960938 108.386719 C 157.980469 109.402344 159.046875 110.363281 160.167969 111.265625 C 161.289062 112.167969 162.457031 113.007812 163.667969 113.785156 C 161.085938 114.640625 158.558594 115.636719 156.089844 116.777344 C 153.617188 117.917969 151.21875 119.191406 148.894531 120.597656 C 146.566406 122.007812 144.328125 123.542969 142.175781 125.203125 C 140.019531 126.863281 137.96875 128.640625 136.015625 130.53125 C 134.058594 132.425781 132.21875 134.417969 130.492188 136.515625 C 128.761719 138.617188 127.15625 140.804688 125.675781 143.082031 C 124.191406 145.363281 122.84375 147.71875 121.625 150.148438 C 120.410156 152.578125 119.332031 155.070312 118.398438 157.621094 L 116.335938 163.167969 L 122.007812 164.886719 C 142.128906 171.007812 162.710938 174.066406 183.746094 174.0625 Z M 156.300781 79.953125 C 156.300781 79 156.347656 78.046875 156.441406 77.097656 C 156.535156 76.148438 156.675781 75.203125 156.863281 74.269531 C 157.050781 73.332031 157.28125 72.410156 157.558594 71.496094 C 157.835938 70.582031 158.15625 69.6875 158.523438 68.804688 C 158.886719 67.921875 159.296875 67.0625 159.746094 66.21875 C 160.195312 65.378906 160.6875 64.5625 161.21875 63.765625 C 161.75 62.972656 162.316406 62.207031 162.921875 61.472656 C 163.527344 60.734375 164.167969 60.027344 164.84375 59.351562 C 165.519531 58.679688 166.226562 58.039062 166.964844 57.433594 C 167.703125 56.828125 168.472656 56.257812 169.265625 55.730469 C 170.058594 55.199219 170.878906 54.707031 171.71875 54.257812 C 172.5625 53.808594 173.425781 53.402344 174.308594 53.035156 C 175.191406 52.671875 176.089844 52.351562 177.003906 52.074219 C 177.917969 51.796875 178.84375 51.5625 179.78125 51.378906 C 180.71875 51.191406 181.660156 51.050781 182.613281 50.957031 C 183.5625 50.863281 184.515625 50.816406 185.472656 50.816406 C 186.425781 50.816406 187.378906 50.863281 188.328125 50.957031 C 189.28125 51.050781 190.226562 51.1875 191.160156 51.375 C 192.097656 51.5625 193.023438 51.792969 193.9375 52.070312 C 194.851562 52.347656 195.75 52.667969 196.632812 53.03125 C 197.515625 53.394531 198.378906 53.804688 199.222656 54.253906 C 200.066406 54.703125 200.882812 55.191406 201.679688 55.722656 C 202.472656 56.253906 203.238281 56.820312 203.976562 57.425781 C 204.714844 58.03125 205.425781 58.667969 206.101562 59.34375 C 206.777344 60.019531 207.417969 60.722656 208.023438 61.460938 C 208.628906 62.199219 209.199219 62.964844 209.730469 63.757812 C 210.261719 64.550781 210.75 65.367188 211.203125 66.207031 C 211.652344 67.050781 212.058594 67.910156 212.425781 68.792969 C 212.792969 69.675781 213.113281 70.570312 213.390625 71.484375 C 213.667969 72.398438 213.902344 73.320312 214.089844 74.257812 C 214.273438 75.191406 214.414062 76.136719 214.507812 77.085938 C 214.605469 78.035156 214.652344 78.984375 214.652344 79.941406 C 214.652344 80.894531 214.605469 81.847656 214.511719 82.796875 C 214.417969 83.746094 214.277344 84.6875 214.09375 85.625 C 213.90625 86.558594 213.675781 87.484375 213.398438 88.398438 C 213.121094 89.3125 212.800781 90.207031 212.4375 91.089844 C 212.070312 91.972656 211.664062 92.832031 211.214844 93.675781 C 210.761719 94.515625 210.273438 95.332031 209.742188 96.128906 C 209.210938 96.921875 208.644531 97.6875 208.039062 98.425781 C 207.433594 99.164062 206.792969 99.867188 206.117188 100.542969 C 205.441406 101.21875 204.734375 101.859375 203.996094 102.464844 C 203.257812 103.070312 202.492188 103.640625 201.699219 104.167969 C 200.90625 104.699219 200.085938 105.191406 199.246094 105.640625 C 198.402344 106.089844 197.539062 106.5 196.65625 106.863281 C 195.773438 107.230469 194.875 107.550781 193.960938 107.828125 C 193.046875 108.105469 192.121094 108.339844 191.1875 108.523438 C 190.25 108.710938 189.304688 108.851562 188.355469 108.945312 C 187.402344 109.039062 186.449219 109.089844 185.496094 109.089844 C 184.539062 109.089844 183.585938 109.042969 182.636719 108.949219 C 181.683594 108.855469 180.742188 108.714844 179.804688 108.527344 C 178.867188 108.339844 177.941406 108.109375 177.027344 107.832031 C 176.113281 107.554688 175.210938 107.234375 174.328125 106.867188 C 173.445312 106.503906 172.585938 106.09375 171.742188 105.644531 C 170.898438 105.195312 170.078125 104.707031 169.285156 104.175781 C 168.492188 103.644531 167.722656 103.078125 166.984375 102.472656 C 166.246094 101.867188 165.539062 101.226562 164.863281 100.554688 C 164.1875 99.878906 163.546875 99.171875 162.9375 98.433594 C 162.332031 97.695312 161.761719 96.933594 161.230469 96.136719 C 160.699219 95.34375 160.210938 94.527344 159.757812 93.6875 C 159.308594 92.84375 158.898438 91.984375 158.53125 91.101562 C 158.167969 90.222656 157.84375 89.324219 157.566406 88.410156 C 157.289062 87.496094 157.054688 86.574219 156.867188 85.636719 C 156.679688 84.699219 156.539062 83.757812 156.445312 82.808594 C 156.351562 81.859375 156.304688 80.90625 156.300781 79.953125 Z M 187.953125 121.402344 C 190.652344 121.519531 193.332031 121.8125 195.988281 122.285156 C 198.648438 122.757812 201.261719 123.40625 203.835938 124.226562 C 206.40625 125.050781 208.914062 126.039062 211.351562 127.195312 C 213.792969 128.351562 216.144531 129.667969 218.40625 131.136719 C 220.671875 132.609375 222.828125 134.222656 224.875 135.980469 C 226.921875 137.742188 228.84375 139.628906 230.636719 141.640625 C 232.433594 143.65625 234.085938 145.78125 235.59375 148.019531 C 237.105469 150.253906 238.460938 152.582031 239.660156 154.996094 C 222.796875 159.878906 205.585938 162.507812 188.03125 162.882812 C 168.761719 163.292969 149.820312 160.980469 131.214844 155.941406 C 131.84375 154.621094 132.523438 153.320312 133.246094 152.050781 C 133.96875 150.777344 134.738281 149.53125 135.550781 148.3125 C 136.367188 147.097656 137.222656 145.910156 138.121094 144.753906 C 139.023438 143.601562 139.964844 142.480469 140.945312 141.390625 C 141.925781 140.304688 142.945312 139.253906 144.003906 138.242188 C 145.0625 137.226562 146.152344 136.253906 147.28125 135.320312 C 148.410156 134.386719 149.570312 133.492188 150.761719 132.644531 C 151.957031 131.792969 153.179688 130.988281 154.429688 130.226562 C 155.679688 129.464844 156.957031 128.746094 158.261719 128.078125 C 159.566406 127.410156 160.890625 126.789062 162.238281 126.214844 C 163.589844 125.640625 164.957031 125.117188 166.34375 124.644531 C 167.730469 124.167969 169.128906 123.746094 170.546875 123.371094 C 171.964844 123 173.394531 122.679688 174.835938 122.410156 C 176.273438 122.140625 177.722656 121.921875 179.179688 121.757812 C 180.636719 121.59375 182.097656 121.480469 183.558594 121.421875 C 185.023438 121.363281 186.488281 121.355469 187.953125 121.402344 Z M 117.050781 274.558594 C 118.257812 273.773438 119.421875 272.929688 120.535156 272.019531 C 121.652344 271.113281 122.71875 270.148438 123.730469 269.125 C 124.742188 268.101562 125.699219 267.03125 126.597656 265.90625 C 127.496094 264.78125 128.332031 263.613281 129.101562 262.398438 C 129.875 261.1875 130.582031 259.933594 131.21875 258.644531 C 131.859375 257.355469 132.425781 256.039062 132.921875 254.6875 C 133.421875 253.339844 133.84375 251.964844 134.195312 250.570312 C 134.542969 249.175781 134.816406 247.765625 135.015625 246.34375 C 135.214844 244.917969 135.335938 243.488281 135.382812 242.050781 C 135.425781 240.613281 135.394531 239.175781 135.289062 237.742188 C 135.179688 236.308594 134.992188 234.886719 134.730469 233.472656 C 134.472656 232.058594 134.132812 230.660156 133.722656 229.285156 C 133.3125 227.90625 132.828125 226.554688 132.273438 225.226562 C 131.714844 223.898438 131.089844 222.605469 130.398438 221.347656 C 129.703125 220.085938 128.941406 218.867188 128.117188 217.691406 C 127.292969 216.511719 126.40625 215.382812 125.457031 214.296875 C 124.511719 213.214844 123.507812 212.183594 122.453125 211.207031 C 121.394531 210.230469 120.289062 209.316406 119.132812 208.457031 C 117.976562 207.597656 116.78125 206.804688 115.539062 206.074219 C 114.300781 205.34375 113.023438 204.683594 111.710938 204.089844 C 110.398438 203.496094 109.058594 202.972656 107.691406 202.523438 C 106.324219 202.074219 104.9375 201.699219 103.53125 201.394531 C 102.121094 201.09375 100.703125 200.867188 99.269531 200.71875 C 97.835938 200.570312 96.402344 200.496094 94.960938 200.5 C 93.523438 200.503906 92.085938 200.582031 90.65625 200.742188 C 89.222656 200.898438 87.804688 201.132812 86.398438 201.441406 C 84.992188 201.75 83.605469 202.132812 82.242188 202.589844 C 80.875 203.046875 79.539062 203.574219 78.230469 204.175781 C 76.921875 204.773438 75.648438 205.441406 74.414062 206.179688 C 73.175781 206.914062 71.980469 207.714844 70.832031 208.578125 C 69.679688 209.445312 68.578125 210.367188 67.527344 211.347656 C 66.472656 212.328125 65.476562 213.363281 64.535156 214.453125 C 63.59375 215.542969 62.714844 216.675781 61.894531 217.859375 C 61.078125 219.042969 60.324219 220.265625 59.632812 221.527344 C 58.945312 222.789062 58.328125 224.085938 57.777344 225.414062 C 57.226562 226.746094 56.75 228.101562 56.347656 229.480469 C 55.945312 230.859375 55.613281 232.257812 55.359375 233.671875 C 55.105469 235.089844 54.929688 236.515625 54.828125 237.949219 C 54.726562 239.382812 54.703125 240.820312 54.753906 242.253906 C 54.808594 243.691406 54.9375 245.121094 55.140625 246.546875 C 55.347656 247.96875 55.628906 249.378906 55.988281 250.769531 C 56.34375 252.164062 56.773438 253.535156 57.277344 254.878906 C 57.78125 256.226562 58.355469 257.542969 59 258.828125 C 59.644531 260.117188 60.359375 261.363281 61.136719 262.574219 C 61.914062 263.78125 62.757812 264.945312 63.660156 266.066406 C 64.5625 267.1875 65.523438 268.253906 66.542969 269.269531 C 67.5625 270.289062 68.632812 271.246094 69.753906 272.148438 C 70.875 273.050781 72.039062 273.890625 73.25 274.667969 C 70.667969 275.523438 68.140625 276.523438 65.671875 277.660156 C 63.203125 278.800781 60.804688 280.074219 58.476562 281.484375 C 56.152344 282.894531 53.910156 284.429688 51.757812 286.089844 C 49.605469 287.75 47.550781 289.527344 45.597656 291.417969 C 43.644531 293.308594 41.800781 295.304688 40.074219 297.402344 C 38.34375 299.5 36.738281 301.691406 35.257812 303.96875 C 33.777344 306.246094 32.425781 308.601562 31.210938 311.03125 C 29.992188 313.460938 28.917969 315.953125 27.980469 318.503906 L 25.917969 324.035156 L 31.585938 325.761719 C 51.710938 331.882812 72.292969 334.945312 93.332031 334.949219 C 94.820312 334.949219 96.355469 334.949219 97.863281 334.898438 C 118.621094 334.457031 138.875 331.042969 158.625 324.65625 L 164.246094 322.839844 L 162.109375 317.339844 C 161.148438 314.839844 160.050781 312.402344 158.816406 310.027344 C 157.585938 307.648438 156.222656 305.347656 154.734375 303.121094 C 153.246094 300.898438 151.640625 298.761719 149.914062 296.710938 C 148.1875 294.664062 146.351562 292.71875 144.410156 290.875 C 142.46875 289.03125 140.429688 287.300781 138.292969 285.679688 C 136.160156 284.0625 133.941406 282.566406 131.640625 281.195312 C 129.339844 279.824219 126.96875 278.582031 124.53125 277.472656 C 122.089844 276.363281 119.597656 275.390625 117.050781 274.558594 Z M 65.882812 240.835938 C 65.882812 239.882812 65.929688 238.929688 66.023438 237.980469 C 66.117188 237.03125 66.253906 236.089844 66.441406 235.152344 C 66.628906 234.21875 66.859375 233.292969 67.136719 232.378906 C 67.414062 231.464844 67.734375 230.570312 68.101562 229.6875 C 68.46875 228.804688 68.875 227.945312 69.324219 227.101562 C 69.777344 226.261719 70.265625 225.441406 70.796875 224.648438 C 71.328125 223.855469 71.894531 223.089844 72.503906 222.351562 C 73.109375 221.613281 73.75 220.910156 74.425781 220.234375 C 75.101562 219.558594 75.808594 218.917969 76.546875 218.3125 C 77.285156 217.707031 78.050781 217.140625 78.84375 216.609375 C 79.640625 216.078125 80.457031 215.589844 81.300781 215.140625 C 82.144531 214.691406 83.007812 214.28125 83.890625 213.917969 C 84.773438 213.550781 85.671875 213.230469 86.585938 212.953125 C 87.5 212.675781 88.425781 212.445312 89.363281 212.257812 C 90.300781 212.070312 91.242188 211.933594 92.195312 211.839844 C 93.144531 211.746094 94.097656 211.699219 95.054688 211.699219 C 96.007812 211.699219 96.960938 211.746094 97.914062 211.839844 C 98.863281 211.929688 99.808594 212.070312 100.746094 212.257812 C 101.683594 212.445312 102.609375 212.675781 103.523438 212.953125 C 104.4375 213.230469 105.335938 213.550781 106.21875 213.914062 C 107.101562 214.28125 107.964844 214.6875 108.808594 215.136719 C 109.648438 215.585938 110.46875 216.078125 111.261719 216.605469 C 112.058594 217.136719 112.824219 217.703125 113.5625 218.308594 C 114.300781 218.914062 115.007812 219.554688 115.683594 220.230469 C 116.359375 220.90625 117 221.609375 117.605469 222.347656 C 118.214844 223.085938 118.78125 223.851562 119.3125 224.644531 C 119.84375 225.4375 120.335938 226.257812 120.785156 227.097656 C 121.234375 227.941406 121.644531 228.800781 122.007812 229.683594 C 122.375 230.5625 122.695312 231.460938 122.972656 232.375 C 123.25 233.289062 123.484375 234.210938 123.667969 235.148438 C 123.855469 236.085938 123.996094 237.027344 124.089844 237.976562 C 124.183594 238.925781 124.230469 239.878906 124.230469 240.832031 C 124.230469 241.785156 124.183594 242.738281 124.089844 243.6875 C 123.996094 244.636719 123.855469 245.582031 123.671875 246.515625 C 123.484375 247.453125 123.25 248.378906 122.972656 249.289062 C 122.695312 250.203125 122.375 251.101562 122.011719 251.984375 C 121.644531 252.863281 121.238281 253.726562 120.785156 254.566406 C 120.335938 255.410156 119.84375 256.226562 119.3125 257.019531 C 118.785156 257.8125 118.214844 258.578125 117.609375 259.316406 C 117.003906 260.054688 116.363281 260.761719 115.6875 261.4375 C 115.011719 262.109375 114.304688 262.75 113.566406 263.355469 C 112.824219 263.960938 112.058594 264.527344 111.265625 265.058594 C 110.46875 265.589844 109.652344 266.078125 108.808594 266.53125 C 107.964844 266.980469 107.105469 267.386719 106.222656 267.753906 C 105.339844 268.117188 104.441406 268.4375 103.523438 268.714844 C 102.609375 268.992188 101.683594 269.222656 100.746094 269.410156 C 99.8125 269.597656 98.867188 269.734375 97.914062 269.828125 C 96.964844 269.921875 96.011719 269.96875 95.054688 269.96875 C 94.101562 269.96875 93.148438 269.921875 92.199219 269.828125 C 91.246094 269.730469 90.304688 269.589844 89.367188 269.40625 C 88.429688 269.21875 87.503906 268.984375 86.589844 268.707031 C 85.679688 268.429688 84.78125 268.109375 83.898438 267.742188 C 83.015625 267.378906 82.152344 266.96875 81.3125 266.519531 C 80.46875 266.070312 79.652344 265.582031 78.855469 265.050781 C 78.0625 264.519531 77.296875 263.953125 76.558594 263.347656 C 75.820312 262.742188 75.113281 262.101562 74.4375 261.425781 C 73.761719 260.753906 73.121094 260.046875 72.515625 259.308594 C 71.910156 258.574219 71.339844 257.808594 70.808594 257.015625 C 70.277344 256.222656 69.789062 255.40625 69.335938 254.5625 C 68.886719 253.722656 68.480469 252.863281 68.113281 251.980469 C 67.746094 251.101562 67.425781 250.203125 67.144531 249.289062 C 66.867188 248.378906 66.636719 247.453125 66.449219 246.519531 C 66.261719 245.582031 66.121094 244.640625 66.027344 243.691406 C 65.929688 242.742188 65.882812 241.792969 65.882812 240.835938 Z M 97.621094 323.757812 C 78.347656 324.164062 59.402344 321.847656 40.796875 316.808594 C 41.992188 314.257812 43.359375 311.800781 44.902344 309.441406 C 46.445312 307.082031 48.144531 304.84375 50.003906 302.722656 C 51.859375 300.605469 53.859375 298.625 55.996094 296.785156 C 58.132812 294.945312 60.386719 293.265625 62.761719 291.742188 C 65.132812 290.222656 67.601562 288.875 70.167969 287.699219 C 72.730469 286.523438 75.363281 285.53125 78.066406 284.726562 C 80.769531 283.921875 83.515625 283.3125 86.304688 282.894531 C 89.09375 282.472656 91.902344 282.253906 94.722656 282.226562 C 97.542969 282.203125 100.351562 282.375 103.148438 282.746094 C 105.945312 283.117188 108.699219 283.679688 111.417969 284.4375 C 114.132812 285.195312 116.785156 286.140625 119.367188 287.269531 C 121.953125 288.402344 124.445312 289.707031 126.84375 291.1875 C 129.242188 292.667969 131.527344 294.308594 133.695312 296.109375 C 135.863281 297.910156 137.894531 299.855469 139.789062 301.941406 C 141.683594 304.03125 143.425781 306.238281 145.007812 308.570312 C 146.589844 310.902344 148 313.332031 149.242188 315.863281 C 132.382812 320.746094 115.175781 323.378906 97.621094 323.757812 Z M 347.117188 317.339844 C 346.15625 314.839844 345.058594 312.402344 343.824219 310.027344 C 342.59375 307.648438 341.230469 305.347656 339.742188 303.121094 C 338.253906 300.898438 336.644531 298.761719 334.921875 296.710938 C 333.195312 294.664062 331.359375 292.71875 329.417969 290.875 C 327.476562 289.03125 325.4375 287.300781 323.300781 285.679688 C 321.167969 284.0625 318.949219 282.566406 316.648438 281.195312 C 314.347656 279.824219 311.976562 278.582031 309.539062 277.472656 C 307.097656 276.363281 304.605469 275.390625 302.058594 274.558594 C 303.265625 273.773438 304.429688 272.929688 305.542969 272.019531 C 306.660156 271.113281 307.726562 270.148438 308.738281 269.125 C 309.75 268.101562 310.707031 267.03125 311.605469 265.90625 C 312.503906 264.78125 313.339844 263.613281 314.109375 262.398438 C 314.882812 261.1875 315.589844 259.933594 316.226562 258.644531 C 316.867188 257.355469 317.433594 256.039062 317.929688 254.6875 C 318.429688 253.339844 318.851562 251.964844 319.199219 250.570312 C 319.550781 249.175781 319.824219 247.765625 320.023438 246.34375 C 320.222656 244.917969 320.34375 243.488281 320.390625 242.050781 C 320.433594 240.613281 320.402344 239.175781 320.292969 237.742188 C 320.1875 236.308594 320 234.886719 319.738281 233.472656 C 319.476562 232.058594 319.140625 230.660156 318.730469 229.285156 C 318.320312 227.90625 317.835938 226.554688 317.28125 225.226562 C 316.722656 223.898438 316.097656 222.605469 315.402344 221.347656 C 314.710938 220.085938 313.949219 218.867188 313.125 217.691406 C 312.296875 216.511719 311.414062 215.382812 310.464844 214.296875 C 309.519531 213.214844 308.515625 212.183594 307.460938 211.207031 C 306.402344 210.230469 305.296875 209.316406 304.140625 208.457031 C 302.984375 207.597656 301.789062 206.804688 300.546875 206.074219 C 299.304688 205.34375 298.03125 204.683594 296.71875 204.089844 C 295.40625 203.496094 294.066406 202.972656 292.699219 202.523438 C 291.332031 202.074219 289.945312 201.699219 288.539062 201.394531 C 287.128906 201.09375 285.710938 200.867188 284.277344 200.71875 C 282.84375 200.570312 281.410156 200.496094 279.96875 200.5 C 278.53125 200.503906 277.09375 200.582031 275.664062 200.742188 C 274.230469 200.898438 272.8125 201.132812 271.40625 201.441406 C 270 201.75 268.613281 202.132812 267.25 202.589844 C 265.882812 203.046875 264.546875 203.574219 263.238281 204.175781 C 261.929688 204.773438 260.65625 205.441406 259.421875 206.179688 C 258.183594 206.914062 256.988281 207.714844 255.839844 208.578125 C 254.6875 209.445312 253.585938 210.367188 252.535156 211.347656 C 251.480469 212.328125 250.484375 213.363281 249.542969 214.453125 C 248.601562 215.542969 247.722656 216.675781 246.902344 217.859375 C 246.082031 219.042969 245.328125 220.265625 244.640625 221.527344 C 243.953125 222.789062 243.335938 224.085938 242.785156 225.414062 C 242.234375 226.746094 241.757812 228.101562 241.355469 229.480469 C 240.953125 230.859375 240.621094 232.257812 240.367188 233.671875 C 240.113281 235.089844 239.9375 236.515625 239.835938 237.949219 C 239.734375 239.382812 239.710938 240.820312 239.761719 242.253906 C 239.8125 243.691406 239.945312 245.121094 240.148438 246.546875 C 240.355469 247.96875 240.636719 249.378906 240.992188 250.769531 C 241.351562 252.164062 241.78125 253.535156 242.285156 254.878906 C 242.789062 256.226562 243.363281 257.542969 244.007812 258.828125 C 244.652344 260.117188 245.367188 261.363281 246.144531 262.574219 C 246.921875 263.78125 247.765625 264.945312 248.667969 266.066406 C 249.570312 267.1875 250.53125 268.253906 251.550781 269.269531 C 252.570312 270.289062 253.640625 271.246094 254.761719 272.148438 C 255.882812 273.050781 257.046875 273.890625 258.257812 274.667969 C 255.675781 275.523438 253.148438 276.523438 250.679688 277.660156 C 248.210938 278.800781 245.8125 280.074219 243.484375 281.484375 C 241.160156 282.894531 238.917969 284.429688 236.765625 286.089844 C 234.609375 287.75 232.558594 289.527344 230.605469 291.417969 C 228.652344 293.308594 226.808594 295.304688 225.082031 297.402344 C 223.351562 299.5 221.746094 301.691406 220.265625 303.96875 C 218.785156 306.246094 217.433594 308.601562 216.21875 311.03125 C 215 313.460938 213.925781 315.953125 212.988281 318.503906 L 210.925781 324.050781 L 216.597656 325.773438 C 236.722656 331.898438 257.304688 334.960938 278.34375 334.960938 C 279.855469 334.960938 281.367188 334.945312 282.878906 334.914062 C 303.636719 334.472656 323.886719 331.058594 343.640625 324.671875 L 349.257812 322.855469 Z M 250.894531 240.835938 C 250.894531 239.882812 250.941406 238.929688 251.035156 237.980469 C 251.125 237.03125 251.265625 236.089844 251.453125 235.152344 C 251.640625 234.21875 251.871094 233.292969 252.148438 232.378906 C 252.425781 231.464844 252.746094 230.570312 253.113281 229.6875 C 253.476562 228.804688 253.886719 227.945312 254.335938 227.101562 C 254.785156 226.261719 255.277344 225.441406 255.808594 224.648438 C 256.339844 223.855469 256.90625 223.089844 257.511719 222.351562 C 258.121094 221.613281 258.761719 220.910156 259.4375 220.234375 C 260.113281 219.558594 260.820312 218.917969 261.558594 218.3125 C 262.296875 217.707031 263.0625 217.140625 263.855469 216.609375 C 264.652344 216.078125 265.46875 215.589844 266.3125 215.140625 C 267.15625 214.691406 268.019531 214.28125 268.898438 213.917969 C 269.78125 213.550781 270.683594 213.230469 271.597656 212.953125 C 272.511719 212.675781 273.4375 212.445312 274.375 212.257812 C 275.308594 212.070312 276.253906 211.933594 277.207031 211.839844 C 278.15625 211.746094 279.109375 211.699219 280.066406 211.699219 C 281.019531 211.699219 281.972656 211.746094 282.925781 211.839844 C 283.875 211.929688 284.820312 212.070312 285.757812 212.257812 C 286.695312 212.445312 287.621094 212.675781 288.535156 212.953125 C 289.449219 213.230469 290.347656 213.550781 291.230469 213.914062 C 292.113281 214.28125 292.976562 214.6875 293.816406 215.136719 C 294.660156 215.585938 295.480469 216.078125 296.273438 216.605469 C 297.070312 217.136719 297.835938 217.703125 298.574219 218.308594 C 299.3125 218.914062 300.019531 219.554688 300.695312 220.230469 C 301.371094 220.90625 302.011719 221.609375 302.617188 222.347656 C 303.222656 223.085938 303.792969 223.851562 304.324219 224.644531 C 304.855469 225.4375 305.34375 226.257812 305.796875 227.097656 C 306.246094 227.941406 306.65625 228.800781 307.019531 229.683594 C 307.386719 230.5625 307.707031 231.460938 307.984375 232.375 C 308.261719 233.289062 308.496094 234.210938 308.679688 235.148438 C 308.867188 236.085938 309.007812 237.027344 309.101562 237.976562 C 309.195312 238.925781 309.242188 239.878906 309.242188 240.832031 C 309.242188 241.785156 309.195312 242.738281 309.101562 243.6875 C 309.007812 244.636719 308.867188 245.582031 308.679688 246.515625 C 308.496094 247.453125 308.261719 248.378906 307.984375 249.289062 C 307.707031 250.203125 307.386719 251.101562 307.019531 251.984375 C 306.65625 252.863281 306.246094 253.726562 305.796875 254.566406 C 305.347656 255.410156 304.855469 256.226562 304.324219 257.019531 C 303.792969 257.8125 303.226562 258.578125 302.621094 259.316406 C 302.015625 260.054688 301.371094 260.761719 300.695312 261.4375 C 300.023438 262.109375 299.316406 262.75 298.574219 263.355469 C 297.835938 263.960938 297.070312 264.527344 296.277344 265.058594 C 295.480469 265.589844 294.664062 266.078125 293.820312 266.53125 C 292.976562 266.980469 292.113281 267.386719 291.230469 267.753906 C 290.347656 268.117188 289.449219 268.4375 288.535156 268.714844 C 287.621094 268.992188 286.695312 269.222656 285.757812 269.410156 C 284.820312 269.597656 283.878906 269.734375 282.925781 269.828125 C 281.976562 269.921875 281.023438 269.96875 280.066406 269.96875 C 279.113281 269.96875 278.160156 269.921875 277.210938 269.828125 C 276.257812 269.730469 275.316406 269.589844 274.378906 269.40625 C 273.441406 269.21875 272.515625 268.984375 271.601562 268.707031 C 270.6875 268.429688 269.792969 268.109375 268.910156 267.742188 C 268.027344 267.378906 267.164062 266.96875 266.324219 266.519531 C 265.480469 266.070312 264.664062 265.582031 263.867188 265.050781 C 263.074219 264.519531 262.308594 263.953125 261.570312 263.347656 C 260.832031 262.742188 260.125 262.101562 259.449219 261.425781 C 258.773438 260.753906 258.132812 260.046875 257.527344 259.308594 C 256.921875 258.574219 256.351562 257.808594 255.820312 257.015625 C 255.289062 256.222656 254.800781 255.40625 254.347656 254.5625 C 253.898438 253.722656 253.488281 252.863281 253.125 251.980469 C 252.757812 251.101562 252.4375 250.203125 252.15625 249.289062 C 251.878906 248.378906 251.648438 247.453125 251.460938 246.519531 C 251.273438 245.582031 251.132812 244.640625 251.035156 243.691406 C 250.941406 242.742188 250.894531 241.792969 250.894531 240.835938 Z M 282.632812 323.757812 C 263.363281 324.164062 244.421875 321.847656 225.816406 316.808594 C 227.015625 314.257812 228.382812 311.800781 229.925781 309.441406 C 231.46875 307.082031 233.167969 304.84375 235.027344 302.722656 C 236.882812 300.605469 238.878906 298.625 241.015625 296.785156 C 243.152344 294.945312 245.410156 293.265625 247.78125 291.742188 C 250.15625 290.222656 252.625 288.875 255.1875 287.699219 C 257.753906 286.523438 260.386719 285.53125 263.089844 284.726562 C 265.792969 283.921875 268.539062 283.3125 271.328125 282.894531 C 274.117188 282.472656 276.921875 282.253906 279.742188 282.226562 C 282.566406 282.203125 285.375 282.375 288.167969 282.746094 C 290.964844 283.117188 293.722656 283.679688 296.4375 284.4375 C 299.15625 285.195312 301.804688 286.140625 304.390625 287.269531 C 306.972656 288.402344 309.464844 289.707031 311.867188 291.1875 C 314.265625 292.667969 316.550781 294.308594 318.71875 296.109375 C 320.886719 297.910156 322.917969 299.855469 324.8125 301.941406 C 326.707031 304.03125 328.445312 306.238281 330.03125 308.570312 C 331.613281 310.902344 333.023438 313.332031 334.265625 315.863281 C 317.398438 320.75 300.191406 323.378906 282.632812 323.757812 Z M 213.765625 270.9375 L 188.152344 245.359375 L 162.542969 270.9375 C 161.957031 271.558594 161.269531 272.027344 160.472656 272.339844 C 159.675781 272.652344 158.847656 272.78125 157.996094 272.722656 C 156.425781 272.578125 155.089844 271.941406 153.988281 270.8125 C 153.691406 270.542969 153.425781 270.246094 153.191406 269.921875 C 152.953125 269.597656 152.753906 269.253906 152.589844 268.890625 C 152.425781 268.523438 152.296875 268.144531 152.210938 267.753906 C 152.125 267.363281 152.078125 266.96875 152.070312 266.570312 C 152.066406 266.167969 152.101562 265.769531 152.175781 265.378906 C 152.25 264.984375 152.367188 264.601562 152.519531 264.234375 C 152.675781 263.863281 152.863281 263.511719 153.089844 263.183594 C 153.316406 262.851562 153.574219 262.546875 153.863281 262.269531 L 181.152344 235.019531 L 181.152344 198.515625 C 181.164062 198.121094 181.214844 197.730469 181.304688 197.347656 C 181.394531 196.964844 181.515625 196.59375 181.679688 196.234375 C 181.839844 195.875 182.03125 195.53125 182.257812 195.210938 C 182.484375 194.886719 182.738281 194.589844 183.023438 194.316406 C 183.304688 194.042969 183.613281 193.796875 183.945312 193.582031 C 184.273438 193.367188 184.621094 193.1875 184.988281 193.039062 C 185.351562 192.894531 185.730469 192.78125 186.117188 192.707031 C 186.503906 192.632812 186.894531 192.59375 187.289062 192.59375 C 187.683594 192.59375 188.074219 192.632812 188.460938 192.707031 C 188.847656 192.78125 189.222656 192.894531 189.589844 193.039062 C 189.953125 193.1875 190.304688 193.367188 190.632812 193.582031 C 190.964844 193.796875 191.269531 194.042969 191.554688 194.316406 C 191.839844 194.589844 192.09375 194.886719 192.320312 195.210938 C 192.546875 195.53125 192.738281 195.875 192.898438 196.234375 C 193.058594 196.59375 193.183594 196.964844 193.273438 197.347656 C 193.359375 197.730469 193.414062 198.121094 193.425781 198.515625 L 193.425781 233.296875 L 193.550781 233.410156 L 222.449219 262.269531 C 222.824219 262.617188 223.144531 263.011719 223.414062 263.449219 C 223.683594 263.886719 223.886719 264.351562 224.03125 264.84375 C 224.171875 265.339844 224.242188 265.839844 224.246094 266.355469 C 224.25 266.867188 224.183594 267.371094 224.050781 267.867188 C 223.890625 268.425781 223.664062 268.953125 223.367188 269.453125 C 223.074219 269.953125 222.71875 270.40625 222.308594 270.816406 C 221.894531 271.222656 221.4375 271.574219 220.9375 271.867188 C 220.433594 272.160156 219.90625 272.382812 219.34375 272.539062 C 218.851562 272.675781 218.34375 272.746094 217.832031 272.742188 C 217.316406 272.742188 216.8125 272.667969 216.316406 272.527344 C 215.824219 272.386719 215.359375 272.179688 214.921875 271.910156 C 214.484375 271.640625 214.089844 271.3125 213.742188 270.9375 Z M 213.765625 270.9375 " fill-opacity="1" fill-rule="nonzero"/></g></svg>