<svg xmlns="http://www.w3.org/2000/svg" xmlns:xlink="http://www.w3.org/1999/xlink" width="500" zoomAndPan="magnify" viewBox="0 0 375 374.999991" height="500" preserveAspectRatio="xMidYMid meet" version="1.0"><defs><clipPath id="3e88aa061b"><path d="M 104.335938 19.523438 L 270.835938 19.523438 L 270.835938 186.023438 L 104.335938 186.023438 Z M 104.335938 19.523438 " clip-rule="nonzero"/></clipPath><clipPath id="c834312d75"><path d="M 259.617188 0.09375 L 374.800781 0.09375 L 374.800781 115.277344 L 259.617188 115.277344 Z M 259.617188 0.09375 " clip-rule="nonzero"/></clipPath><clipPath id="2b842ea9dd"><path d="M 130.011719 0.09375 L 245.199219 0.09375 L 245.199219 115.277344 L 130.011719 115.277344 Z M 130.011719 0.09375 " clip-rule="nonzero"/></clipPath><clipPath id="d80b2aedf1"><path d="M 0 0.09375 L 115.1875 0.09375 L 115.1875 115.277344 L 0 115.277344 Z M 0 0.09375 " clip-rule="nonzero"/></clipPath><clipPath id="551c4b9cc8"><rect x="0" width="375" y="0" height="117"/></clipPath><clipPath id="ae8da82acc"><path d="M 102.089844 15.035156 L 272.902344 15.035156 L 272.902344 185.847656 L 102.089844 185.847656 Z M 102.089844 15.035156 " clip-rule="nonzero"/></clipPath><clipPath id="26e3eb0fe4"><path d="M 187.496094 15.035156 C 140.328125 15.035156 102.089844 53.273438 102.089844 100.441406 C 102.089844 147.609375 140.328125 185.847656 187.496094 185.847656 C 234.664062 185.847656 272.902344 147.609375 272.902344 100.441406 C 272.902344 53.273438 234.664062 15.035156 187.496094 15.035156 Z M 187.496094 15.035156 " clip-rule="nonzero"/></clipPath><clipPath id="6d75158e0c"><path d="M 0 240.09375 L 118.21875 240.09375 L 118.21875 358.308594 L 0 358.308594 Z M 0 240.09375 " clip-rule="nonzero"/></clipPath><clipPath id="92b59a245c"><path d="M 59.109375 240.09375 C 26.464844 240.09375 0 266.554688 0 299.199219 C 0 331.847656 26.464844 358.308594 59.109375 358.308594 C 91.753906 358.308594 118.21875 331.847656 118.21875 299.199219 C 118.21875 266.554688 91.753906 240.09375 59.109375 240.09375 Z M 59.109375 240.09375 " clip-rule="nonzero"/></clipPath><clipPath id="9bcd0c9150"><path d="M 128.386719 240.09375 L 246.605469 240.09375 L 246.605469 358.308594 L 128.386719 358.308594 Z M 128.386719 240.09375 " clip-rule="nonzero"/></clipPath><clipPath id="ffa53c51b2"><path d="M 187.496094 240.09375 C 154.847656 240.09375 128.386719 266.554688 128.386719 299.199219 C 128.386719 331.847656 154.847656 358.308594 187.496094 358.308594 C 220.140625 358.308594 246.605469 331.847656 246.605469 299.199219 C 246.605469 266.554688 220.140625 240.09375 187.496094 240.09375 Z M 187.496094 240.09375 " clip-rule="nonzero"/></clipPath><clipPath id="23e4509adb"><path d="M 256.769531 237.246094 L 374.988281 237.246094 L 374.988281 355.464844 L 256.769531 355.464844 Z M 256.769531 237.246094 " clip-rule="nonzero"/></clipPath><clipPath id="3ef1299631"><path d="M 315.878906 237.246094 C 283.234375 237.246094 256.769531 263.710938 256.769531 296.355469 C 256.769531 329 283.234375 355.464844 315.878906 355.464844 C 348.523438 355.464844 374.988281 329 374.988281 296.355469 C 374.988281 263.710938 348.523438 237.246094 315.878906 237.246094 Z M 315.878906 237.246094 " clip-rule="nonzero"/></clipPath></defs><g clip-path="url(#3e88aa061b)"><path fill="#000000" d="M 246.449219 43.90625 C 230.726562 28.183594 209.820312 19.523438 187.582031 19.523438 C 165.347656 19.523438 144.441406 28.183594 128.71875 43.90625 C 112.992188 59.628906 104.335938 80.535156 104.335938 102.773438 C 104.335938 125.007812 112.992188 145.914062 128.71875 161.636719 C 144.441406 177.363281 165.347656 186.019531 187.582031 186.019531 C 209.820312 186.019531 230.726562 177.363281 246.449219 161.636719 C 262.171875 145.914062 270.832031 125.007812 270.832031 102.773438 C 270.832031 80.535156 262.171875 59.628906 246.449219 43.90625 Z M 132.496094 47.683594 C 147.210938 32.96875 166.773438 24.867188 187.582031 24.867188 C 208.390625 24.867188 227.957031 32.96875 242.671875 47.683594 C 257.386719 62.398438 265.488281 81.960938 265.488281 102.773438 C 265.488281 120.070312 259.882812 136.507812 249.542969 150.011719 C 241.3125 138.503906 228.167969 131.703125 213.894531 131.703125 L 161.273438 131.703125 C 147 131.703125 133.855469 138.503906 125.625 150.011719 C 115.28125 136.507812 109.675781 120.070312 109.675781 102.773438 C 109.675781 81.960938 117.78125 62.398438 132.496094 47.683594 Z M 187.582031 127.316406 C 208.972656 127.316406 226.371094 109.914062 226.371094 88.527344 C 226.371094 67.136719 208.972656 49.734375 187.582031 49.734375 C 166.195312 49.734375 148.792969 67.136719 148.792969 88.527344 C 148.792969 109.914062 166.195312 127.316406 187.582031 127.316406 Z M 187.582031 127.316406 " fill-opacity="1" fill-rule="nonzero"/></g><g transform="matrix(1, 0, 0, 1, 0, 240)"><g clip-path="url(#551c4b9cc8)"><g clip-path="url(#c834312d75)"><path fill="#000000" d="M 357.929688 16.960938 C 347.054688 6.082031 332.589844 0.09375 317.207031 0.09375 C 301.824219 0.09375 287.363281 6.082031 276.484375 16.960938 C 265.605469 27.839844 259.617188 42.300781 259.617188 57.683594 C 259.617188 73.066406 265.605469 87.53125 276.484375 98.40625 C 287.363281 109.285156 301.824219 115.277344 317.207031 115.277344 C 332.589844 115.277344 347.054688 109.285156 357.929688 98.40625 C 368.808594 87.53125 374.800781 73.066406 374.800781 57.683594 C 374.800781 42.300781 368.808594 27.839844 357.929688 16.960938 Z M 279.097656 19.574219 C 289.277344 9.394531 302.8125 3.789062 317.207031 3.789062 C 331.605469 3.789062 345.136719 9.394531 355.316406 19.574219 C 365.496094 29.753906 371.105469 43.289062 371.105469 57.683594 C 371.105469 69.652344 367.226562 81.023438 360.070312 90.367188 C 354.378906 82.402344 345.285156 77.699219 335.410156 77.699219 L 299.003906 77.699219 C 289.132812 77.699219 280.039062 82.402344 274.34375 90.367188 C 267.1875 81.023438 263.3125 69.652344 263.3125 57.683594 C 263.3125 43.289062 268.917969 29.753906 279.097656 19.574219 Z M 317.207031 74.664062 C 332.003906 74.664062 344.042969 62.625 344.042969 47.828125 C 344.042969 33.03125 332.003906 20.992188 317.207031 20.992188 C 302.410156 20.992188 290.371094 33.03125 290.371094 47.828125 C 290.371094 62.625 302.410156 74.664062 317.207031 74.664062 Z M 317.207031 74.664062 " fill-opacity="1" fill-rule="nonzero"/></g><g clip-path="url(#2b842ea9dd)"><path fill="#000000" d="M 228.328125 16.960938 C 217.449219 6.082031 202.988281 0.09375 187.605469 0.09375 C 172.21875 0.09375 157.757812 6.082031 146.878906 16.960938 C 136.003906 27.839844 130.011719 42.300781 130.011719 57.683594 C 130.011719 73.066406 136.003906 87.53125 146.878906 98.40625 C 157.757812 109.285156 172.21875 115.277344 187.605469 115.277344 C 202.988281 115.277344 217.449219 109.285156 228.328125 98.40625 C 239.207031 87.53125 245.195312 73.066406 245.195312 57.683594 C 245.195312 42.300781 239.207031 27.839844 228.328125 16.960938 Z M 149.492188 19.574219 C 159.671875 9.394531 173.207031 3.789062 187.605469 3.789062 C 202 3.789062 215.535156 9.394531 225.714844 19.574219 C 235.894531 29.753906 241.5 43.289062 241.5 57.683594 C 241.5 69.652344 237.621094 81.023438 230.46875 90.367188 C 224.773438 82.402344 215.679688 77.699219 205.804688 77.699219 L 169.402344 77.699219 C 159.527344 77.699219 150.433594 82.402344 144.738281 90.367188 C 137.585938 81.023438 133.707031 69.652344 133.707031 57.683594 C 133.707031 43.289062 139.3125 29.753906 149.492188 19.574219 Z M 187.605469 74.664062 C 202.402344 74.664062 214.4375 62.625 214.4375 47.828125 C 214.4375 33.03125 202.402344 20.992188 187.605469 20.992188 C 172.808594 20.992188 160.769531 33.03125 160.769531 47.828125 C 160.769531 62.625 172.808594 74.664062 187.605469 74.664062 Z M 187.605469 74.664062 " fill-opacity="1" fill-rule="nonzero"/></g><g clip-path="url(#d80b2aedf1)"><path fill="#000000" d="M 98.316406 16.960938 C 87.4375 6.082031 72.976562 0.09375 57.59375 0.09375 C 42.207031 0.09375 27.746094 6.082031 16.867188 16.960938 C 5.992188 27.839844 0 42.300781 0 57.683594 C 0 73.066406 5.992188 87.53125 16.867188 98.40625 C 27.746094 109.285156 42.207031 115.277344 57.59375 115.277344 C 72.976562 115.277344 87.4375 109.285156 98.316406 98.40625 C 109.195312 87.53125 115.183594 73.066406 115.183594 57.683594 C 115.183594 42.300781 109.195312 27.839844 98.316406 16.960938 Z M 19.480469 19.574219 C 29.660156 9.394531 43.195312 3.789062 57.59375 3.789062 C 71.988281 3.789062 85.523438 9.394531 95.703125 19.574219 C 105.882812 29.753906 111.488281 43.289062 111.488281 57.683594 C 111.488281 69.652344 107.609375 81.023438 100.457031 90.367188 C 94.761719 82.402344 85.667969 77.699219 75.792969 77.699219 L 39.390625 77.699219 C 29.515625 77.699219 20.421875 82.402344 14.726562 90.367188 C 7.574219 81.023438 3.695312 69.652344 3.695312 57.683594 C 3.695312 43.289062 9.300781 29.753906 19.480469 19.574219 Z M 57.59375 74.664062 C 72.390625 74.664062 84.425781 62.625 84.425781 47.828125 C 84.425781 33.03125 72.390625 20.992188 57.59375 20.992188 C 42.796875 20.992188 30.757812 33.03125 30.757812 47.828125 C 30.757812 62.625 42.796875 74.664062 57.59375 74.664062 Z M 57.59375 74.664062 " fill-opacity="1" fill-rule="nonzero"/></g></g></g><path stroke-linecap="butt" transform="matrix(0.75, 0, 0, 0.75, 56.960391, 208.150534)" fill="none" stroke-linejoin="miter" d="M 0.000728454 9.502413 L 346.203876 9.502413 " stroke="#000000" stroke-width="19" stroke-opacity="1" stroke-miterlimit="4"/><path stroke-linecap="butt" transform="matrix(0, -0.75, 0.75, 0, 49.831194, 242.863578)" fill="none" stroke-linejoin="miter" d="M 0.000395203 9.501117 L 46.65144 9.501117 " stroke="#000000" stroke-width="19" stroke-opacity="1" stroke-miterlimit="4"/><path stroke-linecap="butt" transform="matrix(0.000000001309, -0.75, 0.75, 0.000000001309, 180.371505, 242.864281)" fill="none" stroke-linejoin="miter" d="M 0.00133282 9.499452 L 81.074255 9.499452 " stroke="#000000" stroke-width="19" stroke-opacity="1" stroke-miterlimit="4"/><path stroke-linecap="butt" transform="matrix(0, -0.75, 0.75, 0, 302.170737, 242.863578)" fill="none" stroke-linejoin="miter" d="M 0.000395203 9.501518 L 46.65144 9.501518 " stroke="#000000" stroke-width="19" stroke-opacity="1" stroke-miterlimit="4"/><g clip-path="url(#ae8da82acc)"><g clip-path="url(#26e3eb0fe4)"><path stroke-linecap="butt" transform="matrix(0.75, 0, 0, 0.75, 102.089338, 15.034013)" fill="none" stroke-linejoin="miter" d="M 113.875682 0.00152464 C 50.985053 0.00152464 0.000674605 50.985903 0.000674605 113.876532 C 0.000674605 176.767161 50.985053 227.75154 113.875682 227.75154 C 176.766311 227.75154 227.75069 176.767161 227.75069 113.876532 C 227.75069 50.985903 176.766311 0.00152464 113.875682 0.00152464 Z M 113.875682 0.00152464 " stroke="#000000" stroke-width="34" stroke-opacity="1" stroke-miterlimit="4"/></g></g><g clip-path="url(#6d75158e0c)"><g clip-path="url(#92b59a245c)"><path stroke-linecap="butt" transform="matrix(0.75, 0, 0, 0.75, 0.0000045, 240.091801)" fill="none" stroke-linejoin="miter" d="M 78.812499 0.00259862 C 35.286455 0.00259862 -0.000006 35.283851 -0.000006 78.815104 C -0.000006 122.341148 35.286455 157.622401 78.812499 157.622401 C 122.338544 157.622401 157.625004 122.341148 157.625004 78.815104 C 157.625004 35.283851 122.338544 0.00259862 78.812499 0.00259862 Z M 78.812499 0.00259862 " stroke="#000000" stroke-width="34" stroke-opacity="1" stroke-miterlimit="4"/></g></g><g clip-path="url(#9bcd0c9150)"><g clip-path="url(#ffa53c51b2)"><path stroke-linecap="butt" transform="matrix(0.75, 0, 0, 0.75, 128.38526, 240.091801)" fill="none" stroke-linejoin="miter" d="M 78.81445 0.00259862 C 35.283197 0.00259862 0.00194491 35.283851 0.00194491 78.815104 C 0.00194491 122.341148 35.283197 157.622401 78.81445 157.622401 C 122.340495 157.622401 157.626955 122.341148 157.626955 78.815104 C 157.626955 35.283851 122.340495 0.00259862 78.81445 0.00259862 Z M 78.81445 0.00259862 " stroke="#000000" stroke-width="34" stroke-opacity="1" stroke-miterlimit="4"/></g></g><g clip-path="url(#23e4509adb)"><g clip-path="url(#3ef1299631)"><path stroke-linecap="butt" transform="matrix(0.75, 0, 0, 0.75, 256.770516, 237.247016)" fill="none" stroke-linejoin="miter" d="M 78.811193 -0.00123023 C 35.285148 -0.00123023 -0.00131252 35.28523 -0.00131252 78.811275 C -0.00131252 122.337319 35.285148 157.62378 78.811193 157.62378 C 122.337237 157.62378 157.623698 122.337319 157.623698 78.811275 C 157.623698 35.28523 122.337237 -0.00123023 78.811193 -0.00123023 Z M 78.811193 -0.00123023 " stroke="#000000" stroke-width="34" stroke-opacity="1" stroke-miterlimit="4"/></g></g></svg>