<svg xmlns="http://www.w3.org/2000/svg" xmlns:xlink="http://www.w3.org/1999/xlink" width="500" zoomAndPan="magnify" viewBox="0 0 375 374.999991" height="500" preserveAspectRatio="xMidYMid meet" version="1.0"><defs><clipPath id="086028f51c"><path d="M 187.5 0 C 83.945312 0 0 83.945312 0 187.5 C 0 291.054688 83.945312 375 187.5 375 C 291.054688 375 375 291.054688 375 187.5 C 375 83.945312 291.054688 0 187.5 0 Z M 187.5 0 " clip-rule="nonzero"/></clipPath><clipPath id="a077796fa0"><path d="M 56.125 107.359375 L 318.625 107.359375 L 318.625 267.859375 L 56.125 267.859375 Z M 56.125 107.359375 " clip-rule="nonzero"/></clipPath></defs><g clip-path="url(#086028f51c)"><path stroke-linecap="butt" transform="matrix(0.75, 0, 0, 0.75, 0.0000045, 0)" fill="none" stroke-linejoin="miter" d="M 249.999994 0 C 111.927078 0 -0.000006 111.927084 -0.000006 250 C -0.000006 388.072917 111.927078 500.000001 249.999994 500.000001 C 388.072911 500.000001 499.999995 388.072917 499.999995 250 C 499.999995 111.927084 388.072911 0 249.999994 0 Z M 249.999994 0 " stroke="#000000" stroke-width="60" stroke-opacity="1" stroke-miterlimit="4"/></g><g clip-path="url(#a077796fa0)"><path fill="#000000" d="M 307.308594 107.445312 L 67.6875 107.445312 C 61.3125 107.445312 56.125 112.601562 56.125 119.003906 L 56.125 255.996094 C 56.125 262.398438 61.3125 267.554688 67.6875 267.554688 L 307.308594 267.554688 C 313.683594 267.554688 318.871094 262.367188 318.871094 255.996094 L 318.871094 119.003906 C 318.871094 112.601562 313.683594 107.445312 307.308594 107.445312 Z M 282.183594 240.722656 L 92.8125 240.722656 L 92.8125 227.421875 L 282.183594 227.421875 Z M 125.390625 213.824219 L 120.398438 213.824219 L 105.292969 176.316406 L 105.292969 213.824219 L 93.894531 213.824219 L 93.894531 160.289062 L 109.855469 160.289062 L 122.863281 192.640625 L 135.867188 160.289062 L 151.929688 160.289062 L 151.929688 213.824219 L 140.433594 213.824219 L 140.433594 176.316406 Z M 162.570312 213.824219 L 162.570312 160.289062 L 173.964844 160.289062 L 173.964844 213.824219 Z M 182.636719 175.757812 C 182.636719 166.859375 190.355469 159.46875 202.933594 159.46875 C 211.441406 159.46875 218.503906 162.03125 223.824219 166.921875 L 217.484375 175.265625 C 213.148438 171.257812 207.367188 169.417969 201.917969 169.417969 C 197.023438 169.417969 194.296875 171.585938 194.296875 174.804688 C 194.296875 183.3125 225.039062 177.628906 225.039062 197.597656 C 225.039062 207.386719 218.042969 214.777344 203.589844 214.777344 C 193.3125 214.777344 185.921875 211.328125 180.960938 206.269531 L 187.136719 197.597656 C 190.914062 201.539062 196.761719 204.824219 204.148438 204.824219 C 210.421875 204.824219 213.476562 201.933594 213.476562 198.878906 C 213.476562 189.421875 182.636719 195.925781 182.636719 175.757812 Z M 258.667969 204.660156 C 264.21875 204.660156 269.015625 201.277344 271.28125 196.875 L 281.070312 201.605469 C 277.226562 208.273438 270.460938 214.777344 258.667969 214.777344 C 242.609375 214.777344 230.160156 203.542969 230.160156 187.089844 C 230.160156 170.636719 242.609375 159.402344 258.667969 159.402344 C 270.460938 159.402344 277.292969 165.839844 281.070312 172.472656 L 271.28125 177.300781 C 269.046875 172.96875 264.21875 169.519531 258.667969 169.519531 C 248.949219 169.519531 241.886719 176.972656 241.886719 187.089844 C 241.917969 197.207031 248.980469 204.660156 258.667969 204.660156 Z M 282.183594 147.578125 L 92.8125 147.578125 L 92.8125 134.277344 L 282.183594 134.277344 Z M 282.183594 147.578125 " fill-opacity="1" fill-rule="nonzero"/></g></svg>