<svg xmlns="http://www.w3.org/2000/svg" xmlns:xlink="http://www.w3.org/1999/xlink" width="500" zoomAndPan="magnify" viewBox="0 0 375 374.999991" height="500" preserveAspectRatio="xMidYMid meet" version="1.0"><defs><clipPath id="18149f2e70"><path d="M 187.5 0 C 83.945312 0 0 83.945312 0 187.5 C 0 291.054688 83.945312 375 187.5 375 C 291.054688 375 375 291.054688 375 187.5 C 375 83.945312 291.054688 0 187.5 0 Z M 187.5 0 " clip-rule="nonzero"/></clipPath><clipPath id="e35152ea67"><path d="M 65.367188 301 L 128 301 L 128 309.132812 L 65.367188 309.132812 Z M 65.367188 301 " clip-rule="nonzero"/></clipPath><clipPath id="38f8d878b0"><path d="M 65.367188 91 L 92 91 L 92 123 L 65.367188 123 Z M 65.367188 91 " clip-rule="nonzero"/></clipPath><clipPath id="80e59f94cf"><path d="M 76 66.132812 L 95 66.132812 L 95 85 L 76 85 Z M 76 66.132812 " clip-rule="nonzero"/></clipPath><clipPath id="da72582986"><path d="M 65.367188 177 L 135 177 L 135 309.132812 L 65.367188 309.132812 Z M 65.367188 177 " clip-rule="nonzero"/></clipPath><clipPath id="f8513c34ff"><path d="M 109 289 L 132 289 L 132 309.132812 L 109 309.132812 Z M 109 289 " clip-rule="nonzero"/></clipPath><clipPath id="764dba759f"><path d="M 280 159 L 309.867188 159 L 309.867188 207 L 280 207 Z M 280 159 " clip-rule="nonzero"/></clipPath></defs><g clip-path="url(#18149f2e70)"><path stroke-linecap="butt" transform="matrix(0.75, 0, 0, 0.75, 0.0000045, 0)" fill="none" stroke-linejoin="miter" d="M 249.999994 0 C 111.927078 0 -0.000006 111.927084 -0.000006 250 C -0.000006 388.072917 111.927078 500.000001 249.999994 500.000001 C 388.072911 500.000001 499.999995 388.072917 499.999995 250 C 499.999995 111.927084 388.072911 0 249.999994 0 Z M 249.999994 0 " stroke="#000000" stroke-width="60" stroke-opacity="1" stroke-miterlimit="4"/></g><g clip-path="url(#e35152ea67)"><path stroke-linecap="round" transform="matrix(0.0857751, 0, 0, 0.0857839, 58.952168, 58.952279)" fill="none" stroke-linejoin="round" d="M 120.010713 2871.32452 L 750.019757 2871.32452 " stroke="#000000" stroke-width="90" stroke-opacity="1" stroke-miterlimit="4"/></g><g clip-path="url(#38f8d878b0)"><path fill="#000000" d="M 89.554688 99.554688 C 85.148438 91.699219 75.207031 88.902344 67.355469 93.308594 C 65.496094 94.351562 64.835938 96.703125 65.875 98.5625 C 66.917969 100.421875 69.273438 101.085938 71.132812 100.042969 C 75.265625 97.726562 80.5 99.195312 82.820312 103.332031 C 85.136719 107.46875 83.667969 112.699219 79.53125 115.019531 C 77.671875 116.0625 77.011719 118.417969 78.054688 120.277344 C 79.097656 122.136719 81.449219 122.800781 83.308594 121.757812 C 91.164062 117.351562 93.957031 107.410156 89.554688 99.554688 Z M 89.554688 99.554688 " fill-opacity="1" fill-rule="nonzero"/></g><path fill="#000000" d="M 90.417969 75.199219 C 90.417969 78.078125 88.085938 80.410156 85.210938 80.410156 C 82.332031 80.410156 80 78.078125 80 75.199219 C 80 72.324219 82.332031 69.992188 85.210938 69.992188 C 88.085938 69.992188 90.417969 72.324219 90.417969 75.199219 Z M 90.417969 75.199219 " fill-opacity="1" fill-rule="nonzero"/><g clip-path="url(#80e59f94cf)"><path fill="#000000" d="M 86.558594 75.199219 C 86.558594 74.453125 85.957031 73.851562 85.210938 73.851562 C 84.464844 73.851562 83.859375 74.453125 83.859375 75.199219 C 83.859375 75.945312 84.464844 76.550781 85.210938 76.550781 C 85.957031 76.550781 86.558594 75.945312 86.558594 75.199219 Z M 94.277344 75.199219 C 94.277344 80.210938 90.21875 84.269531 85.210938 84.269531 C 80.199219 84.269531 76.140625 80.210938 76.140625 75.199219 C 76.140625 70.191406 80.199219 66.128906 85.210938 66.128906 C 90.21875 66.128906 94.277344 70.191406 94.277344 75.199219 Z M 94.277344 75.199219 " fill-opacity="1" fill-rule="nonzero"/></g><g clip-path="url(#da72582986)"><path fill="#000000" d="M 77.664062 178.683594 C 87.347656 175.160156 98.054688 180.152344 101.578125 189.835938 L 134.21875 279.53125 C 134.496094 280.289062 134.527344 281.117188 134.308594 281.894531 L 127.445312 306.300781 C 127.109375 307.496094 126.21875 308.457031 125.050781 308.882812 C 123.882812 309.308594 122.582031 309.148438 121.554688 308.445312 L 100.609375 294.164062 C 99.941406 293.707031 99.433594 293.050781 99.160156 292.292969 L 66.515625 202.601562 C 62.992188 192.917969 67.984375 182.210938 77.664062 178.683594 Z M 94.324219 192.476562 C 92.257812 186.800781 85.980469 183.875 80.304688 185.941406 C 74.632812 188.007812 71.703125 194.28125 73.769531 199.960938 L 105.984375 288.484375 L 121.464844 299.039062 L 126.539062 280.996094 Z M 94.324219 192.476562 " fill-opacity="1" fill-rule="nonzero"/></g><path fill="#000000" d="M 113.25 298.113281 L 123.722656 305.253906 L 127.15625 293.050781 Z M 113.25 298.113281 " fill-opacity="1" fill-rule="nonzero"/><g clip-path="url(#f8513c34ff)"><path fill="#000000" d="M 125.835938 289.425781 C 127.195312 288.929688 128.71875 289.238281 129.78125 290.222656 C 130.84375 291.207031 131.265625 292.703125 130.871094 294.097656 L 127.441406 306.300781 C 127.101562 307.496094 126.210938 308.457031 125.042969 308.882812 C 123.878906 309.304688 122.574219 309.144531 121.550781 308.445312 L 111.078125 301.300781 C 109.882812 300.484375 109.242188 299.070312 109.421875 297.632812 C 109.601562 296.195312 110.570312 294.980469 111.933594 294.484375 Z M 125.835938 289.425781 " fill-opacity="1" fill-rule="nonzero"/></g><path fill="#000000" d="M 128.441406 274.933594 C 130.445312 274.203125 131.480469 271.988281 130.75 269.988281 C 130.019531 267.984375 127.804688 266.949219 125.800781 267.679688 L 97.996094 277.800781 C 95.992188 278.53125 94.957031 280.746094 95.6875 282.75 C 96.417969 284.753906 98.632812 285.785156 100.636719 285.054688 Z M 128.441406 274.933594 " fill-opacity="1" fill-rule="nonzero"/><path fill="#000000" d="M 72.503906 207.734375 L 100.308594 197.613281 L 102.707031 204.199219 L 74.898438 214.320312 Z M 72.503906 207.734375 " fill-opacity="1" fill-rule="nonzero"/><path fill="#000000" d="M 98.972656 193.980469 C 100.972656 193.25 103.1875 194.28125 103.917969 196.285156 L 106.316406 202.875 C 107.042969 204.878906 106.011719 207.09375 104.007812 207.824219 L 76.203125 217.945312 C 74.199219 218.675781 71.984375 217.640625 71.253906 215.636719 L 68.855469 209.050781 C 68.128906 207.046875 69.160156 204.832031 71.164062 204.101562 Z M 98.972656 193.980469 " fill-opacity="1" fill-rule="nonzero"/><g clip-path="url(#764dba759f)"><path fill="#000000" d="M 301.550781 160.386719 C 303.464844 159.449219 305.777344 160.238281 306.714844 162.15625 C 310.03125 168.917969 310.550781 174.632812 309.035156 179.429688 C 307.90625 183.007812 305.761719 185.691406 303.539062 187.707031 C 304.527344 192.582031 303.332031 197.546875 300.75 201.183594 C 297.609375 205.605469 291.992188 208.492188 285.71875 206.035156 C 283.734375 205.257812 282.753906 203.015625 283.53125 201.03125 C 284.308594 199.046875 286.550781 198.066406 288.535156 198.84375 C 290.753906 199.714844 292.855469 198.960938 294.453125 196.710938 C 295.304688 195.515625 295.878906 194.019531 296.085938 192.425781 C 294.929688 192.867188 293.746094 193.1875 292.558594 193.34375 C 288.355469 193.90625 284.703125 192.859375 282.429688 190.089844 C 280.265625 187.457031 280.03125 184.058594 280.84375 181.339844 C 281.660156 178.613281 283.734375 175.894531 287.039062 174.890625 C 290.46875 173.847656 294.132812 174.960938 297.457031 177.710938 C 298.414062 178.5 299.253906 179.351562 299.988281 180.246094 C 300.726562 179.300781 301.308594 178.265625 301.675781 177.105469 C 302.441406 174.671875 302.46875 171.035156 299.78125 165.550781 C 298.84375 163.636719 299.636719 161.324219 301.550781 160.386719 Z M 290.226562 182.316406 C 289.734375 182.183594 289.441406 182.226562 289.28125 182.273438 C 288.960938 182.371094 288.480469 182.75 288.238281 183.554688 C 287.996094 184.371094 288.199219 184.953125 288.394531 185.191406 C 288.484375 185.300781 288.667969 185.46875 289.089844 185.601562 C 289.535156 185.742188 290.316406 185.855469 291.539062 185.691406 C 292.230469 185.601562 293.023438 185.367188 293.882812 184.984375 C 293.496094 184.527344 293.050781 184.082031 292.539062 183.660156 C 291.523438 182.820312 290.742188 182.460938 290.226562 182.316406 Z M 290.226562 182.316406 " fill-opacity="1" fill-rule="nonzero"/></g><path fill="#000000" d="M 186.789062 160.792969 C 184.65625 160.792969 182.929688 159.066406 182.929688 156.933594 C 182.929688 154.804688 184.65625 153.074219 186.789062 153.074219 L 242.257812 153.074219 C 244.386719 153.074219 246.117188 154.804688 246.117188 156.933594 C 246.117188 159.066406 244.386719 160.792969 242.257812 160.792969 Z M 186.789062 178.019531 C 184.65625 178.019531 182.929688 176.289062 182.929688 174.15625 C 182.929688 172.027344 184.65625 170.296875 186.789062 170.296875 L 218.632812 170.296875 C 220.761719 170.296875 222.492188 172.027344 222.492188 174.15625 C 222.492188 176.289062 220.761719 178.019531 218.632812 178.019531 Z M 186.789062 178.019531 " fill-opacity="1" fill-rule="nonzero"/><path fill="#000000" d="M 164.886719 151.363281 C 166.328125 149.792969 168.769531 149.683594 170.339844 151.125 C 171.910156 152.566406 172.015625 155.007812 170.578125 156.578125 L 149.347656 179.742188 C 148.625 180.527344 147.609375 180.980469 146.542969 180.992188 C 145.476562 181.003906 144.449219 180.570312 143.710938 179.796875 L 130.203125 165.644531 C 128.730469 164.101562 128.785156 161.65625 130.328125 160.1875 C 131.867188 158.714844 134.3125 158.769531 135.785156 160.3125 L 146.445312 171.480469 Z M 164.886719 151.363281 " fill-opacity="1" fill-rule="nonzero"/><path fill="#000000" d="M 186.789062 205.277344 C 184.65625 205.277344 182.929688 203.550781 182.929688 201.417969 C 182.929688 199.285156 184.65625 197.558594 186.789062 197.558594 L 242.257812 197.558594 C 244.386719 197.558594 246.117188 199.285156 246.117188 201.417969 C 246.117188 203.550781 244.386719 205.277344 242.257812 205.277344 Z M 186.789062 222.5 C 184.65625 222.5 182.929688 220.773438 182.929688 218.640625 C 182.929688 216.507812 184.65625 214.78125 186.789062 214.78125 L 218.632812 214.78125 C 220.761719 214.78125 222.492188 216.507812 222.492188 218.640625 C 222.492188 220.773438 220.761719 222.5 218.632812 222.5 Z M 186.789062 222.5 " fill-opacity="1" fill-rule="nonzero"/><path fill="#000000" d="M 164.886719 195.835938 C 166.328125 194.265625 168.769531 194.160156 170.339844 195.597656 C 171.910156 197.039062 172.015625 199.480469 170.578125 201.054688 L 149.347656 224.214844 C 148.625 225 147.609375 225.457031 146.542969 225.464844 C 145.476562 225.476562 144.449219 225.046875 143.710938 224.273438 L 130.203125 210.117188 C 128.730469 208.578125 128.785156 206.132812 130.328125 204.660156 C 131.867188 203.1875 134.3125 203.242188 135.785156 204.785156 L 146.445312 215.953125 Z M 164.886719 195.835938 " fill-opacity="1" fill-rule="nonzero"/><path fill="#000000" d="M 186.789062 249.761719 C 184.65625 249.761719 182.929688 248.035156 182.929688 245.902344 C 182.929688 243.769531 184.65625 242.042969 186.789062 242.042969 L 242.257812 242.042969 C 244.386719 242.042969 246.117188 243.769531 246.117188 245.902344 C 246.117188 248.035156 244.386719 249.761719 242.257812 249.761719 Z M 186.789062 266.984375 C 184.65625 266.984375 182.929688 265.257812 182.929688 263.125 C 182.929688 260.992188 184.65625 259.265625 186.789062 259.265625 L 218.632812 259.265625 C 220.761719 259.265625 222.492188 260.992188 222.492188 263.125 C 222.492188 265.257812 220.761719 266.984375 218.632812 266.984375 Z M 186.789062 266.984375 " fill-opacity="1" fill-rule="nonzero"/><path fill="#000000" d="M 164.707031 248.933594 C 166.148438 247.363281 168.589844 247.257812 170.160156 248.699219 C 171.730469 250.140625 171.835938 252.582031 170.394531 254.152344 L 149.167969 277.3125 C 148.445312 278.101562 147.429688 278.554688 146.363281 278.566406 C 145.292969 278.574219 144.269531 278.144531 143.53125 277.371094 L 136.777344 270.292969 C 135.304688 268.753906 135.359375 266.308594 136.902344 264.835938 C 138.441406 263.363281 140.886719 263.417969 142.359375 264.960938 L 146.265625 269.050781 Z M 164.707031 248.933594 " fill-opacity="1" fill-rule="nonzero"/><path fill="#000000" d="M 149.347656 88.292969 C 149.347656 84.375 146.171875 81.199219 142.257812 81.199219 C 138.339844 81.199219 135.164062 84.375 135.164062 88.292969 L 135.164062 101.703125 L 135.203125 102.425781 C 135.566406 106 138.585938 108.792969 142.257812 108.792969 C 146.171875 108.792969 149.347656 105.617188 149.347656 101.703125 Z M 194.707031 88.292969 C 194.707031 84.375 191.53125 81.199219 187.617188 81.199219 C 183.699219 81.199219 180.527344 84.375 180.527344 88.292969 L 180.527344 101.703125 C 180.527344 105.617188 183.703125 108.792969 187.617188 108.792969 C 191.53125 108.792969 194.707031 105.617188 194.707031 101.703125 Z M 240.066406 88.292969 C 240.066406 84.375 236.890625 81.199219 232.976562 81.199219 C 229.058594 81.199219 225.886719 84.375 225.886719 88.292969 L 225.886719 101.703125 C 225.886719 105.617188 229.058594 108.792969 232.976562 108.792969 C 236.890625 108.792969 240.066406 105.617188 240.066406 101.703125 Z M 157.066406 101.703125 C 157.066406 109.882812 150.4375 116.515625 142.257812 116.515625 C 134.332031 116.515625 127.863281 110.289062 127.464844 102.464844 L 127.445312 101.703125 L 127.445312 88.292969 C 127.445312 80.109375 134.078125 73.480469 142.257812 73.480469 C 150.4375 73.480469 157.066406 80.109375 157.066406 88.292969 Z M 202.425781 101.703125 C 202.425781 109.882812 195.796875 116.515625 187.617188 116.515625 C 179.4375 116.515625 172.804688 109.882812 172.804688 101.703125 L 172.804688 88.292969 C 172.804688 80.109375 179.4375 73.480469 187.617188 73.480469 C 195.796875 73.480469 202.425781 80.109375 202.425781 88.292969 Z M 247.785156 101.703125 C 247.785156 109.882812 241.15625 116.515625 232.976562 116.515625 C 224.796875 116.515625 218.167969 109.882812 218.167969 101.703125 L 218.167969 88.292969 C 218.167969 80.109375 224.796875 73.480469 232.976562 73.480469 C 241.15625 73.480469 247.785156 80.109375 247.785156 88.292969 Z M 247.785156 101.703125 " fill-opacity="1" fill-rule="nonzero"/><path fill="#000000" d="M 267.386719 129.441406 L 267.386719 103.246094 C 267.386719 96.136719 261.625 90.378906 254.519531 90.378906 L 243.925781 90.378906 L 243.925781 101.703125 C 243.925781 107.753906 239.023438 112.65625 232.976562 112.65625 C 226.925781 112.65625 222.023438 107.753906 222.023438 101.703125 L 222.023438 90.378906 L 198.566406 90.378906 L 198.566406 101.703125 C 198.566406 107.753906 193.664062 112.65625 187.613281 112.65625 C 181.566406 112.65625 176.664062 107.753906 176.664062 101.703125 L 176.664062 90.378906 L 153.207031 90.378906 L 153.207031 101.703125 C 153.207031 107.753906 148.300781 112.65625 142.253906 112.65625 C 136.207031 112.65625 131.304688 107.753906 131.304688 101.703125 L 131.304688 90.378906 L 120.710938 90.378906 C 113.605469 90.378906 107.84375 96.136719 107.84375 103.246094 L 107.84375 129.441406 Z M 267.386719 129.441406 " fill-opacity="1" fill-rule="nonzero"/><path fill="#000000" d="M 240.066406 90.378906 C 240.066406 88.246094 241.796875 86.515625 243.925781 86.515625 L 254.519531 86.515625 C 263.757812 86.515625 271.246094 94.007812 271.246094 103.246094 L 271.246094 129.441406 C 271.246094 131.574219 269.515625 133.304688 267.386719 133.304688 L 107.84375 133.304688 C 105.710938 133.304688 103.984375 131.574219 103.984375 129.441406 L 103.984375 103.246094 C 103.984375 94.007812 111.472656 86.515625 120.710938 86.515625 L 131.304688 86.515625 C 133.4375 86.519531 135.164062 88.246094 135.164062 90.378906 L 135.164062 101.703125 C 135.164062 105.621094 138.335938 108.796875 142.253906 108.796875 C 146.171875 108.796875 149.34375 105.621094 149.34375 101.703125 L 149.34375 90.378906 C 149.34375 88.246094 151.074219 86.515625 153.207031 86.515625 L 176.664062 86.515625 C 178.796875 86.515625 180.523438 88.246094 180.523438 90.378906 L 180.523438 101.703125 C 180.523438 105.621094 183.699219 108.796875 187.613281 108.796875 C 191.53125 108.796875 194.707031 105.621094 194.707031 101.703125 L 194.707031 90.378906 C 194.707031 88.246094 196.433594 86.515625 198.566406 86.515625 L 222.023438 86.515625 C 224.15625 86.515625 225.882812 88.246094 225.882812 90.378906 L 225.882812 101.703125 C 225.882812 105.621094 229.058594 108.796875 232.976562 108.796875 C 236.890625 108.796875 240.066406 105.621094 240.066406 101.703125 Z M 247.785156 101.703125 C 247.785156 109.882812 241.15625 116.515625 232.976562 116.515625 C 224.796875 116.515625 218.164062 109.886719 218.164062 101.703125 L 218.164062 94.238281 L 202.425781 94.238281 L 202.425781 101.703125 C 202.425781 109.886719 195.792969 116.515625 187.613281 116.515625 C 179.433594 116.515625 172.804688 109.886719 172.804688 101.703125 L 172.804688 94.238281 L 157.066406 94.238281 L 157.066406 101.703125 C 157.066406 109.886719 150.433594 116.515625 142.253906 116.515625 C 134.074219 116.515625 127.445312 109.882812 127.445312 101.703125 L 127.445312 94.238281 L 120.710938 94.238281 C 115.734375 94.238281 111.703125 98.269531 111.703125 103.246094 L 111.703125 125.582031 L 263.527344 125.582031 L 263.527344 103.246094 C 263.527344 98.269531 259.492188 94.238281 254.519531 94.238281 L 247.785156 94.238281 Z M 247.785156 101.703125 " fill-opacity="1" fill-rule="nonzero"/><path fill="#000000" d="M 103.984375 175.304688 L 103.984375 129.441406 C 103.984375 127.308594 105.710938 125.582031 107.84375 125.582031 L 267.386719 125.582031 C 269.515625 125.582031 271.246094 127.308594 271.246094 129.441406 L 271.246094 284.679688 C 271.246094 291.074219 266.058594 296.261719 259.664062 296.261719 L 147.085938 296.261719 C 144.953125 296.261719 143.226562 294.53125 143.226562 292.402344 C 143.226562 290.269531 144.953125 288.539062 147.085938 288.539062 L 259.664062 288.539062 C 261.796875 288.539062 263.523438 286.8125 263.527344 284.679688 L 263.527344 133.304688 L 111.703125 133.304688 L 111.703125 175.304688 C 111.703125 177.4375 109.976562 179.167969 107.84375 179.167969 C 105.710938 179.167969 103.984375 177.4375 103.984375 175.304688 Z M 103.984375 175.304688 " fill-opacity="1" fill-rule="nonzero"/></svg>