<svg xmlns="http://www.w3.org/2000/svg" xmlns:xlink="http://www.w3.org/1999/xlink" width="500" zoomAndPan="magnify" viewBox="0 0 375 374.999991" height="500" preserveAspectRatio="xMidYMid meet" version="1.0"><defs><clipPath id="dfe6a9088e"><path d="M 37.5 37.5 L 337.5 37.5 L 337.5 337.5 L 37.5 337.5 Z M 37.5 37.5 " clip-rule="nonzero"/></clipPath><clipPath id="9b23a63380"><path d="M 54.75 37.5 L 320.25 37.5 C 324.824219 37.5 329.210938 39.316406 332.449219 42.550781 C 335.683594 45.789062 337.5 50.175781 337.5 54.75 L 337.5 320.25 C 337.5 324.824219 335.683594 329.210938 332.449219 332.449219 C 329.210938 335.683594 324.824219 337.5 320.25 337.5 L 54.75 337.5 C 50.175781 337.5 45.789062 335.683594 42.550781 332.449219 C 39.316406 329.210938 37.5 324.824219 37.5 320.25 L 37.5 54.75 C 37.5 50.175781 39.316406 45.789062 42.550781 42.550781 C 45.789062 39.316406 50.175781 37.5 54.75 37.5 Z M 54.75 37.5 " clip-rule="nonzero"/></clipPath></defs><g clip-path="url(#dfe6a9088e)"><g clip-path="url(#9b23a63380)"><path stroke-linecap="butt" transform="matrix(0.75, 0, 0, 0.75, 37.500002, 37.499998)" fill="none" stroke-linejoin="miter" d="M 22.999999 0.00000328333 L 377.000022 0.00000328333 C 383.098981 0.00000328333 388.947939 2.421878 393.265648 6.734379 C 397.578148 11.052087 400.000024 16.901046 400.000024 23.000005 L 400.000024 377.000028 C 400.000024 383.098987 397.578148 388.947945 393.265648 393.265654 C 388.947939 397.578154 383.098981 400.00003 377.000022 400.00003 L 22.999999 400.00003 C 16.90104 400.00003 11.052081 397.578154 6.734373 393.265654 C 2.421872 388.947945 -0.00000271667 383.098987 -0.00000271667 377.000028 L -0.00000271667 23.000005 C -0.00000271667 16.901046 2.421872 11.052087 6.734373 6.734379 C 11.052081 2.421878 16.90104 0.00000328333 22.999999 0.00000328333 Z M 22.999999 0.00000328333 " stroke="#000000" stroke-width="50" stroke-opacity="1" stroke-miterlimit="4"/></g></g><path fill="#06924f" d="M 152.511719 302.917969 C 148.101562 302.917969 143.972656 301.265625 140.941406 298.234375 L 68.769531 223.859375 C 61.882812 217.523438 61.605469 206.777344 68.21875 199.890625 C 74.554688 193.003906 85.296875 192.730469 92.183594 199.339844 L 145.074219 237.082031 C 148.101562 239.835938 152.785156 239.285156 155.265625 235.976562 L 280.601562 81.164062 C 286.113281 73.726562 296.855469 72.074219 304.292969 77.859375 C 311.730469 83.371094 313.382812 94.113281 307.597656 101.550781 L 166.007812 296.03125 C 162.980469 299.886719 158.570312 302.367188 153.886719 302.640625 C 153.335938 302.917969 153.0625 302.917969 152.511719 302.917969 Z M 152.511719 302.917969 " fill-opacity="1" fill-rule="nonzero"/></svg>