<svg xmlns="http://www.w3.org/2000/svg" xmlns:xlink="http://www.w3.org/1999/xlink" width="500" zoomAndPan="magnify" viewBox="0 0 375 374.999991" height="500" preserveAspectRatio="xMidYMid meet" version="1.0"><defs><clipPath id="959e2a232c"><path d="M 12.050781 144 L 363.050781 144 L 363.050781 306 L 12.050781 306 Z M 12.050781 144 " clip-rule="nonzero"/></clipPath><clipPath id="9d458dbcab"><path d="M 104 27.402344 L 271 27.402344 L 271 134 L 104 134 Z M 104 27.402344 " clip-rule="nonzero"/></clipPath><clipPath id="b8be5a56e4"><path d="M 86 263 L 289 263 L 289 347.652344 L 86 347.652344 Z M 86 263 " clip-rule="nonzero"/></clipPath></defs><g clip-path="url(#959e2a232c)"><path fill="#000000" d="M 296.414062 305.738281 L 296.414062 252.570312 L 78.722656 253.511719 L 78.722656 305.738281 L 29.617188 305.738281 C 22.199219 305.738281 12.484375 293.542969 13.050781 286.023438 C 15.238281 246.730469 10.109375 204.210938 13.015625 165.292969 C 13.738281 155.644531 18.691406 148.9375 27.777344 145.652344 C 132.945312 144.09375 238.394531 145.464844 343.671875 144.964844 C 354.625 146.335938 361.699219 155.164062 362.121094 165.972656 C 359.796875 204.527344 364.996094 246.460938 362.121094 284.808594 C 361.554688 292.363281 358.640625 298.835938 352.035156 302.871094 C 350.804688 303.621094 346.667969 305.734375 345.519531 305.734375 L 296.410156 305.734375 Z M 316.304688 168.890625 C 297.832031 170.714844 304.007812 200.332031 322.511719 193.289062 C 336.074219 188.128906 330.410156 167.5 316.304688 168.890625 Z M 316.304688 168.890625 " fill-opacity="1" fill-rule="nonzero"/></g><g clip-path="url(#9d458dbcab)"><path fill="#000000" d="M 270.140625 27.402344 L 270.140625 133.730469 L 104.996094 133.730469 L 104.996094 27.402344 Z M 250.75 49.917969 L 124.390625 49.917969 L 124.390625 59.300781 L 249.8125 59.300781 C 251.761719 56.949219 250.335938 52.882812 250.75 49.917969 Z M 250.75 75.5625 L 124.390625 75.5625 C 124.699219 77.261719 123.578125 84.480469 125.300781 84.785156 L 250.75 84.320312 Z M 250.75 101.207031 L 125.308594 100.769531 C 123.550781 101.09375 124.710938 108.246094 124.390625 109.964844 L 250.75 109.964844 Z M 250.75 101.207031 " fill-opacity="1" fill-rule="nonzero"/></g><g clip-path="url(#b8be5a56e4)"><path fill="#000000" d="M 284.53125 263.828125 L 288.28125 347.644531 L 86.855469 347.644531 L 90.609375 263.828125 Z M 268.265625 280.71875 L 106.871094 280.71875 L 106.871094 290.101562 L 268.265625 290.101562 Z M 268.890625 311.992188 C 268.472656 309.03125 269.898438 304.960938 267.949219 302.609375 L 106.871094 302.609375 L 106.246094 311.992188 L 268.894531 311.992188 Z M 211.964844 324.5 L 106.246094 324.5 C 106.660156 327.464844 105.238281 331.535156 107.183594 333.882812 L 211.964844 333.882812 Z M 211.964844 324.5 " fill-opacity="1" fill-rule="nonzero"/></g><path fill="#000000" d="M 281.402344 89.949219 L 298.917969 89.949219 L 298.917969 133.730469 L 281.402344 133.730469 Z M 281.402344 89.949219 " fill-opacity="1" fill-rule="nonzero"/><path fill="#000000" d="M 93.734375 89.949219 L 93.734375 133.730469 L 77.160156 133.730469 L 76.21875 89.949219 Z M 93.734375 89.949219 " fill-opacity="1" fill-rule="nonzero"/></svg>