<svg xmlns="http://www.w3.org/2000/svg" xmlns:xlink="http://www.w3.org/1999/xlink" width="500" zoomAndPan="magnify" viewBox="0 0 375 374.999991" height="500" preserveAspectRatio="xMidYMid meet" version="1.0"><defs><clipPath id="3d45688b05"><path d="M 187.5 0 C 83.945312 0 0 83.945312 0 187.5 C 0 291.054688 83.945312 375 187.5 375 C 291.054688 375 375 291.054688 375 187.5 C 375 83.945312 291.054688 0 187.5 0 Z M 187.5 0 " clip-rule="nonzero"/></clipPath><clipPath id="47c2111979"><path d="M 71.292969 110 L 303.792969 110 L 303.792969 285 L 71.292969 285 Z M 71.292969 110 " clip-rule="nonzero"/></clipPath><clipPath id="4ea03afffa"><path d="M 139 264 L 236 264 L 236 303.792969 L 139 303.792969 Z M 139 264 " clip-rule="nonzero"/></clipPath><clipPath id="3da4d1629b"><path d="M 177 71.292969 L 198 71.292969 L 198 207 L 177 207 Z M 177 71.292969 " clip-rule="nonzero"/></clipPath></defs><g clip-path="url(#3d45688b05)"><path stroke-linecap="butt" transform="matrix(0.75, 0, 0, 0.75, 0.0000045, 0)" fill="none" stroke-linejoin="miter" d="M 249.999994 0 C 111.927078 0 -0.000006 111.927084 -0.000006 250 C -0.000006 388.072917 111.927078 500.000001 249.999994 500.000001 C 388.072911 500.000001 499.999995 388.072917 499.999995 250 C 499.999995 111.927084 388.072911 0 249.999994 0 Z M 249.999994 0 " stroke="#000000" stroke-width="60" stroke-opacity="1" stroke-miterlimit="4"/></g><g clip-path="url(#47c2111979)"><path fill="#000000" d="M 216.546875 284.332031 L 158.445312 284.332031 C 153.089844 284.332031 148.761719 280 148.761719 274.648438 L 148.761719 255.949219 C 148.761719 237.773438 135.792969 222.140625 117.917969 218.792969 C 90.902344 213.738281 71.292969 190.097656 71.292969 162.609375 L 71.292969 119.699219 C 71.292969 114.34375 75.621094 110.015625 80.976562 110.015625 C 86.328125 110.015625 90.660156 114.34375 90.660156 119.699219 L 90.660156 162.609375 C 90.660156 180.785156 103.625 196.414062 121.5 199.761719 C 148.519531 204.816406 168.128906 228.457031 168.128906 255.949219 L 168.128906 264.964844 L 206.863281 264.964844 L 206.863281 255.949219 C 206.863281 228.457031 226.472656 204.828125 253.488281 199.761719 C 271.363281 196.414062 284.332031 180.785156 284.332031 162.609375 L 284.332031 119.699219 C 284.332031 114.34375 288.660156 110.015625 294.015625 110.015625 C 299.367188 110.015625 303.699219 114.34375 303.699219 119.699219 L 303.699219 162.609375 C 303.699219 190.097656 284.089844 213.726562 257.070312 218.792969 C 239.195312 222.140625 226.230469 237.773438 226.230469 255.949219 L 226.230469 274.648438 C 226.230469 280 221.898438 284.332031 216.546875 284.332031 Z M 216.546875 284.332031 " fill-opacity="1" fill-rule="nonzero"/></g><path fill="#000000" d="M 148.761719 269.804688 L 226.230469 269.804688 C 226.546875 269.804688 226.863281 269.835938 227.171875 269.898438 C 227.484375 269.960938 227.789062 270.050781 228.082031 270.171875 C 228.375 270.296875 228.65625 270.445312 228.917969 270.621094 C 229.183594 270.796875 229.425781 271 229.652344 271.222656 C 229.878906 271.449219 230.078125 271.691406 230.253906 271.957031 C 230.429688 272.222656 230.582031 272.5 230.703125 272.792969 C 230.824219 273.085938 230.914062 273.390625 230.976562 273.703125 C 231.039062 274.015625 231.070312 274.328125 231.070312 274.648438 L 231.070312 294.015625 C 231.070312 294.332031 231.039062 294.648438 230.976562 294.957031 C 230.914062 295.269531 230.824219 295.574219 230.703125 295.867188 C 230.582031 296.160156 230.429688 296.441406 230.253906 296.703125 C 230.078125 296.96875 229.878906 297.210938 229.652344 297.4375 C 229.425781 297.664062 229.183594 297.863281 228.917969 298.039062 C 228.65625 298.214844 228.375 298.367188 228.082031 298.488281 C 227.789062 298.609375 227.484375 298.699219 227.171875 298.761719 C 226.863281 298.824219 226.546875 298.855469 226.230469 298.855469 L 148.761719 298.855469 C 148.441406 298.855469 148.128906 298.824219 147.816406 298.761719 C 147.503906 298.699219 147.199219 298.609375 146.90625 298.488281 C 146.613281 298.367188 146.335938 298.214844 146.070312 298.039062 C 145.804688 297.863281 145.5625 297.664062 145.335938 297.4375 C 145.113281 297.210938 144.910156 296.96875 144.734375 296.703125 C 144.558594 296.441406 144.410156 296.160156 144.285156 295.867188 C 144.164062 295.574219 144.074219 295.269531 144.011719 294.957031 C 143.949219 294.648438 143.917969 294.332031 143.917969 294.015625 L 143.917969 274.648438 C 143.917969 274.328125 143.949219 274.015625 144.011719 273.703125 C 144.074219 273.390625 144.164062 273.085938 144.285156 272.792969 C 144.410156 272.5 144.558594 272.222656 144.734375 271.957031 C 144.910156 271.691406 145.113281 271.449219 145.335938 271.222656 C 145.5625 271 145.804688 270.796875 146.070312 270.621094 C 146.335938 270.445312 146.613281 270.296875 146.90625 270.171875 C 147.199219 270.050781 147.503906 269.960938 147.816406 269.898438 C 148.128906 269.835938 148.441406 269.804688 148.761719 269.804688 Z M 148.761719 269.804688 " fill-opacity="1" fill-rule="nonzero"/><g clip-path="url(#4ea03afffa)"><path fill="#000000" d="M 226.230469 303.699219 L 148.761719 303.699219 C 143.414062 303.699219 139.078125 299.359375 139.078125 294.015625 L 139.078125 274.648438 C 139.078125 269.300781 143.414062 264.964844 148.761719 264.964844 L 226.230469 264.964844 C 231.574219 264.964844 235.914062 269.300781 235.914062 274.648438 L 235.914062 294.015625 C 235.914062 299.359375 231.574219 303.699219 226.230469 303.699219 Z M 226.230469 294.015625 L 226.230469 298.855469 Z M 148.761719 274.648438 L 148.761719 294.015625 L 226.230469 294.015625 L 226.230469 274.648438 Z M 148.761719 274.648438 " fill-opacity="1" fill-rule="nonzero"/></g><path fill="#000000" d="M 129.394531 153.601562 C 124.039062 153.601562 119.710938 149.273438 119.710938 143.917969 L 119.710938 100.34375 C 119.710938 94.988281 124.039062 90.660156 129.394531 90.660156 C 134.746094 90.660156 139.078125 94.988281 139.078125 100.34375 L 139.078125 143.917969 C 139.078125 149.273438 134.746094 153.601562 129.394531 153.601562 Z M 129.394531 153.601562 " fill-opacity="1" fill-rule="nonzero"/><path fill="#000000" d="M 110.027344 143.917969 L 129.394531 163.285156 L 148.761719 143.917969 Z M 110.027344 143.917969 " fill-opacity="1" fill-rule="nonzero"/><path fill="#000000" d="M 129.394531 168.128906 C 128.152344 168.128906 126.914062 167.652344 125.964844 166.714844 L 106.597656 147.347656 C 105.210938 145.960938 104.796875 143.878906 105.550781 142.070312 C 106.308594 140.257812 108.070312 139.078125 110.027344 139.078125 L 148.761719 139.078125 C 150.714844 139.078125 152.488281 140.257812 153.234375 142.070312 C 153.980469 143.878906 153.5625 145.960938 152.1875 147.347656 L 132.820312 166.714844 C 131.871094 167.664062 130.632812 168.128906 129.394531 168.128906 Z M 121.714844 148.761719 L 129.394531 156.4375 L 137.070312 148.761719 Z M 121.714844 148.761719 " fill-opacity="1" fill-rule="nonzero"/><g clip-path="url(#3da4d1629b)"><path fill="#000000" d="M 187.496094 206.863281 C 182.140625 206.863281 177.8125 202.53125 177.8125 197.179688 L 177.8125 80.976562 C 177.8125 75.621094 182.140625 71.292969 187.496094 71.292969 C 192.847656 71.292969 197.179688 75.621094 197.179688 80.976562 L 197.179688 197.179688 C 197.179688 202.53125 192.847656 206.863281 187.496094 206.863281 Z M 187.496094 206.863281 " fill-opacity="1" fill-rule="nonzero"/></g><path fill="#000000" d="M 206.863281 192.335938 L 187.496094 211.703125 L 168.128906 192.335938 Z M 206.863281 192.335938 " fill-opacity="1" fill-rule="nonzero"/><path fill="#000000" d="M 187.496094 216.546875 C 186.253906 216.546875 185.015625 216.070312 184.066406 215.132812 L 164.699219 195.765625 C 163.3125 194.378906 162.898438 192.296875 163.652344 190.488281 C 164.410156 188.675781 166.171875 187.496094 168.128906 187.496094 L 206.863281 187.496094 C 208.816406 187.496094 210.589844 188.675781 211.335938 190.488281 C 212.082031 192.296875 211.664062 194.378906 210.289062 195.765625 L 190.921875 215.132812 C 189.972656 216.082031 188.734375 216.546875 187.496094 216.546875 Z M 179.816406 197.179688 L 187.496094 204.855469 L 195.171875 197.179688 Z M 179.816406 197.179688 " fill-opacity="1" fill-rule="nonzero"/><path fill="#000000" d="M 245.597656 153.601562 C 240.242188 153.601562 235.914062 149.273438 235.914062 143.917969 L 235.914062 100.34375 C 235.914062 94.988281 240.242188 90.660156 245.597656 90.660156 C 250.949219 90.660156 255.28125 94.988281 255.28125 100.34375 L 255.28125 143.917969 C 255.28125 149.273438 250.949219 153.601562 245.597656 153.601562 Z M 245.597656 153.601562 " fill-opacity="1" fill-rule="nonzero"/><path fill="#000000" d="M 264.964844 143.917969 L 245.597656 163.285156 L 226.230469 143.917969 Z M 264.964844 143.917969 " fill-opacity="1" fill-rule="nonzero"/><path fill="#000000" d="M 245.597656 168.128906 C 244.355469 168.128906 243.117188 167.652344 242.167969 166.714844 L 222.800781 147.347656 C 221.414062 145.960938 221 143.878906 221.753906 142.070312 C 222.511719 140.257812 224.273438 139.078125 226.230469 139.078125 L 264.964844 139.078125 C 266.917969 139.078125 268.691406 140.257812 269.4375 142.070312 C 270.183594 143.878906 269.765625 145.960938 268.390625 147.347656 L 249.023438 166.714844 C 248.074219 167.664062 246.835938 168.128906 245.597656 168.128906 Z M 237.917969 148.761719 L 245.597656 156.4375 L 253.273438 148.761719 Z M 237.917969 148.761719 " fill-opacity="1" fill-rule="nonzero"/></svg>