<svg xmlns="http://www.w3.org/2000/svg" xmlns:xlink="http://www.w3.org/1999/xlink" width="500" zoomAndPan="magnify" viewBox="0 0 375 374.999991" height="500" preserveAspectRatio="xMidYMid meet" version="1.0"><defs><clipPath id="6ae58393a0"><path d="M 12.28125 73.828125 L 362.53125 73.828125 L 362.53125 301.078125 L 12.28125 301.078125 Z M 12.28125 73.828125 " clip-rule="nonzero"/></clipPath></defs><g clip-path="url(#6ae58393a0)"><path fill="#000000" d="M 294.164062 103.378906 C 294.164062 100.398438 296.585938 97.976562 299.566406 97.976562 L 309.796875 97.976562 C 321.316406 97.976562 330.6875 107.347656 330.6875 118.867188 L 330.6875 133.566406 L 332.285156 131.453125 C 334.089844 129.082031 337.480469 128.621094 339.855469 130.414062 C 342.234375 132.214844 342.699219 135.601562 340.898438 137.984375 L 332.109375 149.582031 C 330.40625 151.757812 328.140625 152.964844 325.675781 153.054688 C 325.582031 153.058594 325.488281 153.058594 325.390625 153.058594 C 323.085938 153.058594 320.917969 152.0625 319.261719 150.230469 L 309.902344 139.9375 C 307.898438 137.730469 308.058594 134.3125 310.269531 132.304688 C 312.472656 130.300781 315.886719 130.460938 317.898438 132.667969 L 319.878906 134.851562 L 319.878906 118.867188 C 319.878906 113.308594 315.355469 108.785156 309.796875 108.785156 L 299.566406 108.785156 C 296.585938 108.785156 294.164062 106.363281 294.164062 103.378906 Z M 160.324219 108.785156 L 204.097656 108.785156 L 202 110.691406 C 199.792969 112.699219 199.628906 116.117188 201.636719 118.324219 C 202.703125 119.5 204.167969 120.09375 205.632812 120.09375 C 206.933594 120.09375 208.234375 119.628906 209.265625 118.691406 L 219.554688 109.332031 C 221.460938 107.609375 222.464844 105.328125 222.378906 102.917969 C 222.292969 100.449219 221.085938 98.179688 218.910156 96.480469 L 207.3125 87.691406 C 204.9375 85.894531 201.546875 86.363281 199.742188 88.734375 C 197.9375 91.113281 198.40625 94.503906 200.785156 96.304688 L 202.992188 97.976562 L 160.324219 97.976562 C 157.339844 97.976562 154.921875 100.398438 154.921875 103.378906 C 154.921875 106.363281 157.339844 108.785156 160.324219 108.785156 Z M 49.535156 151.863281 C 52.515625 151.863281 54.9375 149.445312 54.9375 146.460938 L 54.9375 118.867188 C 54.9375 113.621094 58.980469 109.347656 64.105469 108.875 L 62.109375 110.691406 C 59.898438 112.699219 59.738281 116.117188 61.742188 118.324219 C 62.8125 119.5 64.277344 120.09375 65.742188 120.09375 C 67.039062 120.09375 68.34375 119.628906 69.375 118.691406 L 79.664062 109.332031 C 81.570312 107.609375 82.574219 105.328125 82.488281 102.917969 C 82.402344 100.449219 81.195312 98.179688 79.015625 96.480469 L 67.421875 87.691406 C 65.039062 85.894531 61.65625 86.363281 59.851562 88.734375 C 58.046875 91.113281 58.515625 94.503906 60.890625 96.304688 L 63.328125 98.148438 C 52.613281 99.027344 44.132812 107.929688 44.132812 118.867188 L 44.132812 146.460938 C 44.132812 149.445312 46.550781 151.863281 49.535156 151.863281 Z M 12.289062 198.328125 C 12.289062 177.792969 28.996094 161.085938 49.535156 161.085938 C 70.070312 161.085938 86.777344 177.792969 86.777344 198.328125 C 86.777344 218.867188 70.070312 235.578125 49.535156 235.578125 C 28.996094 235.578125 12.289062 218.867188 12.289062 198.328125 Z M 23.09375 198.328125 C 23.09375 212.910156 34.957031 224.769531 49.535156 224.769531 C 64.109375 224.769531 75.972656 212.910156 75.972656 198.328125 C 75.972656 183.753906 64.109375 171.890625 49.535156 171.890625 C 34.957031 171.890625 23.09375 183.753906 23.09375 198.328125 Z M 288.042969 198.328125 C 288.042969 177.792969 304.75 161.085938 325.285156 161.085938 C 345.816406 161.085938 362.523438 177.792969 362.523438 198.328125 C 362.523438 218.867188 345.816406 235.578125 325.285156 235.578125 C 304.75 235.578125 288.042969 218.867188 288.042969 198.328125 Z M 298.847656 198.328125 C 298.847656 212.910156 310.707031 224.769531 325.285156 224.769531 C 339.859375 224.769531 351.71875 212.910156 351.71875 198.328125 C 351.71875 183.753906 339.859375 171.890625 325.285156 171.890625 C 310.707031 171.890625 298.847656 183.753906 298.847656 198.328125 Z M 152.46875 168.792969 L 219.246094 168.792969 C 223.695312 168.792969 227.316406 172.414062 227.316406 176.859375 L 227.316406 222.03125 C 227.316406 226.480469 223.695312 230.101562 219.246094 230.101562 L 152.46875 230.101562 C 147.835938 229.890625 144.402344 226.347656 144.402344 222.03125 L 144.402344 176.859375 C 144.402344 172.414062 148.023438 168.792969 152.46875 168.792969 Z M 155.210938 219.300781 L 216.507812 219.292969 L 216.507812 179.601562 L 155.210938 179.601562 Z M 92.96875 198.546875 C 92.96875 201.53125 95.390625 203.949219 98.371094 203.949219 L 118.234375 203.949219 L 116.136719 205.855469 C 113.925781 207.867188 113.765625 211.285156 115.769531 213.488281 C 116.839844 214.664062 118.300781 215.257812 119.769531 215.257812 C 121.066406 215.257812 122.367188 214.796875 123.402344 213.855469 L 133.691406 204.5 C 135.601562 202.773438 136.601562 200.492188 136.515625 198.074219 C 136.425781 195.609375 135.214844 193.34375 133.042969 191.648438 L 121.445312 182.859375 C 119.074219 181.066406 115.683594 181.523438 113.878906 183.898438 C 112.074219 186.277344 112.539062 189.667969 114.917969 191.46875 L 117.125 193.144531 L 98.371094 193.144531 C 95.390625 193.144531 92.96875 195.5625 92.96875 198.546875 Z M 235.023438 198.546875 C 235.023438 201.53125 237.445312 203.949219 240.425781 203.949219 L 260.285156 203.949219 L 258.1875 205.855469 C 255.976562 207.867188 255.816406 211.28125 257.820312 213.488281 C 258.886719 214.664062 260.351562 215.257812 261.820312 215.257812 C 263.117188 215.257812 264.417969 214.796875 265.453125 213.855469 L 275.746094 204.5 C 277.65625 202.773438 278.65625 200.492188 278.570312 198.074219 C 278.480469 195.609375 277.269531 193.34375 275.097656 191.648438 L 263.5 182.859375 C 261.125 181.066406 257.734375 181.523438 255.933594 183.898438 C 254.128906 186.277344 254.59375 189.667969 256.972656 191.46875 L 259.183594 193.144531 L 240.425781 193.144531 C 237.445312 193.144531 235.023438 195.5625 235.023438 198.546875 Z M 87.351562 122.902344 L 87.351562 84.289062 C 87.351562 78.527344 92.039062 73.84375 97.796875 73.84375 L 136.40625 73.84375 C 142.167969 73.84375 146.851562 78.527344 146.851562 84.289062 L 146.851562 122.902344 C 146.851562 128.664062 142.167969 133.351562 136.40625 133.351562 L 97.796875 133.351562 C 91.972656 133.195312 87.351562 128.511719 87.351562 122.902344 Z M 97.796875 84.648438 L 98.15625 122.546875 L 136.40625 122.542969 L 136.046875 84.289062 Z M 228.035156 122.902344 L 228.035156 84.289062 C 228.035156 78.527344 232.722656 73.84375 238.484375 73.84375 L 277.09375 73.84375 C 282.851562 73.84375 287.535156 78.527344 287.535156 84.289062 L 287.535156 122.902344 C 287.535156 128.664062 282.851562 133.351562 277.09375 133.351562 L 238.484375 133.351562 C 232.5625 133.195312 228.035156 128.609375 228.035156 122.902344 Z M 238.484375 84.648438 L 238.835938 122.546875 L 277.09375 122.542969 L 276.730469 84.289062 Z M 61.851562 301.0625 L 312.964844 301.0625 C 322.738281 301.0625 330.6875 293.113281 330.6875 283.339844 L 330.6875 247.753906 C 330.6875 244.769531 328.265625 242.347656 325.285156 242.347656 C 322.300781 242.347656 319.878906 244.769531 319.878906 247.753906 L 319.878906 283.339844 C 319.878906 287.152344 316.777344 290.253906 312.964844 290.253906 L 61.851562 290.253906 C 58.039062 290.253906 54.9375 287.152344 54.9375 283.339844 L 54.9375 258.863281 L 56.914062 261.039062 C 58.933594 263.253906 62.347656 263.40625 64.546875 261.402344 C 66.753906 259.394531 66.917969 255.976562 64.914062 253.769531 L 55.558594 243.484375 C 53.835938 241.574219 51.613281 240.59375 49.136719 240.652344 C 46.671875 240.742188 44.40625 241.953125 42.707031 244.125 L 33.917969 255.726562 C 32.113281 258.105469 32.582031 261.496094 34.957031 263.296875 C 35.9375 264.039062 37.082031 264.394531 38.21875 264.394531 C 39.851562 264.394531 41.464844 263.65625 42.527344 262.253906 L 44.132812 260.136719 L 44.132812 283.339844 C 44.132812 293.113281 52.082031 301.0625 61.851562 301.0625 Z M 61.851562 301.0625 " fill-opacity="1" fill-rule="nonzero"/></g></svg>