<svg xmlns="http://www.w3.org/2000/svg" xmlns:xlink="http://www.w3.org/1999/xlink" width="500" zoomAndPan="magnify" viewBox="0 0 375 374.999991" height="500" preserveAspectRatio="xMidYMid meet" version="1.0"><defs><clipPath id="b0694c493d"><path d="M 3.28125 3.742188 L 371.53125 3.742188 L 371.53125 371.242188 L 3.28125 371.242188 Z M 3.28125 3.742188 " clip-rule="nonzero"/></clipPath><clipPath id="e3e3fee12e"><path d="M 0.46875 0.742188 L 368.53125 0.742188 L 368.53125 368.242188 L 0.46875 368.242188 Z M 0.46875 0.742188 " clip-rule="nonzero"/></clipPath><clipPath id="a14f64b3af"><rect x="0" width="369" y="0" height="369"/></clipPath></defs><g clip-path="url(#b0694c493d)"><g transform="matrix(1, 0, 0, 1, 3, 3)"><g clip-path="url(#a14f64b3af)"><g clip-path="url(#e3e3fee12e)"><path fill="#000000" d="M 260.394531 0.742188 L 368.640625 109.039062 L 260.394531 217.335938 L 217.074219 217.335938 L 217.074219 145.136719 L 130.863281 145.136719 C 98.800781 145.136719 72.746094 171.179688 72.746094 203.234375 C 72.746094 213.777344 75.605469 224.128906 81.015625 233.175781 L 139.742188 331.132812 L 77.914062 368.265625 L 19.140625 270.308594 C 6.992188 250.046875 0.582031 226.84375 0.582031 203.234375 C 0.582031 131.371094 59.011719 72.9375 130.863281 72.9375 L 217.074219 72.9375 L 217.074219 0.742188 Z M 260.394531 0.742188 " fill-opacity="1" fill-rule="nonzero"/></g></g></g></g></svg>