<svg xmlns="http://www.w3.org/2000/svg" xmlns:xlink="http://www.w3.org/1999/xlink" width="500" zoomAndPan="magnify" viewBox="0 0 375 374.999991" height="500" preserveAspectRatio="xMidYMid meet" version="1.0"><defs><clipPath id="3e4088a6ca"><path d="M 9.230469 9.898438 L 365.480469 9.898438 L 365.480469 365.398438 L 9.230469 365.398438 Z M 9.230469 9.898438 " clip-rule="nonzero"/></clipPath></defs><g clip-path="url(#3e4088a6ca)"><path fill="#000000" d="M 288.078125 9.898438 C 267.1875 9.765625 249.78125 17.4375 235.210938 32.765625 C 214.125 54.941406 192.039062 76.28125 170.300781 97.804688 C 156.097656 111.925781 149.863281 129.917969 151.046875 149.964844 C 151.355469 154.976562 150.171875 155.050781 146.050781 154.707031 C 126.324219 153.320312 108.738281 158.261719 94.453125 172.78125 C 73.152344 194.441406 51.460938 215.789062 30.300781 237.613281 C 12.238281 256.246094 5.671875 278.816406 11.753906 303.996094 C 19.269531 335.132812 39.96875 354.550781 70.300781 362.871094 C 97.828125 370.421875 121.246094 360.847656 140.964844 341.535156 C 158.488281 324.347656 175.496094 306.613281 192.738281 289.140625 C 198.324219 283.488281 204.242188 278.117188 208.75 271.527344 C 219.542969 255.75 223.058594 238.5 218.300781 219.6875 C 219.101562 219.457031 219.917969 219.339844 220.75 219.332031 C 243.957031 223.851562 264.253906 218.148438 281.105469 201.550781 C 302.765625 180.214844 324.363281 158.878906 345.449219 136.972656 C 358.707031 123.234375 365.570312 106.707031 365.203125 87.03125 C 364.445312 47.570312 327.507812 10.148438 288.078125 9.898438 Z M 204.242188 252.238281 C 202.148438 258.546875 198.824219 264.117188 194.277344 268.953125 C 171.355469 291.984375 149.683594 316.371094 125.367188 337.910156 C 96.960938 363.097656 59.71875 353.886719 38.832031 329.289062 C 14.628906 300.839844 16.714844 269.429688 43.09375 242.945312 C 64.0625 221.894531 84.925781 200.746094 106.039062 179.835938 C 121.1875 164.828125 147.671875 162.601562 165.210938 175.519531 C 160.324219 180.039062 155.589844 183.914062 151.472656 188.347656 C 145.683594 194.605469 139.898438 200.128906 130.644531 200.925781 C 124.429688 201.46875 119.519531 205.59375 115.1875 209.933594 C 97.292969 227.808594 79.363281 245.636719 61.777344 263.761719 C 43.484375 282.609375 48.59375 310.988281 71.921875 320.472656 C 85.460938 326.007812 98.773438 324.027344 109.128906 314.222656 C 129.542969 294.984375 148.964844 274.679688 168.621094 254.644531 C 171.210938 252.160156 172.972656 249.179688 173.898438 245.707031 C 176.832031 231.210938 188.453125 223.292969 197.625 213.632812 C 201.898438 209.140625 203.792969 214.519531 204.726562 217.304688 C 205.714844 220.117188 206.449219 222.992188 206.929688 225.933594 C 207.414062 228.875 207.632812 231.835938 207.589844 234.816406 C 207.550781 237.796875 207.246094 240.75 206.683594 243.675781 C 206.121094 246.601562 205.308594 249.457031 204.242188 252.238281 Z M 159.082031 244.605469 C 160.074219 246.027344 158.726562 246.65625 158.027344 247.355469 C 140.0625 265.40625 122.078125 283.433594 104.074219 301.445312 C 97.449219 308.082031 89.625 311.828125 80.109375 309.839844 C 65.222656 306.734375 58.808594 291.261719 66.972656 278.425781 C 68.035156 276.597656 69.289062 274.914062 70.738281 273.375 C 90.53125 253.902344 110.371094 234.433594 130.253906 214.972656 C 128.453125 236.769531 142.488281 246.277344 159.082031 244.605469 Z M 168.773438 225.25 C 164.917969 229.242188 160.597656 232.148438 154.574219 231.992188 C 149.945312 232.382812 146.703125 229.871094 144.453125 226.066406 C 143.839844 225.058594 143.386719 223.984375 143.089844 222.839844 C 142.796875 221.695312 142.675781 220.535156 142.730469 219.355469 C 142.78125 218.175781 143.007812 217.03125 143.402344 215.917969 C 143.796875 214.804688 144.34375 213.773438 145.046875 212.824219 C 147.445312 209.371094 150.144531 206.171875 153.140625 203.222656 C 170.207031 185.964844 187.335938 168.769531 204.527344 151.636719 C 206.140625 149.953125 207.945312 148.515625 209.945312 147.320312 C 216.480469 143.621094 223.164062 144.429688 227.105469 149.144531 C 230.65625 153.402344 230.492188 160.382812 226.054688 165.835938 C 222.503906 170.164062 218.441406 174.027344 214.550781 178.046875 C 199.308594 193.78125 184.046875 209.511719 168.773438 225.238281 Z M 211.992188 133.046875 C 221.710938 120.71875 233.652344 111.273438 244.136719 100.402344 C 253.058594 91.15625 262.277344 82.195312 271.507812 73.257812 C 272.03125 72.753906 272.578125 72.273438 273.148438 71.820312 C 273.71875 71.371094 274.308594 70.945312 274.917969 70.550781 C 275.527344 70.15625 276.15625 69.789062 276.800781 69.453125 C 277.445312 69.121094 278.105469 68.816406 278.777344 68.542969 C 279.453125 68.273438 280.136719 68.03125 280.832031 67.828125 C 281.53125 67.621094 282.234375 67.449219 282.949219 67.308594 C 283.660156 67.171875 284.378906 67.066406 285.105469 66.996094 C 285.828125 66.925781 286.550781 66.894531 287.277344 66.894531 C 288.003906 66.894531 288.730469 66.925781 289.453125 66.996094 C 290.175781 67.066406 290.894531 67.171875 291.609375 67.308594 C 292.320312 67.449219 293.027344 67.621094 293.722656 67.828125 C 294.417969 68.03125 295.105469 68.273438 295.777344 68.542969 C 296.453125 68.816406 297.113281 69.121094 297.757812 69.453125 C 298.402344 69.789062 299.03125 70.15625 299.640625 70.550781 C 300.25 70.945312 300.839844 71.371094 301.410156 71.820312 C 301.976562 72.273438 302.523438 72.753906 303.046875 73.257812 C 311.332031 81.378906 311.59375 93.410156 302.75 102.582031 C 282.988281 123.136719 262.859375 143.335938 242.859375 163.667969 C 242.101562 164.273438 241.285156 164.796875 240.417969 165.230469 C 245.25 143.21875 234.253906 130.652344 211.992188 133.035156 Z M 334.679688 129.492188 C 313.542969 151.660156 291.6875 173.136719 269.664062 194.417969 C 255.035156 208.546875 232.042969 212.445312 215.816406 204.90625 C 211.355469 202.832031 209 200.828125 214.089844 196.773438 C 216.21875 194.957031 218.191406 192.984375 220.003906 190.847656 C 225.652344 184.613281 231.402344 179.066406 240.527344 177.808594 C 246.503906 176.96875 251.578125 172.996094 255.910156 168.644531 C 274.242188 150.273438 292.8125 132.125 310.738281 113.382812 C 324.550781 98.945312 326.265625 84.210938 317.167969 69.523438 C 306.363281 52.144531 280.253906 47.488281 265.390625 61.535156 C 244.324219 81.425781 224.230469 102.371094 203.851562 122.996094 C 201.792969 125.082031 199.589844 127.988281 199.308594 130.703125 C 197.910156 144.144531 187.851562 151.398438 179.449219 159.851562 C 172.0625 167.28125 169.367188 166.773438 165.804688 156.484375 C 159.734375 138.976562 165.542969 123.636719 176.65625 110.429688 C 185.542969 99.988281 195.992188 90.765625 205.734375 81.019531 C 219.449219 67.28125 233.210938 53.640625 246.882812 39.804688 C 257.863281 28.625 270.882812 22.425781 288.21875 22.425781 C 307.910156 22.710938 323.921875 33.097656 336.953125 48.824219 C 358.65625 75.023438 358.136719 104.894531 334.679688 129.527344 Z M 334.679688 129.492188 " fill-opacity="1" fill-rule="nonzero"/></g></svg>