<svg xmlns="http://www.w3.org/2000/svg" xmlns:xlink="http://www.w3.org/1999/xlink" width="500" zoomAndPan="magnify" viewBox="0 0 375 374.999991" height="500" preserveAspectRatio="xMidYMid meet" version="1.0"><defs><clipPath id="54bfe3172e"><path d="M 139 22 L 355 22 L 355 240 L 139 240 Z M 139 22 " clip-rule="nonzero"/></clipPath><clipPath id="efbe123010"><path d="M -30.28125 219.402344 L 299.207031 -5.625 L 405.375 149.832031 L 75.886719 374.855469 Z M -30.28125 219.402344 " clip-rule="nonzero"/></clipPath><clipPath id="a0e72e3312"><path d="M -30.28125 219.402344 L 299.207031 -5.625 L 405.375 149.832031 L 75.886719 374.855469 Z M -30.28125 219.402344 " clip-rule="nonzero"/></clipPath><clipPath id="2b4d4ec02f"><path d="M -30.28125 219.402344 L 299.207031 -5.625 L 405.375 149.832031 L 75.886719 374.855469 Z M -30.28125 219.402344 " clip-rule="nonzero"/></clipPath><clipPath id="d47503b38a"><path d="M 21 130 L 235 130 L 235 347 L 21 347 Z M 21 130 " clip-rule="nonzero"/></clipPath><clipPath id="bbd773807b"><path d="M -30.28125 219.402344 L 299.207031 -5.625 L 405.375 149.832031 L 75.886719 374.855469 Z M -30.28125 219.402344 " clip-rule="nonzero"/></clipPath><clipPath id="70b547930e"><path d="M -30.28125 219.402344 L 299.207031 -5.625 L 405.375 149.832031 L 75.886719 374.855469 Z M -30.28125 219.402344 " clip-rule="nonzero"/></clipPath><clipPath id="98bbf33713"><path d="M -30.28125 219.402344 L 299.207031 -5.625 L 405.375 149.832031 L 75.886719 374.855469 Z M -30.28125 219.402344 " clip-rule="nonzero"/></clipPath></defs><g clip-path="url(#54bfe3172e)"><g clip-path="url(#efbe123010)"><g clip-path="url(#a0e72e3312)"><g clip-path="url(#2b4d4ec02f)"><path fill="#000000" d="M 232.4375 40.699219 C 224.695312 47.710938 156.300781 120.832031 152.910156 125.738281 C 142.382812 140.695312 137.90625 159.199219 140.433594 177.328125 C 143.328125 198.652344 155.195312 217.042969 173.121094 228.105469 C 175.234375 229.425781 177.105469 230.390625 177.339844 230.230469 C 178.695312 229.304688 186.9375 219.101562 188.140625 216.8125 C 190.179688 213.089844 191.566406 207.394531 191.554688 202.570312 L 191.554688 198.773438 L 188.417969 196.082031 C 177.21875 186.640625 172.671875 173.78125 175.550781 159.902344 C 177.796875 149.390625 180.214844 146.101562 204.34375 120.300781 C 215.734375 108.121094 231.035156 91.800781 238.316406 83.980469 C 253.441406 67.78125 258.816406 63.246094 265.851562 60.515625 C 284.28125 53.453125 306.472656 62.03125 314.828125 79.453125 C 321.546875 93.59375 320.628906 107.945312 312.070312 119.832031 C 310.742188 121.6875 294.582031 139.285156 276.089844 158.90625 C 253.152344 183.289062 242.527344 194.945312 242.519531 195.816406 C 242.585938 196.546875 242.597656 199.472656 242.667969 202.359375 C 242.804688 209.773438 239.96875 224.484375 236.917969 231.660156 C 235.570312 235 234.117188 238.0625 233.824219 238.519531 C 230.898438 242.589844 250.886719 233.253906 258.597656 226.953125 C 264.40625 222.296875 264.855469 221.816406 304.109375 179.816406 C 337.828125 143.757812 339.859375 141.417969 343.910156 134.941406 C 349.589844 125.796875 354.148438 109.308594 354.164062 97.816406 C 354.242188 90.082031 352.324219 79.046875 349.613281 71.40625 C 347.511719 65.417969 346.402344 63.414062 340.976562 55.46875 C 335.550781 47.523438 334.046875 45.703125 329.355469 41.742188 C 308.167969 23.503906 280.464844 17.996094 255.585938 27.132812 C 248.035156 29.871094 237.535156 36.007812 232.4375 40.699219 Z M 232.4375 40.699219 " fill-opacity="1" fill-rule="nonzero"/></g></g></g></g><g clip-path="url(#d47503b38a)"><g clip-path="url(#bbd773807b)"><g clip-path="url(#70b547930e)"><g clip-path="url(#98bbf33713)"><path fill="#000000" d="M 109.441406 149.035156 C 65.390625 195.78125 39.09375 224.355469 35.480469 229.066406 C 21.488281 247.683594 17.699219 275.042969 26.03125 297.746094 C 42.496094 342.863281 96.902344 360.253906 136.628906 333.125 C 143.703125 328.292969 144.582031 327.433594 167.613281 302.554688 C 211.460938 255.261719 218.582031 247.460938 221.9375 242.753906 C 240.429688 217.179688 238.792969 180.234375 218.171875 155.738281 C 213.222656 149.882812 205.515625 143.148438 200.855469 140.632812 C 198.109375 139.144531 198.050781 139.183594 195.875 141.1875 C 186.648438 150.078125 183 156.886719 182.292969 166.605469 L 181.980469 170.960938 L 185.507812 173.46875 C 196.320312 181.449219 201.410156 195.234375 198.8125 209.523438 C 197.015625 219.554688 194.503906 223.339844 178.164062 240.800781 C 170.765625 248.703125 155.070312 265.460938 143.3125 277.980469 C 125.542969 297.023438 121.234375 301.34375 117.050781 304.203125 C 102.492188 314.144531 84.117188 313.316406 70.34375 302.007812 C 68.128906 300.15625 65.605469 297.21875 63.113281 293.570312 C 56.800781 284.328125 55 274.855469 57.472656 263.414062 C 59.640625 253.046875 60.636719 251.847656 97.558594 212.128906 C 115.71875 192.652344 130.945312 176.46875 131.355469 176.1875 C 131.769531 175.90625 132.011719 172.71875 131.933594 169.0625 C 131.691406 157.316406 134.234375 144.964844 139.109375 134.386719 C 140.230469 131.976562 140.707031 130.015625 140.230469 130.078125 C 139.71875 130.085938 136.683594 131.210938 133.410156 132.496094 C 125.410156 135.714844 115.546875 142.535156 109.441406 149.035156 Z M 109.441406 149.035156 " fill-opacity="1" fill-rule="nonzero"/></g></g></g></g></svg>