<svg xmlns="http://www.w3.org/2000/svg" xmlns:xlink="http://www.w3.org/1999/xlink" width="500" zoomAndPan="magnify" viewBox="0 0 375 374.999991" height="500" preserveAspectRatio="xMidYMid meet" version="1.0"><defs><clipPath id="2f8f50c069"><path d="M 4.09375 4.09375 L 277 4.09375 L 277 277 L 4.09375 277 Z M 4.09375 4.09375 " clip-rule="nonzero"/></clipPath><clipPath id="ce357b034d"><path d="M 10.671875 10.671875 L 269.421875 10.671875 L 269.421875 269.421875 L 10.671875 269.421875 Z M 10.671875 10.671875 " clip-rule="nonzero"/></clipPath></defs><path fill="#000000" d="M 357.5 309.414062 L 277.933594 220.617188 C 265.511719 239.925781 240.101562 264.199219 220.796875 276.621094 L 309.378906 357.464844 C 322.722656 370.808594 344.300781 370.808594 357.574219 357.464844 C 370.84375 344.265625 370.84375 322.6875 357.5 309.414062 Z M 357.5 309.414062 " fill-opacity="1" fill-rule="nonzero"/><g clip-path="url(#2f8f50c069)"><path fill="#000000" d="M 276.65625 140.410156 C 276.65625 65.171875 215.613281 4.132812 140.375 4.132812 C 65.136719 4.132812 4.09375 65.171875 4.09375 140.410156 C 4.09375 215.648438 65.136719 276.691406 140.375 276.691406 C 215.613281 276.691406 276.65625 215.648438 276.65625 140.410156 Z M 140.375 242.621094 C 84.019531 242.621094 38.164062 196.769531 38.164062 140.410156 C 38.164062 84.054688 84.019531 38.203125 140.375 38.203125 C 196.734375 38.203125 242.585938 84.054688 242.585938 140.410156 C 242.585938 196.769531 196.734375 242.621094 140.375 242.621094 Z M 140.375 242.621094 " fill-opacity="1" fill-rule="nonzero"/></g><g clip-path="url(#ce357b034d)"><path fill="#000000" d="M 140.015625 10.65625 C 68.683594 10.65625 10.65625 68.683594 10.65625 140.015625 C 10.65625 211.347656 68.683594 269.375 140.015625 269.375 C 211.347656 269.375 269.375 211.347656 269.375 140.015625 C 269.375 68.683594 211.347656 10.65625 140.015625 10.65625 Z M 140.015625 30.097656 C 200.839844 30.097656 249.933594 79.191406 249.933594 140.015625 C 249.933594 200.839844 200.839844 249.933594 140.015625 249.933594 C 79.191406 249.933594 30.097656 200.839844 30.097656 140.015625 C 30.097656 79.191406 79.191406 30.097656 140.015625 30.097656 Z M 120.546875 62.527344 L 120.546875 81.96875 L 130.269531 81.96875 C 159.25 81.96875 182.601562 104.234375 184.898438 132.597656 L 176.46875 124.144531 L 169.582031 117.28125 L 155.835938 131.027344 L 162.722656 137.890625 L 195.507812 170.695312 L 235.175781 131.027344 L 221.429688 117.28125 L 204.644531 134.066406 C 203.054688 94.429688 170.296875 62.527344 130.269531 62.527344 Z M 84.703125 116.777344 L 51.917969 149.558594 L 45.03125 156.445312 L 58.777344 170.191406 L 65.664062 163.304688 L 75.335938 153.636719 C 80.171875 190.058594 111.449219 218.367188 149.152344 218.367188 L 158.875 218.367188 L 158.875 198.921875 L 149.152344 198.921875 C 122.359375 198.921875 100.171875 179.976562 95.15625 154.699219 L 103.765625 163.304688 L 110.625 170.191406 L 124.371094 156.445312 L 117.511719 149.558594 Z M 84.703125 116.777344 " fill-opacity="1" fill-rule="nonzero"/></g></svg>