<svg xmlns="http://www.w3.org/2000/svg" xmlns:xlink="http://www.w3.org/1999/xlink" width="500" zoomAndPan="magnify" viewBox="0 0 375 374.999991" height="500" preserveAspectRatio="xMidYMid meet" version="1.0"><defs><clipPath id="1f385401b9"><path d="M 149 266 L 179 266 L 179 295.453125 L 149 295.453125 Z M 149 266 " clip-rule="nonzero"/></clipPath><clipPath id="d6f63ef3c0"><path d="M 131 79.453125 L 244 79.453125 L 244 175 L 131 175 Z M 131 79.453125 " clip-rule="nonzero"/></clipPath></defs><path fill="#000000" d="M 197.933594 245.238281 C 198.375 245.679688 198.789062 246.136719 199.183594 246.617188 C 199.578125 247.097656 199.945312 247.59375 200.292969 248.113281 C 200.636719 248.628906 200.953125 249.160156 201.246094 249.707031 C 201.539062 250.253906 201.804688 250.8125 202.042969 251.386719 C 202.28125 251.960938 202.488281 252.542969 202.667969 253.140625 C 202.847656 253.734375 203 254.335938 203.121094 254.941406 C 203.242188 255.550781 203.332031 256.164062 203.394531 256.78125 C 203.453125 257.398438 203.484375 258.019531 203.484375 258.640625 C 203.484375 259.261719 203.453125 259.878906 203.394531 260.496094 C 203.332031 261.113281 203.242188 261.726562 203.121094 262.335938 C 203 262.945312 202.847656 263.546875 202.667969 264.140625 C 202.488281 264.734375 202.28125 265.320312 202.042969 265.890625 C 201.804688 266.464844 201.539062 267.027344 201.246094 267.574219 C 200.953125 268.121094 200.636719 268.652344 200.292969 269.167969 C 199.945312 269.683594 199.578125 270.183594 199.183594 270.660156 C 198.789062 271.140625 198.375 271.601562 197.933594 272.039062 C 197.496094 272.480469 197.035156 272.894531 196.558594 273.289062 C 196.078125 273.683594 195.578125 274.050781 195.0625 274.394531 C 194.546875 274.742188 194.015625 275.058594 193.46875 275.351562 C 192.921875 275.644531 192.359375 275.910156 191.785156 276.148438 C 191.214844 276.386719 190.628906 276.59375 190.035156 276.773438 C 189.441406 276.953125 188.839844 277.105469 188.230469 277.226562 C 187.625 277.347656 187.011719 277.4375 186.390625 277.5 C 185.773438 277.558594 185.15625 277.589844 184.535156 277.589844 C 183.914062 277.589844 183.296875 277.558594 182.675781 277.5 C 182.058594 277.4375 181.445312 277.347656 180.835938 277.226562 C 180.230469 277.105469 179.628906 276.953125 179.035156 276.773438 C 178.441406 276.59375 177.855469 276.386719 177.28125 276.148438 C 176.710938 275.910156 176.148438 275.644531 175.601562 275.351562 C 175.054688 275.058594 174.523438 274.742188 174.007812 274.394531 C 173.492188 274.050781 172.992188 273.683594 172.511719 273.289062 C 172.03125 272.894531 171.574219 272.480469 171.136719 272.039062 C 170.695312 271.601562 170.28125 271.140625 169.886719 270.660156 C 169.492188 270.183594 169.125 269.683594 168.777344 269.167969 C 168.433594 268.652344 168.113281 268.121094 167.820312 267.574219 C 167.53125 267.027344 167.265625 266.464844 167.027344 265.890625 C 166.789062 265.316406 166.582031 264.734375 166.402344 264.140625 C 166.21875 263.546875 166.070312 262.945312 165.949219 262.335938 C 165.828125 261.726562 165.738281 261.113281 165.675781 260.496094 C 165.613281 259.878906 165.585938 259.261719 165.585938 258.640625 C 165.585938 258.019531 165.613281 257.398438 165.675781 256.78125 C 165.738281 256.164062 165.828125 255.550781 165.949219 254.941406 C 166.070312 254.335938 166.21875 253.734375 166.402344 253.140625 C 166.582031 252.542969 166.789062 251.960938 167.027344 251.386719 C 167.265625 250.8125 167.53125 250.253906 167.820312 249.707031 C 168.113281 249.160156 168.433594 248.628906 168.777344 248.113281 C 169.125 247.59375 169.492188 247.097656 169.886719 246.617188 C 170.28125 246.136719 170.695312 245.679688 171.136719 245.238281 C 171.574219 244.800781 172.035156 244.386719 172.511719 243.992188 C 172.992188 243.597656 173.492188 243.226562 174.007812 242.882812 C 174.523438 242.539062 175.054688 242.21875 175.601562 241.925781 C 176.148438 241.632812 176.710938 241.371094 177.28125 241.132812 C 177.855469 240.894531 178.441406 240.6875 179.035156 240.503906 C 179.628906 240.324219 180.230469 240.175781 180.835938 240.054688 C 181.445312 239.933594 182.058594 239.839844 182.675781 239.78125 C 183.296875 239.71875 183.914062 239.691406 184.535156 239.691406 C 185.15625 239.691406 185.773438 239.71875 186.390625 239.78125 C 187.011719 239.839844 187.625 239.933594 188.230469 240.054688 C 188.839844 240.175781 189.441406 240.324219 190.035156 240.503906 C 190.628906 240.6875 191.214844 240.894531 191.785156 241.132812 C 192.359375 241.371094 192.921875 241.632812 193.46875 241.925781 C 194.015625 242.21875 194.546875 242.539062 195.0625 242.882812 C 195.578125 243.226562 196.078125 243.597656 196.558594 243.992188 C 197.035156 244.382812 197.496094 244.800781 197.933594 245.238281 Z M 197.933594 245.238281 " fill-opacity="1" fill-rule="nonzero"/><path fill="#000000" d="M 192.691406 237.054688 C 195.375 238.070312 197.921875 239.597656 200.167969 241.664062 C 202.410156 243.730469 204.148438 246.140625 205.378906 248.738281 L 321.304688 110.144531 Z M 192.691406 237.054688 " fill-opacity="1" fill-rule="nonzero"/><g clip-path="url(#1f385401b9)"><path fill="#000000" d="M 162.847656 266.5 L 149.257812 279.910156 L 157.738281 287.722656 L 166.21875 295.539062 L 178.472656 280.890625 C 175.011719 279.957031 171.71875 278.199219 168.898438 275.601562 C 166.078125 273 164.058594 269.863281 162.839844 266.492188 Z M 162.847656 266.5 " fill-opacity="1" fill-rule="nonzero"/></g><path fill="#000000" d="M 374.863281 266.828125 C 374.863281 226.492188 362.105469 189.128906 340.414062 158.546875 L 267.285156 211.789062 C 278.097656 227.421875 284.425781 246.382812 284.425781 266.820312 L 374.855469 266.820312 Z M 374.863281 266.828125 " fill-opacity="1" fill-rule="nonzero"/><g clip-path="url(#d6f63ef3c0)"><path fill="#000000" d="M 187.492188 79.453125 C 167.964844 79.453125 149.136719 82.449219 131.429688 87.988281 L 159.535156 173.988281 C 168.382812 171.316406 177.765625 169.882812 187.492188 169.882812 C 197.222656 169.882812 206.847656 171.351562 215.792969 174.089844 L 243.898438 88.097656 C 226.09375 82.484375 207.148438 79.453125 187.492188 79.453125 Z M 187.492188 79.453125 " fill-opacity="1" fill-rule="nonzero"/></g><path fill="#000000" d="M 0.117188 266.828125 L 90.546875 266.828125 C 90.546875 246.304688 96.921875 227.277344 107.816406 211.605469 L 34.699219 158.363281 C 12.929688 188.980469 0.117188 226.402344 0.117188 266.828125 Z M 0.117188 266.828125 " fill-opacity="1" fill-rule="nonzero"/><path fill="#000000" d="M 37.097656 155.066406 L 110.210938 208.300781 C 121.640625 193.207031 137.40625 181.574219 155.644531 175.246094 L 127.546875 89.253906 C 91.074219 101.5625 59.621094 124.792969 37.101562 155.066406 Z M 37.097656 155.066406 " fill-opacity="1" fill-rule="nonzero"/><path fill="#000000" d="M 294.753906 113.1875 C 280.433594 103.167969 264.648438 95.097656 247.777344 89.371094 L 219.671875 175.367188 C 222.585938 176.390625 225.425781 177.5625 228.207031 178.847656 L 294.757812 113.1875 Z M 294.753906 113.1875 " fill-opacity="1" fill-rule="nonzero"/><path fill="#000000" d="M 321.363281 135.75 L 262.789062 205.785156 C 263.511719 206.671875 264.214844 207.566406 264.902344 208.484375 L 338.019531 155.246094 C 332.914062 148.375 327.347656 141.863281 321.371094 135.757812 Z M 321.363281 135.75 " fill-opacity="1" fill-rule="nonzero"/></svg>