<svg xmlns="http://www.w3.org/2000/svg" xmlns:xlink="http://www.w3.org/1999/xlink" width="500" zoomAndPan="magnify" viewBox="0 0 375 374.999991" height="500" preserveAspectRatio="xMidYMid meet" version="1.0"><path fill="#000000" d="M 367.96875 31.019531 L 143.503906 160.703125 C 142.929688 160.285156 142.335938 159.902344 141.71875 159.550781 L 12.289062 86.425781 C 11.429688 85.941406 10.609375 85.386719 9.835938 84.769531 C 9.066406 84.152344 8.347656 83.476562 7.683594 82.742188 C 7.019531 82.007812 6.417969 81.226562 5.878906 80.394531 C 5.339844 79.5625 4.871094 78.695312 4.472656 77.789062 C 4.074219 76.882812 3.75 75.949219 3.5 74.992188 C 3.25 74.035156 3.078125 73.0625 2.988281 72.074219 C 2.894531 71.089844 2.878906 70.101562 2.945312 69.113281 C 3.011719 68.125 3.15625 67.148438 3.378906 66.183594 C 3.601562 65.21875 3.898438 64.28125 4.273438 63.363281 C 4.648438 62.445312 5.089844 61.566406 5.605469 60.71875 C 6.121094 59.875 6.703125 59.074219 7.347656 58.324219 C 7.988281 57.570312 8.6875 56.875 9.445312 56.238281 C 10.199219 55.597656 11.003906 55.023438 11.851562 54.511719 C 12.699219 54 13.582031 53.5625 14.5 53.195312 C 15.417969 52.824219 16.359375 52.53125 17.324219 52.316406 C 18.292969 52.101562 19.269531 51.960938 20.257812 51.902344 Z M 150.710938 173.195312 C 150.789062 173.902344 150.824219 174.613281 150.816406 175.324219 L 149.390625 324.054688 C 149.382812 325.042969 149.453125 326.027344 149.601562 327.007812 C 149.75 327.984375 149.976562 328.945312 150.277344 329.890625 C 150.582031 330.832031 150.957031 331.742188 151.410156 332.625 C 151.859375 333.507812 152.375 334.347656 152.960938 335.144531 C 153.546875 335.945312 154.191406 336.691406 154.894531 337.386719 C 155.597656 338.082031 156.355469 338.714844 157.160156 339.289062 C 157.96875 339.863281 158.816406 340.367188 159.703125 340.804688 C 160.589844 341.242188 161.507812 341.605469 162.453125 341.894531 C 163.402344 342.183594 164.363281 342.394531 165.34375 342.527344 C 166.324219 342.664062 167.308594 342.71875 168.296875 342.695312 C 169.285156 342.671875 170.265625 342.566406 171.238281 342.386719 C 172.210938 342.203125 173.164062 341.945312 174.09375 341.609375 C 175.027344 341.273438 175.925781 340.867188 176.789062 340.386719 C 177.65625 339.910156 178.476562 339.363281 179.253906 338.75 C 180.03125 338.140625 180.757812 337.46875 181.425781 336.742188 C 182.097656 336.011719 182.707031 335.234375 183.25 334.410156 L 375.171875 43.507812 Z M 150.710938 173.195312 " fill-opacity="1" fill-rule="nonzero"/></svg>