<svg xmlns="http://www.w3.org/2000/svg" xmlns:xlink="http://www.w3.org/1999/xlink" width="500" zoomAndPan="magnify" viewBox="0 0 375 374.999991" height="500" preserveAspectRatio="xMidYMid meet" version="1.0"><path fill="#000000" d="M 162.421875 15.398438 C 154.175781 15.398438 147.128906 21.222656 145.542969 29.308594 L 139.792969 58.8125 C 125.664062 64.152344 112.601562 71.609375 101.128906 81.023438 L 72.816406 71.277344 C 65.019531 68.59375 56.4375 71.816406 52.304688 78.9375 L 26.347656 123.898438 C 22.234375 131.035156 23.734375 140.101562 29.945312 145.503906 L 52.644531 165.226562 C 51.460938 172.476562 50.691406 179.855469 50.691406 187.4375 C 50.691406 195.019531 51.460938 202.398438 52.644531 209.648438 L 29.945312 229.371094 C 23.734375 234.773438 22.234375 243.835938 26.347656 250.976562 L 52.304688 295.933594 C 56.421875 303.074219 65.019531 306.296875 72.816406 303.628906 L 101.128906 293.886719 C 112.597656 303.289062 125.671875 310.726562 139.792969 316.0625 L 145.542969 345.5625 C 147.128906 353.648438 154.175781 359.472656 162.421875 359.472656 L 214.402344 359.472656 C 222.648438 359.472656 229.699219 353.648438 231.28125 345.5625 L 237.03125 316.0625 C 251.160156 310.722656 264.226562 303.261719 275.699219 293.851562 L 304.007812 303.59375 C 311.808594 306.28125 320.386719 303.074219 324.519531 295.933594 L 350.476562 250.941406 C 354.589844 243.804688 353.09375 234.773438 346.878906 229.371094 L 324.183594 209.648438 C 325.363281 202.398438 326.132812 195.019531 326.132812 187.4375 C 326.132812 179.855469 325.363281 172.476562 324.183594 165.226562 L 346.878906 145.503906 C 353.09375 140.101562 354.589844 131.035156 350.476562 123.898438 L 324.519531 78.9375 C 320.40625 71.796875 311.808594 68.578125 304.007812 71.242188 L 275.699219 80.988281 C 264.230469 71.582031 251.15625 64.148438 237.03125 58.8125 L 231.28125 29.308594 C 229.699219 21.222656 222.648438 15.398438 214.402344 15.398438 Z M 188.414062 118.621094 C 226.441406 118.621094 257.273438 149.433594 257.273438 187.4375 C 257.273438 225.441406 226.441406 256.25 188.414062 256.25 C 150.386719 256.25 119.554688 225.441406 119.554688 187.4375 C 119.554688 149.433594 150.386719 118.621094 188.414062 118.621094 Z M 188.414062 118.621094 " fill-opacity="1" fill-rule="nonzero"/></svg>