<svg xmlns="http://www.w3.org/2000/svg" xmlns:xlink="http://www.w3.org/1999/xlink" width="500" zoomAndPan="magnify" viewBox="0 0 375 374.999991" height="500" preserveAspectRatio="xMidYMid meet" version="1.0"><defs><clipPath id="db32f566d7"><path d="M 43.605469 10.84375 L 331.878906 10.84375 L 331.878906 364.472656 L 43.605469 364.472656 Z M 43.605469 10.84375 " clip-rule="nonzero"/></clipPath><clipPath id="add7c02e5c"><path d="M 43.605469 10.84375 L 331.382812 10.84375 L 331.382812 364.144531 L 43.605469 364.144531 Z M 43.605469 10.84375 " clip-rule="nonzero"/></clipPath><clipPath id="ffeb6d2468"><rect x="0" width="375" y="0" height="375"/></clipPath></defs><g transform="matrix(1, 0, 0, 1, 0, 0)"><g clip-path="url(#ffeb6d2468)"><path fill="#ffffff" d="M 49.054688 16.351562 L 325.933594 16.351562 L 325.933594 358.636719 L 49.054688 358.636719 Z M 49.054688 16.351562 " fill-opacity="1" fill-rule="nonzero"/><g clip-path="url(#db32f566d7)"><path stroke-linecap="butt" transform="matrix(2.180149, 0, 0, 2.180149, -335.740961, -204.933164)" fill="none" stroke-linejoin="miter" d="M 176.499701 101.499818 L 303.499693 101.499818 L 303.499693 258.500626 L 176.499701 258.500626 Z M 176.499701 101.499818 " stroke="#dcdcdc" stroke-width="5" stroke-opacity="1" stroke-miterlimit="10"/></g><path stroke-linecap="round" transform="matrix(2.180149, 0, 0, 2.180149, -335.740961, -204.933164)" fill="none" stroke-linejoin="miter" d="M 189.500533 119.832853 L 251.49995 119.832853 " stroke="#000000" stroke-width="5" stroke-opacity="1" stroke-miterlimit="10"/><path stroke-linecap="round" transform="matrix(2.180149, 0, 0, 2.180149, -335.740961, -204.933164)" fill="none" stroke-linejoin="miter" d="M 189.833795 130.834108 L 260.166574 130.834108 " stroke="#000000" stroke-width="5" stroke-opacity="1" stroke-miterlimit="10"/><path stroke-linecap="round" transform="matrix(2.180149, 0, 0, 2.180149, -335.740961, -204.933164)" fill="none" stroke-linejoin="miter" d="M 190.500321 142.166834 L 234.166703 142.166834 " stroke="#000000" stroke-width="5" stroke-opacity="1" stroke-miterlimit="10"/><path stroke-linecap="round" transform="matrix(2.180149, 0, 0, 2.180149, -335.740961, -204.933164)" fill="none" stroke-linejoin="miter" d="M 190.833584 160.49987 L 256.833946 160.49987 " stroke="#000000" stroke-width="5" stroke-opacity="1" stroke-miterlimit="10"/><path stroke-linecap="round" transform="matrix(2.180149, 0, 0, 2.180149, -335.740961, -204.933164)" fill="none" stroke-linejoin="miter" d="M 192.166635 170.166282 L 281.167504 170.166282 " stroke="#000000" stroke-width="5" stroke-opacity="1" stroke-miterlimit="10"/><path stroke-linecap="round" transform="matrix(2.180149, 0, 0, 2.180149, -335.740961, -204.933164)" fill="none" stroke-linejoin="miter" d="M 192.166635 181.167537 L 264.167519 181.167537 " stroke="#000000" stroke-width="5" stroke-opacity="1" stroke-miterlimit="10"/><path stroke-linecap="round" transform="matrix(2.180149, 0, 0, 2.180149, -335.740961, -204.933164)" fill="none" stroke-linejoin="miter" d="M 191.500109 200.500361 L 240.167224 200.500361 " stroke="#000000" stroke-width="5" stroke-opacity="1" stroke-miterlimit="10"/><path stroke-linecap="round" transform="matrix(2.180149, 0, 0, 2.180149, -335.740961, -204.933164)" fill="none" stroke-linejoin="miter" d="M 192.166635 210.833299 L 275.500245 210.833299 " stroke="#000000" stroke-width="5" stroke-opacity="1" stroke-miterlimit="10"/><path stroke-linecap="round" transform="matrix(2.180149, 0, 0, 2.180149, -335.740961, -204.933164)" fill="none" stroke-linejoin="miter" d="M 191.500109 219.499923 L 259.833311 219.499923 " stroke="#000000" stroke-width="5" stroke-opacity="1" stroke-miterlimit="10"/><path stroke-linecap="round" transform="matrix(2.180149, 0, 0, 2.180149, -335.740961, -204.933164)" fill="none" stroke-linejoin="miter" d="M 191.500109 229.83286 L 272.165825 229.83286 " stroke="#000000" stroke-width="5" stroke-opacity="1" stroke-miterlimit="10"/><g clip-path="url(#add7c02e5c)"><path stroke-linecap="butt" transform="matrix(1.167093, 0, 0, 1.167093, 43.604968, 10.843185)" fill="none" stroke-linejoin="miter" d="M 0.000429026 0.00048441 L 246.576543 0.00048441 L 246.576543 302.719011 L 0.000429026 302.719011 Z M 0.000429026 0.00048441 " stroke="#000000" stroke-width="11.567198" stroke-opacity="1" stroke-miterlimit="4"/></g></g></g></svg>