<svg xmlns="http://www.w3.org/2000/svg" xmlns:xlink="http://www.w3.org/1999/xlink" width="500" zoomAndPan="magnify" viewBox="0 0 375 374.999991" height="500" preserveAspectRatio="xMidYMid meet" version="1.0"><defs><clipPath id="1c93889d51"><path d="M 187.5 0 C 83.945312 0 0 83.945312 0 187.5 C 0 291.054688 83.945312 375 187.5 375 C 291.054688 375 375 291.054688 375 187.5 C 375 83.945312 291.054688 0 187.5 0 Z M 187.5 0 " clip-rule="nonzero"/></clipPath><clipPath id="e356ae7796"><path d="M 74.523438 116 L 196 116 L 196 257 L 74.523438 257 Z M 74.523438 116 " clip-rule="nonzero"/></clipPath><clipPath id="ae4847f123"><path d="M 120 261 L 152 261 L 152 306.605469 L 120 306.605469 Z M 120 261 " clip-rule="nonzero"/></clipPath><clipPath id="d109ee9f12"><path d="M 151 230 L 270 230 L 270 306.605469 L 151 306.605469 Z M 151 230 " clip-rule="nonzero"/></clipPath><clipPath id="c35632c792"><path d="M 260 192 L 300.273438 192 L 300.273438 306.605469 L 260 306.605469 Z M 260 192 " clip-rule="nonzero"/></clipPath><clipPath id="ff17f4b38a"><path d="M 167 68.105469 L 255 68.105469 L 255 119 L 167 119 Z M 167 68.105469 " clip-rule="nonzero"/></clipPath></defs><g clip-path="url(#1c93889d51)"><path stroke-linecap="butt" transform="matrix(0.75, 0, 0, 0.75, 0.0000045, 0)" fill="none" stroke-linejoin="miter" d="M 249.999994 0 C 111.927078 0 -0.000006 111.927084 -0.000006 250 C -0.000006 388.072917 111.927078 500.000001 249.999994 500.000001 C 388.072911 500.000001 499.999995 388.072917 499.999995 250 C 499.999995 111.927084 388.072911 0 249.999994 0 Z M 249.999994 0 " stroke="#000000" stroke-width="60" stroke-opacity="1" stroke-miterlimit="4"/></g><path fill="#000000" d="M 161.289062 121.703125 C 160.976562 122.113281 160.5625 122.289062 160.050781 122.234375 L 110.441406 122.234375 C 110.160156 122.261719 109.902344 122.203125 109.664062 122.054688 C 109.425781 121.90625 109.257812 121.699219 109.15625 121.4375 L 115.441406 106.792969 C 115.570312 106.566406 115.753906 106.390625 115.984375 106.273438 C 116.21875 106.152344 116.464844 106.105469 116.726562 106.128906 C 120.441406 106.308594 125 106.308594 126.238281 102.058594 C 126.613281 101.191406 127.109375 100.394531 127.722656 99.675781 C 128.339844 98.957031 129.050781 98.347656 129.851562 97.84375 C 130.65625 97.34375 131.515625 96.972656 132.429688 96.734375 C 133.347656 96.492188 134.277344 96.398438 135.222656 96.441406 C 136.175781 96.386719 137.109375 96.476562 138.035156 96.710938 C 138.957031 96.945312 139.824219 97.3125 140.632812 97.816406 C 141.4375 98.320312 142.152344 98.933594 142.769531 99.65625 C 143.386719 100.382812 143.882812 101.183594 144.25 102.058594 C 144.445312 102.660156 144.730469 103.214844 145.101562 103.722656 C 145.476562 104.234375 145.917969 104.671875 146.433594 105.039062 C 146.949219 105.402344 147.503906 105.679688 148.109375 105.867188 C 148.710938 106.054688 149.328125 106.140625 149.960938 106.128906 C 150.800781 106.261719 154.695312 105.6875 155.050781 106.75 Z M 161.289062 121.703125 " fill-opacity="1" fill-rule="nonzero"/><g clip-path="url(#e356ae7796)"><path fill="#000000" d="M 192.398438 116.484375 L 164.253906 116.484375 C 165.273438 118.785156 166.996094 121.878906 165.183594 124.269531 C 164.597656 125.105469 163.851562 125.753906 162.941406 126.214844 C 162.035156 126.679688 161.070312 126.898438 160.050781 126.878906 L 110.441406 126.878906 C 110.214844 126.894531 109.988281 126.894531 109.765625 126.882812 C 109.539062 126.871094 109.3125 126.84375 109.089844 126.800781 C 108.867188 126.761719 108.648438 126.707031 108.433594 126.640625 C 108.21875 126.570312 108.007812 126.492188 107.800781 126.398438 C 107.59375 126.304688 107.394531 126.199219 107.203125 126.078125 C 107.011719 125.960938 106.828125 125.832031 106.648438 125.6875 C 106.472656 125.546875 106.304688 125.394531 106.148438 125.234375 C 105.992188 125.070312 105.84375 124.902344 105.707031 124.71875 C 105.570312 124.539062 105.445312 124.351562 105.332031 124.15625 C 105.21875 123.960938 105.117188 123.757812 105.027344 123.550781 C 104.941406 123.34375 104.867188 123.128906 104.804688 122.910156 C 104.742188 122.695312 104.695312 122.472656 104.660156 122.25 C 104.625 122.027344 104.605469 121.800781 104.597656 121.578125 C 104.589844 121.351562 104.597656 121.125 104.617188 120.898438 C 104.640625 120.675781 104.675781 120.453125 104.722656 120.230469 C 104.773438 120.007812 104.832031 119.792969 104.910156 119.578125 L 106.238281 116.484375 L 78.089844 116.484375 C 77.609375 116.5 77.148438 116.609375 76.710938 116.808594 C 76.273438 117.007812 75.890625 117.285156 75.5625 117.636719 C 75.234375 117.988281 74.988281 118.390625 74.820312 118.84375 C 74.652344 119.296875 74.578125 119.761719 74.597656 120.242188 L 74.597656 253.054688 C 74.578125 253.53125 74.652344 253.996094 74.820312 254.445312 C 74.988281 254.894531 75.238281 255.292969 75.566406 255.640625 C 75.894531 255.992188 76.277344 256.265625 76.714844 256.460938 C 77.152344 256.65625 77.613281 256.757812 78.089844 256.769531 L 117.832031 256.769531 C 118.007812 256.8125 154.074219 256.726562 154.296875 256.769531 L 192.398438 256.769531 C 192.878906 256.757812 193.335938 256.65625 193.773438 256.460938 C 194.214844 256.265625 194.597656 255.992188 194.925781 255.644531 C 195.253906 255.292969 195.5 254.894531 195.667969 254.445312 C 195.839844 253.996094 195.914062 253.53125 195.894531 253.054688 L 195.894531 120.242188 C 195.914062 119.761719 195.839844 119.296875 195.671875 118.84375 C 195.503906 118.390625 195.257812 117.988281 194.929688 117.636719 C 194.601562 117.285156 194.21875 117.007812 193.777344 116.808594 C 193.339844 116.609375 192.882812 116.5 192.398438 116.484375 Z M 82.960938 140.285156 C 82.957031 139.976562 83.015625 139.683594 83.128906 139.402344 C 83.246094 139.117188 83.414062 138.867188 83.628906 138.652344 C 83.84375 138.4375 84.09375 138.269531 84.378906 138.15625 C 84.660156 138.039062 84.953125 137.980469 85.261719 137.984375 L 107.121094 137.984375 C 110.738281 135.136719 114.664062 132.808594 118.894531 130.992188 C 115.574219 134.023438 112.460938 137.253906 109.554688 140.683594 L 109.554688 162.007812 C 109.558594 162.3125 109.5 162.605469 109.386719 162.890625 C 109.269531 163.171875 109.101562 163.421875 108.886719 163.636719 C 108.671875 163.855469 108.421875 164.019531 108.136719 164.136719 C 107.855469 164.253906 107.5625 164.308594 107.253906 164.308594 L 85.261719 164.308594 C 84.953125 164.308594 84.660156 164.253906 84.378906 164.136719 C 84.09375 164.019531 83.84375 163.855469 83.628906 163.636719 C 83.414062 163.421875 83.246094 163.171875 83.128906 162.890625 C 83.015625 162.605469 82.957031 162.3125 82.960938 162.007812 Z M 82.960938 180.410156 C 82.957031 180.105469 83.015625 179.8125 83.128906 179.527344 C 83.246094 179.246094 83.414062 178.996094 83.628906 178.777344 C 83.84375 178.5625 84.09375 178.398438 84.378906 178.28125 C 84.660156 178.164062 84.953125 178.109375 85.261719 178.109375 L 107.121094 178.109375 C 110.734375 175.253906 114.660156 172.925781 118.894531 171.121094 C 115.59375 174.171875 112.484375 177.398438 109.554688 180.808594 L 109.554688 202.132812 C 109.558594 202.4375 109.5 202.734375 109.386719 203.015625 C 109.269531 203.296875 109.101562 203.546875 108.886719 203.765625 C 108.671875 203.980469 108.421875 204.144531 108.136719 204.261719 C 107.855469 204.378906 107.5625 204.433594 107.253906 204.433594 L 85.261719 204.433594 C 84.953125 204.433594 84.660156 204.378906 84.378906 204.261719 C 84.09375 204.144531 83.84375 203.980469 83.628906 203.765625 C 83.414062 203.546875 83.246094 203.296875 83.128906 203.015625 C 83.015625 202.734375 82.957031 202.4375 82.960938 202.132812 Z M 109.554688 220.933594 L 109.554688 242.257812 C 109.558594 242.566406 109.503906 242.863281 109.386719 243.148438 C 109.273438 243.433594 109.105469 243.6875 108.890625 243.90625 C 108.675781 244.128906 108.425781 244.296875 108.144531 244.417969 C 107.859375 244.539062 107.5625 244.601562 107.253906 244.605469 L 85.261719 244.605469 C 84.953125 244.601562 84.65625 244.539062 84.375 244.417969 C 84.089844 244.296875 83.839844 244.128906 83.625 243.90625 C 83.410156 243.6875 83.242188 243.433594 83.128906 243.148438 C 83.011719 242.863281 82.957031 242.566406 82.960938 242.257812 L 82.960938 220.535156 C 82.960938 220.230469 83.019531 219.941406 83.136719 219.660156 C 83.253906 219.378906 83.421875 219.128906 83.636719 218.914062 C 83.851562 218.699219 84.101562 218.53125 84.382812 218.414062 C 84.664062 218.296875 84.957031 218.238281 85.261719 218.234375 L 107.121094 218.234375 C 110.730469 215.386719 114.652344 213.070312 118.894531 211.289062 C 115.585938 214.316406 112.472656 217.53125 109.554688 220.933594 Z M 187.929688 240.667969 L 117.167969 240.667969 L 117.167969 236.019531 L 187.929688 236.019531 Z M 187.929688 226.820312 L 117.167969 226.820312 L 117.167969 222.171875 L 187.929688 222.171875 Z M 187.929688 200.496094 L 117.167969 200.496094 L 117.167969 195.894531 L 187.929688 195.894531 Z M 187.929688 186.691406 L 117.167969 186.691406 L 117.167969 182.046875 L 187.929688 182.046875 Z M 187.929688 160.371094 L 117.167969 160.371094 L 117.167969 155.722656 L 187.929688 155.722656 Z M 187.929688 146.523438 L 117.167969 146.523438 L 117.167969 141.921875 L 187.929688 141.921875 Z M 187.929688 146.523438 " fill-opacity="1" fill-rule="nonzero"/></g><g clip-path="url(#ae4847f123)"><path fill="#000000" d="M 151.464844 261.414062 L 146.550781 306.585938 L 120.222656 306.585938 L 120.222656 261.414062 Z M 151.464844 261.414062 " fill-opacity="1" fill-rule="nonzero"/></g><path fill="#000000" d="M 243.777344 180.941406 L 232.492188 226.066406 L 200.542969 226.066406 L 200.542969 192.710938 C 202.390625 193.128906 204.261719 193.429688 206.148438 193.613281 C 208.039062 193.792969 209.929688 193.859375 211.828125 193.804688 C 213.722656 193.746094 215.609375 193.574219 217.480469 193.28125 C 219.355469 192.988281 221.203125 192.578125 223.027344 192.050781 C 224.851562 191.527344 226.632812 190.886719 228.375 190.136719 C 230.117188 189.386719 231.804688 188.53125 233.441406 187.566406 C 235.074219 186.605469 236.640625 185.542969 238.140625 184.382812 C 239.640625 183.222656 241.0625 181.972656 242.40625 180.632812 C 242.847656 180.71875 243.292969 180.808594 243.777344 180.941406 Z M 243.777344 180.941406 " fill-opacity="1" fill-rule="nonzero"/><path fill="#000000" d="M 248.246094 182.089844 L 236.433594 229.253906 C 235.722656 233.542969 232.09375 241.285156 235.148438 245.265625 C 235.632812 246.039062 236.21875 246.726562 236.902344 247.328125 C 237.585938 247.929688 238.34375 248.421875 239.171875 248.804688 C 240 249.1875 240.863281 249.445312 241.765625 249.574219 C 242.667969 249.707031 243.570312 249.707031 244.472656 249.574219 C 245.375 249.445312 246.242188 249.1875 247.070312 248.804688 C 247.898438 248.421875 248.652344 247.929688 249.339844 247.328125 C 250.023438 246.726562 250.605469 246.039062 251.09375 245.265625 C 251.578125 244.492188 251.941406 243.667969 252.1875 242.789062 L 265.507812 189.703125 C 260.097656 186.382812 254.347656 183.847656 248.246094 182.089844 Z M 242.894531 241.816406 C 242.480469 241.710938 242.082031 241.570312 241.695312 241.386719 C 241.3125 241.203125 240.949219 240.984375 240.605469 240.730469 C 240.265625 240.476562 239.949219 240.195312 239.664062 239.878906 C 239.378906 239.5625 239.125 239.222656 238.90625 238.855469 C 238.6875 238.492188 238.507812 238.109375 238.363281 237.707031 C 238.21875 237.304688 238.117188 236.894531 238.054688 236.472656 C 237.992188 236.054688 237.96875 235.628906 237.988281 235.203125 C 238.011719 234.777344 238.070312 234.359375 238.175781 233.945312 C 238.277344 233.53125 238.421875 233.132812 238.601562 232.75 C 238.785156 232.363281 239 232 239.253906 231.65625 C 239.507812 231.3125 239.789062 231 240.105469 230.714844 C 240.421875 230.425781 240.761719 230.171875 241.125 229.953125 C 241.492188 229.734375 241.875 229.550781 242.273438 229.40625 C 242.675781 229.261719 243.085938 229.15625 243.507812 229.09375 C 243.925781 229.03125 244.351562 229.007812 244.777344 229.027344 C 245.203125 229.046875 245.621094 229.105469 246.035156 229.207031 C 246.445312 229.3125 246.84375 229.457031 247.230469 229.640625 C 247.613281 229.824219 247.976562 230.042969 248.316406 230.296875 C 248.65625 230.550781 248.96875 230.835938 249.253906 231.152344 C 249.539062 231.464844 249.792969 231.808594 250.007812 232.171875 C 250.226562 232.535156 250.40625 232.917969 250.550781 233.320312 C 250.695312 233.71875 250.796875 234.128906 250.859375 234.550781 C 250.921875 234.972656 250.941406 235.394531 250.921875 235.820312 C 250.902344 236.242188 250.839844 236.664062 250.738281 237.074219 C 250.632812 237.488281 250.492188 237.886719 250.3125 238.269531 C 250.128906 238.65625 249.914062 239.019531 249.660156 239.359375 C 249.40625 239.703125 249.125 240.015625 248.8125 240.304688 C 248.496094 240.589844 248.15625 240.84375 247.792969 241.0625 C 247.429688 241.285156 247.046875 241.464844 246.648438 241.609375 C 246.25 241.757812 245.839844 241.859375 245.417969 241.925781 C 244.996094 241.992188 244.574219 242.011719 244.148438 241.996094 C 243.726562 241.976562 243.304688 241.917969 242.894531 241.816406 Z M 242.894531 241.816406 " fill-opacity="1" fill-rule="nonzero"/><g clip-path="url(#d109ee9f12)"><path fill="#000000" d="M 269.222656 306.585938 L 151.242188 306.585938 L 156.109375 261.414062 L 192.398438 261.414062 C 192.941406 261.40625 193.476562 261.34375 194.003906 261.230469 C 194.535156 261.117188 195.046875 260.953125 195.542969 260.738281 C 196.042969 260.523438 196.511719 260.261719 196.957031 259.953125 C 197.40625 259.648438 197.816406 259.300781 198.195312 258.910156 C 198.570312 258.523438 198.90625 258.101562 199.203125 257.648438 C 199.5 257.195312 199.746094 256.71875 199.949219 256.214844 C 200.148438 255.710938 200.300781 255.195312 200.398438 254.664062 C 200.5 254.132812 200.546875 253.59375 200.542969 253.054688 L 200.542969 230.667969 L 231.34375 230.667969 L 229.660156 237.304688 C 229.453125 238.1875 229.335938 239.082031 229.304688 239.992188 C 229.273438 240.898438 229.332031 241.800781 229.476562 242.695312 C 229.625 243.589844 229.855469 244.464844 230.171875 245.3125 C 230.488281 246.164062 230.882812 246.976562 231.359375 247.75 C 231.835938 248.523438 232.378906 249.242188 232.996094 249.910156 C 233.613281 250.574219 234.289062 251.175781 235.023438 251.710938 C 235.757812 252.246094 236.535156 252.703125 237.359375 253.085938 C 238.183594 253.464844 239.035156 253.765625 239.917969 253.980469 C 240.796875 254.195312 241.691406 254.320312 242.601562 254.363281 C 243.507812 254.402344 244.410156 254.355469 245.308594 254.21875 C 246.203125 254.082031 247.078125 253.859375 247.933594 253.550781 C 248.789062 253.242188 249.605469 252.855469 250.382812 252.386719 C 251.160156 251.921875 251.886719 251.382812 252.558594 250.773438 C 253.230469 250.164062 253.839844 249.496094 254.378906 248.765625 C 254.921875 248.039062 255.386719 247.265625 255.777344 246.445312 C 256.167969 245.625 256.476562 244.777344 256.699219 243.894531 L 259.488281 232.746094 C 260.707031 233.875 261.414062 235.257812 261.613281 236.90625 Z M 269.222656 306.585938 " fill-opacity="1" fill-rule="nonzero"/></g><g clip-path="url(#c35632c792)"><path fill="#000000" d="M 300.203125 250.398438 L 300.203125 306.585938 L 273.871094 306.585938 L 266.214844 236.375 C 266.105469 235.507812 265.898438 234.664062 265.597656 233.84375 C 265.292969 233.019531 264.902344 232.246094 264.421875 231.511719 C 263.945312 230.78125 263.390625 230.113281 262.757812 229.507812 C 262.125 228.902344 261.433594 228.375 260.683594 227.925781 L 269.621094 192.398438 C 271.96875 194.007812 274.210938 195.753906 276.347656 197.636719 C 278.480469 199.515625 280.496094 201.519531 282.386719 203.644531 C 284.28125 205.769531 286.039062 208 287.660156 210.339844 C 289.28125 212.675781 290.753906 215.105469 292.082031 217.621094 C 293.410156 220.140625 294.578125 222.726562 295.59375 225.386719 C 296.605469 228.042969 297.453125 230.753906 298.136719 233.515625 C 298.820312 236.277344 299.335938 239.070312 299.683594 241.894531 C 300.027344 244.71875 300.199219 247.554688 300.203125 250.398438 Z M 300.203125 250.398438 " fill-opacity="1" fill-rule="nonzero"/></g><path fill="#000000" d="M 250.859375 149.398438 C 251.476562 174.746094 224.882812 194.832031 200.542969 187.976562 L 200.542969 138.160156 L 249.132812 138.160156 C 250.261719 141.820312 250.835938 145.566406 250.859375 149.398438 Z M 250.859375 149.398438 " fill-opacity="1" fill-rule="nonzero"/><path fill="#000000" d="M 200.542969 123.25 L 262.542969 123.25 L 262.542969 133.511719 L 200.542969 133.511719 Z M 200.542969 123.25 " fill-opacity="1" fill-rule="nonzero"/><g clip-path="url(#ff17f4b38a)"><path fill="#000000" d="M 254.046875 118.605469 L 200.363281 118.605469 C 200.28125 118.140625 200.160156 117.683594 200 117.238281 C 199.839844 116.792969 199.640625 116.367188 199.40625 115.953125 C 199.171875 115.542969 198.902344 115.15625 198.597656 114.792969 C 198.296875 114.429688 197.964844 114.09375 197.601562 113.785156 C 197.242188 113.480469 196.859375 113.207031 196.449219 112.964844 C 196.039062 112.726562 195.613281 112.523438 195.171875 112.355469 C 194.726562 112.191406 194.273438 112.066406 193.808594 111.976562 C 193.34375 111.890625 192.871094 111.84375 192.398438 111.835938 L 167.351562 111.835938 C 167.753906 109.910156 168.289062 108.019531 168.949219 106.167969 C 169.609375 104.3125 170.394531 102.511719 171.304688 100.765625 C 172.210938 99.019531 173.234375 97.34375 174.371094 95.738281 C 175.511719 94.132812 176.753906 92.609375 178.097656 91.171875 C 179.445312 89.738281 180.882812 88.398438 182.410156 87.160156 C 183.9375 85.917969 185.546875 84.789062 187.230469 83.769531 C 188.914062 82.746094 190.65625 81.847656 192.464844 81.066406 C 194.273438 80.28125 196.125 79.628906 198.019531 79.097656 L 198.019531 97.988281 C 198.027344 98.292969 198.09375 98.582031 198.214844 98.859375 C 198.335938 99.136719 198.507812 99.378906 198.722656 99.589844 C 198.941406 99.800781 199.1875 99.960938 199.46875 100.074219 C 199.75 100.191406 200.039062 100.246094 200.34375 100.246094 C 200.644531 100.246094 200.9375 100.191406 201.21875 100.074219 C 201.496094 99.960938 201.746094 99.800781 201.960938 99.589844 C 202.179688 99.378906 202.347656 99.136719 202.46875 98.859375 C 202.59375 98.582031 202.65625 98.292969 202.667969 97.988281 L 202.667969 68.128906 L 207.886719 68.128906 L 207.886719 106.660156 C 207.894531 106.964844 207.957031 107.257812 208.074219 107.539062 C 208.195312 107.820312 208.363281 108.066406 208.582031 108.28125 C 208.796875 108.496094 209.046875 108.660156 209.332031 108.777344 C 209.613281 108.890625 209.90625 108.949219 210.210938 108.949219 C 210.515625 108.949219 210.8125 108.890625 211.09375 108.777344 C 211.375 108.660156 211.625 108.496094 211.84375 108.28125 C 212.058594 108.066406 212.230469 107.820312 212.347656 107.539062 C 212.46875 107.257812 212.53125 106.964844 212.535156 106.660156 L 212.535156 68.128906 L 217.757812 68.128906 L 217.757812 97.988281 C 217.761719 98.296875 217.820312 98.59375 217.941406 98.878906 C 218.0625 99.160156 218.234375 99.410156 218.453125 99.625 C 218.671875 99.84375 218.925781 100.007812 219.210938 100.121094 C 219.496094 100.238281 219.792969 100.292969 220.101562 100.289062 C 220.410156 100.292969 220.703125 100.234375 220.984375 100.121094 C 221.269531 100.003906 221.519531 99.835938 221.734375 99.621094 C 221.949219 99.40625 222.117188 99.15625 222.234375 98.871094 C 222.347656 98.589844 222.40625 98.296875 222.402344 97.988281 L 222.402344 79.011719 C 224.570312 79.636719 226.679688 80.421875 228.726562 81.375 C 230.773438 82.324219 232.734375 83.425781 234.609375 84.679688 C 236.488281 85.929688 238.257812 87.320312 239.917969 88.84375 C 241.582031 90.371094 243.117188 92.015625 244.523438 93.777344 C 245.933594 95.539062 247.195312 97.398438 248.320312 99.359375 C 249.441406 101.316406 250.402344 103.347656 251.210938 105.453125 C 252.019531 107.558594 252.660156 109.714844 253.136719 111.921875 C 253.609375 114.125 253.914062 116.355469 254.046875 118.605469 Z M 254.046875 118.605469 " fill-opacity="1" fill-rule="nonzero"/></g><path fill="#000000" d="M 102.078125 142.585938 C 99.816406 144.925781 97.824219 147.476562 96.101562 150.238281 C 95.035156 148.820312 93.773438 147.59375 92.324219 146.566406 C 90.875 145.539062 89.300781 144.757812 87.605469 144.222656 L 87.605469 142.585938 Z M 102.078125 142.585938 " fill-opacity="1" fill-rule="nonzero"/><path fill="#000000" d="M 104.953125 146.523438 L 104.953125 159.660156 L 87.605469 159.660156 L 87.605469 146.125 C 88.578125 147.230469 89.597656 148.425781 90.570312 149.75 C 92.910156 152.835938 94.917969 156.125 96.589844 159.617188 C 99.058594 155.050781 101.847656 150.683594 104.953125 146.523438 Z M 104.953125 146.523438 " fill-opacity="1" fill-rule="nonzero"/><path fill="#000000" d="M 102.078125 182.753906 C 99.816406 185.082031 97.824219 187.617188 96.101562 190.363281 C 95.019531 188.957031 93.757812 187.742188 92.308594 186.714844 C 90.859375 185.691406 89.292969 184.902344 87.605469 184.347656 L 87.605469 182.753906 Z M 102.078125 182.753906 " fill-opacity="1" fill-rule="nonzero"/><path fill="#000000" d="M 104.953125 186.648438 L 104.953125 199.832031 L 87.605469 199.832031 L 87.605469 186.292969 C 88.578125 187.402344 89.597656 188.550781 90.570312 189.878906 C 92.910156 192.964844 94.917969 196.253906 96.589844 199.742188 C 99.058594 195.175781 101.847656 190.808594 104.953125 186.648438 Z M 104.953125 186.648438 " fill-opacity="1" fill-rule="nonzero"/><path fill="#000000" d="M 102.078125 222.882812 C 99.828125 225.214844 97.835938 227.75 96.101562 230.492188 C 95.019531 229.085938 93.757812 227.867188 92.308594 226.84375 C 90.859375 225.816406 89.292969 225.027344 87.605469 224.472656 L 87.605469 222.882812 Z M 102.078125 222.882812 " fill-opacity="1" fill-rule="nonzero"/><path fill="#000000" d="M 104.953125 226.820312 L 104.953125 239.957031 L 87.605469 239.957031 L 87.605469 226.421875 C 88.578125 227.527344 89.597656 228.722656 90.570312 230.003906 C 92.910156 233.089844 94.917969 236.378906 96.589844 239.871094 C 99.050781 235.308594 101.839844 230.960938 104.953125 226.820312 Z M 104.953125 226.820312 " fill-opacity="1" fill-rule="nonzero"/></svg>