<svg xmlns="http://www.w3.org/2000/svg" xmlns:xlink="http://www.w3.org/1999/xlink" width="500" zoomAndPan="magnify" viewBox="0 0 375 374.999991" height="500" preserveAspectRatio="xMidYMid meet" version="1.0"><defs><clipPath id="5fac316fc4"><path d="M 25.507812 36.441406 L 349.507812 36.441406 L 349.507812 338.691406 L 25.507812 338.691406 Z M 25.507812 36.441406 " clip-rule="nonzero"/></clipPath></defs><g clip-path="url(#5fac316fc4)"><path fill="#100f0d" d="M 36.441406 48.777344 L 133.554688 73.527344 L 133.554688 174.683594 L 133.199219 174.558594 C 130.394531 173.609375 127.316406 175.148438 126.390625 177.972656 C 125.441406 180.800781 126.980469 183.855469 129.804688 184.804688 L 133.554688 186.050781 L 133.554688 326.335938 L 36.441406 301.605469 Z M 338.574219 321.152344 L 246.855469 301.921875 L 246.855469 212.191406 L 253.558594 215.292969 C 254.292969 215.628906 255.074219 215.796875 255.8125 215.796875 C 257.855469 215.796875 259.816406 214.636719 260.722656 212.65625 C 261.964844 209.957031 260.785156 206.730469 258.089844 205.488281 L 246.855469 200.300781 L 246.855469 48.523438 L 338.574219 68.195312 Z M 236.066406 195.601562 C 235.980469 195.640625 235.894531 195.640625 235.832031 195.707031 C 233.386719 197.414062 232.796875 200.785156 234.503906 203.230469 L 236.066406 205.46875 L 236.066406 302.15625 L 144.347656 326.296875 L 144.347656 185.5 L 152.082031 181.644531 C 154.757812 180.292969 155.832031 177.046875 154.503906 174.390625 C 153.175781 171.734375 149.929688 170.636719 147.253906 171.964844 L 144.347656 173.441406 L 144.347656 73.464844 L 236.066406 48.882812 Z M 29.71875 311.03125 L 137.625 338.523438 C 138.066406 338.628906 138.507812 338.691406 138.949219 338.691406 C 139.414062 338.691406 139.878906 338.628906 140.320312 338.523438 L 241.605469 311.851562 L 342.851562 333.085938 C 344.453125 333.421875 346.117188 333.019531 347.363281 331.988281 C 348.625 330.953125 349.363281 329.414062 349.363281 327.792969 L 349.363281 63.828125 C 349.363281 61.300781 347.59375 59.085938 345.105469 58.558594 L 242.597656 36.570312 C 242.261719 36.484375 241.921875 36.484375 241.566406 36.464844 C 241.542969 36.464844 241.5 36.441406 241.460938 36.441406 C 241.4375 36.441406 241.4375 36.441406 241.417969 36.441406 C 240.953125 36.464844 240.511719 36.503906 240.070312 36.632812 L 138.910156 63.746094 L 32.375 36.609375 C 30.773438 36.210938 29.042969 36.546875 27.738281 37.582031 C 26.429688 38.59375 25.652344 40.175781 25.652344 41.839844 L 25.652344 305.800781 C 25.652344 308.269531 27.316406 310.417969 29.71875 311.03125 " fill-opacity="1" fill-rule="nonzero"/></g><path fill="#100f0d" d="M 66.515625 272.132812 L 59.371094 280.226562 C 57.410156 282.464844 57.621094 285.878906 59.835938 287.839844 C 60.867188 288.746094 62.152344 289.210938 63.417969 289.210938 C 64.914062 289.210938 66.390625 288.578125 67.464844 287.375 L 74.609375 279.28125 C 76.589844 277.042969 76.378906 273.648438 74.125 271.667969 C 71.890625 269.6875 68.496094 269.898438 66.515625 272.132812 " fill-opacity="1" fill-rule="nonzero"/><path fill="#100f0d" d="M 90.5 244.976562 L 76.800781 260.496094 C 74.820312 262.730469 75.03125 266.144531 77.265625 268.105469 C 78.296875 269.011719 79.5625 269.453125 80.847656 269.453125 C 82.34375 269.453125 83.820312 268.84375 84.894531 267.640625 L 98.59375 252.125 C 100.574219 249.890625 100.363281 246.472656 98.128906 244.492188 C 95.894531 242.53125 92.480469 242.742188 90.5 244.976562 " fill-opacity="1" fill-rule="nonzero"/><path fill="#100f0d" d="M 111.46875 216.746094 C 110.035156 214.152344 106.75 213.203125 104.136719 214.636719 C 101.523438 216.09375 100.59375 219.382812 102.027344 221.976562 L 105.398438 228.089844 L 100.785156 233.316406 C 98.804688 235.574219 99.015625 238.96875 101.269531 240.949219 C 102.28125 241.855469 103.566406 242.300781 104.832031 242.300781 C 106.328125 242.300781 107.800781 241.6875 108.878906 240.464844 L 116.019531 232.390625 C 117.539062 230.660156 117.792969 228.195312 116.695312 226.191406 L 111.46875 216.746094 " fill-opacity="1" fill-rule="nonzero"/><path fill="#100f0d" d="M 93.828125 207.175781 C 94.820312 208.964844 96.652344 209.957031 98.570312 209.957031 C 99.433594 209.957031 100.339844 209.746094 101.164062 209.28125 C 103.777344 207.847656 104.726562 204.558594 103.269531 201.945312 L 92.355469 182.210938 C 90.921875 179.617188 87.632812 178.671875 85.019531 180.105469 C 82.40625 181.558594 81.457031 184.828125 82.914062 187.441406 L 93.828125 207.175781 " fill-opacity="1" fill-rule="nonzero"/><path fill="#100f0d" d="M 89.570312 165.703125 C 90.5 162.878906 88.980469 159.820312 86.15625 158.871094 L 75.914062 155.457031 C 73.808594 154.742188 71.488281 155.414062 70.058594 157.121094 C 68.644531 158.832031 68.414062 161.253906 69.488281 163.195312 L 74.714844 172.640625 C 75.703125 174.410156 77.539062 175.421875 79.433594 175.421875 C 80.320312 175.421875 81.226562 175.210938 82.046875 174.75 C 84.03125 173.652344 85.042969 171.5 84.789062 169.371094 C 86.917969 169.246094 88.855469 167.855469 89.570312 165.703125 " fill-opacity="1" fill-rule="nonzero"/><path fill="#100f0d" d="M 162.996094 175.550781 C 163.796875 175.550781 164.621094 175.359375 165.398438 174.980469 L 183.144531 166.105469 C 185.800781 164.777344 186.898438 161.53125 185.570312 158.851562 C 184.21875 156.195312 180.996094 155.097656 178.320312 156.449219 L 160.574219 165.324219 C 157.917969 166.652344 156.824219 169.898438 158.148438 172.554688 C 159.097656 174.453125 161.015625 175.550781 162.996094 175.550781 " fill-opacity="1" fill-rule="nonzero"/><path fill="#100f0d" d="M 119.097656 169.855469 L 100.277344 163.574219 C 97.433594 162.625 94.378906 164.164062 93.449219 166.988281 C 92.5 169.816406 94.019531 172.871094 96.863281 173.820312 L 115.683594 180.105469 C 116.253906 180.292969 116.820312 180.378906 117.390625 180.378906 C 119.644531 180.378906 121.753906 178.945312 122.511719 176.6875 C 123.441406 173.863281 121.921875 170.804688 119.097656 169.855469 " fill-opacity="1" fill-rule="nonzero"/><path fill="#100f0d" d="M 196.445312 159.441406 L 201.945312 156.703125 L 205.464844 161.71875 C 206.515625 163.214844 208.183594 164.039062 209.890625 164.039062 C 210.941406 164.039062 212.039062 163.722656 212.964844 163.046875 C 215.410156 161.339844 216 157.988281 214.292969 155.542969 L 208.117188 146.6875 C 206.582031 144.492188 203.671875 143.757812 201.269531 144.957031 L 191.636719 149.785156 C 188.960938 151.113281 187.886719 154.359375 189.214844 157.039062 C 190.542969 159.695312 193.789062 160.769531 196.445312 159.441406 " fill-opacity="1" fill-rule="nonzero"/><path fill="#100f0d" d="M 267.359375 221.660156 L 285.738281 230.15625 C 286.476562 230.492188 287.234375 230.640625 288.015625 230.640625 C 290.039062 230.640625 291.996094 229.480469 292.902344 227.519531 C 294.148438 224.800781 292.96875 221.59375 290.269531 220.351562 L 271.871094 211.855469 C 269.171875 210.609375 265.96875 211.792969 264.726562 214.492188 C 263.484375 217.210938 264.640625 220.414062 267.359375 221.660156 " fill-opacity="1" fill-rule="nonzero"/><path fill="#100f0d" d="M 214.167969 174.179688 L 225.78125 190.773438 C 226.832031 192.269531 228.519531 193.070312 230.207031 193.070312 C 231.28125 193.070312 232.355469 192.753906 233.304688 192.101562 C 235.75 190.390625 236.339844 187.019531 234.632812 184.59375 L 223.019531 167.980469 C 221.3125 165.535156 217.941406 164.945312 215.496094 166.652344 C 213.050781 168.359375 212.460938 171.734375 214.167969 174.179688 " fill-opacity="1" fill-rule="nonzero"/><path fill="#100f0d" d="M 314.78125 224.503906 C 314.191406 221.574219 311.34375 219.675781 308.414062 220.265625 C 305.507812 220.859375 303.609375 223.703125 304.199219 226.613281 L 304.222656 226.804688 L 304.050781 226.71875 C 301.355469 225.476562 298.152344 226.65625 296.90625 229.355469 C 295.644531 232.074219 296.84375 235.277344 299.542969 236.523438 L 309.34375 241.035156 C 310.058594 241.371094 310.839844 241.539062 311.597656 241.539062 C 312.777344 241.539062 313.980469 241.140625 314.925781 240.382812 C 316.527344 239.117188 317.289062 237.070312 316.886719 235.089844 L 314.78125 224.503906 " fill-opacity="1" fill-rule="nonzero"/><path fill="#100f0d" d="M 305.886719 213.015625 C 306.246094 213.015625 306.601562 212.992188 306.960938 212.910156 C 309.871094 212.320312 311.765625 209.472656 311.175781 206.5625 L 306.390625 182.65625 C 305.824219 179.722656 303 177.828125 300.046875 178.417969 C 297.140625 178.988281 295.242188 181.832031 295.832031 184.761719 L 300.597656 208.671875 C 301.125 211.242188 303.378906 213.015625 305.886719 213.015625 " fill-opacity="1" fill-rule="nonzero"/><path fill="#100f0d" d="M 298.59375 171.058594 C 301.503906 170.46875 303.398438 167.621094 302.808594 164.714844 L 300.703125 154.128906 C 300.113281 151.199219 297.265625 149.300781 294.359375 149.890625 C 291.429688 150.480469 289.53125 153.328125 290.121094 156.238281 L 292.230469 166.820312 C 292.757812 169.394531 294.992188 171.164062 297.519531 171.164062 C 297.878906 171.164062 298.234375 171.121094 298.59375 171.058594 " fill-opacity="1" fill-rule="nonzero"/><path fill="#100f0d" d="M 289.320312 81.351562 C 291.28125 80.589844 293.347656 80.230469 295.410156 80.230469 C 297.476562 80.230469 299.542969 80.589844 301.503906 81.351562 C 307.636719 83.710938 311.597656 89.277344 311.597656 95.539062 C 311.597656 98.847656 310.628906 102.09375 308.773438 104.941406 L 295.410156 125.433594 L 282.050781 104.941406 C 280.195312 102.09375 279.226562 98.847656 279.226562 95.539062 C 279.226562 89.277344 283.1875 83.710938 289.320312 81.351562 Z M 290.878906 138.273438 C 291.890625 139.792969 293.578125 140.71875 295.410156 140.71875 C 297.246094 140.71875 298.929688 139.792969 299.941406 138.273438 L 317.816406 110.824219 C 320.808594 106.25 322.386719 100.957031 322.386719 95.539062 C 322.386719 84.765625 315.707031 75.234375 305.359375 71.273438 C 298.929688 68.804688 291.871094 68.828125 285.464844 71.273438 C 275.117188 75.234375 268.4375 84.765625 268.4375 95.539062 C 268.4375 100.957031 270.015625 106.25 273.007812 110.824219 L 290.878906 138.273438 " fill-opacity="1" fill-rule="nonzero"/><path fill="#100f0d" d="M 295.410156 107.597656 C 301.355469 107.597656 306.203125 102.75 306.203125 96.761719 C 306.203125 90.796875 301.355469 85.925781 295.410156 85.925781 C 289.46875 85.925781 284.621094 90.796875 284.621094 96.761719 C 284.621094 102.75 289.46875 107.597656 295.410156 107.597656 " fill-opacity="1" fill-rule="nonzero"/><path fill="#100f0d" d="M 197.75 261.230469 L 210.523438 246.03125 C 212.441406 243.753906 212.144531 240.339844 209.867188 238.421875 C 207.570312 236.5 204.179688 236.796875 202.261719 239.074219 L 189.617188 254.128906 L 174.863281 241.246094 C 172.628906 239.285156 169.214844 239.515625 167.253906 241.75 C 165.292969 244.007812 165.527344 247.421875 167.78125 249.382812 L 182.660156 262.390625 L 169.890625 277.570312 C 167.972656 279.847656 168.265625 283.265625 170.542969 285.183594 C 171.554688 286.027344 172.796875 286.449219 174.019531 286.449219 C 175.558594 286.449219 177.074219 285.792969 178.152344 284.527344 L 190.796875 269.476562 L 205.546875 282.378906 C 206.558594 283.265625 207.824219 283.707031 209.089844 283.707031 C 210.585938 283.707031 212.082031 283.074219 213.15625 281.851562 C 215.117188 279.617188 214.882812 276.203125 212.628906 274.242188 L 197.75 261.230469 " fill-opacity="1" fill-rule="nonzero"/><path fill="#100f0d" d="M 85 96.71875 C 93.933594 96.71875 101.183594 104.183594 101.183594 113.332031 C 101.183594 122.484375 93.933594 129.925781 85 129.925781 C 76.0625 129.925781 68.8125 122.484375 68.8125 113.332031 C 68.8125 104.183594 76.0625 96.71875 85 96.71875 Z M 85 140.71875 C 99.878906 140.71875 111.976562 128.429688 111.976562 113.332031 C 111.976562 98.214844 99.878906 85.925781 85 85.925781 C 70.121094 85.925781 58.023438 98.214844 58.023438 113.332031 C 58.023438 128.429688 70.121094 140.71875 85 140.71875 " fill-opacity="1" fill-rule="nonzero"/></svg>