<svg xmlns="http://www.w3.org/2000/svg" xmlns:xlink="http://www.w3.org/1999/xlink" width="500" zoomAndPan="magnify" viewBox="0 0 375 374.999991" height="500" preserveAspectRatio="xMidYMid meet" version="1.0"><defs><clipPath id="f2dcaab14f"><path d="M 94 102 L 347.777344 102 L 347.777344 360.820312 L 94 360.820312 Z M 94 102 " clip-rule="nonzero"/></clipPath><clipPath id="42d942d92c"><path d="M 45 14.320312 L 96 14.320312 L 96 57 L 45 57 Z M 45 14.320312 " clip-rule="nonzero"/></clipPath><clipPath id="63569ddc8b"><path d="M 27.527344 15 L 241 15 L 241 288 L 27.527344 288 Z M 27.527344 15 " clip-rule="nonzero"/></clipPath></defs><path fill="#000000" d="M 67.09375 283.402344 C 69.6875 285.617188 72.839844 287.246094 76.398438 288.054688 L 221.648438 320.972656 C 233.367188 323.632812 245.023438 316.28125 247.675781 304.558594 L 295.957031 91.542969 C 298.613281 79.824219 291.265625 68.175781 279.546875 65.515625 L 248.3125 58.4375 L 228.171875 268.339844 C 226.570312 285.011719 211.707031 297.273438 195.035156 295.679688 Z M 67.09375 283.402344 " fill-opacity="1" fill-rule="nonzero"/><g clip-path="url(#f2dcaab14f)"><path fill="#000000" d="M 94.046875 301.785156 C 96.328125 304.320312 99.242188 306.351562 102.660156 307.621094 L 242.335938 359.3125 C 253.605469 363.484375 266.121094 357.726562 270.292969 346.457031 L 346.105469 141.621094 C 350.277344 130.351562 344.523438 117.832031 333.253906 113.660156 L 303.21875 102.542969 L 255.710938 307.984375 C 251.9375 324.304688 235.59375 334.511719 219.273438 330.738281 Z M 94.046875 301.785156 " fill-opacity="1" fill-rule="nonzero"/></g><g clip-path="url(#42d942d92c)"><path fill="#000000" d="M 45.976562 53.054688 L 80.488281 56.363281 C 86.433594 56.933594 91.734375 52.5625 92.304688 46.617188 L 95.40625 14.3125 L 45.976562 53.046875 Z M 45.976562 53.054688 " fill-opacity="1" fill-rule="nonzero"/></g><g clip-path="url(#63569ddc8b)"><path fill="#000000" d="M 45.6875 61.449219 L 27.683594 249.101562 C 26.53125 261.0625 35.300781 271.695312 47.265625 272.839844 L 195.519531 287.066406 C 207.484375 288.214844 218.109375 279.445312 219.257812 267.484375 L 240.125 50.066406 C 241.273438 38.101562 232.503906 27.476562 220.542969 26.328125 L 104.390625 15.179688 L 101.175781 48.679688 C 100.230469 58.566406 91.414062 65.835938 81.53125 64.886719 L 45.699219 61.449219 Z M 45.6875 61.449219 " fill-opacity="1" fill-rule="nonzero"/></g><path fill="#ffffff" d="M 190.695312 97.277344 C 190.558594 97.277344 190.410156 97.273438 190.273438 97.257812 L 85.066406 87.160156 C 82.660156 86.929688 80.890625 84.785156 81.121094 82.378906 C 81.339844 80.117188 83.214844 78.414062 85.480469 78.414062 C 85.625 78.414062 85.765625 78.417969 85.902344 78.433594 L 191.109375 88.527344 C 192.273438 88.640625 193.328125 89.199219 194.070312 90.101562 C 194.820312 91.003906 195.167969 92.144531 195.054688 93.308594 C 194.839844 95.566406 192.960938 97.273438 190.695312 97.273438 Z M 190.695312 97.277344 " fill-opacity="1" fill-rule="nonzero"/><path fill="#ffffff" d="M 186.25 143.597656 C 186.109375 143.597656 185.964844 143.59375 185.828125 143.578125 L 80.621094 133.484375 C 79.457031 133.371094 78.40625 132.8125 77.660156 131.910156 C 76.914062 131.007812 76.5625 129.867188 76.675781 128.703125 C 76.894531 126.445312 78.769531 124.738281 81.035156 124.738281 C 81.175781 124.738281 81.320312 124.746094 81.457031 124.757812 L 186.664062 134.855469 C 189.070312 135.085938 190.839844 137.234375 190.609375 139.640625 C 190.390625 141.898438 188.515625 143.605469 186.25 143.605469 Z M 186.25 143.597656 " fill-opacity="1" fill-rule="nonzero"/><path fill="#ffffff" d="M 181.804688 189.921875 C 181.660156 189.921875 181.519531 189.917969 181.382812 189.902344 L 76.175781 179.804688 C 75.011719 179.691406 73.960938 179.132812 73.214844 178.234375 C 72.46875 177.332031 72.117188 176.191406 72.230469 175.027344 C 72.445312 172.765625 74.324219 171.0625 76.589844 171.0625 C 76.730469 171.0625 76.875 171.066406 77.011719 171.082031 L 182.21875 181.175781 C 183.382812 181.289062 184.4375 181.851562 185.179688 182.75 C 185.925781 183.652344 186.273438 184.792969 186.164062 185.957031 C 185.945312 188.21875 184.070312 189.921875 181.804688 189.921875 Z M 181.804688 189.921875 " fill-opacity="1" fill-rule="nonzero"/><path fill="#ffffff" d="M 177.359375 236.242188 C 177.214844 236.242188 177.074219 236.238281 176.9375 236.222656 L 71.730469 226.128906 C 70.566406 226.015625 69.515625 225.457031 68.765625 224.554688 C 68.019531 223.652344 67.671875 222.511719 67.785156 221.347656 C 68 219.089844 69.871094 217.382812 72.140625 217.382812 C 72.285156 217.382812 72.425781 217.386719 72.570312 217.402344 L 177.777344 227.5 C 178.941406 227.613281 179.996094 228.171875 180.738281 229.070312 C 181.484375 229.976562 181.835938 231.113281 181.722656 232.277344 C 181.503906 234.539062 179.628906 236.242188 177.363281 236.242188 Z M 177.359375 236.242188 " fill-opacity="1" fill-rule="nonzero"/></svg>