<svg xmlns="http://www.w3.org/2000/svg" xmlns:xlink="http://www.w3.org/1999/xlink" width="500" zoomAndPan="magnify" viewBox="0 0 375 374.999991" height="500" preserveAspectRatio="xMidYMid meet" version="1.0"><defs><clipPath id="5c2ef9b380"><path d="M 13.671875 13.671875 L 361.671875 13.671875 L 361.671875 361.671875 L 13.671875 361.671875 Z M 13.671875 13.671875 " clip-rule="nonzero"/></clipPath></defs><g clip-path="url(#5c2ef9b380)"><path fill="#000000" d="M 356.535156 13.671875 L 317.132812 13.671875 C 314.320312 13.671875 312.035156 15.953125 312.035156 18.761719 L 312.035156 33.378906 L 212.453125 33.378906 L 212.453125 18.769531 C 212.453125 15.953125 210.175781 13.671875 207.355469 13.671875 L 167.953125 13.671875 C 165.132812 13.671875 162.855469 15.953125 162.855469 18.769531 L 162.855469 33.378906 L 63.273438 33.378906 L 63.273438 18.769531 C 63.273438 15.960938 60.996094 13.671875 58.183594 13.671875 L 18.769531 13.671875 C 15.953125 13.671875 13.671875 15.953125 13.671875 18.769531 L 13.671875 58.175781 C 13.671875 60.988281 15.953125 63.273438 18.769531 63.273438 L 33.378906 63.273438 L 33.378906 162.855469 L 18.769531 162.855469 C 15.960938 162.855469 13.671875 165.132812 13.671875 167.953125 L 13.671875 207.355469 C 13.671875 210.167969 15.953125 212.453125 18.769531 212.453125 L 33.378906 212.453125 L 33.378906 312.035156 L 18.769531 312.035156 C 15.960938 312.035156 13.671875 314.3125 13.671875 317.132812 L 13.671875 356.535156 C 13.671875 359.347656 15.953125 361.632812 18.769531 361.632812 L 58.175781 361.632812 C 60.988281 361.632812 63.273438 359.355469 63.273438 356.542969 L 63.273438 341.925781 L 162.855469 341.925781 L 162.855469 356.535156 C 162.855469 359.347656 165.132812 361.632812 167.953125 361.632812 L 207.355469 361.632812 C 210.167969 361.632812 212.453125 359.355469 212.453125 356.535156 L 212.453125 341.925781 L 312.035156 341.925781 L 312.035156 356.535156 C 312.035156 359.347656 314.3125 361.632812 317.125 361.632812 L 356.535156 361.632812 C 359.347656 361.632812 361.632812 359.355469 361.632812 356.535156 L 361.632812 317.132812 C 361.632812 314.320312 359.355469 312.035156 356.535156 312.035156 L 341.917969 312.035156 L 341.917969 212.453125 L 356.535156 212.453125 C 359.347656 212.453125 361.632812 210.175781 361.632812 207.355469 L 361.632812 167.953125 C 361.632812 165.140625 359.355469 162.855469 356.535156 162.855469 L 341.917969 162.855469 L 341.917969 63.273438 L 356.535156 63.273438 C 359.347656 63.273438 361.632812 60.996094 361.632812 58.175781 L 361.632812 18.769531 C 361.632812 15.953125 359.355469 13.671875 356.535156 13.671875 Z M 173.046875 23.867188 L 202.265625 23.867188 L 202.265625 53.078125 L 173.046875 53.078125 Z M 23.867188 23.867188 L 53.078125 23.867188 L 53.078125 53.078125 L 23.867188 53.078125 Z M 23.867188 173.046875 L 53.078125 173.046875 L 53.078125 202.265625 L 23.867188 202.265625 Z M 53.078125 351.4375 L 23.867188 351.4375 L 23.867188 322.230469 L 53.078125 322.230469 Z M 202.257812 351.4375 L 173.039062 351.4375 L 173.039062 322.230469 L 202.257812 322.230469 Z M 351.4375 351.4375 L 322.230469 351.4375 L 322.230469 322.230469 L 351.4375 322.230469 Z M 351.4375 202.257812 L 322.230469 202.257812 L 322.230469 173.039062 L 351.4375 173.039062 Z M 331.734375 162.855469 L 317.140625 162.855469 C 314.328125 162.855469 312.042969 165.132812 312.042969 167.953125 L 312.042969 207.355469 C 312.042969 210.167969 314.320312 212.453125 317.140625 212.453125 L 331.734375 212.453125 L 331.734375 312.035156 L 317.140625 312.035156 C 314.328125 312.035156 312.042969 314.3125 312.042969 317.125 L 312.042969 331.734375 L 212.460938 331.734375 L 212.460938 317.125 C 212.460938 314.3125 210.183594 312.027344 207.363281 312.027344 L 167.960938 312.027344 C 165.148438 312.027344 162.863281 314.304688 162.863281 317.125 L 162.863281 331.734375 L 63.273438 331.734375 L 63.273438 317.125 C 63.273438 314.3125 60.996094 312.027344 58.183594 312.027344 L 43.574219 312.027344 L 43.574219 212.445312 L 58.183594 212.445312 C 60.996094 212.445312 63.28125 210.167969 63.28125 207.347656 L 63.28125 167.941406 C 63.28125 165.132812 61.003906 162.847656 58.183594 162.847656 L 43.574219 162.847656 L 43.574219 63.273438 L 58.183594 63.273438 C 60.996094 63.273438 63.28125 60.996094 63.28125 58.183594 L 63.28125 43.574219 L 162.863281 43.574219 L 162.863281 58.183594 C 162.863281 60.996094 165.140625 63.28125 167.960938 63.28125 L 207.363281 63.28125 C 210.175781 63.28125 212.460938 61.003906 212.460938 58.183594 L 212.460938 43.574219 L 312.042969 43.574219 L 312.042969 58.183594 C 312.042969 60.996094 314.320312 63.28125 317.132812 63.28125 L 331.734375 63.28125 L 331.734375 162.863281 Z M 351.4375 53.078125 L 322.230469 53.078125 L 322.230469 23.867188 L 351.4375 23.867188 Z M 351.4375 53.078125 " fill-opacity="1" fill-rule="nonzero"/></g><path fill="#000000" d="M 275.011719 89.378906 L 100.296875 89.378906 C 97.484375 89.378906 95.199219 91.65625 95.199219 94.476562 L 95.199219 151.492188 C 95.199219 154.3125 97.484375 156.589844 100.304688 156.582031 C 101.621094 156.582031 102.894531 156.066406 103.84375 155.152344 L 128.703125 131.0625 L 166.585938 131.0625 L 166.585938 250.898438 L 149.910156 278.179688 C 148.441406 280.585938 149.207031 283.714844 151.601562 285.183594 C 152.40625 285.667969 153.316406 285.929688 154.253906 285.929688 L 221.042969 285.929688 C 223.855469 285.929688 226.140625 283.640625 226.140625 280.832031 C 226.140625 279.894531 225.878906 278.972656 225.394531 278.179688 L 208.722656 250.898438 L 208.722656 131.0625 L 246.601562 131.0625 L 271.460938 155.152344 C 273.488281 157.105469 276.71875 157.058594 278.671875 155.03125 C 279.59375 154.082031 280.101562 152.816406 280.101562 151.492188 L 280.101562 94.476562 C 280.101562 91.664062 277.820312 89.378906 275.003906 89.378906 Z M 269.914062 139.464844 L 252.214844 122.3125 C 251.261719 121.390625 249.992188 120.875 248.675781 120.875 L 203.632812 120.875 C 200.820312 120.875 198.535156 123.15625 198.535156 125.972656 L 198.535156 252.34375 C 198.535156 253.28125 198.796875 254.199219 199.28125 254.996094 L 211.96875 275.75 L 163.347656 275.75 L 176.035156 254.996094 C 176.527344 254.191406 176.78125 253.28125 176.78125 252.34375 L 176.78125 125.972656 C 176.78125 123.164062 174.5 120.875 171.683594 120.875 L 126.648438 120.875 C 125.324219 120.875 124.050781 121.390625 123.105469 122.3125 L 105.410156 139.457031 L 105.410156 99.574219 L 269.929688 99.574219 L 269.929688 139.464844 Z M 269.914062 139.464844 " fill-opacity="1" fill-rule="nonzero"/></svg>