<svg xmlns="http://www.w3.org/2000/svg" xmlns:xlink="http://www.w3.org/1999/xlink" width="500" zoomAndPan="magnify" viewBox="0 0 375 374.999991" height="500" preserveAspectRatio="xMidYMid meet" version="1.0"><path fill="#000000" d="M 187.5 0 C 184.429688 0 181.363281 0.0742188 178.300781 0.226562 C 175.234375 0.375 172.175781 0.601562 169.121094 0.902344 C 166.066406 1.203125 163.023438 1.578125 159.988281 2.03125 C 156.953125 2.480469 153.929688 3.003906 150.921875 3.601562 C 147.910156 4.203125 144.917969 4.875 141.941406 5.617188 C 138.964844 6.363281 136.007812 7.183594 133.070312 8.074219 C 130.136719 8.964844 127.222656 9.925781 124.332031 10.960938 C 121.445312 11.996094 118.582031 13.097656 115.746094 14.273438 C 112.910156 15.445312 110.105469 16.691406 107.332031 18.003906 C 104.558594 19.3125 101.820312 20.691406 99.113281 22.140625 C 96.40625 23.585938 93.738281 25.097656 91.105469 26.675781 C 88.472656 28.253906 85.882812 29.894531 83.332031 31.597656 C 80.777344 33.304688 78.269531 35.070312 75.804688 36.898438 C 73.339844 38.726562 70.921875 40.613281 68.550781 42.558594 C 66.179688 44.507812 63.855469 46.511719 61.582031 48.570312 C 59.308594 50.632812 57.085938 52.746094 54.917969 54.917969 C 52.746094 57.085938 50.632812 59.308594 48.570312 61.582031 C 46.511719 63.855469 44.507812 66.179688 42.558594 68.550781 C 40.613281 70.921875 38.726562 73.339844 36.898438 75.804688 C 35.070312 78.269531 33.304688 80.777344 31.597656 83.332031 C 29.894531 85.882812 28.253906 88.472656 26.675781 91.105469 C 25.097656 93.738281 23.585938 96.40625 22.140625 99.113281 C 20.691406 101.820312 19.3125 104.558594 18.003906 107.332031 C 16.691406 110.105469 15.445312 112.910156 14.273438 115.746094 C 13.097656 118.582031 11.996094 121.445312 10.960938 124.332031 C 9.925781 127.222656 8.964844 130.136719 8.074219 133.070312 C 7.183594 136.007812 6.363281 138.964844 5.621094 141.941406 C 4.875 144.917969 4.203125 147.910156 3.601562 150.921875 C 3.003906 153.929688 2.480469 156.953125 2.03125 159.988281 C 1.578125 163.023438 1.203125 166.066406 0.902344 169.121094 C 0.601562 172.175781 0.375 175.234375 0.226562 178.300781 C 0.0742188 181.363281 0 184.429688 0 187.5 C 0 190.570312 0.0742188 193.636719 0.226562 196.699219 C 0.375 199.765625 0.601562 202.824219 0.902344 205.878906 C 1.203125 208.933594 1.578125 211.976562 2.03125 215.011719 C 2.480469 218.046875 3.003906 221.070312 3.601562 224.078125 C 4.203125 227.089844 4.875 230.082031 5.621094 233.058594 C 6.363281 236.035156 7.183594 238.992188 8.074219 241.929688 C 8.964844 244.863281 9.925781 247.777344 10.960938 250.667969 C 11.996094 253.554688 13.097656 256.417969 14.273438 259.253906 C 15.445312 262.089844 16.691406 264.890625 18.003906 267.667969 C 19.3125 270.441406 20.691406 273.179688 22.140625 275.886719 C 23.585938 278.59375 25.097656 281.261719 26.675781 283.894531 C 28.253906 286.527344 29.894531 289.117188 31.597656 291.667969 C 33.304688 294.222656 35.070312 296.730469 36.898438 299.195312 C 38.726562 301.660156 40.613281 304.078125 42.558594 306.449219 C 44.507812 308.820312 46.511719 311.144531 48.570312 313.417969 C 50.632812 315.691406 52.746094 317.914062 54.917969 320.082031 C 57.085938 322.253906 59.308594 324.367188 61.582031 326.429688 C 63.855469 328.488281 66.179688 330.492188 68.550781 332.4375 C 70.921875 334.386719 73.339844 336.273438 75.804688 338.101562 C 78.269531 339.929688 80.777344 341.695312 83.332031 343.402344 C 85.882812 345.105469 88.472656 346.746094 91.105469 348.324219 C 93.738281 349.902344 96.40625 351.414062 99.113281 352.859375 C 101.820312 354.308594 104.558594 355.6875 107.332031 356.996094 C 110.105469 358.308594 112.910156 359.554688 115.746094 360.726562 C 118.582031 361.902344 121.445312 363.003906 124.332031 364.039062 C 127.222656 365.074219 130.136719 366.035156 133.070312 366.925781 C 136.007812 367.816406 138.964844 368.636719 141.941406 369.378906 C 144.917969 370.125 147.910156 370.796875 150.921875 371.398438 C 153.929688 371.996094 156.953125 372.519531 159.988281 372.96875 C 163.023438 373.421875 166.066406 373.796875 169.121094 374.097656 C 172.175781 374.398438 175.234375 374.625 178.300781 374.773438 C 181.363281 374.925781 184.429688 375 187.5 375 C 190.570312 375 193.636719 374.925781 196.699219 374.773438 C 199.765625 374.625 202.824219 374.398438 205.878906 374.097656 C 208.933594 373.796875 211.976562 373.421875 215.011719 372.96875 C 218.046875 372.519531 221.070312 371.996094 224.078125 371.398438 C 227.089844 370.796875 230.082031 370.125 233.058594 369.378906 C 236.035156 368.636719 238.992188 367.816406 241.929688 366.925781 C 244.863281 366.035156 247.777344 365.074219 250.667969 364.039062 C 253.554688 363.003906 256.417969 361.902344 259.253906 360.726562 C 262.089844 359.554688 264.890625 358.308594 267.667969 356.996094 C 270.441406 355.6875 273.179688 354.308594 275.886719 352.859375 C 278.59375 351.414062 281.261719 349.902344 283.894531 348.324219 C 286.527344 346.746094 289.117188 345.105469 291.667969 343.402344 C 294.222656 341.695312 296.730469 339.929688 299.195312 338.101562 C 301.660156 336.273438 304.078125 334.386719 306.449219 332.4375 C 308.820312 330.492188 311.144531 328.488281 313.417969 326.429688 C 315.691406 324.367188 317.914062 322.253906 320.082031 320.082031 C 322.253906 317.914062 324.367188 315.691406 326.429688 313.417969 C 328.488281 311.144531 330.492188 308.820312 332.4375 306.449219 C 334.386719 304.078125 336.273438 301.660156 338.101562 299.195312 C 339.929688 296.730469 341.695312 294.222656 343.402344 291.667969 C 345.105469 289.117188 346.746094 286.527344 348.324219 283.894531 C 349.902344 281.261719 351.414062 278.59375 352.859375 275.886719 C 354.308594 273.179688 355.6875 270.441406 356.996094 267.667969 C 358.308594 264.890625 359.554688 262.089844 360.726562 259.253906 C 361.902344 256.417969 363.003906 253.554688 364.039062 250.667969 C 365.074219 247.777344 366.035156 244.863281 366.925781 241.929688 C 367.816406 238.992188 368.636719 236.035156 369.378906 233.058594 C 370.125 230.082031 370.796875 227.089844 371.398438 224.078125 C 371.996094 221.070312 372.519531 218.046875 372.96875 215.011719 C 373.421875 211.976562 373.796875 208.933594 374.097656 205.878906 C 374.398438 202.824219 374.625 199.765625 374.773438 196.699219 C 374.925781 193.636719 375 190.570312 375 187.5 C 375 184.429688 374.925781 181.363281 374.773438 178.300781 C 374.625 175.234375 374.398438 172.175781 374.097656 169.121094 C 373.796875 166.066406 373.421875 163.023438 372.96875 159.988281 C 372.519531 156.953125 371.996094 153.929688 371.398438 150.921875 C 370.796875 147.910156 370.125 144.917969 369.378906 141.941406 C 368.636719 138.964844 367.816406 136.007812 366.925781 133.070312 C 366.035156 130.136719 365.074219 127.222656 364.039062 124.332031 C 363.003906 121.445312 361.902344 118.582031 360.726562 115.746094 C 359.554688 112.910156 358.308594 110.105469 356.996094 107.332031 C 355.6875 104.558594 354.308594 101.820312 352.859375 99.113281 C 351.414062 96.40625 349.902344 93.738281 348.324219 91.105469 C 346.746094 88.472656 345.105469 85.882812 343.402344 83.332031 C 341.695312 80.777344 339.929688 78.269531 338.101562 75.804688 C 336.273438 73.339844 334.386719 70.921875 332.4375 68.550781 C 330.492188 66.179688 328.488281 63.855469 326.429688 61.582031 C 324.367188 59.308594 322.253906 57.085938 320.082031 54.917969 C 317.914062 52.746094 315.691406 50.632812 313.417969 48.570312 C 311.144531 46.511719 308.820312 44.507812 306.449219 42.558594 C 304.078125 40.613281 301.660156 38.726562 299.195312 36.898438 C 296.730469 35.070312 294.222656 33.304688 291.667969 31.597656 C 289.117188 29.894531 286.527344 28.253906 283.894531 26.675781 C 281.261719 25.097656 278.59375 23.585938 275.886719 22.140625 C 273.179688 20.691406 270.441406 19.3125 267.667969 18.003906 C 264.890625 16.691406 262.089844 15.445312 259.253906 14.273438 C 256.417969 13.097656 253.554688 11.996094 250.667969 10.960938 C 247.777344 9.925781 244.863281 8.964844 241.929688 8.074219 C 238.992188 7.183594 236.035156 6.363281 233.058594 5.617188 C 230.082031 4.875 227.089844 4.203125 224.078125 3.601562 C 221.070312 3.003906 218.046875 2.480469 215.011719 2.03125 C 211.976562 1.578125 208.933594 1.203125 205.878906 0.902344 C 202.824219 0.601562 199.765625 0.375 196.699219 0.226562 C 193.636719 0.0742188 190.570312 0 187.5 0 Z M 187.5 342.390625 C 184.964844 342.390625 182.433594 342.328125 179.898438 342.203125 C 177.367188 342.082031 174.839844 341.894531 172.316406 341.644531 C 169.796875 341.398438 167.28125 341.085938 164.773438 340.714844 C 162.265625 340.34375 159.769531 339.910156 157.28125 339.414062 C 154.796875 338.921875 152.324219 338.367188 149.863281 337.75 C 147.40625 337.132812 144.964844 336.457031 142.539062 335.722656 C 140.113281 334.984375 137.707031 334.191406 135.320312 333.335938 C 132.933594 332.484375 130.566406 331.570312 128.226562 330.601562 C 125.882812 329.628906 123.566406 328.605469 121.277344 327.519531 C 118.984375 326.4375 116.71875 325.296875 114.484375 324.101562 C 112.25 322.90625 110.042969 321.65625 107.871094 320.355469 C 105.695312 319.050781 103.554688 317.695312 101.445312 316.289062 C 99.339844 314.878906 97.265625 313.417969 95.230469 311.910156 C 93.195312 310.398438 91.199219 308.839844 89.238281 307.234375 C 87.277344 305.625 85.359375 303.96875 83.480469 302.265625 C 81.601562 300.566406 79.769531 298.816406 77.976562 297.023438 C 76.183594 295.230469 74.433594 293.398438 72.734375 291.519531 C 71.03125 289.640625 69.375 287.722656 67.765625 285.761719 C 66.160156 283.800781 64.601562 281.804688 63.089844 279.769531 C 61.582031 277.734375 60.121094 275.660156 58.710938 273.554688 C 57.304688 271.445312 55.949219 269.304688 54.644531 267.128906 C 53.34375 264.957031 52.09375 262.75 50.898438 260.515625 C 49.703125 258.28125 48.5625 256.015625 47.480469 253.722656 C 46.394531 251.433594 45.371094 249.117188 44.398438 246.773438 C 43.429688 244.433594 42.515625 242.066406 41.664062 239.679688 C 40.808594 237.292969 40.015625 234.886719 39.277344 232.460938 C 38.542969 230.035156 37.867188 227.59375 37.25 225.136719 C 36.632812 222.675781 36.078125 220.203125 35.585938 217.71875 C 35.089844 215.230469 34.65625 212.734375 34.285156 210.226562 C 33.914062 207.71875 33.601562 205.203125 33.355469 202.683594 C 33.105469 200.160156 32.917969 197.632812 32.796875 195.101562 C 32.671875 192.566406 32.609375 190.035156 32.609375 187.5 C 32.609375 184.964844 32.671875 182.433594 32.796875 179.898438 C 32.917969 177.367188 33.105469 174.839844 33.355469 172.316406 C 33.601562 169.796875 33.914062 167.28125 34.285156 164.773438 C 34.65625 162.265625 35.089844 159.769531 35.585938 157.28125 C 36.078125 154.796875 36.632812 152.324219 37.25 149.863281 C 37.867188 147.40625 38.542969 144.964844 39.277344 142.539062 C 40.015625 140.113281 40.808594 137.707031 41.664062 135.320312 C 42.515625 132.933594 43.429688 130.566406 44.398438 128.226562 C 45.371094 125.882812 46.394531 123.566406 47.480469 121.277344 C 48.5625 118.984375 49.703125 116.71875 50.898438 114.484375 C 52.09375 112.25 53.34375 110.042969 54.644531 107.871094 C 55.949219 105.695312 57.304688 103.554688 58.710938 101.445312 C 60.121094 99.339844 61.582031 97.265625 63.089844 95.230469 C 64.601562 93.195312 66.160156 91.199219 67.765625 89.238281 C 69.375 87.277344 71.03125 85.359375 72.734375 83.480469 C 74.433594 81.601562 76.183594 79.769531 77.976562 77.976562 C 79.769531 76.183594 81.601562 74.433594 83.480469 72.734375 C 85.359375 71.03125 87.277344 69.375 89.238281 67.765625 C 91.199219 66.160156 93.195312 64.601562 95.230469 63.089844 C 97.265625 61.582031 99.339844 60.121094 101.445312 58.710938 C 103.554688 57.304688 105.695312 55.949219 107.871094 54.644531 C 110.042969 53.34375 112.25 52.09375 114.484375 50.898438 C 116.71875 49.703125 118.984375 48.5625 121.277344 47.480469 C 123.566406 46.394531 125.882812 45.371094 128.226562 44.398438 C 130.566406 43.429688 132.933594 42.515625 135.320312 41.664062 C 137.707031 40.808594 140.113281 40.015625 142.539062 39.277344 C 144.964844 38.542969 147.40625 37.867188 149.863281 37.25 C 152.324219 36.632812 154.796875 36.078125 157.28125 35.585938 C 159.769531 35.089844 162.265625 34.65625 164.773438 34.285156 C 167.28125 33.914062 169.796875 33.601562 172.316406 33.355469 C 174.839844 33.105469 177.367188 32.917969 179.898438 32.796875 C 182.433594 32.671875 184.964844 32.609375 187.5 32.609375 C 190.035156 32.609375 192.566406 32.671875 195.101562 32.796875 C 197.632812 32.917969 200.160156 33.105469 202.683594 33.355469 C 205.203125 33.601562 207.71875 33.914062 210.226562 34.285156 C 212.734375 34.65625 215.230469 35.089844 217.71875 35.585938 C 220.203125 36.078125 222.675781 36.632812 225.136719 37.25 C 227.59375 37.867188 230.035156 38.542969 232.460938 39.277344 C 234.886719 40.015625 237.292969 40.808594 239.679688 41.664062 C 242.066406 42.515625 244.433594 43.429688 246.773438 44.398438 C 249.117188 45.371094 251.433594 46.394531 253.722656 47.480469 C 256.015625 48.5625 258.28125 49.703125 260.515625 50.898438 C 262.75 52.09375 264.957031 53.34375 267.128906 54.644531 C 269.304688 55.949219 271.445312 57.304688 273.554688 58.710938 C 275.660156 60.121094 277.734375 61.582031 279.769531 63.089844 C 281.804688 64.601562 283.800781 66.160156 285.761719 67.765625 C 287.722656 69.375 289.640625 71.03125 291.519531 72.734375 C 293.398438 74.433594 295.230469 76.183594 297.023438 77.976562 C 298.816406 79.769531 300.566406 81.601562 302.265625 83.480469 C 303.96875 85.359375 305.625 87.277344 307.234375 89.238281 C 308.839844 91.199219 310.398438 93.195312 311.910156 95.230469 C 313.417969 97.265625 314.878906 99.339844 316.289062 101.445312 C 317.695312 103.554688 319.050781 105.695312 320.355469 107.871094 C 321.65625 110.042969 322.90625 112.25 324.101562 114.484375 C 325.296875 116.71875 326.4375 118.984375 327.519531 121.277344 C 328.605469 123.566406 329.628906 125.882812 330.601562 128.226562 C 331.570312 130.566406 332.484375 132.933594 333.335938 135.320312 C 334.191406 137.707031 334.984375 140.113281 335.722656 142.539062 C 336.457031 144.964844 337.132812 147.40625 337.75 149.863281 C 338.367188 152.324219 338.921875 154.796875 339.414062 157.28125 C 339.910156 159.769531 340.34375 162.265625 340.714844 164.773438 C 341.085938 167.28125 341.398438 169.796875 341.644531 172.316406 C 341.894531 174.839844 342.082031 177.367188 342.203125 179.898438 C 342.328125 182.433594 342.390625 184.964844 342.390625 187.5 C 342.390625 190.035156 342.328125 192.566406 342.203125 195.101562 C 342.082031 197.632812 341.894531 200.160156 341.644531 202.683594 C 341.398438 205.203125 341.085938 207.71875 340.714844 210.226562 C 340.34375 212.734375 339.910156 215.230469 339.414062 217.71875 C 338.921875 220.203125 338.367188 222.675781 337.75 225.136719 C 337.132812 227.59375 336.457031 230.035156 335.722656 232.460938 C 334.984375 234.886719 334.191406 237.292969 333.335938 239.679688 C 332.484375 242.066406 331.570312 244.433594 330.601562 246.773438 C 329.628906 249.117188 328.605469 251.433594 327.519531 253.722656 C 326.4375 256.015625 325.296875 258.28125 324.101562 260.515625 C 322.90625 262.75 321.65625 264.957031 320.355469 267.128906 C 319.050781 269.304688 317.695312 271.445312 316.289062 273.554688 C 314.878906 275.660156 313.417969 277.734375 311.910156 279.769531 C 310.398438 281.804688 308.839844 283.800781 307.234375 285.761719 C 305.625 287.722656 303.96875 289.640625 302.265625 291.519531 C 300.566406 293.398438 298.816406 295.230469 297.023438 297.023438 C 295.230469 298.816406 293.398438 300.566406 291.519531 302.265625 C 289.640625 303.96875 287.722656 305.625 285.761719 307.234375 C 283.800781 308.839844 281.804688 310.398438 279.769531 311.910156 C 277.734375 313.417969 275.660156 314.878906 273.554688 316.289062 C 271.445312 317.695312 269.304688 319.050781 267.128906 320.355469 C 264.957031 321.65625 262.75 322.90625 260.515625 324.101562 C 258.28125 325.296875 256.015625 326.4375 253.722656 327.519531 C 251.433594 328.605469 249.117188 329.628906 246.773438 330.601562 C 244.433594 331.570312 242.066406 332.484375 239.679688 333.335938 C 237.292969 334.191406 234.886719 334.984375 232.460938 335.722656 C 230.035156 336.457031 227.59375 337.132812 225.136719 337.75 C 222.675781 338.367188 220.203125 338.921875 217.71875 339.414062 C 215.230469 339.910156 212.734375 340.34375 210.226562 340.714844 C 207.71875 341.085938 205.203125 341.398438 202.683594 341.644531 C 200.160156 341.894531 197.632812 342.082031 195.101562 342.203125 C 192.566406 342.328125 190.035156 342.390625 187.5 342.390625 Z M 187.5 342.390625 " fill-opacity="1" fill-rule="nonzero"/><path fill="#000000" d="M 276.277344 171.195312 L 214.402344 171.195312 C 211.730469 166.800781 208.199219 163.269531 203.804688 160.597656 L 203.804688 73.371094 C 203.804688 72.835938 203.777344 72.304688 203.726562 71.769531 C 203.671875 71.238281 203.59375 70.710938 203.492188 70.1875 C 203.386719 69.664062 203.257812 69.148438 203.101562 68.636719 C 202.945312 68.125 202.765625 67.625 202.5625 67.128906 C 202.359375 66.636719 202.128906 66.15625 201.878906 65.683594 C 201.628906 65.210938 201.351562 64.753906 201.054688 64.3125 C 200.761719 63.867188 200.441406 63.4375 200.101562 63.027344 C 199.765625 62.613281 199.40625 62.21875 199.027344 61.839844 C 198.652344 61.464844 198.257812 61.105469 197.84375 60.765625 C 197.429688 60.425781 197.003906 60.109375 196.558594 59.8125 C 196.113281 59.515625 195.65625 59.242188 195.1875 58.992188 C 194.714844 58.738281 194.234375 58.511719 193.738281 58.304688 C 193.246094 58.101562 192.742188 57.921875 192.234375 57.765625 C 191.722656 57.613281 191.203125 57.484375 190.679688 57.378906 C 190.15625 57.273438 189.628906 57.195312 189.097656 57.144531 C 188.566406 57.089844 188.035156 57.066406 187.5 57.066406 C 186.964844 57.066406 186.433594 57.089844 185.902344 57.144531 C 185.371094 57.195312 184.84375 57.273438 184.320312 57.378906 C 183.796875 57.484375 183.277344 57.613281 182.765625 57.765625 C 182.257812 57.921875 181.753906 58.101562 181.261719 58.304688 C 180.765625 58.511719 180.285156 58.738281 179.8125 58.992188 C 179.34375 59.242188 178.886719 59.515625 178.441406 59.8125 C 177.996094 60.109375 177.570312 60.425781 177.15625 60.765625 C 176.742188 61.105469 176.347656 61.464844 175.972656 61.839844 C 175.59375 62.21875 175.234375 62.613281 174.898438 63.027344 C 174.558594 63.4375 174.238281 63.867188 173.945312 64.3125 C 173.648438 64.753906 173.371094 65.210938 173.121094 65.683594 C 172.867188 66.15625 172.640625 66.636719 172.4375 67.128906 C 172.230469 67.625 172.050781 68.125 171.898438 68.636719 C 171.742188 69.148438 171.613281 69.664062 171.507812 70.1875 C 171.40625 70.710938 171.328125 71.238281 171.273438 71.769531 C 171.222656 72.304688 171.195312 72.835938 171.195312 73.371094 L 171.195312 160.597656 C 170.679688 160.902344 170.171875 161.222656 169.675781 161.554688 C 169.175781 161.886719 168.6875 162.234375 168.210938 162.597656 C 167.734375 162.957031 167.265625 163.332031 166.808594 163.722656 C 166.351562 164.109375 165.90625 164.511719 165.472656 164.921875 C 165.039062 165.335938 164.617188 165.761719 164.207031 166.199219 C 163.796875 166.636719 163.402344 167.085938 163.015625 167.546875 C 162.632812 168.003906 162.261719 168.476562 161.90625 168.957031 C 161.546875 169.4375 161.203125 169.929688 160.875 170.429688 C 160.546875 170.929688 160.230469 171.441406 159.929688 171.957031 C 159.632812 172.476562 159.347656 173.003906 159.074219 173.539062 C 158.804688 174.074219 158.550781 174.617188 158.3125 175.164062 C 158.070312 175.714844 157.847656 176.269531 157.640625 176.832031 C 157.433594 177.394531 157.242188 177.960938 157.066406 178.535156 C 156.890625 179.109375 156.730469 179.683594 156.589844 180.265625 C 156.445312 180.847656 156.320312 181.433594 156.210938 182.023438 C 156.101562 182.613281 156.011719 183.203125 155.9375 183.800781 C 155.859375 184.394531 155.800781 184.988281 155.761719 185.589844 C 155.71875 186.1875 155.695312 186.785156 155.6875 187.382812 C 155.679688 187.984375 155.691406 188.582031 155.71875 189.179688 C 155.742188 189.777344 155.789062 190.375 155.847656 190.972656 C 155.910156 191.570312 155.988281 192.164062 156.082031 192.753906 C 156.175781 193.34375 156.289062 193.933594 156.417969 194.519531 C 156.546875 195.105469 156.691406 195.6875 156.851562 196.261719 C 157.011719 196.839844 157.191406 197.414062 157.382812 197.980469 C 157.578125 198.546875 157.789062 199.105469 158.015625 199.664062 C 158.238281 200.21875 158.480469 200.765625 158.738281 201.304688 C 158.996094 201.847656 159.269531 202.382812 159.554688 202.90625 C 159.84375 203.433594 160.144531 203.949219 160.464844 204.457031 C 160.78125 204.964844 161.109375 205.464844 161.457031 205.957031 C 161.800781 206.445312 162.160156 206.925781 162.535156 207.394531 C 162.90625 207.863281 163.292969 208.320312 163.691406 208.769531 C 164.089844 209.214844 164.503906 209.652344 164.925781 210.074219 C 165.347656 210.496094 165.785156 210.910156 166.230469 211.308594 C 166.679688 211.707031 167.136719 212.09375 167.605469 212.464844 C 168.074219 212.839844 168.554688 213.199219 169.042969 213.542969 C 169.535156 213.890625 170.035156 214.21875 170.542969 214.535156 C 171.050781 214.855469 171.566406 215.15625 172.09375 215.445312 C 172.617188 215.730469 173.152344 216.003906 173.695312 216.261719 C 174.234375 216.519531 174.78125 216.761719 175.335938 216.984375 C 175.894531 217.210938 176.453125 217.421875 177.019531 217.617188 C 177.585938 217.808594 178.160156 217.988281 178.738281 218.148438 C 179.3125 218.308594 179.894531 218.453125 180.480469 218.582031 C 181.066406 218.710938 181.65625 218.824219 182.246094 218.917969 C 182.835938 219.011719 183.429688 219.089844 184.027344 219.152344 C 184.625 219.210938 185.222656 219.257812 185.820312 219.28125 C 186.417969 219.308594 187.015625 219.320312 187.617188 219.3125 C 188.214844 219.304688 188.8125 219.28125 189.410156 219.238281 C 190.011719 219.199219 190.605469 219.140625 191.199219 219.0625 C 191.796875 218.988281 192.386719 218.898438 192.976562 218.789062 C 193.566406 218.679688 194.152344 218.554688 194.734375 218.410156 C 195.316406 218.269531 195.890625 218.109375 196.464844 217.933594 C 197.039062 217.757812 197.605469 217.566406 198.167969 217.359375 C 198.730469 217.152344 199.285156 216.929688 199.835938 216.6875 C 200.382812 216.449219 200.925781 216.195312 201.460938 215.925781 C 201.996094 215.652344 202.523438 215.367188 203.042969 215.070312 C 203.558594 214.769531 204.070312 214.453125 204.570312 214.125 C 205.070312 213.796875 205.5625 213.453125 206.042969 213.09375 C 206.523438 212.738281 206.996094 212.367188 207.453125 211.984375 C 207.914062 211.597656 208.363281 211.203125 208.800781 210.792969 C 209.238281 210.382812 209.664062 209.960938 210.078125 209.527344 C 210.488281 209.09375 210.890625 208.648438 211.277344 208.191406 C 211.667969 207.734375 212.042969 207.265625 212.402344 206.789062 C 212.765625 206.3125 213.113281 205.824219 213.445312 205.324219 C 213.777344 204.828125 214.097656 204.320312 214.402344 203.804688 L 276.195312 203.804688 C 276.730469 203.804688 277.261719 203.78125 277.792969 203.730469 C 278.324219 203.675781 278.851562 203.601562 279.375 203.496094 C 279.898438 203.394531 280.417969 203.265625 280.929688 203.113281 C 281.4375 202.957031 281.941406 202.777344 282.433594 202.574219 C 282.929688 202.371094 283.410156 202.144531 283.882812 201.894531 C 284.351562 201.644531 284.8125 201.371094 285.253906 201.074219 C 285.699219 200.78125 286.128906 200.464844 286.542969 200.125 C 286.957031 199.789062 287.351562 199.429688 287.730469 199.054688 C 288.109375 198.675781 288.464844 198.28125 288.804688 197.871094 C 289.144531 197.460938 289.464844 197.03125 289.761719 196.589844 C 290.058594 196.144531 290.335938 195.6875 290.585938 195.21875 C 290.839844 194.75 291.070312 194.265625 291.273438 193.773438 C 291.480469 193.28125 291.660156 192.78125 291.816406 192.269531 C 291.972656 191.757812 292.101562 191.242188 292.207031 190.71875 C 292.3125 190.195312 292.394531 189.667969 292.445312 189.136719 C 292.5 188.605469 292.527344 188.074219 292.53125 187.539062 C 292.53125 187.007812 292.507812 186.472656 292.453125 185.941406 C 292.402344 185.410156 292.328125 184.882812 292.222656 184.359375 C 292.121094 183.835938 291.992188 183.320312 291.839844 182.808594 C 291.6875 182.296875 291.507812 181.792969 291.304688 181.300781 C 291.101562 180.808594 290.875 180.324219 290.625 179.851562 C 290.375 179.382812 290.101562 178.921875 289.808594 178.480469 C 289.511719 178.035156 289.195312 177.605469 288.859375 177.191406 C 288.519531 176.777344 288.164062 176.382812 287.785156 176.003906 C 287.410156 175.625 287.015625 175.265625 286.605469 174.925781 C 286.191406 174.585938 285.765625 174.269531 285.324219 173.96875 C 284.878906 173.671875 284.421875 173.398438 283.953125 173.144531 C 283.484375 172.890625 283.003906 172.660156 282.511719 172.457031 C 282.015625 172.25 281.515625 172.070312 281.003906 171.914062 C 280.496094 171.753906 279.980469 171.625 279.457031 171.519531 C 278.933594 171.414062 278.40625 171.332031 277.875 171.277344 C 277.34375 171.226562 276.8125 171.199219 276.277344 171.195312 Z M 276.277344 171.195312 " fill-opacity="1" fill-rule="nonzero"/></svg>