<svg xmlns="http://www.w3.org/2000/svg" xmlns:xlink="http://www.w3.org/1999/xlink" width="500" zoomAndPan="magnify" viewBox="0 0 375 374.999991" height="500" preserveAspectRatio="xMidYMid meet" version="1.0"><defs><clipPath id="3eb1b9da64"><path d="M 187.5 0 C 83.945312 0 0 83.945312 0 187.5 C 0 291.054688 83.945312 375 187.5 375 C 291.054688 375 375 291.054688 375 187.5 C 375 83.945312 291.054688 0 187.5 0 Z M 187.5 0 " clip-rule="nonzero"/></clipPath><clipPath id="ca6471d0b5"><path d="M 152 80.5 L 245 80.5 L 245 158 L 152 158 Z M 152 80.5 " clip-rule="nonzero"/></clipPath><clipPath id="5bc1e304b6"><path d="M 90.933594 263 L 151 263 L 151 294 L 90.933594 294 Z M 90.933594 263 " clip-rule="nonzero"/></clipPath><clipPath id="4f70e499e4"><path d="M 157 264 L 217 264 L 217 294.25 L 157 294.25 Z M 157 264 " clip-rule="nonzero"/></clipPath><clipPath id="18675f6e4a"><path d="M 225 264 L 284.433594 264 L 284.433594 294.25 L 225 294.25 Z M 225 264 " clip-rule="nonzero"/></clipPath></defs><g clip-path="url(#3eb1b9da64)"><path stroke-linecap="butt" transform="matrix(0.75, 0, 0, 0.75, 0.0000045, 0)" fill="none" stroke-linejoin="miter" d="M 249.999994 0 C 111.927078 0 -0.000006 111.927084 -0.000006 250 C -0.000006 388.072917 111.927078 500.000001 249.999994 500.000001 C 388.072911 500.000001 499.999995 388.072917 499.999995 250 C 499.999995 111.927084 388.072911 0 249.999994 0 Z M 249.999994 0 " stroke="#000000" stroke-width="60" stroke-opacity="1" stroke-miterlimit="4"/></g><g clip-path="url(#ca6471d0b5)"><path fill="#040405" d="M 166.066406 156.734375 L 167.902344 140.441406 C 167.957031 139.984375 167.589844 139.578125 167.132812 139.59375 C 161.140625 139.742188 155.582031 140.386719 153.21875 133.621094 C 153.097656 133.253906 153.03125 132.894531 153.015625 132.515625 C 152.734375 119.695312 152.707031 105.929688 152.933594 91.199219 C 152.988281 87.523438 153.679688 84.914062 154.988281 83.367188 C 156.644531 81.414062 159.222656 80.460938 162.695312 80.5 C 183.03125 80.730469 207.3125 80.773438 235.542969 80.625 C 238.960938 80.609375 241.457031 81.792969 243.035156 84.203125 C 244.15625 85.898438 244.710938 88.65625 244.710938 92.488281 C 244.722656 105.703125 244.75 117.179688 244.792969 126.921875 C 244.816406 131.414062 244.304688 134.453125 243.265625 136.042969 C 241.714844 138.398438 238.890625 139.539062 234.789062 139.5 C 217.933594 139.3125 202.585938 139.214844 188.742188 139.203125 C 188.390625 139.203125 188.039062 139.335938 187.753906 139.566406 L 167.105469 157.285156 C 166.675781 157.664062 166 157.300781 166.066406 156.734375 M 185.109375 110.371094 C 185.109375 107.476562 182.75 105.125 179.847656 105.125 C 176.945312 105.125 174.582031 107.476562 174.582031 110.371094 C 174.582031 113.261719 176.945312 115.617188 179.847656 115.617188 C 182.75 115.617188 185.109375 113.261719 185.109375 110.371094 M 204.4375 110.382812 C 204.4375 107.421875 202.035156 105.03125 199.0625 105.03125 C 196.097656 105.03125 193.695312 107.421875 193.695312 110.382812 C 193.695312 113.34375 196.097656 115.738281 199.0625 115.738281 C 202.035156 115.738281 204.4375 113.34375 204.4375 110.382812 M 223.058594 110.410156 C 223.058594 107.488281 220.683594 105.125 217.757812 105.125 C 214.828125 105.125 212.453125 107.488281 212.453125 110.410156 C 212.453125 113.332031 214.828125 115.699219 217.757812 115.699219 C 220.683594 115.699219 223.058594 113.332031 223.058594 110.410156 Z M 223.058594 110.410156 " fill-opacity="1" fill-rule="nonzero"/></g><path fill="#040405" d="M 112.320312 124.066406 C 113.554688 115.859375 121.382812 110.222656 129.804688 111.480469 C 138.226562 112.742188 144.070312 120.410156 142.832031 128.613281 C 141.597656 136.824219 133.769531 142.460938 125.347656 141.203125 C 116.929688 139.941406 111.085938 132.273438 112.320312 124.066406 Z M 112.320312 124.066406 " fill-opacity="1" fill-rule="nonzero"/><path fill="#040405" d="M 126.660156 162.976562 C 126.820312 163.53125 127.589844 163.554688 127.777344 163.019531 L 131.449219 152.96875 C 131.636719 152.441406 131.515625 151.839844 131.140625 151.421875 L 129.535156 149.6875 C 128.464844 148.527344 129.007812 146.65625 130.519531 146.242188 C 137.925781 144.207031 143.773438 146.171875 148.035156 152.160156 C 151.007812 156.316406 153.867188 160.257812 156.632812 163.972656 C 156.917969 164.363281 157.375 164.59375 157.863281 164.59375 L 174.945312 164.59375 C 178.121094 164.59375 180.75 167.054688 180.925781 170.214844 L 180.953125 170.660156 C 181.195312 173.566406 178.902344 176.070312 175.972656 176.109375 C 168.347656 176.203125 161.898438 176.121094 156.621094 175.878906 C 154.597656 175.785156 152.746094 175.398438 151.085938 174.738281 C 150.910156 174.671875 150.75 174.5625 150.613281 174.414062 L 144.042969 167.28125 C 143.527344 166.71875 142.582031 167.082031 142.582031 167.847656 C 142.410156 185.351562 142.316406 201.859375 142.300781 217.34375 C 142.289062 223.820312 141.828125 229.441406 140.894531 234.191406 C 140.761719 234.929688 139.816406 235.160156 139.359375 234.570312 C 137.457031 232.132812 134.878906 228.566406 130.964844 227.128906 C 130.140625 226.832031 129.601562 226.050781 129.601562 225.175781 L 129.601562 199.898438 C 129.601562 199.046875 128.914062 198.363281 128.0625 198.363281 L 126.929688 198.363281 C 125.902344 198.363281 125.078125 199.183594 125.078125 200.203125 L 125.078125 224.316406 C 125.078125 224.734375 124.703125 225.058594 124.296875 224.988281 C 120.503906 224.453125 116.804688 224.773438 113.203125 225.957031 C 112.824219 226.078125 112.433594 225.8125 112.433594 225.40625 L 112.433594 197.273438 C 112.433594 196.832031 112.097656 196.453125 111.636719 196.410156 C 108.53125 196.085938 106.15625 194.785156 104.511719 192.480469 C 104.121094 191.917969 103.90625 191.246094 103.890625 190.558594 C 103.835938 179.339844 103.917969 168.640625 104.132812 158.472656 C 104.375 147.289062 114.054688 144.03125 123.621094 145.875 C 125.769531 146.292969 126.5625 148.917969 124.945312 150.207031 C 124.417969 150.625 124.039062 151.152344 123.8125 151.753906 C 123.675781 152.105469 123.660156 152.484375 123.769531 152.847656 Z M 126.660156 162.976562 " fill-opacity="1" fill-rule="nonzero"/><path fill="#040405" d="M 182.464844 197.851562 C 182.464844 203.945312 177.511719 208.882812 171.398438 208.882812 C 165.285156 208.882812 160.332031 203.945312 160.332031 197.851562 C 160.332031 191.757812 165.285156 186.820312 171.398438 186.820312 C 177.511719 186.820312 182.464844 191.757812 182.464844 197.851562 Z M 182.464844 197.851562 " fill-opacity="1" fill-rule="nonzero"/><path fill="#040405" d="M 230.265625 197.675781 C 230.265625 203.730469 225.34375 208.640625 219.269531 208.640625 C 213.195312 208.640625 208.269531 203.730469 208.269531 197.675781 C 208.269531 191.621094 213.195312 186.710938 219.269531 186.710938 C 225.339844 186.710938 230.265625 191.621094 230.265625 197.675781 Z M 230.265625 197.675781 " fill-opacity="1" fill-rule="nonzero"/><path fill="#040405" d="M 190.671875 221.828125 C 190.726562 222.945312 189.875 223.898438 188.742188 223.980469 C 183.652344 224.289062 179.28125 225.539062 175.636719 227.722656 C 173.664062 228.902344 172.019531 229.496094 170.695312 229.496094 C 164.582031 229.480469 158.738281 227.734375 153.070312 225.191406 C 151.855469 224.636719 151.113281 223.386719 151.25 222.054688 C 151.816406 216.121094 156.308594 210.324219 162.585938 209.382812 C 163.261719 209.289062 163.933594 209.382812 164.554688 209.675781 C 169.128906 211.871094 172.234375 213.082031 176.742188 210.285156 C 179.117188 208.804688 180.089844 208.992188 182.574219 210.230469 C 187.6875 212.757812 190.386719 216.621094 190.671875 221.828125 Z M 190.671875 221.828125 " fill-opacity="1" fill-rule="nonzero"/><path fill="#040405" d="M 219.351562 212.207031 C 221.480469 212.207031 223.765625 211.496094 226.148438 210.09375 C 227.3125 209.410156 228.457031 209.289062 229.59375 209.703125 C 234.816406 211.640625 238.121094 215.4375 239.484375 221.089844 C 239.8125 222.445312 239.253906 223.875 238.097656 224.652344 C 232.953125 228.121094 225.503906 229.617188 219.417969 229.644531 C 213.332031 229.671875 205.855469 228.230469 200.699219 224.800781 C 199.523438 224.03125 198.957031 222.621094 199.28125 221.25 C 200.589844 215.597656 203.855469 211.761719 209.066406 209.785156 C 210.199219 209.355469 211.347656 209.476562 212.507812 210.148438 C 214.921875 211.53125 217.203125 212.222656 219.351562 212.207031 Z M 219.351562 212.207031 " fill-opacity="1" fill-rule="nonzero"/><path fill="#040405" d="M 137.886719 246.328125 C 137.886719 255.625 130.328125 263.160156 121.003906 263.160156 C 111.679688 263.160156 104.121094 255.625 104.121094 246.328125 C 104.121094 237.03125 111.679688 229.496094 121.003906 229.496094 C 130.328125 229.496094 137.886719 237.03125 137.886719 246.328125 Z M 137.886719 246.328125 " fill-opacity="1" fill-rule="nonzero"/><path fill="#040405" d="M 204.640625 246.300781 C 204.640625 255.585938 197.09375 263.105469 187.78125 263.105469 C 178.46875 263.105469 170.925781 255.585938 170.925781 246.300781 C 170.925781 237.015625 178.46875 229.496094 187.78125 229.496094 C 197.09375 229.496094 204.640625 237.015625 204.640625 246.300781 Z M 204.640625 246.300781 " fill-opacity="1" fill-rule="nonzero"/><path fill="#040405" d="M 271.539062 246.222656 C 271.539062 255.53125 263.96875 263.078125 254.625 263.078125 C 245.289062 263.078125 237.71875 255.53125 237.71875 246.222656 C 237.71875 236.910156 245.289062 229.363281 254.625 229.363281 C 263.96875 229.363281 271.539062 236.910156 271.539062 246.222656 Z M 271.539062 246.222656 " fill-opacity="1" fill-rule="nonzero"/><g clip-path="url(#5bc1e304b6)"><path fill="#040405" d="M 120.613281 267.933594 C 123.988281 267.945312 127.414062 266.777344 130.925781 264.425781 C 131.515625 264.019531 132.246094 263.898438 132.921875 264.085938 C 142.003906 266.523438 150.113281 273.183594 150.085938 283.300781 C 150.085938 284.765625 149.304688 286.125 148.050781 286.878906 C 139.613281 291.898438 130.398438 294.011719 120.476562 293.953125 C 110.558594 293.902344 101.355469 291.683594 92.984375 286.582031 C 91.730469 285.820312 90.960938 284.457031 90.976562 282.988281 C 91.054688 272.871094 99.246094 266.292969 108.34375 263.953125 C 109.03125 263.777344 109.761719 263.910156 110.339844 264.316406 C 113.824219 266.710938 117.25 267.921875 120.613281 267.933594 Z M 120.613281 267.933594 " fill-opacity="1" fill-rule="nonzero"/></g><g clip-path="url(#4f70e499e4)"><path fill="#040405" d="M 187.539062 268.082031 C 190.914062 268.09375 194.339844 266.925781 197.851562 264.570312 C 198.429688 264.183594 199.160156 264.058594 199.847656 264.246094 C 208.902344 266.683594 217 273.34375 216.976562 283.449219 C 216.976562 284.914062 216.191406 286.273438 214.9375 287.027344 C 206.515625 292.019531 197.296875 294.132812 187.390625 294.0625 C 177.484375 294.011719 168.292969 291.789062 159.941406 286.691406 C 158.6875 285.925781 157.917969 284.566406 157.941406 283.097656 C 158.023438 272.992188 166.203125 266.429688 175.300781 264.101562 C 175.972656 263.925781 176.703125 264.046875 177.28125 264.449219 C 180.765625 266.847656 184.179688 268.054688 187.539062 268.082031 Z M 187.539062 268.082031 " fill-opacity="1" fill-rule="nonzero"/></g><g clip-path="url(#18675f6e4a)"><path fill="#040405" d="M 254.898438 268.230469 C 258.257812 268.246094 261.699219 267.074219 265.207031 264.707031 C 265.789062 264.300781 266.515625 264.183594 267.207031 264.371094 C 276.277344 266.792969 284.402344 273.4375 284.386719 283.554688 C 284.386719 285.019531 283.617188 286.382812 282.347656 287.148438 C 273.929688 292.164062 264.710938 294.292969 254.789062 294.253906 C 244.871094 294.210938 235.679688 292.003906 227.296875 286.917969 C 226.042969 286.152344 225.273438 284.792969 225.289062 283.328125 C 225.355469 273.210938 233.535156 266.617188 242.632812 264.277344 C 243.304688 264.101562 244.03125 264.222656 244.628906 264.625 C 248.109375 267.019531 251.535156 268.21875 254.898438 268.230469 Z M 254.898438 268.230469 " fill-opacity="1" fill-rule="nonzero"/></g></svg>