<svg xmlns="http://www.w3.org/2000/svg" xmlns:xlink="http://www.w3.org/1999/xlink" width="500" zoomAndPan="magnify" viewBox="0 0 375 374.999991" height="500" preserveAspectRatio="xMidYMid meet" version="1.0"><defs><clipPath id="aedfe2e2cf"><path d="M 3.28125 3.742188 L 371.53125 3.742188 L 371.53125 371.242188 L 3.28125 371.242188 Z M 3.28125 3.742188 " clip-rule="nonzero"/></clipPath></defs><g clip-path="url(#aedfe2e2cf)"><path fill="#000000" d="M 111.605469 3.742188 L 3.359375 112.039062 L 111.605469 220.335938 L 154.921875 220.335938 L 154.921875 148.136719 L 241.132812 148.136719 C 273.199219 148.136719 299.25 174.179688 299.25 206.234375 C 299.25 216.777344 296.394531 227.128906 290.980469 236.175781 L 232.253906 334.132812 L 294.082031 371.265625 L 352.855469 273.308594 C 365.003906 253.046875 371.414062 229.84375 371.414062 206.234375 C 371.414062 134.371094 312.984375 75.9375 241.132812 75.9375 L 154.921875 75.9375 L 154.921875 3.742188 Z M 111.605469 3.742188 " fill-opacity="1" fill-rule="nonzero"/></g></svg>