<svg xmlns="http://www.w3.org/2000/svg" xmlns:xlink="http://www.w3.org/1999/xlink" width="500" zoomAndPan="magnify" viewBox="0 0 375 374.999991" height="500" preserveAspectRatio="xMidYMid meet" version="1.0"><defs><clipPath id="f6f8447b66"><path d="M 23 2.316406 L 210 2.316406 L 210 321 L 23 321 Z M 23 2.316406 " clip-rule="nonzero"/></clipPath><clipPath id="1bfbae8d50"><path d="M 121 54 L 352 54 L 352 372.816406 L 121 372.816406 Z M 121 54 " clip-rule="nonzero"/></clipPath></defs><g clip-path="url(#f6f8447b66)"><path fill="#000000" d="M 147.597656 2.316406 C 152.28125 3.390625 157.066406 4.171875 161.753906 5.441406 C 181.476562 11.105469 197.097656 22.4375 209.203125 39.335938 C 171.90625 51.15625 146.523438 75.085938 135.976562 112.890625 C 125.238281 151.570312 137.246094 184.195312 165.269531 211.9375 C 126.117188 237.332031 100.636719 270.546875 102.980469 319.972656 C 101.613281 320.070312 100.539062 320.265625 99.464844 320.265625 C 86.871094 320.265625 74.273438 320.363281 61.582031 320.265625 C 41.859375 320.167969 27.117188 307.566406 23.699219 288.128906 C 23.601562 287.25 23.308594 286.464844 23.019531 285.683594 L 23.019531 252.667969 C 23.210938 251.691406 23.601562 250.714844 23.699219 249.738281 C 24.773438 238.113281 28.484375 227.273438 34.34375 217.308594 C 49.085938 192.402344 70.957031 176.1875 97.414062 165.636719 C 99.171875 164.953125 100.929688 164.269531 101.90625 163.878906 C 93.507812 156.84375 84.527344 150.398438 76.8125 142.683594 C 62.265625 128.03125 52.992188 110.253906 52.601562 88.957031 C 51.820312 50.082031 78.765625 14.917969 116.453125 5.246094 C 120.746094 4.171875 125.140625 3.292969 129.535156 2.316406 Z M 147.597656 2.316406 " fill-opacity="1" fill-rule="nonzero"/></g><g clip-path="url(#1bfbae8d50)"><path fill="#000000" d="M 200.902344 216.039062 C 195.144531 211.839844 189.1875 208.03125 183.816406 203.4375 C 167.804688 189.863281 155.699219 173.449219 152.183594 152.253906 C 148.183594 128.128906 154.332031 106.148438 169.757812 87.394531 C 191.824219 60.433594 220.820312 49.496094 254.894531 56.917969 C 290.824219 64.734375 313.082031 88.078125 321.089844 124.023438 C 327.242188 151.472656 318.160156 174.917969 299.21875 194.648438 C 292.09375 201.972656 283.304688 207.738281 275.203125 214.183594 C 274.421875 214.769531 273.640625 215.257812 272.371094 216.039062 C 276.960938 217.992188 281.253906 219.554688 285.355469 221.507812 C 310.351562 233.230469 330.753906 249.933594 343.546875 274.941406 C 348.914062 285.390625 351.941406 296.527344 351.550781 308.445312 C 351.257812 317.917969 351.453125 327.394531 351.453125 336.96875 C 351.453125 353.867188 338.957031 369.007812 322.359375 372.132812 C 319.820312 372.621094 317.183594 372.816406 314.546875 372.816406 L 159.019531 372.816406 C 139.296875 372.816406 122.601562 357.675781 122.015625 337.945312 C 121.625 323.878906 121.332031 309.617188 123.382812 295.746094 C 126.605469 274.160156 139.199219 257.261719 155.210938 242.902344 C 167.707031 231.667969 182.0625 223.464844 197.78125 217.601562 C 198.757812 217.210938 199.632812 216.917969 200.511719 216.527344 C 200.804688 216.429688 200.902344 216.136719 200.902344 216.039062 Z M 200.902344 216.039062 " fill-opacity="1" fill-rule="nonzero"/></g></svg>