<svg xmlns="http://www.w3.org/2000/svg" xmlns:xlink="http://www.w3.org/1999/xlink" width="500" zoomAndPan="magnify" viewBox="0 0 375 374.999991" height="500" preserveAspectRatio="xMidYMid meet" version="1.0"><defs><clipPath id="f677cec83e"><path d="M 17.765625 71.773438 L 357.515625 71.773438 L 357.515625 303.523438 L 17.765625 303.523438 Z M 17.765625 71.773438 " clip-rule="nonzero"/></clipPath></defs><g clip-path="url(#f677cec83e)"><path fill="#000000" d="M 187.640625 71.773438 C 110.425781 71.773438 44.484375 119.824219 17.769531 187.648438 C 44.484375 255.472656 110.425781 303.523438 187.640625 303.523438 C 264.855469 303.523438 330.796875 255.472656 357.515625 187.648438 C 330.796875 119.824219 264.933594 71.773438 187.640625 71.773438 Z M 187.640625 264.898438 C 145.019531 264.898438 110.425781 230.289062 110.425781 187.648438 C 110.425781 145.007812 145.019531 110.398438 187.640625 110.398438 C 230.265625 110.398438 264.855469 145.007812 264.855469 187.648438 C 264.855469 230.289062 230.265625 264.898438 187.640625 264.898438 Z M 187.640625 141.296875 C 162.082031 141.296875 141.3125 162.078125 141.3125 187.648438 C 141.3125 213.21875 162.082031 233.996094 187.640625 233.996094 C 213.199219 233.996094 233.972656 213.21875 233.972656 187.648438 C 233.972656 162.078125 213.199219 141.296875 187.640625 141.296875 Z M 187.640625 141.296875 " fill-opacity="1" fill-rule="nonzero"/></g></svg>