<svg xmlns="http://www.w3.org/2000/svg" xmlns:xlink="http://www.w3.org/1999/xlink" width="500" zoomAndPan="magnify" viewBox="0 0 375 374.999991" height="500" preserveAspectRatio="xMidYMid meet" version="1.0"><defs><clipPath id="16febb077e"><path d="M 2 72.613281 L 374 72.613281 L 374 302 L 2 302 Z M 2 72.613281 " clip-rule="nonzero"/></clipPath></defs><g clip-path="url(#16febb077e)"><path fill="#000000" d="M 371.183594 178.398438 C 333.515625 113.25 263.359375 72.78125 188.097656 72.78125 C 112.835938 72.78125 42.679688 113.25 5.015625 178.398438 C 1.800781 183.945312 1.800781 190.785156 5.015625 196.328125 C 42.679688 261.476562 112.835938 301.945312 188.097656 301.945312 C 263.359375 301.945312 333.515625 261.476562 371.183594 196.328125 C 374.394531 190.785156 374.394531 183.945312 371.183594 178.398438 Z M 188.097656 266.085938 C 129.140625 266.085938 73.964844 236.179688 41.652344 187.363281 C 73.964844 138.546875 129.140625 108.640625 188.097656 108.640625 C 247.058594 108.640625 302.230469 138.546875 334.542969 187.363281 C 302.230469 236.179688 247.058594 266.085938 188.097656 266.085938 Z M 188.097656 266.085938 " fill-opacity="1" fill-rule="nonzero"/></g><path fill="#000000" d="M 188.097656 116.285156 C 148.867188 116.285156 116.9375 148.175781 116.9375 187.363281 C 116.9375 226.550781 148.867188 258.441406 188.097656 258.441406 C 227.332031 258.441406 259.257812 226.550781 259.257812 187.363281 C 259.257812 148.175781 227.332031 116.285156 188.097656 116.285156 Z M 188.097656 222.582031 C 168.652344 222.582031 152.839844 206.789062 152.839844 187.363281 C 152.839844 167.941406 168.652344 152.144531 188.097656 152.144531 C 207.546875 152.144531 223.355469 167.941406 223.355469 187.363281 C 223.355469 206.789062 207.546875 222.582031 188.097656 222.582031 Z M 188.097656 222.582031 " fill-opacity="1" fill-rule="nonzero"/></svg>