<svg xmlns="http://www.w3.org/2000/svg" xmlns:xlink="http://www.w3.org/1999/xlink" width="500" zoomAndPan="magnify" viewBox="0 0 375 374.999991" height="500" preserveAspectRatio="xMidYMid meet" version="1.0"><defs><clipPath id="9da919fda0"><path d="M 167 159 L 374.222656 159 L 374.222656 366.410156 L 167 366.410156 Z M 167 159 " clip-rule="nonzero"/></clipPath><clipPath id="ab8b1c4fe7"><path d="M 0.722656 8.660156 L 127 8.660156 L 127 135 L 0.722656 135 Z M 0.722656 8.660156 " clip-rule="nonzero"/></clipPath></defs><path fill="#000000" d="M 156.332031 189.941406 C 156.230469 189.941406 156.230469 189.941406 156.332031 189.941406 C 154.660156 189.941406 153.1875 189.253906 152.105469 188.171875 L 111.433594 145.722656 C 103.675781 137.566406 103.871094 124.886719 111.828125 117.027344 L 125.089844 103.761719 C 133.046875 95.800781 145.621094 95.605469 153.777344 103.367188 L 196.214844 144.148438 C 197.394531 145.230469 197.984375 146.703125 197.984375 148.277344 C 197.984375 149.847656 197.394531 151.324219 196.3125 152.5 L 160.554688 188.273438 C 159.277344 189.351562 157.804688 189.941406 156.332031 189.941406 Z M 139.53125 109.359375 C 137.273438 109.359375 135.011719 110.246094 133.246094 112.015625 L 119.980469 125.28125 C 116.542969 128.71875 116.445312 134.222656 119.785156 137.664062 L 156.332031 175.792969 L 183.738281 148.375 L 145.621094 111.816406 C 143.953125 110.246094 141.691406 109.359375 139.53125 109.359375 Z M 139.53125 109.359375 " fill-opacity="1" fill-rule="nonzero"/><g clip-path="url(#9da919fda0)"><path fill="#000000" d="M 330.015625 366.238281 C 329.917969 366.238281 329.816406 366.238281 329.71875 366.238281 C 324.121094 366.140625 318.914062 363.878906 315.082031 359.75 L 169.394531 206.453125 C 167.234375 204.191406 167.234375 200.554688 169.492188 198.296875 L 206.332031 161.445312 C 208.59375 159.183594 212.226562 159.183594 214.488281 161.347656 L 367.738281 307.078125 C 371.765625 310.910156 374.125 316.121094 374.222656 321.722656 C 374.320312 327.324219 372.160156 332.628906 368.230469 336.558594 L 344.652344 360.144531 C 340.625 364.175781 335.515625 366.238281 330.015625 366.238281 Z M 181.773438 202.617188 L 323.53125 351.792969 C 325.199219 353.5625 327.460938 354.542969 329.917969 354.640625 C 332.46875 354.738281 334.632812 353.757812 336.300781 351.988281 L 359.878906 328.402344 C 361.546875 326.734375 362.53125 324.375 362.53125 322.015625 C 362.53125 319.558594 361.546875 317.300781 359.78125 315.628906 L 210.558594 173.824219 Z M 181.773438 202.617188 " fill-opacity="1" fill-rule="nonzero"/></g><g clip-path="url(#ab8b1c4fe7)"><path fill="#000000" d="M 63.398438 134.222656 C 59.074219 134.222656 55.339844 131.273438 54.457031 126.953125 L 47.484375 93.738281 C 46.796875 90.59375 44.339844 88.136719 41.195312 87.445312 L 7.992188 80.46875 C 3.765625 79.585938 0.722656 75.949219 0.722656 71.527344 C 0.722656 67.203125 3.667969 63.46875 7.992188 62.585938 L 41.195312 55.609375 C 44.339844 54.921875 46.796875 52.464844 47.484375 49.320312 L 54.457031 16.105469 C 55.339844 11.878906 59.074219 8.832031 63.398438 8.832031 C 67.71875 8.832031 71.453125 11.78125 72.335938 16.105469 L 79.3125 49.320312 C 80 52.464844 82.457031 54.921875 85.597656 55.609375 L 118.804688 62.585938 C 123.027344 63.46875 126.074219 67.203125 126.074219 71.527344 C 126.074219 75.851562 123.125 79.585938 118.804688 80.46875 L 85.597656 87.445312 C 82.457031 88.136719 80 90.59375 79.3125 93.738281 L 72.335938 126.953125 C 71.453125 131.175781 67.71875 134.222656 63.398438 134.222656 Z M 22.234375 71.527344 L 43.652344 76.046875 C 51.3125 77.621094 57.304688 83.714844 58.976562 91.378906 L 63.496094 112.800781 L 68.015625 91.378906 C 69.585938 83.714844 75.675781 77.71875 83.339844 76.046875 L 104.753906 71.527344 L 83.339844 67.007812 C 75.675781 65.433594 69.683594 59.34375 68.015625 51.675781 L 63.398438 30.351562 L 58.878906 51.777344 C 57.304688 59.441406 51.214844 65.433594 43.554688 67.105469 Z M 10.445312 73.984375 Z M 10.445312 73.984375 " fill-opacity="1" fill-rule="nonzero"/></g><path fill="#000000" d="M 105.738281 260.304688 C 103.578125 260.304688 101.414062 259.714844 99.449219 258.4375 L 76.265625 243.300781 C 72.238281 240.648438 67.128906 240.746094 63.101562 243.402344 L 39.917969 258.4375 C 35.398438 261.382812 29.40625 260.792969 25.476562 256.960938 C 21.546875 253.03125 20.859375 247.035156 23.808594 242.417969 L 38.9375 219.226562 C 41.589844 215.199219 41.589844 209.988281 38.9375 205.960938 L 23.808594 182.867188 C 23.808594 182.867188 23.808594 182.867188 23.808594 182.769531 C 20.859375 178.050781 21.546875 172.15625 25.476562 168.226562 C 29.40625 164.390625 35.300781 163.800781 39.917969 166.75 L 63.101562 181.785156 C 67.128906 184.4375 72.335938 184.4375 76.363281 181.882812 L 99.449219 166.75 C 104.164062 163.703125 110.160156 164.390625 114.085938 168.324219 C 117.917969 172.253906 118.507812 178.25 115.464844 182.867188 L 100.433594 205.960938 C 97.878906 209.890625 97.878906 215.199219 100.433594 219.128906 L 115.464844 242.320312 C 118.507812 246.839844 117.917969 252.835938 114.085938 256.765625 C 111.730469 259.125 108.78125 260.304688 105.738281 260.304688 Z M 33.730469 176.675781 L 48.660156 199.574219 C 53.867188 207.433594 53.867188 217.753906 48.660156 225.613281 L 33.53125 248.707031 L 56.617188 233.574219 C 64.476562 228.367188 74.695312 228.367188 82.554688 233.476562 L 105.640625 248.609375 L 90.511719 225.515625 C 85.402344 217.652344 85.402344 207.53125 90.511719 199.574219 L 105.542969 176.382812 L 82.554688 191.515625 C 74.695312 196.722656 64.476562 196.625 56.519531 191.417969 Z M 33.730469 176.675781 " fill-opacity="1" fill-rule="nonzero"/><path fill="#000000" d="M 235.804688 97.273438 C 233.839844 97.273438 231.777344 96.683594 230.007812 95.503906 L 210.949219 83.023438 C 208.003906 81.058594 204.269531 81.058594 201.226562 83.023438 L 182.265625 95.40625 C 178.039062 98.160156 172.539062 97.570312 169.003906 94.03125 C 165.464844 90.492188 164.875 84.992188 167.628906 80.765625 L 180.003906 61.699219 C 181.96875 58.753906 181.96875 54.921875 180.003906 51.972656 L 167.628906 32.90625 C 164.875 28.683594 165.464844 23.179688 169.003906 19.640625 C 172.636719 16.003906 178.039062 15.515625 182.265625 18.265625 L 201.226562 30.746094 C 204.171875 32.710938 208.003906 32.710938 210.949219 30.746094 L 229.910156 18.363281 C 234.132812 15.613281 239.636719 16.105469 243.171875 19.738281 C 246.707031 23.277344 247.296875 28.78125 244.546875 33.007812 L 232.167969 51.972656 C 230.203125 54.921875 230.203125 58.753906 232.167969 61.699219 L 244.644531 80.765625 C 247.691406 85.480469 246.707031 91.378906 242.289062 94.914062 C 240.324219 96.488281 238.0625 97.273438 235.804688 97.273438 Z M 206.136719 69.957031 C 210.066406 69.957031 213.996094 71.035156 217.335938 73.296875 L 232.167969 82.925781 L 222.445312 68.089844 C 218.023438 61.308594 218.023438 52.464844 222.445312 45.683594 L 232.070312 30.941406 L 217.335938 40.574219 C 210.460938 45.09375 201.617188 44.996094 194.839844 40.472656 L 180.105469 30.84375 L 189.730469 45.683594 C 194.25 52.464844 194.25 61.308594 189.730469 68.1875 L 180.105469 82.925781 L 194.839844 73.296875 C 198.277344 71.035156 202.207031 69.957031 206.136719 69.957031 Z M 206.136719 69.957031 " fill-opacity="1" fill-rule="nonzero"/></svg>