<svg xmlns="http://www.w3.org/2000/svg" xmlns:xlink="http://www.w3.org/1999/xlink" width="500" zoomAndPan="magnify" viewBox="0 0 375 374.999991" height="500" preserveAspectRatio="xMidYMid meet" version="1.0"><defs><clipPath id="4f8674a06e"><path d="M 8.378906 7.289062 L 120.878906 7.289062 L 120.878906 37.5 L 8.378906 37.5 Z M 8.378906 7.289062 " clip-rule="nonzero"/></clipPath><clipPath id="06a2ef2284"><path d="M 0.378906 0.289062 L 112.878906 0.289062 L 112.878906 30.5 L 0.378906 30.5 Z M 0.378906 0.289062 " clip-rule="nonzero"/></clipPath><clipPath id="8e374f607b"><rect x="0" width="113" y="0" height="31"/></clipPath><clipPath id="f962aa6e7d"><path d="M 7.296875 7.285156 L 37.503906 7.285156 L 37.503906 119.785156 L 7.296875 119.785156 Z M 7.296875 7.285156 " clip-rule="nonzero"/></clipPath><clipPath id="140a3aa62c"><path d="M 0.296875 0.285156 L 30.503906 0.285156 L 30.503906 112.785156 L 0.296875 112.785156 Z M 0.296875 0.285156 " clip-rule="nonzero"/></clipPath><clipPath id="9fe85f49a4"><rect x="0" width="31" y="0" height="113"/></clipPath><clipPath id="0265dd1381"><path d="M 335.835938 8.386719 L 366.046875 8.386719 L 366.046875 120.886719 L 335.835938 120.886719 Z M 335.835938 8.386719 " clip-rule="nonzero"/></clipPath><clipPath id="eeae54d062"><path d="M 0.835938 0.386719 L 31.046875 0.386719 L 31.046875 112.886719 L 0.835938 112.886719 Z M 0.835938 0.386719 " clip-rule="nonzero"/></clipPath><clipPath id="e961f8fedb"><rect x="0" width="32" y="0" height="113"/></clipPath><clipPath id="1df159ab0f"><path d="M 253.550781 7.300781 L 366.050781 7.300781 L 366.050781 37.511719 L 253.550781 37.511719 Z M 253.550781 7.300781 " clip-rule="nonzero"/></clipPath><clipPath id="29b4b2ad30"><path d="M 0.550781 0.300781 L 113.050781 0.300781 L 113.050781 30.511719 L 0.550781 30.511719 Z M 0.550781 0.300781 " clip-rule="nonzero"/></clipPath><clipPath id="c0abf1c0b2"><rect x="0" width="114" y="0" height="31"/></clipPath><clipPath id="0d4494c117"><path d="M 252.449219 336.96875 L 364.949219 336.96875 L 364.949219 367.179688 L 252.449219 367.179688 Z M 252.449219 336.96875 " clip-rule="nonzero"/></clipPath><clipPath id="c0bb06a04c"><path d="M 0.449219 0.96875 L 112.949219 0.96875 L 112.949219 31.179688 L 0.449219 31.179688 Z M 0.449219 0.96875 " clip-rule="nonzero"/></clipPath><clipPath id="86830ec06e"><rect x="0" width="113" y="0" height="32"/></clipPath><clipPath id="2801a9d5ae"><path d="M 335.824219 254.683594 L 366.035156 254.683594 L 366.035156 367.183594 L 335.824219 367.183594 Z M 335.824219 254.683594 " clip-rule="nonzero"/></clipPath><clipPath id="a7e8a14cfc"><path d="M 0.824219 0.683594 L 31.035156 0.683594 L 31.035156 113.183594 L 0.824219 113.183594 Z M 0.824219 0.683594 " clip-rule="nonzero"/></clipPath><clipPath id="975c674678"><rect x="0" width="32" y="0" height="114"/></clipPath><clipPath id="128059be19"><path d="M 7.285156 253.582031 L 37.496094 253.582031 L 37.496094 366.082031 L 7.285156 366.082031 Z M 7.285156 253.582031 " clip-rule="nonzero"/></clipPath><clipPath id="0c687b3c88"><path d="M 0.285156 0.582031 L 30.496094 0.582031 L 30.496094 113.082031 L 0.285156 113.082031 Z M 0.285156 0.582031 " clip-rule="nonzero"/></clipPath><clipPath id="69b5dd936b"><rect x="0" width="31" y="0" height="114"/></clipPath><clipPath id="78ad6f159e"><path d="M 7.277344 336.957031 L 119.777344 336.957031 L 119.777344 367.167969 L 7.277344 367.167969 Z M 7.277344 336.957031 " clip-rule="nonzero"/></clipPath><clipPath id="683cfbee37"><path d="M 0.277344 0.957031 L 112.777344 0.957031 L 112.777344 31.167969 L 0.277344 31.167969 Z M 0.277344 0.957031 " clip-rule="nonzero"/></clipPath><clipPath id="c51c9c5f2a"><rect x="0" width="113" y="0" height="32"/></clipPath><clipPath id="240050700b"><path d="M 42.984375 44.488281 L 258 44.488281 L 258 259 L 42.984375 259 Z M 42.984375 44.488281 " clip-rule="nonzero"/></clipPath></defs><g clip-path="url(#4f8674a06e)"><g transform="matrix(1, 0, 0, 1, 8, 7)"><g clip-path="url(#8e374f607b)"><g clip-path="url(#06a2ef2284)"><path fill="#212121" d="M 0.378906 0.289062 L 112.84375 0.289062 L 112.84375 30.5 L 0.378906 30.5 Z M 0.378906 0.289062 " fill-opacity="1" fill-rule="nonzero"/></g></g></g></g><g clip-path="url(#f962aa6e7d)"><g transform="matrix(1, 0, 0, 1, 7, 7)"><g clip-path="url(#9fe85f49a4)"><g clip-path="url(#140a3aa62c)"><path fill="#212121" d="M 0.296875 112.785156 L 0.296875 0.320312 L 30.503906 0.320312 L 30.503906 112.785156 Z M 0.296875 112.785156 " fill-opacity="1" fill-rule="nonzero"/></g></g></g></g><g clip-path="url(#0265dd1381)"><g transform="matrix(1, 0, 0, 1, 335, 8)"><g clip-path="url(#e961f8fedb)"><g clip-path="url(#eeae54d062)"><path fill="#212121" d="M 31.046875 0.386719 L 31.046875 112.847656 L 0.835938 112.847656 L 0.835938 0.386719 Z M 31.046875 0.386719 " fill-opacity="1" fill-rule="nonzero"/></g></g></g></g><g clip-path="url(#1df159ab0f)"><g transform="matrix(1, 0, 0, 1, 253, 7)"><g clip-path="url(#c0abf1c0b2)"><g clip-path="url(#29b4b2ad30)"><path fill="#212121" d="M 0.550781 0.300781 L 113.015625 0.300781 L 113.015625 30.511719 L 0.550781 30.511719 Z M 0.550781 0.300781 " fill-opacity="1" fill-rule="nonzero"/></g></g></g></g><g clip-path="url(#0d4494c117)"><g transform="matrix(1, 0, 0, 1, 252, 336)"><g clip-path="url(#86830ec06e)"><g clip-path="url(#c0bb06a04c)"><path fill="#212121" d="M 112.949219 31.179688 L 0.488281 31.179688 L 0.488281 0.96875 L 112.949219 0.96875 Z M 112.949219 31.179688 " fill-opacity="1" fill-rule="nonzero"/></g></g></g></g><g clip-path="url(#2801a9d5ae)"><g transform="matrix(1, 0, 0, 1, 335, 254)"><g clip-path="url(#975c674678)"><g clip-path="url(#a7e8a14cfc)"><path fill="#212121" d="M 31.035156 0.683594 L 31.035156 113.148438 L 0.824219 113.148438 L 0.824219 0.683594 Z M 31.035156 0.683594 " fill-opacity="1" fill-rule="nonzero"/></g></g></g></g><g clip-path="url(#128059be19)"><g transform="matrix(1, 0, 0, 1, 7, 253)"><g clip-path="url(#69b5dd936b)"><g clip-path="url(#0c687b3c88)"><path fill="#212121" d="M 0.285156 113.082031 L 0.285156 0.621094 L 30.496094 0.621094 L 30.496094 113.082031 Z M 0.285156 113.082031 " fill-opacity="1" fill-rule="nonzero"/></g></g></g></g><g clip-path="url(#78ad6f159e)"><g transform="matrix(1, 0, 0, 1, 7, 336)"><g clip-path="url(#c51c9c5f2a)"><g clip-path="url(#683cfbee37)"><path fill="#212121" d="M 112.777344 31.167969 L 0.316406 31.167969 L 0.316406 0.957031 L 112.777344 0.957031 Z M 112.777344 31.167969 " fill-opacity="1" fill-rule="nonzero"/></g></g></g></g><path fill="#000000" d="M 320.507812 284.246094 L 258.023438 214.519531 C 248.269531 229.679688 228.316406 248.742188 213.15625 258.496094 L 282.714844 321.980469 C 293.195312 332.460938 310.140625 332.460938 320.5625 321.980469 C 330.984375 311.613281 330.984375 294.671875 320.507812 284.246094 Z M 320.507812 284.246094 " fill-opacity="1" fill-rule="nonzero"/><g clip-path="url(#240050700b)"><path fill="#000000" d="M 257.019531 151.535156 C 257.019531 92.453125 209.085938 44.515625 150.003906 44.515625 C 90.921875 44.515625 42.984375 92.453125 42.984375 151.535156 C 42.984375 210.617188 90.921875 258.550781 150.003906 258.550781 C 209.085938 258.550781 257.019531 210.617188 257.019531 151.535156 Z M 150.003906 231.796875 C 105.746094 231.796875 69.742188 195.789062 69.742188 151.535156 C 69.742188 107.277344 105.746094 71.269531 150.003906 71.269531 C 194.261719 71.269531 230.265625 107.277344 230.265625 151.535156 C 230.265625 195.789062 194.261719 231.796875 150.003906 231.796875 Z M 150.003906 231.796875 " fill-opacity="1" fill-rule="nonzero"/></g></svg>